<svg width="10" height="10" viewBox="0 0 15 16" fill="none" xmlns="http://www.w3.org/2000/svg">
<path fill-rule="evenodd" clip-rule="evenodd" d="M13.7437 2.29136C12.0922 2.8919 7.59811 3.4129 3.44114 0.389648L2.55888 1.60275C5.40879 3.67541 8.40797 4.27029 10.7655 4.25117L0.0839844 11.3722L0.916035 12.6202L12.0209 5.21701C11.5942 6.18208 11.1841 7.26253 10.8662 8.37819C10.2169 10.657 9.90344 13.2506 10.8147 15.3008L12.1854 14.6916C11.4966 13.1418 11.6831 10.9854 12.3088 8.78921C12.9243 6.62891 13.9178 4.59213 14.6399 3.38749C14.7547 3.19952 14.786 2.96297 14.7049 2.73989C14.5633 2.35062 14.133 2.1498 13.7437 2.29136Z" fill="black"/>
</svg>
