<svg width="26" height="28" viewBox="0 0 26 28" fill="none" xmlns="http://www.w3.org/2000/svg">
<path fill-rule="evenodd" clip-rule="evenodd" d="M23.4989 1.14552C20.5313 3.0285 11.9772 5.97816 2.55788 1.86007L1.35612 4.60884C7.81548 7.43286 13.9309 7.30462 18.5279 6.25301L0.72177 24.758L2.88352 26.8381L21.3914 7.60384C20.9729 9.67228 20.6363 11.959 20.4951 14.2748C20.2065 19.0051 20.7092 24.2057 23.3704 27.8186L25.7858 26.0394C23.7742 23.3084 23.2114 19.0161 23.4895 14.4574C23.7634 9.9665 24.8311 5.55458 25.7245 2.89243L25.7238 2.89198C25.8634 2.47772 25.8216 2.0063 25.5691 1.60843C25.1253 0.908934 24.1984 0.701682 23.4989 1.14552Z" fill="#A3D95D"/>
</svg>
