<svg width="19" height="15" viewBox="0 0 19 15" fill="none" xmlns="http://www.w3.org/2000/svg">
<g clip-path="url(#clip0_51_7)">
<path d="M7.8745 5.83448C7.8745 6.31792 7.67696 6.78157 7.32533 7.12341C6.97369 7.46526 6.49678 7.6573 5.9995 7.6573C5.50222 7.6573 5.02531 7.46526 4.67368 7.12341C4.32204 6.78157 4.1245 6.31792 4.1245 5.83448C4.1245 5.35104 4.32204 4.8874 4.67368 4.54555C5.02531 4.2037 5.50222 4.01166 5.9995 4.01166C6.49678 4.01166 6.97369 4.2037 7.32533 4.54555C7.67696 4.8874 7.8745 5.35104 7.8745 5.83448ZM2.25 12.697C2.26607 11.7406 2.66817 10.8286 3.36959 10.1578C4.07101 9.4869 5.01554 9.11093 5.9995 9.11093C6.98346 9.11093 7.92799 9.4869 8.62941 10.1578C9.33083 10.8286 9.73293 11.7406 9.749 12.697C8.5727 13.2214 7.29357 13.492 5.9995 13.4903C4.6615 13.4903 3.3915 13.2065 2.25 12.697Z" stroke="black" stroke-width="1.2" stroke-linecap="round" stroke-linejoin="round"/>
</g>
<path d="M5 1.64522C5 0.737776 5.83708 0 6.86667 0H17.1333C18.1629 0 19 0.737776 19 1.64522V9.04868C19 9.95612 18.1629 10.6939 17.1333 10.6939H10.1567C9.8125 10.0384 9.28458 9.47284 8.62833 9.04868H11.5333V8.22608C11.5333 7.77107 11.9504 7.40347 12.4667 7.40347H14.3333C14.8496 7.40347 15.2667 7.77107 15.2667 8.22608V9.04868H17.1333V1.64522H6.86667V2.9074C6.31833 2.6272 5.67958 2.46782 5 2.46782V1.64522Z" fill="#060606"/>
<defs>
<clipPath id="clip0_51_7">
<rect width="12" height="11.6661" fill="white" transform="translate(0 2.91797)"/>
</clipPath>
</defs>
</svg>
