<svg width="178" height="174" viewBox="0 0 178 174" fill="none" xmlns="http://www.w3.org/2000/svg">
<path d="M15.0156 59.7101C27.0114 57.4484 39.1561 56.0109 51.3597 55.4081C52.8869 55.3285 54.4106 55.2766 55.9378 55.2109C57.4651 55.1451 58.9923 55.1347 60.516 55.0932C62.0397 55.0517 63.5705 55.069 65.0977 55.0586C65.8631 55.0586 66.6249 55.0586 67.3903 55.0586C68.1557 55.0586 68.9247 55.1105 69.6865 55.1693C72.7375 55.4012 75.767 55.8338 78.7788 56.3218C81.7905 56.8098 84.7952 57.3601 87.7856 57.9623C99.7472 60.385 111.602 63.261 123.421 66.2478C129.326 67.7498 135.224 69.2888 141.114 70.8647C147.005 72.4406 152.878 74.0649 158.733 75.7377C152.856 74.1226 146.968 72.5513 141.068 71.0239C135.168 69.4965 129.266 67.9783 123.361 66.4693C111.534 63.5206 99.6795 60.6757 87.7179 58.298C84.7275 57.7131 81.7336 57.1352 78.7254 56.6437C75.7172 56.1522 72.6983 55.7058 69.6616 55.467C68.9045 55.4047 68.1462 55.3655 67.3868 55.3493C66.6249 55.3493 65.8595 55.3493 65.0977 55.3493C63.574 55.3493 62.0468 55.3251 60.5231 55.3701C58.9994 55.4151 57.4722 55.4116 55.9449 55.4704C54.4177 55.5293 52.8976 55.5777 51.3739 55.6504C45.2768 55.9457 39.1951 56.436 33.1289 57.1213C27.0555 57.7823 21.0035 58.5991 15.0156 59.7101Z" fill="#EBEBEB"/>
<path d="M15.9902 52.0226C22.0422 51.8737 28.0942 51.7768 34.1462 51.7007C40.1982 51.6246 46.2502 51.6211 52.3022 51.6211L61.3838 51.6522L65.9228 51.6834C66.6811 51.6834 67.4358 51.6834 68.1941 51.7145C68.9524 51.7457 69.7106 51.7595 70.4654 51.8149C73.4914 52.0087 76.5173 52.3306 79.5077 52.7078C82.4981 53.0851 85.5099 53.4935 88.5003 53.9538C100.458 55.7915 112.352 57.9823 124.236 60.2423C130.169 61.3821 136.102 62.5496 142.036 63.7447C147.969 64.9399 153.887 66.1766 159.789 67.4549C153.856 66.2435 147.923 65.0611 141.989 63.9074C136.056 62.7538 130.123 61.607 124.189 60.4672C112.306 58.2522 100.391 56.0926 88.4434 54.2964C85.4565 53.843 82.4625 53.4139 79.465 53.0297C76.4675 52.6455 73.4593 52.3167 70.4476 52.1125C69.6928 52.0537 68.9417 52.0295 68.187 52.0053C67.4322 51.981 66.674 51.981 65.9192 51.9672L61.3802 51.9187L52.3022 51.8599C46.2502 51.8391 40.1982 51.8461 34.1462 51.8807C28.0942 51.898 22.0422 51.936 15.9902 52.0226Z" fill="#EBEBEB"/>
<path d="M17.1191 43.1562L35.1541 44.5406L53.1819 45.9769L62.1959 46.6933C65.2005 46.9356 68.2087 47.1502 71.2098 47.4582C72.7121 47.5897 74.2073 47.7801 75.7061 47.9393C77.2048 48.0985 78.7036 48.2854 80.1988 48.4584C83.1916 48.816 86.1819 49.1875 89.17 49.5728C101.124 51.1337 113.061 52.8088 124.994 54.5047L142.887 57.083L160.765 59.7618L124.955 54.7227C113.018 53.0649 101.078 51.4279 89.1201 49.9051C83.1465 49.1402 77.1657 48.3719 71.1742 47.7454C68.1802 47.4305 65.172 47.2021 62.1709 46.9494L53.157 46.2019L35.1363 44.7067L17.1191 43.1562Z" fill="#EBEBEB"/>
<path d="M18.6895 30.8142C24.4887 32.4685 30.3378 33.9533 36.2011 35.3653C42.0644 36.7774 47.9491 38.1341 53.8623 39.3385L58.298 40.2314L62.7444 41.0828C64.2254 41.3701 65.7135 41.6192 67.198 41.8927C68.6825 42.1661 70.1706 42.4118 71.6623 42.6298C77.6324 43.502 83.6416 44.1423 89.6474 44.7791C101.662 46.0458 113.699 47.1187 125.739 48.1466L143.802 49.6278L161.873 51.0711L143.788 49.794C137.764 49.3325 131.741 48.8584 125.717 48.3715C113.674 47.3852 101.634 46.3469 89.6118 45.1183C86.6048 44.8091 83.6013 44.4734 80.6014 44.1111C77.6003 43.765 74.6028 43.3705 71.616 42.9206C70.1208 42.6991 68.6291 42.4429 67.1446 42.1661C65.6601 41.8892 64.172 41.6365 62.6911 41.3424L58.2482 40.4771L53.8088 39.5634C42.0074 37.082 30.2595 34.2128 18.6895 30.8142Z" fill="#EBEBEB"/>
<path d="M20.1738 19.1443C25.6064 21.913 31.1173 24.5145 36.7065 26.9487C42.2814 29.4129 47.9276 31.7386 53.677 33.7875C59.4264 35.8364 65.2968 37.5945 71.3453 38.529C77.3937 39.4634 83.4777 40.1418 89.5725 40.7059C101.771 41.8065 113.994 42.5321 126.24 42.8828C129.302 42.9936 132.364 43.0247 135.425 43.087L140.021 43.1113H142.317L144.614 43.0905C150.74 43.042 156.871 42.9071 162.969 42.3083C156.878 42.9624 150.744 43.1528 144.617 43.2566L142.321 43.2912H140.021H135.425C132.36 43.2393 129.295 43.2151 126.233 43.1182C113.98 42.7998 101.744 42.1076 89.5262 41.0416C83.4243 40.4567 77.3296 39.7922 71.2812 38.8024C65.2327 37.8126 59.3303 36.0336 53.5809 33.9917C42.1034 29.8386 30.9998 24.7268 20.1738 19.1443Z" fill="#EBEBEB"/>
<path d="M82.0439 45.6529C81.8941 45.9613 81.6539 46.2198 81.3535 46.3959C81.0531 46.5721 80.7058 46.658 80.3553 46.6428C80.0049 46.6277 79.6668 46.5122 79.3836 46.3109C79.1004 46.1096 78.8847 45.8314 78.7637 45.5113C78.6426 45.1912 78.6215 44.8434 78.7031 44.5117C78.7847 44.18 78.9652 43.8791 79.2221 43.6468C79.4791 43.4146 79.8008 43.2613 80.1471 43.2063C80.4933 43.1512 80.8485 43.1969 81.1682 43.3375C81.3833 43.4322 81.577 43.5675 81.7378 43.7356C81.8986 43.9038 82.0234 44.1014 82.1049 44.3168C82.1864 44.5323 82.223 44.7614 82.2125 44.9908C82.2021 45.2202 82.1447 45.4452 82.0439 45.6529Z" fill="#EBEBEB"/>
<path d="M85.8597 37.6875L84.6172 37.125L80.8105 45.0721L82.053 45.6346L85.8597 37.6875Z" fill="#EBEBEB"/>
<path d="M88.4059 45.7336C88.2556 46.0419 88.0148 46.3001 87.7139 46.4757C87.413 46.6514 87.0654 46.7366 86.7148 46.7208C86.3642 46.7049 86.0263 46.5886 85.7435 46.3866C85.4606 46.1845 85.2456 45.9057 85.1253 45.5851C85.0051 45.2646 84.985 44.9166 85.0676 44.585C85.1502 44.2534 85.3317 43.9529 85.5895 43.7213C85.8473 43.4897 86.1697 43.3374 86.5163 43.2835C86.8628 43.2295 87.2181 43.2764 87.5373 43.4182C87.7518 43.5135 87.9448 43.6493 88.1049 43.8177C88.2649 43.9861 88.389 44.1838 88.4698 44.3993C88.5507 44.6147 88.5866 44.8436 88.5757 45.0727C88.5647 45.3017 88.507 45.5264 88.4059 45.7336Z" fill="#EBEBEB"/>
<path d="M92.221 37.7715L90.9785 37.209L87.1718 45.1561L88.4143 45.7186L92.221 37.7715Z" fill="#EBEBEB"/>
<path d="M92.2151 37.7891L84.1055 38.1871L84.6145 37.1246L92.7242 36.7266L92.2151 37.7891Z" fill="#EBEBEB"/>
<path d="M91.2526 39.7908L83.1465 40.1922L83.6556 39.1297L91.7617 38.7283L91.2526 39.7908Z" fill="#EBEBEB"/>
<path d="M32.4855 137.589C32.2747 138.03 31.9341 138.4 31.5069 138.652C31.0797 138.905 30.5851 139.029 30.0856 139.008C29.5861 138.987 29.1041 138.823 28.7007 138.536C28.2972 138.249 27.9904 137.852 27.8191 137.395C27.6477 136.938 27.6195 136.443 27.7381 135.97C27.8566 135.498 28.1165 135.071 28.4849 134.742C28.8534 134.414 29.3137 134.199 29.8079 134.124C30.302 134.05 30.8076 134.12 31.2609 134.325C31.867 134.602 32.336 135.1 32.5654 135.712C32.7948 136.323 32.7661 136.998 32.4855 137.589Z" fill="#EBEBEB"/>
<path d="M37.8527 126.366L36.1035 125.574L30.7414 136.769L32.4906 137.56L37.8527 126.366Z" fill="#EBEBEB"/>
<path d="M41.4484 137.708C41.2376 138.149 40.897 138.519 40.4698 138.772C40.0426 139.024 39.548 139.148 39.0485 139.127C38.549 139.106 38.067 138.942 37.6635 138.655C37.2601 138.368 36.9533 137.971 36.782 137.514C36.6106 137.058 36.5824 136.562 36.701 136.09C36.8195 135.617 37.0794 135.19 37.4478 134.861C37.8162 134.533 38.2766 134.318 38.7708 134.244C39.2649 134.169 39.7705 134.239 40.2238 134.445C40.8312 134.72 41.3014 135.218 41.531 135.83C41.7607 136.442 41.731 137.118 41.4484 137.708Z" fill="#EBEBEB"/>
<path d="M46.8253 126.483L45.0762 125.691L39.7141 136.886L41.4632 137.678L46.8253 126.483Z" fill="#EBEBEB"/>
<path d="M46.8127 126.51L35.3887 127.074L36.1078 125.576L47.5318 125.012L46.8127 126.51Z" fill="#EBEBEB"/>
<path d="M45.4651 129.329L34.041 129.893L34.7566 128.395L46.1806 127.834L45.4651 129.329Z" fill="#EBEBEB"/>
<path d="M148.298 65.7284C148.172 65.9928 147.967 66.2148 147.711 66.3664C147.455 66.518 147.158 66.5923 146.859 66.58C146.559 66.5677 146.27 66.4692 146.028 66.2972C145.786 66.1251 145.602 65.8872 145.499 65.6133C145.396 65.3395 145.378 65.0422 145.449 64.7588C145.52 64.4755 145.676 64.219 145.896 64.0216C146.117 63.8243 146.393 63.695 146.689 63.6501C146.986 63.6053 147.289 63.6468 147.561 63.7695C147.925 63.9349 148.208 64.2339 148.346 64.601C148.484 64.9682 148.467 65.3735 148.298 65.7284Z" fill="#EBEBEB"/>
<path d="M151.523 58.9922L150.475 58.5173L147.256 65.2377L148.304 65.7126L151.523 58.9922Z" fill="#EBEBEB"/>
<path d="M153.678 65.8022C153.552 66.0666 153.347 66.2884 153.091 66.4398C152.834 66.5911 152.537 66.6651 152.238 66.6524C151.938 66.6397 151.649 66.5409 151.407 66.3685C151.165 66.196 150.981 65.9577 150.879 65.6837C150.776 65.4096 150.759 65.1122 150.831 64.8289C150.902 64.5456 151.058 64.2893 151.279 64.0923C151.5 63.8953 151.777 63.7665 152.073 63.7222C152.37 63.6779 152.673 63.72 152.945 63.8434C153.309 64.0086 153.591 64.3079 153.729 64.6752C153.866 65.0425 153.848 65.4479 153.678 65.8022Z" fill="#EBEBEB"/>
<path d="M156.902 59.0647L155.854 58.5898L152.634 65.3102L153.683 65.7851L156.902 59.0647Z" fill="#EBEBEB"/>
<path d="M156.9 59.0795L150.043 59.4152L150.474 58.5189L157.33 58.1797L156.9 59.0795Z" fill="#EBEBEB"/>
<path d="M46.9523 38.2912C46.8259 38.5555 46.6217 38.7776 46.3655 38.9291C46.1093 39.0807 45.8127 39.155 45.513 39.1427C45.2134 39.1304 44.9243 39.032 44.6821 38.8599C44.44 38.6879 44.2558 38.4499 44.1528 38.1761C44.0498 37.9023 44.0326 37.6049 44.1034 37.3216C44.1742 37.0383 44.3298 36.7817 44.5506 36.5844C44.7714 36.387 45.0474 36.2578 45.3437 36.2129C45.64 36.168 45.9434 36.2096 46.2154 36.3323C46.5798 36.4976 46.8619 36.7966 47 37.1638C47.1381 37.5309 47.121 37.9363 46.9523 38.2912Z" fill="#EBEBEB"/>
<path d="M50.1758 31.5586L49.127 31.0837L45.9079 37.8041L46.9567 38.279L50.1758 31.5586Z" fill="#EBEBEB"/>
<path d="M52.3306 38.3647C52.2039 38.6291 51.9994 38.8509 51.743 39.0023C51.4865 39.1536 51.1897 39.2276 50.89 39.2149C50.5903 39.2022 50.3012 39.1034 50.0593 38.931C49.8174 38.7585 49.6335 38.5202 49.5309 38.2462C49.4283 37.9721 49.4116 37.6747 49.4829 37.3914C49.5543 37.1081 49.7104 36.8518 49.9316 36.6548C50.1528 36.4578 50.4291 36.329 50.7256 36.2847C51.0221 36.2404 51.3254 36.2826 51.5973 36.4059C51.778 36.4873 51.9404 36.6027 52.0752 36.7454C52.2099 36.8881 52.3144 37.0552 52.3825 37.2372C52.4506 37.4192 52.4811 37.6125 52.4722 37.806C52.4633 37.9995 52.4152 38.1894 52.3306 38.3647Z" fill="#EBEBEB"/>
<path d="M55.5586 31.6269L54.5098 31.1521L51.2907 37.8725L52.3396 38.3473L55.5586 31.6269Z" fill="#EBEBEB"/>
<path d="M55.5538 31.642L48.6973 31.9812L49.128 31.0814L55.9846 30.7422L55.5538 31.642Z" fill="#EBEBEB"/>
<path d="M128.444 143.667C128.317 143.932 128.113 144.154 127.856 144.305C127.6 144.456 127.303 144.53 127.003 144.518C126.704 144.505 126.415 144.406 126.173 144.234C125.931 144.061 125.747 143.823 125.644 143.549C125.542 143.275 125.525 142.977 125.596 142.694C125.668 142.411 125.824 142.155 126.045 141.958C126.266 141.761 126.542 141.632 126.839 141.587C127.135 141.543 127.439 141.585 127.711 141.709C127.891 141.79 128.054 141.905 128.188 142.048C128.323 142.191 128.428 142.358 128.496 142.54C128.564 142.722 128.594 142.915 128.586 143.109C128.577 143.302 128.528 143.492 128.444 143.667Z" fill="#EBEBEB"/>
<path d="M131.674 136.928L130.625 136.453L127.406 143.174L128.455 143.648L131.674 136.928Z" fill="#EBEBEB"/>
<path d="M133.827 143.737C133.7 144.001 133.495 144.222 133.239 144.373C132.982 144.524 132.685 144.597 132.386 144.584C132.087 144.571 131.798 144.472 131.556 144.299C131.315 144.127 131.131 143.888 131.029 143.615C130.926 143.341 130.91 143.043 130.981 142.76C131.052 142.477 131.208 142.221 131.429 142.024C131.65 141.827 131.926 141.698 132.223 141.654C132.519 141.61 132.822 141.651 133.094 141.774C133.275 141.856 133.437 141.972 133.572 142.115C133.707 142.258 133.811 142.425 133.879 142.608C133.948 142.79 133.978 142.983 133.969 143.177C133.96 143.371 133.912 143.561 133.827 143.737Z" fill="#EBEBEB"/>
<path d="M137.055 137.002L136.006 136.527L132.787 143.248L133.836 143.723L137.055 137.002Z" fill="#EBEBEB"/>
<path d="M137.048 137.014L130.191 137.353L130.622 136.456L137.479 136.117L137.048 137.014Z" fill="#EBEBEB"/>
<path d="M116.728 58.8351C116.578 59.1435 116.337 59.4017 116.036 59.5773C115.735 59.753 115.388 59.8382 115.037 59.8223C114.686 59.8065 114.349 59.6902 114.066 59.4881C113.783 59.2861 113.568 59.0072 113.448 58.6867C113.327 58.3661 113.307 58.0182 113.39 57.6865C113.472 57.3549 113.654 57.0544 113.912 56.8228C114.17 56.5913 114.492 56.439 114.839 56.385C115.185 56.3311 115.54 56.378 115.86 56.5198C116.074 56.6151 116.267 56.7509 116.427 56.9193C116.587 57.0877 116.711 57.2854 116.792 57.5008C116.873 57.7162 116.909 57.9451 116.898 58.1742C116.887 58.4033 116.829 58.6279 116.728 58.8351Z" fill="#EBEBEB"/>
<path d="M120.545 50.873L119.303 50.3105L115.496 58.2577L116.739 58.8202L120.545 50.873Z" fill="#EBEBEB"/>
<path d="M125.744 50.7324L124.502 50.1699L123.402 52.4665L124.644 53.029L125.744 50.7324Z" fill="#EBEBEB"/>
<path d="M125.596 51.0391L118.793 51.3713L119.302 50.3088L126.105 49.9766L125.596 51.0391Z" fill="#EBEBEB"/>
<path d="M124.635 53.043L117.832 53.3718L118.341 52.3093L125.144 51.9805L124.635 53.043Z" fill="#EBEBEB"/>
<path d="M101.271 128.332C101.398 128.983 101.323 129.657 101.056 130.267C100.789 130.877 100.342 131.397 99.771 131.76C99.2004 132.124 98.5317 132.314 97.8496 132.308C97.1675 132.302 96.5026 132.099 95.9388 131.726C95.3751 131.353 94.9379 130.825 94.6825 130.21C94.4272 129.595 94.365 128.921 94.504 128.271C94.643 127.622 94.9768 127.027 95.4634 126.563C95.9499 126.098 96.5673 125.784 97.2374 125.66C98.1367 125.495 99.0666 125.683 99.8229 126.184C100.579 126.685 101.1 127.458 101.271 128.332Z" fill="#EBEBEB"/>
<path d="M98.0456 111.719L95.4572 112.196L98.6827 128.76L101.271 128.283L98.0456 111.719Z" fill="#EBEBEB"/>
<path d="M105.995 105.852L103.406 106.328L104.338 111.116L106.926 110.64L105.995 105.852Z" fill="#EBEBEB"/>
<path d="M106.128 106.481L95.8819 114.417L95.4512 112.202L105.697 104.266L106.128 106.481Z" fill="#EBEBEB"/>
<path d="M106.938 110.654L96.6925 118.59L96.2617 116.375L106.507 108.439L106.938 110.654Z" fill="#EBEBEB"/>
<path d="M138.127 43.6771C138.043 43.8774 137.9 44.0489 137.715 44.1699C137.531 44.291 137.314 44.3562 137.091 44.3572C136.869 44.3583 136.651 44.2952 136.465 44.1759C136.28 44.0566 136.135 43.8864 136.049 43.687C135.963 43.4875 135.939 43.2677 135.982 43.0554C136.024 42.843 136.13 42.6477 136.287 42.494C136.443 42.3403 136.643 42.2352 136.861 42.192C137.079 42.1488 137.305 42.1694 137.511 42.2512C137.787 42.3616 138.006 42.5736 138.122 42.8407C138.237 43.1079 138.239 43.4085 138.127 43.6771Z" fill="#EBEBEB"/>
<path d="M140.28 38.5862L139.486 38.2695L137.339 43.3573L138.133 43.6739L140.28 38.5862Z" fill="#EBEBEB"/>
<path d="M143.538 38.3501L142.744 38.0334L142.124 39.5031L142.918 39.8197L143.538 38.3501Z" fill="#EBEBEB"/>
<path d="M143.461 38.5412L139.207 38.9392L139.495 38.2608L143.75 37.8594L143.461 38.5412Z" fill="#EBEBEB"/>
<path d="M142.92 39.8209L138.666 40.2224L138.954 39.5406L143.209 39.1426L142.92 39.8209Z" fill="#EBEBEB"/>
<path d="M49.0315 144.983C49.0139 145.199 48.9307 145.405 48.7927 145.575C48.6546 145.744 48.4679 145.871 48.256 145.937C48.0442 146.004 47.8168 146.008 47.6026 145.948C47.3884 145.889 47.1972 145.77 47.053 145.605C46.9088 145.44 46.8182 145.237 46.7926 145.022C46.767 144.807 46.8077 144.589 46.9094 144.397C47.0111 144.204 47.1692 144.045 47.3639 143.94C47.5585 143.835 47.7808 143.789 48.0027 143.806C48.2995 143.83 48.5744 143.968 48.7673 144.188C48.9601 144.409 49.0552 144.695 49.0315 144.983Z" fill="#EBEBEB"/>
<path d="M49.733 139.912L48.875 139.846L48.4225 145.345L49.2804 145.412L49.733 139.912Z" fill="#EBEBEB"/>
<path d="M52.529 138.307L51.6738 138.24L51.5422 139.824L52.3974 139.891L52.529 138.307Z" fill="#EBEBEB"/>
<path d="M52.4989 138.521L48.5723 140.158L48.6328 139.424L52.5595 137.787L52.4989 138.521Z" fill="#EBEBEB"/>
<path d="M52.3857 139.9L48.459 141.537L48.5195 140.803L52.4462 139.166L52.3857 139.9Z" fill="#EBEBEB"/>
<path d="M40.6093 56.4361C40.5248 56.6364 40.3812 56.8077 40.1966 56.9286C40.0119 57.0494 39.7946 57.1143 39.572 57.115C39.3494 57.1157 39.1316 57.0522 38.9462 56.9326C38.7607 56.8129 38.6159 56.6424 38.5302 56.4427C38.4444 56.243 38.4216 56.0231 38.4644 55.8108C38.5073 55.5984 38.614 55.4032 38.771 55.2498C38.9281 55.0965 39.1284 54.9918 39.3466 54.9492C39.5648 54.9065 39.7911 54.9278 39.9969 55.0102C40.2724 55.1206 40.4916 55.3327 40.6064 55.6001C40.7212 55.8674 40.7223 56.1681 40.6093 56.4361Z" fill="#EBEBEB"/>
<path d="M42.7547 51.3362L41.9609 51.0195L39.8135 56.1073L40.6072 56.4239L42.7547 51.3362Z" fill="#EBEBEB"/>
<path d="M46.0125 51.1018L45.2188 50.7852L44.5984 52.2548L45.3922 52.5714L46.0125 51.1018Z" fill="#EBEBEB"/>
<path d="M45.9339 51.299L41.6797 51.697L41.968 51.0187L46.2222 50.6172L45.9339 51.299Z" fill="#EBEBEB"/>
<path d="M45.3929 52.5807L41.1387 52.9822L41.4235 52.3004L45.6777 51.9023L45.3929 52.5807Z" fill="#EBEBEB"/>
<path d="M89.214 59.0629C89.1293 59.2627 88.9857 59.4337 88.8011 59.5542C88.6166 59.6747 88.3995 59.7394 88.1772 59.74C87.9549 59.7407 87.7373 59.6773 87.5521 59.5578C87.3668 59.4384 87.2221 59.2683 87.1362 59.0689C87.0503 58.8696 87.0271 58.65 87.0695 58.4378C87.1119 58.2257 87.218 58.0305 87.3744 57.8769C87.5308 57.7233 87.7305 57.6182 87.9483 57.5749C88.1661 57.5316 88.3922 57.552 88.5981 57.6335C88.7353 57.6878 88.8601 57.7679 88.9653 57.8692C89.0705 57.9705 89.1542 58.091 89.2114 58.2238C89.2686 58.3567 89.2983 58.4991 89.2987 58.6431C89.2992 58.7871 89.2704 58.9297 89.214 59.0629Z" fill="#EBEBEB"/>
<path d="M91.3562 53.9651L90.5625 53.6484L88.4151 58.7362L89.2088 59.0528L91.3562 53.9651Z" fill="#EBEBEB"/>
<path d="M94.6121 53.7346L93.8184 53.418L93.198 54.8876L93.9918 55.2043L94.6121 53.7346Z" fill="#EBEBEB"/>
<path d="M94.5354 53.9244L90.2812 54.3259L90.5696 53.6476L94.8238 53.2461L94.5354 53.9244Z" fill="#EBEBEB"/>
<path d="M93.9944 55.2072L89.7402 55.6087L90.0286 54.9269L94.2828 54.5254L93.9944 55.2072Z" fill="#EBEBEB"/>
<path d="M32.4711 39.8587C32.2756 40.044 32.0384 40.1825 31.7782 40.263C31.518 40.3435 31.2421 40.3639 30.9724 40.3225C30.4279 40.278 29.9044 40.0981 29.4522 39.7999C28.9935 39.4992 28.6387 39.071 28.4341 38.5713C28.2387 38.0655 28.1882 37.5176 28.2881 36.9862C28.4536 35.9107 29.0483 34.942 29.9435 34.2901C30.8819 33.6717 32.0317 33.4344 33.1475 33.629C34.2546 33.7984 35.2792 34.3007 36.0774 35.0653C36.8887 35.8393 37.3866 36.8712 37.48 37.9725C37.5343 39.0543 37.3561 40.1351 36.9567 41.1462C36.5699 42.1735 35.9206 43.0881 35.0699 43.8042C34.1964 44.5142 33.1311 44.9648 32.0012 45.102C30.8871 45.2285 29.7581 45.1342 28.6825 44.8249C27.6069 44.5156 26.6068 43.9977 25.7427 43.3024C24.8799 42.5956 24.1893 41.7114 23.7206 40.7136C23.2528 39.7129 23.0275 38.6212 23.062 37.5226C23.106 36.43 23.3811 35.3579 23.8702 34.3731C24.3569 33.3994 25.0011 32.5078 25.7783 31.7325C26.5407 30.9716 27.3593 30.266 28.2276 29.6213C29.9364 28.3304 31.7306 27.1986 33.3291 25.8385C34.1283 25.1802 34.8571 24.445 35.5042 23.6443C36.1425 22.8751 36.5644 21.958 36.7289 20.9828C36.7909 20.522 36.7245 20.0535 36.5366 19.6261C36.4486 19.4268 36.3195 19.2472 36.1572 19.0984C35.995 18.9496 35.803 18.8347 35.5932 18.7609C35.385 18.6973 35.1644 18.6824 34.9491 18.7173C34.7339 18.7521 34.5301 18.8359 34.3544 18.9616C33.9726 19.241 33.677 19.6169 33.5 20.0483C33.1661 21.0117 32.9405 22.0073 32.8271 23.0178C32.674 24.0561 32.5459 25.0771 32.4248 26.1119C31.9549 30.265 31.606 34.4181 31.1646 38.5713C30.9332 40.6478 30.6876 42.7244 30.3707 44.8009C30.2105 45.8392 30.0147 46.8775 29.7976 47.8881C29.6896 48.4015 29.5409 48.906 29.3526 49.3971C29.2337 49.6339 29.0677 49.8454 28.8643 50.0195C28.6608 50.1935 28.4238 50.3266 28.1671 50.4111C28.4172 50.3197 28.646 50.1808 28.8404 50.0025C29.0348 49.8243 29.1907 49.6102 29.2992 49.3728C29.4681 48.8791 29.5978 48.3735 29.6872 47.8604C29.8901 46.8221 30.0432 45.8081 30.1714 44.7733C30.4312 42.6967 30.6199 40.6201 30.7944 38.5436C31.1504 34.3905 31.4494 30.2373 31.8624 26.06C31.9656 25.0217 32.076 23.9834 32.2184 22.9451C32.2896 22.426 32.375 21.9069 32.4747 21.3843C32.5648 20.8465 32.714 20.3198 32.9197 19.813C33.1361 19.2638 33.506 18.7843 33.9877 18.4286C34.2472 18.2454 34.5471 18.1237 34.8636 18.0733C35.1801 18.0228 35.5043 18.0449 35.8104 18.1379C36.1089 18.2386 36.3829 18.3978 36.6156 18.6055C36.8483 18.8133 37.0346 19.0652 37.1632 19.3458C37.4069 19.88 37.4956 20.4689 37.4195 21.0486C37.253 22.1466 36.7899 23.182 36.0774 24.0492C35.4084 24.8928 34.6521 25.6675 33.8204 26.3611C32.1828 27.7455 30.385 28.9222 28.7082 30.1923C27.0314 31.4625 25.4045 32.8503 24.5145 34.6673C24.0636 35.5658 23.8067 36.5446 23.7598 37.5434C23.7244 38.5385 23.9241 39.5283 24.3436 40.4367C24.7652 41.348 25.3917 42.1558 26.177 42.8005C26.9645 43.4472 27.8807 43.9291 28.8684 44.216C29.8576 44.5043 30.8959 44.5984 31.9229 44.4929C32.9401 44.3889 33.9046 44.0006 34.6997 43.375C36.2874 42.1187 37.0706 39.9972 37.0172 38.0106C36.9455 37.0095 36.5072 36.0666 35.7819 35.3526C35.0496 34.6332 34.1076 34.15 33.0834 33.9682C32.5733 33.8527 32.0441 33.8414 31.5293 33.935C31.0145 34.0287 30.5253 34.2252 30.0926 34.5121C29.6599 34.799 29.2932 35.1701 29.0157 35.602C28.7382 36.0338 28.5559 36.5169 28.4804 37.0208C28.3732 37.5226 28.4101 38.0435 28.5872 38.5263C28.77 39.0061 29.0975 39.421 29.527 39.7168C29.9586 40.0166 30.4627 40.2026 30.9902 40.2567C31.2519 40.3055 31.5216 40.295 31.7785 40.2259C32.0353 40.1569 32.2723 40.0313 32.4711 39.8587Z" fill="#EBEBEB"/>
<path d="M29.1913 49.5997C29.0096 49.8914 28.7433 50.1244 28.4259 50.2694C28.1084 50.4145 27.754 50.4652 27.407 50.415C27.0601 50.3649 26.7361 50.2162 26.4757 49.9877C26.2154 49.7592 26.0303 49.4609 25.9437 49.1305C25.8572 48.8 25.8729 48.4521 25.9891 48.1303C26.1053 47.8085 26.3166 47.5273 26.5967 47.3219C26.8767 47.1166 27.2129 46.9962 27.563 46.976C27.9132 46.9557 28.2617 47.0365 28.5647 47.2082C28.7689 47.3238 28.9473 47.4778 29.0896 47.6612C29.232 47.8446 29.3353 48.0536 29.3936 48.2763C29.4519 48.4989 29.4641 48.7305 29.4293 48.9577C29.3946 49.185 29.3137 49.4032 29.1913 49.5997Z" fill="#EBEBEB"/>
<path d="M119.862 156.195C119.862 157.469 106.046 158.5 89.0003 158.5C71.955 158.5 58.1387 157.462 58.1387 156.195C58.1387 154.928 71.955 153.887 89.0003 153.887C106.046 153.887 119.862 154.928 119.862 156.195Z" fill="#EBEBEB"/>
<path d="M78.0459 130.328C77.1158 133.329 75.2913 135.994 72.8032 137.987C70.315 139.98 67.275 141.211 64.0673 141.524C60.8597 141.837 57.6285 141.219 54.7824 139.747C51.9362 138.275 49.6029 136.016 48.0774 133.255C46.5519 130.494 45.9027 127.355 46.2119 124.236C46.5211 121.116 47.7749 118.156 49.8146 115.729C51.8544 113.302 54.5885 111.517 57.6714 110.601C60.7543 109.684 64.0475 109.677 67.1345 110.58C69.1851 111.18 71.0939 112.167 72.7521 113.484C74.4103 114.801 75.7853 116.423 76.7986 118.257C77.8119 120.091 78.4436 122.101 78.6576 124.172C78.8716 126.243 78.6638 128.335 78.0459 130.328Z" fill="#455A64"/>
<path d="M101.723 53.8621L89.7988 50.3711L66.164 126.667L78.0879 130.158L101.723 53.8621Z" fill="#455A64"/>
<path d="M135.415 123.042C134.486 126.044 132.661 128.711 130.172 130.705C127.684 132.698 124.643 133.93 121.434 134.244C118.226 134.557 114.993 133.939 112.146 132.467C109.299 130.995 106.965 128.735 105.439 125.973C103.913 123.211 103.264 120.071 103.573 116.951C103.883 113.83 105.137 110.869 107.178 108.442C109.219 106.014 111.954 104.229 115.038 103.313C118.122 102.397 121.416 102.39 124.504 103.294C126.554 103.894 128.463 104.881 130.121 106.198C131.78 107.515 133.155 109.137 134.168 110.971C135.181 112.805 135.813 114.815 136.027 116.886C136.241 118.957 136.033 121.049 135.415 123.042Z" fill="#455A64"/>
<path d="M159.1 46.5649L147.176 43.0759L123.555 119.376L135.479 122.865L159.1 46.5649Z" fill="#455A64"/>
<path d="M159.06 46.7287L86.6426 60.5689L89.8003 50.3661L162.218 36.5293L159.06 46.7287Z" fill="#455A64"/>
<path d="M153.105 65.9555L80.6914 79.7958L83.8491 69.5964L156.263 55.7561L153.105 65.9555Z" fill="#455A64"/>
<path d="M19.9038 68.1894C19.7227 68.5661 19.4307 68.8821 19.0647 69.0974C18.6988 69.3126 18.2754 69.4175 17.8481 69.3986C17.4208 69.3798 17.0089 69.2381 16.6646 68.9915C16.3202 68.7449 16.0588 68.4045 15.9136 68.0134C15.7683 67.6223 15.7457 67.1981 15.8486 66.7945C15.9516 66.3909 16.1754 66.0261 16.4917 65.7462C16.808 65.4664 17.2027 65.2841 17.6257 65.2224C18.0487 65.1608 18.481 65.2226 18.8678 65.3999C19.3843 65.6377 19.7831 66.0645 19.9772 66.5871C20.1713 67.1097 20.1449 67.6857 19.9038 68.1894Z" fill="#455A64"/>
<path d="M24.4979 58.5929L23 57.916L18.4202 67.4946L19.9182 68.1715L24.4979 58.5929Z" fill="#455A64"/>
<path d="M27.5678 68.289C27.3876 68.6658 27.0965 68.9823 26.7313 69.1983C26.3661 69.4143 25.9431 69.5201 25.516 69.5024C25.0889 69.4847 24.6768 69.3442 24.3319 69.0987C23.9869 68.8533 23.7246 68.5139 23.5781 68.1234C23.4316 67.733 23.4075 67.3091 23.5089 66.9053C23.6103 66.5016 23.8326 66.1362 24.1476 65.8553C24.4627 65.5744 24.8564 65.3906 25.2789 65.3273C25.7014 65.2639 26.1337 65.3239 26.5212 65.4994C27.0402 65.7347 27.442 66.1606 27.6383 66.6836C27.8345 67.2067 27.8092 67.7841 27.5678 68.289Z" fill="#455A64"/>
<path d="M32.156 58.6889L30.6582 58.0117L26.0767 67.5895L27.5745 68.2667L32.156 58.6889Z" fill="#455A64"/>
<path d="M32.1534 58.7087L22.3848 59.1967L22.9971 57.9196L32.7657 57.4316L32.1534 58.7087Z" fill="#455A64"/>
<path d="M52.3772 48.2776C52.4028 48.9424 52.225 49.5996 51.8663 50.1662C51.5077 50.7329 50.9843 51.1834 50.3623 51.4608C49.7403 51.7382 49.0477 51.8301 48.372 51.7249C47.6962 51.6197 47.0678 51.322 46.5661 50.8696C46.0644 50.4171 45.7119 49.8302 45.5533 49.1831C45.3946 48.5359 45.4369 47.8575 45.6748 47.2338C45.9127 46.61 46.3355 46.0688 46.8898 45.6786C47.4441 45.2884 48.1049 45.0667 48.7887 45.0416C49.243 45.0245 49.6964 45.0946 50.1228 45.2481C50.5491 45.4015 50.9402 45.6352 51.2735 45.9358C51.6069 46.2364 51.8759 46.598 52.0653 46.9998C52.2547 47.4016 52.3607 47.8358 52.3772 48.2776Z" fill="#37474F"/>
<path d="M51.7197 31.3422L49.0801 31.4395L49.7386 48.334L52.3782 48.2368L51.7197 31.3422Z" fill="#37474F"/>
<path d="M60.5166 26.6608L57.877 26.7581L58.0673 31.6414L60.7069 31.5442L60.5166 26.6608Z" fill="#37474F"/>
<path d="M60.5448 27.3166L49.167 33.7021L49.078 31.4421L60.4558 25.0566L60.5448 27.3166Z" fill="#37474F"/>
<path d="M60.7093 31.5744L49.3315 37.9599L49.2461 35.6999L60.6203 29.3145L60.7093 31.5744Z" fill="#37474F"/>
<path d="M147.857 136.853C147.67 137.176 147.388 137.438 147.047 137.605C146.707 137.772 146.323 137.837 145.944 137.793C145.565 137.748 145.209 137.595 144.92 137.353C144.63 137.111 144.421 136.791 144.319 136.434C144.216 136.077 144.225 135.698 144.344 135.346C144.463 134.993 144.687 134.683 144.987 134.454C145.287 134.226 145.65 134.088 146.031 134.06C146.411 134.032 146.792 134.114 147.124 134.296C147.345 134.416 147.54 134.578 147.697 134.772C147.854 134.967 147.97 135.189 148.038 135.426C148.106 135.664 148.125 135.913 148.094 136.157C148.063 136.402 147.983 136.639 147.857 136.853Z" fill="#37474F"/>
<path d="M152.618 128.617L151.334 127.914L146.573 136.131L147.857 136.834L152.618 128.617Z" fill="#37474F"/>
<path d="M158.212 128.887L156.928 128.184L155.551 130.56L156.835 131.263L158.212 128.887Z" fill="#37474F"/>
<path d="M158.035 129.205L150.709 129.011L151.346 127.914L158.673 128.104L158.035 129.205Z" fill="#37474F"/>
<path d="M156.836 131.275L149.51 131.085L150.147 129.984L157.473 130.178L156.836 131.275Z" fill="#37474F"/>
<path d="M15.0733 89.1352C16.0737 89.8274 47.9998 99.4626 49.4523 99.0819C49.6125 99.0369 49.9471 97.6421 51.3889 94.1778C51.4565 94.0116 52.375 93.534 53.7777 92.8903C59.0465 90.4676 71.1932 85.6223 71.1932 85.6223L58.7332 67.9023L39.0891 78.8527L33.9805 81.7011C33.9805 81.7011 19.1389 84.4387 17.5867 85.0201C16.0345 85.6016 14.073 88.4395 15.0733 89.1352Z" fill="#F7A9A0"/>
<path d="M15.0737 89.1362C16.074 89.8284 48.0001 99.4602 49.4526 99.0795C49.6128 99.0345 49.9474 97.6397 51.3892 94.1753C46.5832 93.6804 21.6205 88.6378 21.5244 85.613C21.4888 84.419 25.6967 83.3253 26.455 83.1384C22.539 83.8964 18.3774 84.7339 17.5977 85.0281C16.0527 85.6165 14.0733 88.4371 15.0737 89.1362Z" fill="#263238"/>
<path d="M46.6758 73.3483L48.4202 76.74L57.1137 93.6674C57.1137 93.6674 77.4413 85.9461 83.5289 83.2431C83.7247 83.1566 99.7874 101.735 113.501 108.023C124.01 112.844 132.621 110.706 139.652 101.794L123.504 89.2824C110.168 78.0448 96.0637 61.9722 85.3018 60.5567C73.6107 58.9923 46.6758 73.3483 46.6758 73.3483Z" fill="#263238"/>
<path d="M50.8486 73.3344C52.6714 76.6603 52.1943 75.6809 53.9814 79.0276C54.8572 80.6646 59.2752 88.8878 59.8305 90.5456C59.8305 90.5837 59.7842 90.6113 59.7629 90.5802C58.6949 89.1647 54.4763 80.8515 53.6326 79.2006C51.9095 75.8228 52.44 76.778 50.7525 73.3794C50.7491 73.3732 50.747 73.3664 50.7463 73.3594C50.7457 73.3524 50.7465 73.3453 50.7487 73.3387C50.7509 73.332 50.7545 73.3258 50.7593 73.3205C50.764 73.3152 50.7698 73.3109 50.7763 73.3079C50.7828 73.3048 50.7899 73.3031 50.7971 73.3028C50.8044 73.3025 50.8116 73.3036 50.8183 73.3061C50.8251 73.3085 50.8313 73.3123 50.8365 73.3172C50.8417 73.3221 50.8458 73.3279 50.8486 73.3344Z" fill="#37474F"/>
<path d="M49.8008 79.4297L57.1095 93.6645C57.1095 93.6645 77.4442 85.9466 83.5282 83.2402C83.724 83.1537 99.7867 101.732 113.496 108.02C124.009 112.842 132.624 110.703 139.648 101.791L123.503 89.276C121.723 87.7878 119.943 86.2166 118.163 84.6072C101.367 83.3613 64.557 80.558 49.8008 79.4297Z" fill="#37474F"/>
<path d="M23.0416 127.341C24.2271 127.66 57.6092 125.957 58.8374 125.126C58.9691 125.029 58.7875 123.607 58.9086 119.872C58.9086 119.696 59.6206 118.938 60.6886 117.862C64.7755 113.823 74.4587 105.202 74.4587 105.202L56.4735 92.7422L41.9381 109.628L38.1538 114.017C38.1538 114.017 25.1989 121.589 23.9494 122.627C22.6998 123.666 21.8525 127.019 23.0416 127.341Z" fill="#F7A9A0"/>
<path d="M23.037 127.339C24.2261 127.657 57.6082 125.955 58.8364 125.124C58.9681 125.027 58.7865 123.605 58.9111 119.87C54.2262 121.019 29.0071 124.688 27.843 121.867C27.3838 120.76 30.9438 118.32 31.5881 117.891C28.1705 119.919 24.5643 122.099 23.9484 122.625C22.7095 123.708 21.8551 127.017 23.037 127.339Z" fill="#263238"/>
<path d="M143.85 88.1276C143.85 88.1276 147.584 100.874 141.159 107.076C136.531 111.544 129.97 112.562 124.177 112.313C108.175 111.62 92.9527 94.3399 87.6056 93.845C84.8608 93.5924 65.7116 115.95 65.7116 115.95L47.7051 102.016C51.5356 98.0881 74.0491 71.214 86.6444 70.0234C95.2631 69.2101 118.859 84.5593 119.364 84.3101C120.194 83.8948 123.839 81.7491 123.839 81.7491L143.85 88.1276Z" fill="#263238"/>
<path d="M50.8825 100.06C53.1075 101.552 55.215 103.206 57.3403 104.816C59.4657 106.425 61.5625 108.038 63.6415 109.682C64.8235 110.616 65.9983 111.554 67.141 112.527C67.1695 112.551 67.141 112.589 67.1019 112.568C64.8982 111.046 62.7693 109.429 60.6404 107.816C58.5116 106.204 56.4183 104.594 54.3321 102.971C53.1538 102.04 51.9576 101.113 50.8291 100.13C50.7935 100.085 50.8398 100.033 50.8825 100.06Z" fill="#37474F"/>
<path d="M130.57 87.3546C130.591 87.2819 130.705 87.3234 130.695 87.3926C130.415 89.3826 130.867 91.4046 131.969 93.1032C133.233 94.9859 135.312 96.218 137.177 97.4743C137.359 97.592 137.177 97.8654 136.978 97.7824C135.799 97.2505 134.683 96.596 133.649 95.8304C132.696 95.1606 131.893 94.3092 131.289 93.3281C130.749 92.4356 130.406 91.4435 130.282 90.415C130.159 89.3865 130.257 88.3442 130.57 87.3546Z" fill="#37474F"/>
<path d="M119.204 85.6414C119.652 85.2469 120.133 84.88 120.596 84.4993C121.692 83.5995 122.796 82.6962 123.928 81.8413C124.038 81.7617 124.188 81.9278 124.088 82.0178C123.301 82.7273 122.479 83.4022 121.671 84.0944C121.255 84.4451 120.838 84.7912 120.418 85.1326C119.993 85.4414 119.599 85.7891 119.243 86.1709C118.915 86.5793 119.172 87.0223 119.645 87.1538C120.071 87.2377 120.513 87.1583 120.88 86.9323C121.735 86.4997 122.468 85.7971 123.216 85.2019C123.675 84.8558 124.131 84.5097 124.593 84.1428C125.056 83.776 125.601 83.4299 126.092 83.063C126.124 83.0388 126.167 83.0872 126.138 83.1115C125.693 83.5337 125.27 83.9802 124.821 84.3989C124.373 84.8177 123.924 85.233 123.469 85.6449C123.013 86.0567 122.593 86.4097 122.141 86.7731C121.761 87.1001 121.328 87.3633 120.859 87.5518C120.101 87.8322 118.887 87.7145 118.673 86.7835C118.649 86.5645 118.686 86.3432 118.779 86.1425C118.872 85.9417 119.019 85.7688 119.204 85.6414Z" fill="#37474F"/>
<path d="M66.0306 110.548C70.6372 105.378 83.1791 92.1395 86.0876 89.8483C86.3825 89.6222 86.7221 89.4572 87.0852 89.3638C87.4483 89.2703 87.8273 89.2503 88.1987 89.305C89.0175 89.4192 89.7188 89.9383 90.3988 90.364L92.8303 91.8868L97.8143 95.0259C100.936 96.9882 104.041 98.9748 107.188 100.909C109.968 102.669 112.882 104.221 115.903 105.554C121.713 108.011 128.865 109.257 134.682 106.118C137.316 104.662 139.318 102.325 140.314 99.5424C141.36 96.7737 141.617 93.7557 141.663 90.8139C141.663 90.101 141.663 89.3892 141.663 88.6785C141.663 88.6405 141.72 88.637 141.72 88.6785C141.987 94.1953 141.72 100.643 137.305 104.703C132.613 109.015 125.404 109.022 119.569 107.309C113.033 105.388 107.323 101.501 101.648 97.9296L91.7374 91.6515C90.9364 91.1462 90.146 90.6132 89.3272 90.1391C88.5084 89.6649 87.565 89.3361 86.7391 89.9141C83.9908 91.8349 66.7711 110.022 66.1623 110.655C66.0876 110.732 65.9594 110.628 66.0306 110.548Z" fill="#37474F"/>
<path d="M106.573 77.2341C102.038 74.6869 97.3386 72.3577 92.3333 70.7414C91.0782 70.3274 89.7863 70.0273 88.4742 69.845C87.808 69.7509 87.1323 69.7382 86.4628 69.807C85.7978 69.8827 85.1413 70.017 84.5013 70.2084C81.9488 70.9733 79.6419 72.285 77.4347 73.6694C75.2546 75.0993 73.1547 76.6416 71.1442 78.2897C69.1328 79.9337 67.1712 81.633 65.288 83.4084C61.5077 86.9476 57.918 90.6743 54.5332 94.5734C56.3132 92.6976 58.0932 90.8356 59.9408 89.0359C61.7885 87.2362 63.6432 85.4331 65.5585 83.6992C69.3962 80.2382 73.362 76.895 77.7195 74.0951C79.8911 72.7107 82.1695 71.4128 84.6366 70.6584C85.8536 70.2612 87.1471 70.1358 88.4208 70.2915C89.707 70.4675 90.9762 70.7453 92.2158 71.1221C94.7085 71.8941 97.1485 72.8189 99.5209 73.8909C101.913 74.9015 104.259 76.0366 106.573 77.2341Z" fill="#37474F"/>
<path d="M123.732 64.7768C123.726 64.8336 123.741 64.8905 123.775 64.937C123.809 64.9835 123.86 65.0164 123.917 65.0295L124.867 65.0918C125.757 62.7764 126.708 60.9387 126.455 61.6551C126.072 62.7852 125.853 63.9617 125.804 65.1506C126.224 65.1748 127.196 65.2198 127.683 65.2406C128.491 61.1706 129.488 58.1492 129.417 59.0801C129.114 62.8387 129.31 64.0466 129.538 65.3341C134.077 65.5452 140.029 65.7528 144.337 65.8082C144.871 63.5551 145.344 61.1186 145.405 61.2882C145.971 62.5618 146.099 64.4031 146.088 65.8255C147.463 65.8255 148.559 65.8255 149.228 65.7667C149.228 65.7667 149.584 63.8735 149.634 63.2506C149.785 61.6594 149.649 60.0548 149.232 58.5091C148.801 56.9344 148.036 55.5396 147.31 54.1137C147.306 54.1023 147.3 54.0917 147.292 54.0826C146.813 53.1475 146.444 52.163 146.192 51.1477C146.193 51.1396 146.193 51.1315 146.192 51.1235C146.022 50.3823 145.916 49.6287 145.875 48.8704C145.722 46.1016 144.255 43.679 141.756 42.9591C137.089 38.3215 132.308 40.2838 130.813 43.852C130.67 44.1981 130.528 44.5961 130.392 45.0322C129.88 46.6381 129.41 48.725 128.968 50.3344C128.968 50.3344 128.968 50.3344 128.968 50.3517C128.809 50.9834 128.611 51.6052 128.374 52.2137C127.131 55.1381 124.369 56.7855 123.732 64.7768Z" fill="#263238"/>
<path d="M142.841 43.7171C143.65 44.1223 144.338 44.7241 144.837 45.4639C145.336 46.2038 145.629 47.0566 145.689 47.9394C145.817 49.123 145.874 50.2755 146.294 51.4003C146.754 52.4948 147.375 53.5184 148.138 54.439C149.281 55.9341 150.068 57.4258 150.218 59.4193C150.367 61.4128 150.235 63.8251 149.548 65.7147H149.53C150.096 63.8009 150.153 61.1532 149.858 59.139C149.534 56.9378 148.359 55.5569 147.159 53.8853C146.192 52.5568 145.597 51.0062 145.433 49.3861C145.326 48.3859 145.358 47.3407 144.984 46.3958C144.539 45.271 143.628 44.5546 142.724 43.9178C142.702 43.9 142.688 43.8756 142.683 43.8487C142.679 43.8218 142.684 43.7941 142.697 43.7704C142.711 43.7467 142.733 43.7284 142.759 43.7187C142.786 43.7089 142.815 43.7084 142.841 43.7171Z" fill="#263238"/>
<path d="M125.564 55.3447C126.753 53.7665 127.985 52.4237 128.701 50.4648C129.349 48.6824 129.737 46.7997 130.395 45.0208C130.395 45.0153 130.398 45.01 130.402 45.0061C130.406 45.0022 130.411 45 130.417 45C130.422 45 130.428 45.0022 130.432 45.0061C130.436 45.01 130.438 45.0153 130.438 45.0208C129.413 48.1806 129.171 51.3681 127.166 54.0192C126.077 55.4659 124.988 56.7879 124.258 58.5184C123.513 60.3399 123.108 62.2761 123.062 64.2359C123.062 64.3051 122.973 64.3016 122.966 64.2359C122.738 61.0682 123.658 57.9229 125.564 55.3447Z" fill="#263238"/>
<path d="M141.482 42.8495C141.735 43.5417 145.658 44.2339 147.556 41.7316C149.453 39.2294 147.349 36.0003 144.117 37.319C142.073 38.153 140.941 41.3994 141.482 42.8495Z" fill="#263238"/>
<path d="M147.827 38.2199C147.192 37.4685 146.313 36.9497 145.335 36.749C144.882 36.6444 144.409 36.6575 143.964 36.7869C143.518 36.9163 143.116 37.1575 142.796 37.4862C142.145 38.1849 141.702 39.0427 141.515 39.9676C141.405 40.4385 141.339 40.9181 141.319 41.4005C141.276 41.8875 141.327 42.3781 141.468 42.8471C141.221 42.403 141.076 41.9116 141.045 41.4074C140.996 40.9024 141.009 40.3935 141.084 39.8915C141.215 38.859 141.673 37.8916 142.394 37.1228C142.784 36.7311 143.276 36.4499 143.818 36.3094C144.355 36.1853 144.916 36.2008 145.445 36.3544C145.951 36.4925 146.423 36.729 146.833 37.0497C147.242 37.3703 147.58 37.7684 147.827 38.2199Z" fill="#263238"/>
<path d="M131.492 65.379C123.012 67.5179 109.299 69.9336 106.718 67.6944C105.489 66.625 103.058 64.9776 102.745 62.2019C102.065 56.1487 104.496 47.9048 106.96 44.1393C107.836 42.7999 115.952 45.4441 115.917 47.1399C115.838 51.1131 114.087 57.4881 114.464 57.7754C115.86 58.8448 124.97 59.2567 131.04 59.9246C138.654 60.7656 135.354 64.4031 131.492 65.379Z" fill="#F7A9A0"/>
<path d="M122.297 68.1852L123.5 57.9062C123.5 57.9062 130.876 58.8788 134.967 60.675C139.057 62.4712 137.459 64.5893 133.297 65.8664C129.136 67.1435 122.297 68.1852 122.297 68.1852Z" fill="#A3D95D"/>
<path d="M125.819 58.7995C125.776 60.4053 125.52 64.7523 124.954 67.5591H124.879C124.968 65.1572 125.52 60.3915 125.716 58.7995C125.719 58.7614 125.822 58.7683 125.819 58.7995Z" fill="#263238"/>
<path opacity="0.1" d="M133.297 65.8376C129.129 67.1078 122.297 68.1876 122.297 68.1876L122.913 62.9304L137.349 62.8301C137.416 63.9722 135.843 65.0624 133.297 65.8376Z" fill="black"/>
<path d="M118.152 83.7385C118.152 83.7385 143.912 94.3047 144.934 94.1594C144.934 94.1594 145.472 80.8002 144.094 69.8013C142.624 58.0168 135.988 59.3735 133.45 60.5433C130.441 61.9277 123.521 68.2785 122.77 69.6594C121.517 71.9436 122.862 75.2488 122.862 75.2488L118.152 83.7385Z" fill="#A3D95D"/>
<path opacity="0.1" d="M144.71 76.6556C144.817 78.2095 144.885 79.7462 144.931 81.2344C144.757 81.2344 144.575 81.2344 144.411 81.2344C143.23 81.2344 142.026 81.3659 140.77 81.4524C139.513 81.5389 138.213 81.6255 136.854 81.6878C136.181 81.7189 135.49 81.7431 134.792 81.7501H134.262C134.087 81.7501 133.906 81.7501 133.731 81.7293C133.374 81.7149 133.017 81.6802 132.663 81.6255L132.389 81.5839C132.297 81.5693 132.205 81.5496 132.115 81.5251C131.934 81.4905 131.759 81.4386 131.574 81.3867C131.389 81.3347 131.218 81.2655 131.044 81.2067C130.869 81.1479 130.705 81.0579 130.542 80.9783C129.918 80.6575 129.323 80.287 128.762 79.8708C127.651 79.0575 126.626 78.1818 125.579 77.3339C124.596 76.5171 123.632 75.7107 122.763 74.9666C122.471 74.1118 121.748 71.5472 122.781 69.6749C122.781 69.6472 122.816 69.6195 122.831 69.5918C122.999 69.6792 123.162 69.7763 123.318 69.8825C123.643 70.1036 123.952 70.3452 124.244 70.6058C124.793 71.1 125.282 71.6526 125.704 72.2533C126.436 73.3524 127.089 74.4995 127.658 75.6865C128.186 76.7904 128.893 77.8047 129.751 78.6906C130.169 79.0925 130.649 79.4266 131.175 79.6804C131.311 79.7358 131.439 79.7912 131.571 79.8362L131.763 79.8915L131.862 79.9192L131.959 79.9434C132.094 79.9698 132.231 79.9895 132.368 80.0023C132.439 80.0023 132.507 80.0196 132.578 80.0196H132.788C133.077 80.016 133.365 79.9917 133.65 79.9469C133.941 79.8961 134.233 79.8304 134.525 79.7496C135.124 79.5804 135.711 79.3758 136.284 79.1371C137.466 78.6629 138.673 78.0988 139.958 77.6973C141.272 77.2637 142.625 76.9474 143.998 76.7525C144.237 76.7179 144.476 76.6867 144.71 76.6556Z" fill="black"/>
<path opacity="0.1" d="M145.027 85.866C145.027 86.3332 145.027 86.797 145.027 87.2503C144.924 87.1431 144.817 87.0358 144.71 86.9319C143.908 86.1172 142.9 85.5207 141.788 85.2015C140.695 84.9211 139.513 85.0319 138.327 85.2015C137.733 85.2845 137.131 85.3884 136.515 85.4818C135.899 85.5752 135.28 85.6722 134.646 85.7275C134.013 85.7829 133.372 85.8279 132.727 85.8348C132.083 85.8417 131.432 85.8348 130.777 85.7794C129.468 85.696 128.169 85.5084 126.893 85.2188C126.576 85.1426 126.255 85.0665 125.942 84.9731C125.629 84.8796 125.316 84.7896 125.013 84.6858C124.71 84.582 124.401 84.4747 124.091 84.3674C123.781 84.2601 123.493 84.1286 123.197 84.0005C121.8 83.4013 120.457 82.6893 119.182 81.8721L120.641 79.2383L121.3 79.5394L122.112 79.8855L122.507 80.062L122.916 80.2281C123.187 80.3354 123.457 80.4461 123.724 80.5742C123.856 80.633 123.995 80.678 124.13 80.7299L124.536 80.8822C124.81 80.9826 125.073 81.1003 125.351 81.1937C125.629 81.2872 125.892 81.3771 126.159 81.481C126.426 81.5848 126.7 81.6782 126.974 81.7578L127.38 81.8963L127.79 82.0243C128.883 82.3556 129.998 82.6191 131.125 82.8134C132.265 82.9969 133.422 83.0903 134.607 83.1872L136.423 83.3222C137.039 83.3637 137.658 83.4087 138.292 83.471C138.925 83.5333 139.559 83.606 140.207 83.7098C140.859 83.8163 141.5 83.9784 142.122 84.1943L142.354 84.2843L142.582 84.3812C142.735 84.4435 142.884 84.5162 143.034 84.5889C143.183 84.6616 143.311 84.755 143.457 84.8312L143.874 85.0769C144.13 85.2603 144.401 85.423 144.657 85.6168C144.789 85.686 144.892 85.7725 145.027 85.866Z" fill="black"/>
<path opacity="0.1" d="M143.945 68.7556C143.984 69.0186 144.027 69.2885 144.062 69.5723H143.56L142.806 69.5447C142.553 69.5447 142.297 69.51 142.044 69.4858C140.998 69.4136 139.969 69.192 138.989 68.8282C138.03 68.4128 137.143 67.8534 136.362 67.1705C135.597 66.5198 134.899 65.8207 134.191 65.1493C133.497 64.4643 132.744 63.8379 131.941 63.2769C131.481 62.9596 130.987 62.6927 130.467 62.4809L130.823 62.2109C131.288 62.4246 131.738 62.6662 132.172 62.9343C133.03 63.4638 133.849 64.0314 134.664 64.6163C135.479 65.2012 136.262 65.7861 137.053 66.3468C137.801 66.9089 138.606 67.396 139.456 67.8003C139.559 67.8419 139.655 67.8869 139.766 67.9284L140.097 68.0357C140.314 68.1153 140.549 68.1637 140.777 68.2226C141.004 68.2814 141.243 68.3299 141.489 68.3852C141.734 68.4406 141.962 68.4718 142.201 68.5202C142.756 68.6067 143.347 68.6898 143.945 68.7556Z" fill="black"/>
<path opacity="0.1" d="M143.585 66.9344C143.653 67.2286 143.72 67.5262 143.777 67.8481C143.147 67.7823 142.513 67.72 141.869 67.6404C140.845 67.5512 139.84 67.318 138.886 66.9482C137.965 66.5042 137.137 65.8961 136.447 65.1555C135.735 64.4633 135.091 63.7019 134.446 62.9578C133.863 62.2656 133.297 61.5976 132.73 60.9366C132.983 60.7843 133.232 60.6563 133.442 60.5524L133.66 60.459C134.144 61.1512 134.582 61.8434 135.023 62.5355C135.532 63.3576 136.11 64.1378 136.75 64.8682C137.37 65.5961 138.16 66.1702 139.053 66.5433C139.277 66.6238 139.505 66.692 139.737 66.7475C139.972 66.7999 140.209 66.8403 140.449 66.8686C140.933 66.9225 141.42 66.9502 141.908 66.9517C142.464 66.9586 143.026 66.9448 143.585 66.9344Z" fill="black"/>
<path d="M127.427 75.1398C128.548 75.5803 129.633 76.102 130.673 76.7007C131.19 77.0018 131.684 77.3271 132.176 77.6663C132.421 77.8324 132.671 77.9916 132.92 78.1508C133.177 78.3239 133.456 78.4657 133.749 78.5731C133.752 78.5717 133.756 78.5711 133.76 78.5714C133.763 78.5717 133.766 78.5728 133.769 78.5747C133.772 78.5766 133.775 78.5792 133.777 78.5822C133.778 78.5852 133.779 78.5886 133.779 78.5921C133.779 78.5955 133.778 78.5989 133.777 78.602C133.775 78.605 133.772 78.6076 133.769 78.6095C133.766 78.6113 133.763 78.6125 133.76 78.6128C133.756 78.6131 133.752 78.6125 133.749 78.6111C133.179 78.4814 132.635 78.2604 132.14 77.957C131.617 77.6559 131.108 77.3271 130.588 77.0191C129.52 76.3961 128.488 75.7766 127.384 75.2298C127.331 75.209 127.373 75.119 127.427 75.1398Z" fill="#263238"/>
<path d="M124.265 75.2898C125.245 75.4752 126.214 75.7132 127.166 76.0028C127.643 76.1516 128.106 76.3212 128.565 76.5081C128.786 76.5981 129.007 76.688 129.224 76.785C129.441 76.8819 129.687 77.0238 129.936 77.131C129.961 77.131 129.936 77.183 129.936 77.1726C129.705 77.0826 129.459 77.0307 129.224 76.9545L128.512 76.7261C128.039 76.5738 127.565 76.4285 127.088 76.2693C126.145 75.9578 125.201 75.6532 124.24 75.3729C124.19 75.3521 124.215 75.2794 124.265 75.2898Z" fill="#263238"/>
<path d="M138.431 66.1428C139.592 71.7495 141.147 83.6793 145.587 85.9566C150.784 88.625 151.639 81.3363 151.311 77.4393C151.04 74.2241 146.138 67.451 143.447 64.0109C140.595 60.3665 136.939 58.9267 138.431 66.1428Z" fill="#F7A9A0"/>
<path d="M149.809 71.4967L139.77 74.9576C139.77 74.9576 137.431 68.0911 137.278 63.7303C137.125 59.3696 139.798 59.8264 142.803 62.9136C145.808 66.0007 149.809 71.4967 149.809 71.4967Z" fill="#A3D95D"/>
<path d="M139.641 73.0303C141.162 72.4039 145.337 70.8223 148.185 70.1543C148.203 70.1543 148.228 70.2166 148.214 70.2235C145.928 71.1407 141.24 72.6462 139.67 73.1272C139.649 73.1342 139.613 73.0407 139.641 73.0303Z" fill="#263238"/>
<path d="M137.061 67.6272C137.353 68.0425 137.937 68.707 137.983 68.7866C137.916 68.572 137.755 67.7794 137.606 67.0111C137.605 67.0038 137.607 66.9965 137.611 66.9904C137.615 66.9844 137.621 66.9799 137.629 66.9778C137.636 66.9758 137.644 66.9762 137.65 66.9792C137.657 66.9821 137.663 66.9873 137.666 66.9938C138.04 67.731 139.546 74.1926 139.802 74.954C140.106 74.8231 140.416 74.7076 140.731 74.6079C140.828 74.5836 140.771 74.6771 140.76 74.6805C140.564 74.7982 139.692 75.2758 139.631 75.1755C139.482 74.8674 138.261 69.8145 138.158 69.4926C138.108 69.4165 137.275 68.0702 137.047 67.6237L137.061 67.6272Z" fill="#263238"/>
<path d="M133.144 63.2185L132.995 63.1216C132.991 63.1329 132.991 63.145 132.995 63.1562C132.97 62.9555 131.759 61.4258 130.784 60.1764C129.566 58.6293 128.413 57.1654 128.292 56.8054C128.082 56.1132 128.534 52.0812 128.552 51.9082L128.73 51.929C128.73 51.9705 128.263 56.0821 128.463 56.7743C128.559 57.1031 129.808 58.6882 130.912 60.0899C132.916 62.6025 133.247 63.0732 133.144 63.2185Z" fill="#263238"/>
<path d="M133.099 50.2591C132.704 52.0865 131.048 53.2909 129.4 52.9552C127.752 52.6194 126.737 50.8786 127.132 49.0374C127.527 47.1962 129.186 46.0056 130.835 46.3448C132.483 46.6839 133.501 48.4352 133.099 50.2591Z" fill="#A3D95D"/>
<path d="M134.023 50.5839C133.581 52.6155 131.741 53.9583 129.907 53.5811C128.074 53.2039 126.945 51.2554 127.383 49.2238C127.821 47.1922 129.669 45.8528 131.499 46.2266C133.329 46.6004 134.464 48.5593 134.023 50.5839Z" fill="#DBDBDB"/>
<path d="M139.321 61.8765C139.129 62.3437 136.245 65.1402 133.981 64.6937C133.244 64.5483 133.885 60.5959 133.885 60.5959L133.864 60.2948L133.568 56.0621L139.001 53.7191L139.777 53.418C139.777 53.418 139.777 54.5808 139.777 56.0275V56.2317C139.777 56.3148 139.777 56.3944 139.777 56.4705C139.777 56.6851 139.777 56.9066 139.777 57.1246C139.777 57.3427 139.777 57.4707 139.777 57.6334C139.777 57.7961 139.777 57.9795 139.759 58.156C139.701 59.4045 139.555 60.6476 139.321 61.8765Z" fill="#F7A9A0"/>
<path d="M139.762 56.0275C139.156 57.1134 138.313 58.0576 137.293 58.7946C136.273 59.5316 135.1 60.0436 133.856 60.2948L133.561 56.0621L138.993 53.7191L139.769 53.418C139.769 53.418 139.776 54.5808 139.762 56.0275Z" fill="#263238"/>
<path d="M129.335 47.9556C127.032 55.054 131.147 57.1928 132.721 57.6739C134.145 58.11 139.079 59.4044 142.119 52.5898C145.159 45.7752 142.493 42.4769 139.271 41.3106C136.049 40.1443 131.635 40.8538 129.335 47.9556Z" fill="#F7A9A0"/>
<path d="M130.869 47.2803C131.046 47.2889 131.223 47.2889 131.399 47.2803C131.585 47.308 131.774 47.2777 131.941 47.1938C131.987 47.157 132.02 47.1061 132.035 47.0492C132.049 46.9923 132.043 46.9324 132.019 46.8788C131.953 46.7806 131.862 46.7011 131.754 46.6482C131.647 46.5953 131.527 46.571 131.407 46.5777C131.161 46.5575 130.917 46.6252 130.719 46.7681C130.671 46.8023 130.635 46.85 130.616 46.9049C130.596 46.9597 130.594 47.019 130.611 47.0748C130.627 47.1306 130.66 47.1803 130.707 47.217C130.753 47.2537 130.809 47.2758 130.869 47.2803Z" fill="#263238"/>
<path d="M135.892 48.5625C135.729 48.4976 135.57 48.4248 135.415 48.3445C135.236 48.2889 135.081 48.1784 134.973 48.0295C134.948 47.976 134.943 47.916 134.957 47.8589C134.971 47.8018 135.004 47.751 135.052 47.7146C135.156 47.6559 135.273 47.625 135.394 47.625C135.514 47.625 135.631 47.6559 135.735 47.7146C135.964 47.8045 136.15 47.9734 136.259 48.1887C136.279 48.2392 136.285 48.2945 136.274 48.348C136.264 48.4015 136.238 48.4509 136.199 48.4903C136.16 48.5297 136.111 48.5574 136.056 48.5702C136.002 48.583 135.945 48.5804 135.892 48.5625Z" fill="#263238"/>
<path d="M133.874 53.7734C133.756 53.898 133.639 54.0676 133.45 54.0918C133.256 54.0956 133.063 54.0603 132.884 53.988C132.88 53.9852 132.875 53.984 132.871 53.9847C132.866 53.9853 132.862 53.9878 132.859 53.9914C132.856 53.9951 132.855 53.9997 132.856 54.0043C132.856 54.0088 132.859 54.0129 132.863 54.0157C132.942 54.111 133.047 54.1839 133.165 54.2271C133.283 54.2703 133.411 54.2821 133.535 54.2614C133.641 54.23 133.734 54.1688 133.803 54.0855C133.872 54.0023 133.914 53.9008 133.923 53.7942C133.931 53.7526 133.891 53.7526 133.874 53.7734Z" fill="#263238"/>
<path d="M131.934 51.7223C131.934 51.7223 131.681 52.4456 131.61 52.7952C131.61 52.8263 131.689 52.8609 131.81 52.8886C132.107 53.0007 132.43 53.0316 132.743 52.9779C133.057 52.9242 133.35 52.788 133.59 52.5841C133.594 52.5776 133.597 52.5699 133.597 52.562C133.597 52.554 133.595 52.5463 133.59 52.5398C133.585 52.5333 133.578 52.5284 133.571 52.5258C133.563 52.5232 133.555 52.523 133.547 52.5252C133.026 52.7428 132.447 52.7913 131.895 52.6637C131.895 52.5598 132.372 51.4385 132.315 51.4247C132.03 51.3953 131.743 51.4035 131.461 51.4489C131.948 49.9295 132.678 48.4967 133.141 46.9739C133.144 46.968 133.145 46.9616 133.145 46.9552C133.145 46.9488 133.144 46.9425 133.141 46.9365C133.139 46.9306 133.135 46.9251 133.131 46.9206C133.126 46.916 133.12 46.9124 133.114 46.9099C133.108 46.9074 133.102 46.9061 133.095 46.906C133.089 46.906 133.082 46.9072 133.076 46.9096C133.07 46.912 133.064 46.9156 133.059 46.9201C133.055 46.9246 133.051 46.9299 133.048 46.9358C132.173 48.3825 131.575 50.1199 131.033 51.6773C130.984 51.8746 131.778 51.7534 131.934 51.7223Z" fill="#263238"/>
<path d="M132.193 52.8685C132.329 53.1256 132.53 53.3448 132.777 53.5053C132.915 53.5878 133.075 53.6265 133.236 53.6161C133.592 53.5918 133.653 53.2942 133.639 53.0277C133.632 52.8845 133.607 52.7426 133.564 52.6055C133.148 52.8349 132.667 52.9272 132.193 52.8685Z" fill="#263238"/>
<path d="M132.789 53.5062C132.927 53.5887 133.087 53.6274 133.248 53.6169C133.604 53.5927 133.665 53.2951 133.651 53.0286C133.473 53.0019 133.291 53.0346 133.134 53.1213C132.978 53.2081 132.856 53.3437 132.789 53.5062Z" fill="#FF9BBC"/>
<path d="M131.517 49.4109C131.517 49.3901 131.475 49.4109 131.468 49.4351C131.315 49.8815 131.062 50.3661 130.595 50.3626C130.595 50.3626 130.574 50.3868 130.595 50.3903C131.115 50.5011 131.446 49.8539 131.517 49.4109Z" fill="#263238"/>
<path d="M130.692 48.9085C130.654 48.9885 130.624 49.072 130.603 49.1577C130.552 49.2073 130.495 49.2504 130.432 49.2858C130.373 49.3213 130.304 49.3401 130.235 49.3401C130.165 49.3401 130.096 49.3213 130.037 49.2858C129.795 49.13 129.823 48.8116 129.944 48.5521C129.944 48.5313 129.969 48.5278 129.973 48.5521C130.009 48.7389 130.062 48.9397 130.226 48.9916C130.389 49.0435 130.532 48.9466 130.681 48.9189L130.692 48.9085Z" fill="#263238"/>
<path d="M131.365 49.8928C131.299 50.0044 131.203 50.0965 131.087 50.1593C131.022 50.1916 130.952 50.2102 130.879 50.2138C130.807 50.2174 130.734 50.2059 130.667 50.18C130.598 50.1536 130.536 50.1116 130.486 50.0574C130.437 50.0033 130.401 49.9386 130.382 49.8686C130.352 49.7457 130.352 49.6176 130.382 49.4948C130.4 49.422 130.423 49.3504 130.45 49.2802C130.506 49.1323 130.597 48.9994 130.717 48.8926C130.668 48.9956 130.631 49.1035 130.606 49.2144C130.582 49.3134 130.567 49.4141 130.56 49.5155C130.56 49.7267 130.599 49.9239 130.756 49.9689C130.913 50.0139 131.083 49.9516 131.222 49.789C131.358 49.6168 131.478 49.4326 131.578 49.2387C131.561 49.4701 131.488 49.6943 131.365 49.8928Z" fill="#263238"/>
<path d="M134.343 50.2322C134.343 50.2149 134.372 50.2633 134.368 50.2806C134.215 50.7271 134.115 51.2601 134.489 51.53C134.489 51.53 134.489 51.5612 134.489 51.5543C133.987 51.3293 134.126 50.6371 134.343 50.2322Z" fill="#263238"/>
<path d="M135.319 50.293C135.3 50.3792 135.274 50.4638 135.24 50.5456C135.249 50.6145 135.267 50.6821 135.294 50.7464C135.319 50.81 135.362 50.8655 135.418 50.9065C135.474 50.9475 135.541 50.9724 135.61 50.9782C135.902 50.9955 136.073 50.7256 136.141 50.4453C136.141 50.4245 136.141 50.4106 136.12 50.421C135.977 50.5491 135.813 50.6771 135.65 50.6252C135.486 50.5733 135.429 50.4106 135.329 50.2999L135.319 50.293Z" fill="#263238"/>
<path d="M134.181 50.714C134.165 50.8425 134.185 50.9726 134.238 51.0913C134.271 51.1542 134.316 51.21 134.372 51.2552C134.428 51.3005 134.492 51.3342 134.562 51.3543C134.634 51.3733 134.709 51.3757 134.782 51.3612C134.855 51.3468 134.923 51.316 134.982 51.2713C135.083 51.1913 135.164 51.0893 135.217 50.9736C135.248 50.9052 135.274 50.8346 135.295 50.7625C135.342 50.6122 135.352 50.4534 135.324 50.2987C135.299 50.4088 135.26 50.5157 135.21 50.6171C135.169 50.7114 135.118 50.8017 135.06 50.8871C134.939 51.0601 134.779 51.1882 134.622 51.1363C134.466 51.0844 134.373 50.9286 134.363 50.7175C134.361 50.5005 134.38 50.2839 134.419 50.0703C134.289 50.2639 134.208 50.4843 134.181 50.714Z" fill="#263238"/>
<path d="M141.78 52.7159C140.534 52.5567 140.791 49.9956 140.791 49.9956C140.791 49.9956 138.299 49.4938 138.224 45.8425C138.069 46.9041 138.236 47.9866 138.705 48.9573C138.705 48.9573 134.404 47.6076 133.322 43.6483C133.322 43.6483 133.678 45.6244 134.223 46.417C134.223 46.417 132.485 45.5379 131.898 43.8974C131.898 43.8974 130.684 45.8079 129.965 46.2578C129.965 46.2578 131.763 38.8099 138.726 41.0664C138.726 41.0664 143.13 42.2673 143.991 46.0294C144.853 49.7914 141.78 52.7159 141.78 52.7159Z" fill="#263238"/>
<path d="M140.784 52.778C140.784 52.778 142.92 50.8606 143.863 51.6566C144.807 52.4526 142.813 55.4637 141.467 55.654C141.296 55.6884 141.118 55.6885 140.947 55.6544C140.775 55.6203 140.612 55.5527 140.468 55.4556C140.324 55.3586 140.201 55.2341 140.108 55.0897C140.015 54.9453 139.953 54.7841 139.926 54.6157L140.784 52.778Z" fill="#F7A9A0"/>
<path d="M143.272 52.5062C143.276 52.5062 143.281 52.508 143.284 52.5112C143.288 52.5145 143.289 52.5189 143.289 52.5235C143.289 52.5281 143.288 52.5325 143.284 52.5357C143.281 52.539 143.276 52.5408 143.272 52.5408C142.321 52.6965 141.684 53.3818 141.175 54.1259C141.245 54.0518 141.33 53.9934 141.426 53.9547C141.521 53.916 141.624 53.8981 141.728 53.902C141.831 53.906 141.932 53.9318 142.024 53.9776C142.116 54.0234 142.197 54.0882 142.261 54.1674C142.282 54.1882 142.261 54.2159 142.228 54.2055C142.086 54.1259 141.922 54.0909 141.758 54.1051C141.594 54.1194 141.439 54.1822 141.314 54.2851C141.103 54.4594 140.914 54.6555 140.748 54.87C140.691 54.9357 140.559 54.87 140.609 54.7869V54.7662C140.844 53.6829 142.043 52.3677 143.272 52.5062Z" fill="#263238"/>
<path d="M114.136 72.8264C112.93 72.8264 111.915 72.3349 111.11 70.774C110.206 69.0228 113.133 60.3912 115.066 54.6772C115.706 52.7876 116.212 51.2959 116.433 50.486C116.806 49.1017 116.974 45.7065 116.974 45.6719H117.152C117.152 45.8138 116.984 49.1328 116.604 50.5172C116.383 51.334 115.892 52.8291 115.237 54.7222C113.428 60.0624 110.398 68.9986 111.271 70.6875C112.616 73.304 114.521 72.7641 117.155 72.0719C118.056 71.808 118.971 71.5931 119.897 71.4282C122.648 70.9817 124.055 71.307 125.187 71.57C126.611 71.8988 127.529 72.1169 130.189 70.3691C131.534 69.4866 132.816 63.4472 132.83 63.3884C133.065 62.7516 135.301 61.5299 137.458 60.3497C138.971 59.5225 140.402 58.7404 140.872 58.3043C141.52 57.7021 142.406 55.4802 142.414 55.4594L142.581 55.5217C142.545 55.6151 141.67 57.799 140.993 58.4289C140.509 58.8823 139.071 59.6679 137.543 60.5054C135.511 61.6164 133.204 62.8762 132.997 63.4438C132.948 63.6826 131.691 69.5973 130.285 70.5179C127.561 72.3072 126.596 72.0857 125.14 71.7466C124.026 71.487 122.648 71.1651 119.921 71.6081C119.003 71.7712 118.095 71.9838 117.202 72.2449C116.21 72.5666 115.18 72.762 114.136 72.8264Z" fill="#263238"/>
<path d="M117.349 48.2623L117.59 45.625L116.813 45.558L116.573 48.1953L117.349 48.2623Z" fill="#A3D95D"/>
<path d="M143.551 51.4291C143.551 51.4291 144.858 47.501 144.22 45.0022C143.508 42.2334 140.326 39.3366 136.264 40.2088C136.264 40.2088 140.646 41.0533 142.551 44.7807C143.423 46.5112 142.152 51.2042 142.152 51.2042L143.551 51.4291Z" fill="#DBDBDB"/>
<path d="M139.197 52.5025C138.648 54.534 139.695 56.5587 141.528 57.0224C143.362 57.4862 145.288 56.2195 145.836 54.1879C146.384 52.1564 145.338 50.1317 143.504 49.6679C141.671 49.2042 139.741 50.4709 139.197 52.5025Z" fill="#DBDBDB"/>
<path d="M140.193 52.626C139.702 54.4533 140.641 56.2738 142.29 56.6926C143.938 57.1113 145.672 55.9692 146.163 54.1453C146.654 52.3214 145.714 50.4975 144.066 50.0787C142.418 49.6599 140.684 50.802 140.193 52.626Z" fill="#A3D95D"/>
<path d="M144.836 84.0648C147.111 87.3423 150.048 85.8991 150.785 83.2342C152.515 76.9734 149.699 65.9295 148.371 63.0466C148.186 62.6382 137.164 65.2477 137.549 67.2274C138.086 69.9961 140.222 77.4129 144.836 84.0648Z" fill="#F7A9A0"/>
<path d="M144.006 82.7585C143.61 82.2425 143.241 81.7065 142.903 81.1527C142.547 80.5989 142.241 80.0209 141.935 79.4222C141.628 78.8234 141.358 78.2247 141.112 77.5983C140.858 76.9663 140.646 76.3189 140.479 75.6602C140.628 75.9578 140.749 76.2693 140.899 76.5635C141.048 76.8576 141.176 77.1657 141.322 77.4598C141.614 78.0517 141.899 78.6469 142.202 79.2318L144.006 82.7585Z" fill="#263238"/>
<path d="M148.057 64.5939C148.057 64.5939 148.911 60.4996 149.339 57.7932C149.577 56.2842 149.751 53.6608 149.406 52.4737C148.886 50.6983 145.558 43.5964 143.767 44.344C142.147 45.0362 145.807 50.7709 145.807 50.7709C145.807 50.7709 142.642 44.652 140.848 45.8149C139.054 46.9777 144.073 52.9409 144.073 52.9409C144.073 52.9409 140.677 46.7113 139.022 48.2098C137.772 49.3312 142.005 54.9794 142.005 54.9794C142.005 54.9794 139.05 49.6565 137.712 50.7571C136.231 51.9719 139.805 57.4263 139.805 57.4263C136.886 60.78 136.202 64.2478 137.544 66.9716C137.772 67.4042 148.057 64.5939 148.057 64.5939Z" fill="#F7A9A0"/>
<path d="M147.029 52.817C146.673 52.0833 146.338 51.3426 145.929 50.6435C145.519 49.9444 145.081 49.2591 144.604 48.5981C144.001 47.7244 143.296 46.9209 142.504 46.2031C143.814 47.5875 145.323 50.0586 145.733 50.7577C146.142 51.4568 146.591 52.1421 147 52.8343L147.029 52.817Z" fill="#263238"/>
<path d="M144.469 54.3058C143.988 53.3921 143.543 52.4646 143.02 51.5682C142.496 50.6718 141.923 49.8792 141.343 49.0244C141.297 48.9586 141.275 49.0036 141.318 49.0694C141.866 49.945 142.301 50.7999 142.838 51.6789C143.376 52.558 143.949 53.4094 144.447 54.3196L144.469 54.3058Z" fill="#263238"/>
<path d="M142.5 55.9692C141.795 54.5476 140.942 53.2 139.955 51.9476C139.905 51.8853 139.884 51.9476 139.93 52.0134C140.802 53.332 141.496 54.3633 142.447 55.99C142.465 56.0177 142.514 55.9969 142.5 55.9692Z" fill="#263238"/>
<path d="M139.196 48.0781C139.042 48.1463 138.922 48.2706 138.862 48.4242C138.81 48.5816 138.789 48.7473 138.801 48.9122C138.828 49.2447 138.903 49.572 139.022 49.8847C139.256 50.5136 139.545 51.1216 139.887 51.7017L140.346 52.5012L139.716 51.809C139.45 51.5098 139.149 51.2415 138.819 51.0095C138.661 50.902 138.485 50.8224 138.299 50.7742C138.129 50.7335 137.949 50.7583 137.797 50.8434C137.677 50.9573 137.599 51.1072 137.577 51.2691C137.541 51.455 137.53 51.6446 137.545 51.8332C137.579 52.2246 137.658 52.6111 137.779 52.9857C138.031 53.7495 138.35 54.4906 138.734 55.2007C138.919 55.5468 139.125 55.9102 139.317 56.2667L139.94 57.305L140.004 57.4157L139.915 57.5057C139.311 58.119 138.788 58.8039 138.36 59.5442C137.922 60.2812 137.58 61.0682 137.342 61.8872C137.112 62.7113 137.011 63.5641 137.043 64.4172C137.079 65.2761 137.246 66.1251 137.537 66.9368C137.189 66.1381 136.972 65.2915 136.893 64.4276C136.823 63.5555 136.896 62.6781 137.11 61.8284C137.322 60.9808 137.652 60.1656 138.093 59.4058C138.528 58.6366 139.062 57.9238 139.681 57.2842L139.656 57.4849L139.011 56.4467C138.815 56.1006 138.602 55.7337 138.42 55.3669C138.036 54.6359 137.718 53.874 137.47 53.0896C137.343 52.6903 137.264 52.2779 137.235 51.8609C137.22 51.6453 137.236 51.4288 137.281 51.2172C137.298 51.0969 137.34 50.9812 137.404 50.8771C137.468 50.7729 137.554 50.6826 137.655 50.6115C137.873 50.4971 138.128 50.4686 138.367 50.5319C138.582 50.5942 138.785 50.6926 138.965 50.8226C139.306 51.0744 139.613 51.3662 139.88 51.6913L139.705 51.809C139.378 51.2145 139.112 50.5895 138.912 49.9436C138.809 49.6168 138.751 49.2781 138.741 48.9364C138.735 48.7632 138.768 48.5909 138.837 48.4311C138.869 48.3519 138.918 48.2798 138.98 48.2191C139.041 48.1585 139.115 48.1105 139.196 48.0781Z" fill="#263238"/>
<path d="M120.905 34.0828L121.403 46.8606C121.46 47.2447 121.214 47.4939 120.855 47.4213L114.415 46.0957C114.222 46.0401 114.049 45.9327 113.916 45.7857C113.783 45.6388 113.696 45.4583 113.664 45.2651L113.162 32.4873C113.108 32.1032 113.354 31.854 113.713 31.9267L120.15 33.2522C120.344 33.3072 120.517 33.4144 120.651 33.5614C120.784 33.7084 120.872 33.8892 120.905 34.0828Z" fill="#37474F"/>
<path d="M120.144 33.9188L120.642 46.6965C120.699 47.0772 120.45 47.3299 120.09 47.2572L113.654 45.9282C113.461 45.8734 113.287 45.7667 113.154 45.6204C113.02 45.4741 112.932 45.294 112.899 45.101L112.401 32.3233C112.344 31.9391 112.593 31.6899 112.952 31.7626L119.389 33.0881C119.583 33.1431 119.756 33.2504 119.89 33.3974C120.023 33.5444 120.111 33.7251 120.144 33.9188Z" fill="#455A64"/>
<path d="M118.257 34.1097C118.235 34.2155 118.247 34.3252 118.289 34.4247C118.332 34.5242 118.404 34.6091 118.497 34.6685C118.589 34.728 118.698 34.7594 118.809 34.7586C118.92 34.7578 119.028 34.725 119.12 34.6643C119.211 34.6036 119.282 34.5177 119.324 34.4176C119.365 34.3175 119.375 34.2078 119.352 34.1023C119.329 33.9968 119.274 33.9004 119.194 33.8253C119.115 33.7502 119.014 33.6998 118.905 33.6806C118.76 33.6552 118.612 33.6859 118.49 33.7662C118.369 33.8465 118.285 33.9699 118.257 34.1097Z" fill="#263238"/>
<path d="M106.484 41.418C107.944 38.4693 108.784 37.9294 108.656 34.8042C108.571 32.7553 109.881 31.8209 110.981 33.669C112.761 36.6939 111.714 40.8816 110.917 42.2314L106.484 41.418Z" fill="#F7A9A0"/>
<path d="M105.12 50.7765C105.12 50.7765 104.597 46.163 105.832 42.8717C106.683 40.5944 109.111 35.8425 116.426 34.5239C118.16 34.209 120.862 34.96 118.206 36.4724C116.327 37.5453 114.803 37.6768 113.828 38.4936C113.828 38.4936 117.146 39.8434 117.388 41.5462C117.61 43.0362 117.723 44.5397 117.726 46.0454C117.443 46.1091 117.157 46.1542 116.868 46.1804C116.868 46.1804 116.95 47.7931 115.358 49.7001L105.12 50.7765Z" fill="#F7A9A0"/>
<path d="M107.004 40.8243C108.147 40.2117 110.596 38.9519 112.967 38.5989C115.601 38.2078 120.781 38.1421 121.059 40.0352C121.265 41.4196 119.279 41.6168 119.279 41.6168C119.279 41.6168 121.415 42.0287 121.329 43.3231C121.24 44.4998 119.702 44.5621 119.702 44.5621C119.702 44.5621 120.963 45.0293 120.649 46.1472C120.276 47.4935 117.698 46.2926 116.11 47.3378C115.758 47.5731 107.004 40.8243 107.004 40.8243Z" fill="#F7A9A0"/>
<path d="M112.927 41.3709C115.007 40.81 117.214 40.88 119.253 41.5716C119.303 41.5924 119.317 41.6374 119.253 41.6305C117.158 41.3032 115.03 41.2242 112.916 41.3951C112.916 41.3951 112.916 41.3744 112.927 41.3709Z" fill="#263238"/>
<path d="M113.412 43.9439C114.462 43.6981 117.47 43.5666 119.713 44.5114C119.767 44.5322 119.774 44.5807 119.713 44.5737C117.641 44.1412 115.524 43.938 113.405 43.9681C113.405 43.9681 113.401 43.9473 113.412 43.9439Z" fill="#263238"/>
<path d="M58.8758 42.8945C59.0008 43.2353 59.0611 43.5953 59.0538 43.957C59.0623 44.3188 59.002 44.6791 58.8758 45.0195C58.7513 44.6786 58.691 44.3187 58.6978 43.957C58.6922 43.5954 58.7525 43.2357 58.8758 42.8945Z" fill="#263238"/>
<path d="M55.9746 45.7907C56.6847 45.5646 57.4504 45.5646 58.1604 45.7907C57.4512 46.0216 56.6839 46.0216 55.9746 45.7907Z" fill="#263238"/>
<path d="M58.9457 48.602C58.7082 47.9137 58.7082 47.1688 58.9457 46.4805C59.1831 47.1688 59.1831 47.9137 58.9457 48.602Z" fill="#263238"/>
<path d="M61.8479 45.7166C61.1387 45.9475 60.3714 45.9475 59.6621 45.7166C60.0122 45.5934 60.3828 45.5347 60.755 45.5436C61.1271 45.537 61.4973 45.5956 61.8479 45.7166Z" fill="#263238"/>
<path d="M156.08 115.395C156.318 116.084 156.318 116.83 156.08 117.52C155.843 116.83 155.843 116.084 156.08 115.395Z" fill="#263238"/>
<path d="M153.18 118.283C153.53 118.162 153.901 118.104 154.273 118.11C154.645 118.101 155.015 118.16 155.366 118.283C154.656 118.514 153.889 118.514 153.18 118.283Z" fill="#263238"/>
<path d="M156.151 121.105C156.027 120.765 155.966 120.405 155.973 120.043C155.965 119.681 156.025 119.321 156.151 118.98C156.276 119.321 156.337 119.681 156.329 120.043C156.335 120.405 156.275 120.764 156.151 121.105Z" fill="#263238"/>
<path d="M159.053 118.214C158.702 118.335 158.332 118.394 157.96 118.387C157.588 118.396 157.217 118.337 156.867 118.214C157.576 117.983 158.344 117.983 159.053 118.214Z" fill="#263238"/>
<path d="M22.3168 129.271C22.4415 129.611 22.5018 129.97 22.4948 130.331C22.5039 130.692 22.4435 131.053 22.3168 131.393C22.0793 130.705 22.0793 129.96 22.3168 129.271Z" fill="#263238"/>
<path d="M19.416 132.159C20.1253 131.929 20.8926 131.929 21.6019 132.159C21.2517 132.282 20.8811 132.341 20.5089 132.333C20.1369 132.339 19.7667 132.281 19.416 132.159Z" fill="#263238"/>
<path d="M22.3878 134.98C22.2627 134.64 22.2024 134.28 22.2098 133.918C22.2012 133.556 22.2616 133.196 22.3878 132.855C22.6252 133.545 22.6252 134.291 22.3878 134.98Z" fill="#263238"/>
<path d="M25.2757 132.091C24.5664 132.322 23.7991 132.322 23.0898 132.091C23.7991 131.86 24.5664 131.86 25.2757 132.091Z" fill="#263238"/>
<path d="M151.051 68.9355C151.171 69.1477 151.232 69.386 151.229 69.6277C151.233 69.8696 151.172 70.1083 151.051 70.3199C150.929 70.1088 150.868 69.8698 150.873 69.6277C150.869 69.3858 150.931 69.1472 151.051 68.9355Z" fill="#263238"/>
<path d="M149.129 70.845C149.352 70.7313 149.601 70.6719 149.853 70.6719C150.106 70.6719 150.354 70.7313 150.578 70.845C150.354 70.9587 150.106 71.0181 149.853 71.0181C149.601 71.0181 149.352 70.9587 149.129 70.845Z" fill="#263238"/>
<path d="M151.096 72.7125C150.976 72.5009 150.914 72.2622 150.918 72.0203C150.913 71.7782 150.974 71.5391 151.096 71.3281C151.217 71.5398 151.278 71.7784 151.274 72.0203C151.277 72.262 151.215 72.5003 151.096 72.7125Z" fill="#263238"/>
<path d="M153.019 70.7981C152.796 70.9118 152.547 70.9712 152.295 70.9712C152.042 70.9712 151.794 70.9118 151.57 70.7981C151.794 70.6844 152.042 70.625 152.295 70.625C152.547 70.625 152.796 70.6844 153.019 70.7981Z" fill="#263238"/>
<path d="M102.606 33.1172C102.727 33.3288 102.788 33.5675 102.784 33.8094C102.79 34.0515 102.728 34.2906 102.606 34.5016C102.486 34.2899 102.424 34.0513 102.428 33.8094C102.426 33.5677 102.487 33.3294 102.606 33.1172Z" fill="#263238"/>
<path d="M100.684 35.0305C100.907 34.9168 101.156 34.8574 101.408 34.8574C101.66 34.8574 101.909 34.9168 102.133 35.0305C101.909 35.1442 101.66 35.2036 101.408 35.2036C101.156 35.2036 100.907 35.1442 100.684 35.0305Z" fill="#263238"/>
<path d="M102.653 36.902C102.535 36.6894 102.473 36.4514 102.475 36.2098C102.471 35.9679 102.532 35.7292 102.653 35.5176C102.775 35.7287 102.836 35.9677 102.831 36.2098C102.835 36.4517 102.773 36.6903 102.653 36.902Z" fill="#263238"/>
<path d="M104.574 34.9878C104.35 35.1015 104.102 35.1609 103.849 35.1609C103.597 35.1609 103.349 35.1015 103.125 34.9878C103.349 34.8741 103.597 34.8147 103.849 34.8147C104.102 34.8147 104.35 34.8741 104.574 34.9878Z" fill="#263238"/>
<path d="M33.6351 137.254C33.7521 137.471 33.8131 137.713 33.8131 137.958C33.8131 138.204 33.7521 138.445 33.6351 138.663C33.5181 138.445 33.457 138.204 33.457 137.958C33.457 137.713 33.5181 137.471 33.6351 137.254Z" fill="#263238"/>
<path d="M31.7129 139.165C31.9365 139.052 32.185 138.992 32.4373 138.992C32.6897 138.992 32.9382 139.052 33.1618 139.165C32.9382 139.279 32.6897 139.338 32.4373 139.338C32.185 139.338 31.9365 139.279 31.7129 139.165Z" fill="#263238"/>
<path d="M33.68 141.036C33.563 140.819 33.502 140.578 33.502 140.333C33.502 140.089 33.563 139.848 33.68 139.631C33.7969 139.848 33.858 140.089 33.858 140.333C33.858 140.578 33.7969 140.819 33.68 141.036Z" fill="#263238"/>
<path d="M35.5993 139.12C35.3757 139.234 35.1272 139.293 34.8748 139.293C34.6225 139.293 34.374 139.234 34.1504 139.12C34.374 139.007 34.6225 138.947 34.8748 138.947C35.1272 138.947 35.3757 139.007 35.5993 139.12Z" fill="#263238"/>
<path d="M87.4437 100.012C87.6812 100.7 87.6812 101.445 87.4437 102.133C87.2063 101.445 87.2063 100.7 87.4437 100.012Z" fill="#263238"/>
<path d="M84.543 102.896C85.2522 102.665 86.0195 102.665 86.7288 102.896C86.3787 103.018 86.0081 103.077 85.6359 103.069C85.2638 103.075 84.8936 103.017 84.543 102.896Z" fill="#263238"/>
<path d="M87.5147 105.717C87.3897 105.376 87.3294 105.016 87.3367 104.654C87.3282 104.292 87.3885 103.932 87.5147 103.592C87.6392 103.933 87.6995 104.293 87.6927 104.654C87.6983 105.016 87.6381 105.376 87.5147 105.717Z" fill="#263238"/>
<path d="M90.4241 102.831C89.7141 103.058 88.9483 103.058 88.2383 102.831C88.9475 102.6 89.7149 102.6 90.4241 102.831Z" fill="#263238"/>
<path d="M161.662 27.7394C161.514 29.1491 160.965 30.4908 160.077 31.6145C159.189 32.7382 157.997 33.5996 156.634 34.1023C155.271 34.6051 153.792 34.7295 152.36 34.4615C150.929 34.1934 149.603 33.5437 148.529 32.5847L144.596 33.1489L146.564 29.8437C146.114 28.7675 145.922 27.6056 146.003 26.4464C146.084 25.2873 146.436 24.1613 147.031 23.1541C147.627 22.147 148.452 21.2852 149.441 20.6342C150.431 19.9833 151.561 19.5604 152.744 19.3976C153.928 19.2349 155.134 19.3366 156.27 19.695C157.407 20.0534 158.445 20.6591 159.305 21.4661C160.165 22.273 160.824 23.2599 161.232 24.3518C161.641 25.4437 161.788 26.6117 161.662 27.7671V27.7394Z" fill="white"/>
<path d="M161.663 27.7368C161.508 29.1424 160.959 30.4796 160.075 31.6027C159.644 32.1712 159.124 32.6709 158.534 33.0839C157.364 33.936 155.976 34.4602 154.522 34.5998C154.158 34.6327 153.793 34.6396 153.429 34.6206C153.063 34.613 152.699 34.576 152.34 34.5098C150.89 34.2503 149.544 33.6031 148.452 32.6409L148.545 32.6686L144.629 33.2535L144.344 33.2985L144.486 33.0528L146.444 29.7407V29.8722C145.983 28.7767 145.787 27.5928 145.871 26.4118C145.955 25.2309 146.316 24.0845 146.928 23.0611C147.536 22.0491 148.371 21.1832 149.37 20.5277C150.377 19.8734 151.524 19.4531 152.724 19.299C153.916 19.138 155.131 19.2462 156.273 19.6153C157.415 19.9845 158.454 20.6046 159.31 21.4275C160.167 22.238 160.824 23.2268 161.232 24.3196C161.639 25.4123 161.787 26.5807 161.663 27.7368ZM161.663 27.7368C161.779 26.5829 161.624 25.4184 161.21 24.331C160.797 23.2436 160.135 22.2615 159.274 21.4587C158.409 20.6701 157.374 20.079 156.245 19.7282C155.114 19.3874 153.919 19.301 152.749 19.4756C151.583 19.6443 150.472 20.0705 149.502 20.7215C148.541 21.3766 147.739 22.2269 147.149 23.2134C146.57 24.205 146.229 25.3113 146.152 26.4493C146.079 27.5841 146.268 28.7204 146.704 29.7753L146.733 29.8445L146.697 29.9068L144.718 33.2051L144.575 33.0043L148.513 32.4679H148.566L148.605 32.5025C149.657 33.452 150.96 34.099 152.368 34.3714C152.72 34.4406 153.077 34.4823 153.436 34.496C153.792 34.5199 154.148 34.5199 154.504 34.496C155.222 34.4402 155.929 34.2888 156.604 34.0461C157.282 33.8067 157.92 33.4721 158.498 33.0528C158.791 32.8395 159.069 32.6083 159.331 32.3606C159.585 32.1116 159.822 31.8481 160.043 31.5715C160.935 30.4622 161.496 29.1354 161.663 27.7368Z" fill="#263238"/>
<path d="M157.177 28.3815C156.292 29.5236 155.166 30.4678 153.873 31.1502C152.582 30.4671 151.457 29.523 150.573 28.3815C149.413 26.8829 149.47 24.5433 151.132 24.038C152.969 23.4773 153.873 26.1665 153.873 26.1665C153.873 26.1665 154.792 23.46 156.618 24.038C158.273 24.5606 158.337 26.8829 157.177 28.3815Z" fill="#A3D95D"/>
</svg>
