<svg width="280" height="181" viewBox="0 0 280 181" fill="none" xmlns="http://www.w3.org/2000/svg">
<path d="M234.822 39.9449H234.262V39.5833H234.448V39.4025H234.822V39.9449Z" fill="#EBEBEB"/>
<path d="M233.515 39.9438H232.768V39.5822H233.515V39.9438ZM232.022 39.9438H231.275V39.5822H232.022V39.9438ZM230.528 39.9438H229.782V39.5822H230.528V39.9438ZM229.035 39.9438H228.288V39.5822H229.035V39.9438ZM227.542 39.9438H226.795V39.5822H227.542V39.9438ZM226.048 39.9438H225.302V39.5822H226.048V39.9438ZM224.555 39.9438H223.808V39.5822H224.555V39.9438ZM223.062 39.9438H222.315V39.5822H223.062V39.9438ZM221.568 39.9438H220.822V39.5822H221.568V39.9438ZM220.075 39.9438H219.328V39.5822H220.075V39.9438ZM218.582 39.9438H217.835V39.5822H218.582V39.9438ZM217.088 39.9438H216.342V39.5822H217.088V39.9438ZM215.595 39.9438H214.848V39.5822H215.595V39.9438ZM214.102 39.9438H213.355V39.5822H214.102V39.9438ZM212.608 39.9438H211.862V39.5822H212.608V39.9438ZM211.115 39.9438H210.368V39.5822H211.115V39.9438ZM209.622 39.9438H208.875V39.5822H209.622V39.9438Z" fill="#EBEBEB"/>
<path d="M208.148 39.9449H207.588V39.4025H207.961V39.5833H208.148V39.9449Z" fill="#EBEBEB"/>
<path d="M207.946 38.699H207.572V37.9757H207.946V38.699ZM207.946 37.2524H207.572V36.5291H207.946V37.2524ZM207.946 35.8058H207.572V35.0825H207.946V35.8058ZM207.946 34.3592H207.572V33.6359H207.946V34.3592ZM207.946 32.9126H207.572V32.1893H207.946V32.9126ZM207.946 31.466H207.572V30.7427H207.946V31.466ZM207.946 30.0194H207.572V29.2961H207.946V30.0194ZM207.946 28.5728H207.572V27.8495H207.946V28.5728ZM207.946 27.1262H207.572V26.4029H207.946V27.1262ZM207.946 25.6796H207.572V24.9563H207.946V25.6796ZM207.946 24.2331H207.572V23.5098H207.946V24.2331ZM207.946 22.7865H207.572V22.0632H207.946V22.7865ZM207.946 21.3399H207.572V20.6166H207.946V21.3399ZM207.946 19.8933H207.572V19.17H207.946V19.8933ZM207.946 18.4467H207.572V17.7234H207.946V18.4467ZM207.946 17.0001H207.572V16.2768H207.946V17.0001ZM207.946 15.5535H207.572V14.8302H207.946V15.5535Z" fill="#EBEBEB"/>
<path d="M207.961 14.1073H207.588V13.5648H208.148V13.9265H207.961V14.1073Z" fill="#EBEBEB"/>
<path d="M233.515 13.9265H232.768V13.5648H233.515V13.9265ZM232.022 13.9265H231.275V13.5648H232.022V13.9265ZM230.528 13.9265H229.782V13.5648H230.528V13.9265ZM229.035 13.9265H228.288V13.5648H229.035V13.9265ZM227.542 13.9265H226.795V13.5648H227.542V13.9265ZM226.048 13.9265H225.302V13.5648H226.048V13.9265ZM224.555 13.9265H223.808V13.5648H224.555V13.9265ZM223.062 13.9265H222.315V13.5648H223.062V13.9265ZM221.568 13.9265H220.822V13.5648H221.568V13.9265ZM220.075 13.9265H219.328V13.5648H220.075V13.9265ZM218.582 13.9265H217.835V13.5648H218.582V13.9265ZM217.088 13.9265H216.342V13.5648H217.088V13.9265ZM215.595 13.9265H214.848V13.5648H215.595V13.9265ZM214.102 13.9265H213.355V13.5648H214.102V13.9265ZM212.608 13.9265H211.862V13.5648H212.608V13.9265ZM211.115 13.9265H210.368V13.5648H211.115V13.9265ZM209.622 13.9265H208.875V13.5648H209.622V13.9265Z" fill="#EBEBEB"/>
<path d="M234.822 14.1073H234.448V13.9265H234.262V13.5648H234.822V14.1073Z" fill="#EBEBEB"/>
<path d="M234.826 38.699H234.453V37.9757H234.826V38.699ZM234.826 37.2524H234.453V36.5291H234.826V37.2524ZM234.826 35.8058H234.453V35.0825H234.826V35.8058ZM234.826 34.3592H234.453V33.6359H234.826V34.3592ZM234.826 32.9126H234.453V32.1893H234.826V32.9126ZM234.826 31.466H234.453V30.7427H234.826V31.466ZM234.826 30.0194H234.453V29.2961H234.826V30.0194ZM234.826 28.5728H234.453V27.8495H234.826V28.5728ZM234.826 27.1262H234.453V26.4029H234.826V27.1262ZM234.826 25.6796H234.453V24.9563H234.826V25.6796ZM234.826 24.2331H234.453V23.5098H234.826V24.2331ZM234.826 22.7865H234.453V22.0632H234.826V22.7865ZM234.826 21.3399H234.453V20.6166H234.826V21.3399ZM234.826 19.8933H234.453V19.17H234.826V19.8933ZM234.826 18.4467H234.453V17.7234H234.826V18.4467ZM234.826 17.0001H234.453V16.2768H234.826V17.0001ZM234.826 15.5535H234.453V14.8302H234.826V15.5535Z" fill="#EBEBEB"/>
<path d="M209.45 38.1426H206.102V41.3866H209.45V38.1426Z" fill="white"/>
<path d="M209.638 41.5679H205.904V37.9767H209.638V41.5679ZM206.278 41.2062H209.264V38.313H206.278V41.2062Z" fill="#EBEBEB"/>
<path d="M209.466 25.1329H206.117V28.3769H209.466V25.1329Z" fill="white"/>
<path d="M209.638 28.5697H205.904V24.9532H209.638V28.5697ZM206.278 28.2081H209.264V25.3149H206.278V28.2081Z" fill="#EBEBEB"/>
<path d="M209.466 12.1251H206.117V15.3691H209.466V12.1251Z" fill="white"/>
<path d="M209.638 15.5522H205.904V11.9357H209.638V15.5522ZM206.278 15.1905H209.264V12.2973H206.278V15.1905Z" fill="#EBEBEB"/>
<path d="M236.323 38.1426H232.975V41.3866H236.323V38.1426Z" fill="white"/>
<path d="M236.495 41.5679H232.762V37.9767H236.495V41.5679ZM233.135 41.2062H236.122V38.313H233.135V41.2062Z" fill="#EBEBEB"/>
<path d="M236.323 25.1329H232.975V28.3769H236.323V25.1329Z" fill="white"/>
<path d="M236.495 28.5697H232.762V24.9532H236.495V28.5697ZM233.135 28.2081H236.122V25.3149H233.135V28.2081Z" fill="#EBEBEB"/>
<path d="M236.323 12.1251H232.975V15.3691H236.323V12.1251Z" fill="white"/>
<path d="M236.495 15.5522H232.762V11.9357H236.495V15.5522ZM233.135 15.1905H236.122V12.2973H233.135V15.1905Z" fill="#EBEBEB"/>
<path d="M222.894 12.1251H219.545V15.3691H222.894V12.1251Z" fill="white"/>
<path d="M223.065 15.5522H219.332V11.9357H223.065V15.5522ZM219.705 15.1905H222.692V12.2973H219.705V15.1905Z" fill="#EBEBEB"/>
<path d="M222.88 38.1426H219.531V41.3866H222.88V38.1426Z" fill="white"/>
<path d="M223.065 41.5679H219.332V37.9767H223.065V41.5679ZM219.705 41.2062H222.692V38.313H219.705V41.2062Z" fill="#EBEBEB"/>
<path d="M90.6518 160.013H90.0918V159.652H90.2785V159.471H90.6518V160.013Z" fill="#EBEBEB"/>
<path d="M89.349 160.014H88.6023V159.652H89.349V160.014ZM87.8557 160.014H87.109V159.652H87.8557V160.014ZM86.3623 160.014H85.6157V159.652H86.3623V160.014ZM84.869 160.014H84.1223V159.652H84.869V160.014ZM83.3757 160.014H82.629V159.652H83.3757V160.014ZM81.8823 160.014H81.1357V159.652H81.8823V160.014ZM80.389 160.014H79.6423V159.652H80.389V160.014ZM78.8957 160.014H78.149V159.652H78.8957V160.014ZM77.4023 160.014H76.6557V159.652H77.4023V160.014ZM75.909 160.014H75.1623V159.652H75.909V160.014ZM74.4157 160.014H73.669V159.652H74.4157V160.014ZM72.9223 160.014H72.1757V159.652H72.9223V160.014ZM71.429 160.014H70.6823V159.652H71.429V160.014ZM69.9357 160.014H69.189V159.652H69.9357V160.014ZM68.4423 160.014H67.6957V159.652H68.4423V160.014ZM66.949 160.014H66.2023V159.652H66.949V160.014ZM65.4557 160.014H64.709V159.652H65.4557V160.014Z" fill="#EBEBEB"/>
<path d="M63.9819 160.013H63.4219V159.471H63.7952V159.652H63.9819V160.013Z" fill="#EBEBEB"/>
<path d="M63.7952 158.765H63.4219V158.042H63.7952V158.765ZM63.7952 157.319H63.4219V156.595H63.7952V157.319ZM63.7952 155.872H63.4219V155.149H63.7952V155.872ZM63.7952 154.425H63.4219V153.702H63.7952V154.425ZM63.7952 152.979H63.4219V152.256H63.7952V152.979ZM63.7952 151.532H63.4219V150.809H63.7952V151.532ZM63.7952 150.086H63.4219V149.362H63.7952V150.086ZM63.7952 148.639H63.4219V147.916H63.7952V148.639ZM63.7952 147.193H63.4219V146.469H63.7952V147.193ZM63.7952 145.746H63.4219V145.023H63.7952V145.746ZM63.7952 144.299H63.4219V143.576H63.7952V144.299ZM63.7952 142.853H63.4219V142.129H63.7952V142.853ZM63.7952 141.406H63.4219V140.683H63.7952V141.406ZM63.7952 139.96H63.4219V139.236H63.7952V139.96ZM63.7952 138.513H63.4219V137.79H63.7952V138.513ZM63.7952 137.066H63.4219V136.343H63.7952V137.066ZM63.7952 135.62H63.4219V134.896H63.7952V135.62Z" fill="#EBEBEB"/>
<path d="M63.7952 134.177H63.4219V133.635H63.9819V133.997H63.7952V134.177Z" fill="#EBEBEB"/>
<path d="M89.349 133.997H88.6023V133.635H89.349V133.997ZM87.8557 133.997H87.109V133.635H87.8557V133.997ZM86.3623 133.997H85.6157V133.635H86.3623V133.997ZM84.869 133.997H84.1223V133.635H84.869V133.997ZM83.3757 133.997H82.629V133.635H83.3757V133.997ZM81.8823 133.997H81.1357V133.635H81.8823V133.997ZM80.389 133.997H79.6423V133.635H80.389V133.997ZM78.8957 133.997H78.149V133.635H78.8957V133.997ZM77.4023 133.997H76.6557V133.635H77.4023V133.997ZM75.909 133.997H75.1623V133.635H75.909V133.997ZM74.4157 133.997H73.669V133.635H74.4157V133.997ZM72.9223 133.997H72.1757V133.635H72.9223V133.997ZM71.429 133.997H70.6823V133.635H71.429V133.997ZM69.9357 133.997H69.189V133.635H69.9357V133.997ZM68.4423 133.997H67.6957V133.635H68.4423V133.997ZM66.949 133.997H66.2023V133.635H66.949V133.997ZM65.4557 133.997H64.709V133.635H65.4557V133.997Z" fill="#EBEBEB"/>
<path d="M90.6518 134.177H90.2785V133.997H90.0918V133.635H90.6518V134.177Z" fill="#EBEBEB"/>
<path d="M90.6526 158.765H90.2793V158.042H90.6526V158.765ZM90.6526 157.319H90.2793V156.595H90.6526V157.319ZM90.6526 155.872H90.2793V155.149H90.6526V155.872ZM90.6526 154.425H90.2793V153.702H90.6526V154.425ZM90.6526 152.979H90.2793V152.256H90.6526V152.979ZM90.6526 151.532H90.2793V150.809H90.6526V151.532ZM90.6526 150.086H90.2793V149.362H90.6526V150.086ZM90.6526 148.639H90.2793V147.916H90.6526V148.639ZM90.6526 147.193H90.2793V146.469H90.6526V147.193ZM90.6526 145.746H90.2793V145.023H90.6526V145.746ZM90.6526 144.299H90.2793V143.576H90.6526V144.299ZM90.6526 142.853H90.2793V142.129H90.6526V142.853ZM90.6526 141.406H90.2793V140.683H90.6526V141.406ZM90.6526 139.96H90.2793V139.236H90.6526V139.96ZM90.6526 138.513H90.2793V137.79H90.6526V138.513ZM90.6526 137.066H90.2793V136.343H90.6526V137.066ZM90.6526 135.62H90.2793V134.896H90.6526V135.62Z" fill="#EBEBEB"/>
<path d="M65.2843 158.211H61.9355V161.455H65.2843V158.211Z" fill="white"/>
<path d="M65.4677 161.638H61.7344V158.043H65.4677V161.638ZM62.1077 161.276H65.0944V158.383H62.1077V161.276Z" fill="#EBEBEB"/>
<path d="M65.298 145.203H61.9492V148.447H65.298V145.203Z" fill="white"/>
<path d="M65.4677 148.638H61.7344V145.022H65.4677V148.638ZM62.1077 148.276H65.0944V145.383H62.1077V148.276Z" fill="#EBEBEB"/>
<path d="M65.298 132.193H61.9492V135.437H65.298V132.193Z" fill="white"/>
<path d="M65.4677 135.621H61.7344V132.004H65.4677V135.621ZM62.1077 135.259H65.0944V132.366H62.1077V135.259Z" fill="#EBEBEB"/>
<path d="M92.1574 158.211H88.8086V161.455H92.1574V158.211Z" fill="white"/>
<path d="M92.329 161.638H88.5957V158.043H92.329V161.638ZM88.969 161.276H91.9557V158.383H88.969V161.276Z" fill="#EBEBEB"/>
<path d="M92.1574 145.203H88.8086V148.447H92.1574V145.203Z" fill="white"/>
<path d="M92.329 148.638H88.5957V145.022H92.329V148.638ZM88.969 148.276H91.9557V145.383H88.969V148.276Z" fill="#EBEBEB"/>
<path d="M92.1574 132.193H88.8086V135.437H92.1574V132.193Z" fill="white"/>
<path d="M92.329 135.621H88.5957V132.004H92.329V135.621ZM88.969 135.259H91.9557V132.366H88.969V135.259Z" fill="#EBEBEB"/>
<path d="M78.7277 132.193H75.3789V135.437H78.7277V132.193Z" fill="white"/>
<path d="M78.8993 135.619H75.166V132.002H78.8993V135.619ZM75.5393 135.257H78.526V132.364H75.5393V135.257Z" fill="#EBEBEB"/>
<path d="M78.7121 158.211H75.3633V161.455H78.7121V158.211Z" fill="white"/>
<path d="M78.8993 161.638H75.166V158.043H78.8993V161.638ZM75.5393 161.276H78.526V158.383H75.5393V161.276Z" fill="#EBEBEB"/>
<path d="M259.394 52.1327H231.309V61.7091H259.394V52.1327Z" fill="#EBEBEB"/>
<path d="M259.394 47.8301H231.309V52.1337H259.394V47.8301Z" fill="#DBDBDB"/>
<path d="M233.956 50.7734L232.459 49.3232L232.597 49.1858L234.098 50.636L233.956 50.7734Z" fill="white"/>
<path d="M232.597 50.7734L232.459 50.636L233.956 49.1858L234.098 49.3232L232.597 50.7734Z" fill="white"/>
<path d="M256.386 49.8412L256.246 49.9767L257.136 50.8386L257.276 50.7031L256.386 49.8412Z" fill="white"/>
<path d="M257.14 49.1208L256.25 49.9825L256.39 50.1181L257.28 49.2563L257.14 49.1208Z" fill="white"/>
<path d="M257.372 49.8568L257.232 49.9923L258.122 50.8542L258.262 50.7187L257.372 49.8568Z" fill="white"/>
<path d="M258.124 49.1322L257.234 49.9943L257.374 50.1298L258.264 49.2677L258.124 49.1322Z" fill="white"/>
<path d="M238.559 54.7697H234.311V58.8852H238.559V54.7697Z" fill="white"/>
<path d="M244.502 54.7697H240.254V58.8852H244.502V54.7697Z" fill="#DBDBDB"/>
<path d="M250.446 54.7697H246.197V58.8852H250.446V54.7697Z" fill="#C7C7C7"/>
<path d="M256.393 54.7697H252.145V58.8852H256.393V54.7697Z" fill="#A6A6A6"/>
<path d="M247.322 139.022H219.236V161.104H247.322V139.022Z" fill="#EBEBEB"/>
<path d="M247.322 134.715H219.236V139.019H247.322V134.715Z" fill="#DBDBDB"/>
<path d="M221.882 137.658L220.385 136.204L220.527 136.07L222.024 137.521L221.882 137.658Z" fill="white"/>
<path d="M220.527 137.658L220.385 137.521L221.882 136.07L222.024 136.204L220.527 137.658Z" fill="white"/>
<path d="M244.316 136.728L244.176 136.864L245.065 137.726L245.205 137.59L244.316 136.728Z" fill="white"/>
<path d="M245.063 136.006L244.174 136.867L244.314 137.003L245.203 136.141L245.063 136.006Z" fill="white"/>
<path d="M245.298 136.736L245.158 136.871L246.048 137.733L246.188 137.598L245.298 136.736Z" fill="white"/>
<path d="M246.049 136.017L245.16 136.879L245.3 137.014L246.189 136.152L246.049 136.017Z" fill="white"/>
<path d="M226.526 141.656H222.277V145.772H226.526V141.656Z" fill="#DBDBDB"/>
<path d="M244.276 143.205H229.865V144.218H244.276V143.205Z" fill="#DBDBDB"/>
<path d="M226.526 147.902H222.277V152.018H226.526V147.902Z" fill="#C7C7C7"/>
<path d="M244.276 149.453H229.865V150.466H244.276V149.453Z" fill="#C7C7C7"/>
<path d="M226.526 154.151H222.277V158.266H226.526V154.151Z" fill="#A6A6A6"/>
<path d="M244.276 155.703H229.865V156.716H244.276V155.703Z" fill="#A6A6A6"/>
<path d="M63.6227 76.2814H20.6035V115.553H63.6227V76.2814Z" fill="#EBEBEB"/>
<path d="M63.6227 71.975H20.6035V76.2786H63.6227V71.975Z" fill="#DBDBDB"/>
<path d="M23.2547 74.9217L21.7539 73.4715L21.8958 73.3341L23.3928 74.7843L23.2547 74.9217Z" fill="white"/>
<path d="M21.8958 74.9217L21.7539 74.7843L23.2547 73.3341L23.3928 73.4715L21.8958 74.9217Z" fill="white"/>
<path d="M60.6185 73.9935L60.4785 74.129L61.368 74.991L61.5079 74.8555L60.6185 73.9935Z" fill="white"/>
<path d="M61.3642 73.2692L60.4746 74.131L60.6145 74.2665L61.5042 73.4047L61.3642 73.2692Z" fill="white"/>
<path d="M61.5989 73.9935L61.459 74.129L62.3485 74.991L62.4884 74.8555L61.5989 73.9935Z" fill="white"/>
<path d="M62.3464 73.2689L61.457 74.131L61.597 74.2665L62.4863 73.4044L62.3464 73.2689Z" fill="white"/>
<path d="M62.6523 80.1055H21.5781V80.2863H62.6523V80.1055Z" fill="#DBDBDB"/>
<path d="M62.6523 84.0314H21.5781V84.2122H62.6523V84.0314Z" fill="#DBDBDB"/>
<path d="M62.6523 87.965H21.5781V88.1458H62.6523V87.965Z" fill="#DBDBDB"/>
<path d="M62.6523 91.8927H21.5781V92.0735H62.6523V91.8927Z" fill="#DBDBDB"/>
<path d="M62.6523 95.8204H21.5781V96.0013H62.6523V95.8204Z" fill="#DBDBDB"/>
<path d="M62.6523 99.7502H21.5781V99.9311H62.6523V99.7502Z" fill="#DBDBDB"/>
<path d="M62.6523 103.676H21.5781V103.857H62.6523V103.676Z" fill="#DBDBDB"/>
<path d="M62.6523 107.607H21.5781V107.788H62.6523V107.607Z" fill="#DBDBDB"/>
<path d="M62.6523 111.535H21.5781V111.716H62.6523V111.535Z" fill="#DBDBDB"/>
<path d="M24.5566 77.6642H26.9572L25.755 78.8251L24.5566 77.6642Z" fill="#DBDBDB"/>
<path d="M48.3119 77.7657H28.9434V78.7277H48.3119V77.7657Z" fill="#DBDBDB"/>
<path d="M24.5566 101.223H26.9572L25.755 102.384L24.5566 101.223Z" fill="#DBDBDB"/>
<path d="M48.3119 101.322H28.9434V102.284H48.3119V101.322Z" fill="#DBDBDB"/>
<path d="M29.541 83.3236V80.9982L30.7431 82.1591L29.541 83.3236Z" fill="#DBDBDB"/>
<path d="M51.8002 81.6776H32.4316V82.6396H51.8002V81.6776Z" fill="#DBDBDB"/>
<path d="M29.541 87.2552V84.9298L30.7431 86.0907L29.541 87.2552Z" fill="#DBDBDB"/>
<path d="M43.4674 85.6095H32.4316V86.5715H43.4674V85.6095Z" fill="#DBDBDB"/>
<path d="M29.541 91.181V88.8556L30.7431 90.0201L29.541 91.181Z" fill="#DBDBDB"/>
<path d="M47.6076 89.5392H32.4316V90.5012H47.6076V89.5392Z" fill="#DBDBDB"/>
<path d="M29.541 95.1109V92.7855L30.7431 93.9464L29.541 95.1109Z" fill="#DBDBDB"/>
<path d="M51.8002 93.465H32.4316V94.427H51.8002V93.465Z" fill="#DBDBDB"/>
<path d="M29.541 99.0384V96.713L30.7431 97.8739L29.541 99.0384Z" fill="#DBDBDB"/>
<path d="M45.4572 97.3927H32.4316V98.3547H45.4572V97.3927Z" fill="#DBDBDB"/>
<path d="M29.541 106.894V104.568L30.7431 105.733L29.541 106.894Z" fill="#DBDBDB"/>
<path d="M38.629 105.252H32.4316V106.214H38.629V105.252Z" fill="#DBDBDB"/>
<path d="M29.541 110.826V108.5L30.7431 109.661L29.541 110.826Z" fill="#DBDBDB"/>
<path d="M45.4572 109.18H32.4316V110.142H45.4572V109.18Z" fill="#DBDBDB"/>
<path d="M29.541 114.751V112.426L30.7431 113.59L29.541 114.751Z" fill="#DBDBDB"/>
<path d="M51.8002 113.109H32.4316V114.071H51.8002V113.109Z" fill="#DBDBDB"/>
<path d="M222.977 23.4375H57.0195V162.715H222.977V23.4375Z" fill="white"/>
<path d="M223.026 162.761H56.9746V23.3887H223.026V162.761ZM57.0679 162.67H222.932V23.4791H57.0679V162.67Z" fill="#263238"/>
<path d="M222.977 18.1055H57.0194V23.4362H222.977V18.1055Z" fill="#263238"/>
<path d="M61.1302 20.7685C61.1302 20.9882 61.0628 21.203 60.9367 21.3857C60.8106 21.5683 60.6314 21.7106 60.4218 21.7946C60.2121 21.8785 59.9815 21.9003 59.759 21.8571C59.5366 21.814 59.3324 21.7079 59.1723 21.5523C59.0121 21.3966 58.9033 21.1985 58.8595 20.9828C58.8157 20.7672 58.8389 20.5439 58.9262 20.3411C59.0135 20.1383 59.161 19.9651 59.35 19.8436C59.539 19.722 59.7609 19.6575 59.9878 19.6582C60.1381 19.6582 60.287 19.687 60.4258 19.7428C60.5646 19.7986 60.6907 19.8805 60.7969 19.9836C60.903 20.0868 60.9871 20.2092 61.0443 20.3439C61.1015 20.4785 61.1307 20.6228 61.1302 20.7685Z" fill="#C7C7C7"/>
<path d="M65.8001 20.7685C65.8001 20.9882 65.7328 21.203 65.6067 21.3857C65.4806 21.5683 65.3013 21.7106 65.0917 21.7946C64.882 21.8785 64.6514 21.9003 64.429 21.8571C64.2065 21.814 64.0023 21.7079 63.8422 21.5523C63.682 21.3966 63.5732 21.1985 63.5294 20.9828C63.4856 20.7672 63.5088 20.5439 63.5961 20.3411C63.6835 20.1383 63.8309 19.9651 64.0199 19.8436C64.2089 19.722 64.4308 19.6575 64.6577 19.6582C64.808 19.6582 64.9569 19.687 65.0957 19.7428C65.2346 19.7986 65.3607 19.8805 65.4668 19.9836C65.5729 20.0868 65.657 20.2092 65.7142 20.3439C65.7714 20.4785 65.8006 20.6228 65.8001 20.7685Z" fill="white"/>
<path d="M70.47 20.7685C70.47 20.9882 70.4027 21.203 70.2766 21.3857C70.1505 21.5683 69.9713 21.7106 69.7616 21.7946C69.552 21.8785 69.3213 21.9003 69.0989 21.8571C68.8765 21.814 68.6722 21.7079 68.5121 21.5523C68.352 21.3966 68.2431 21.1985 68.1993 20.9828C68.1555 20.7672 68.1787 20.5439 68.2661 20.3411C68.3534 20.1383 68.5009 19.9651 68.6898 19.8436C68.8788 19.722 69.1008 19.6575 69.3276 19.6582C69.4779 19.6582 69.6268 19.687 69.7656 19.7428C69.9045 19.7986 70.0306 19.8805 70.1367 19.9836C70.2429 20.0868 70.3269 20.2092 70.3841 20.3439C70.4413 20.4785 70.4705 20.6228 70.47 20.7685Z" fill="#A3D95D"/>
<path d="M148.418 127.301L143.087 140.591C142.053 143.123 141.194 145.365 140.847 146.566C140.845 146.571 140.845 146.578 140.847 146.584C140.738 146.856 140.694 147.149 140.72 147.441C140.72 147.441 140.72 147.441 140.72 147.462C141.291 148.273 161.963 156.865 162.788 156.92C163.613 156.974 163.867 154.71 163.34 153.759C162.814 152.808 156.426 146.106 156.426 146.106L161.619 132.783L148.418 127.301Z" fill="#DBDBDB"/>
<path d="M140.746 147.454C140.746 147.454 140.746 147.454 140.746 147.475C141.321 148.286 161.992 156.878 162.814 156.933C163.635 156.987 163.892 154.723 163.362 153.772C163.075 153.255 161.081 151.063 159.304 149.154C160.973 151.016 164.736 156.65 142.131 143.031C141.548 144.528 141.097 145.783 140.876 146.579C140.876 146.579 140.876 146.579 140.876 146.597C140.764 146.868 140.719 147.162 140.746 147.454Z" fill="#C7C7C7"/>
<path d="M144.797 136.341L158.263 141.404C158.263 141.404 166.633 122.436 169.836 113.713C171.33 109.666 165.834 86.7481 164.475 82.4843C163.725 80.3697 162.829 78.3061 161.795 76.3074L147.216 75.2224C147.216 75.2224 157.072 105.406 156.105 108.31C154.933 111.861 144.797 136.341 144.797 136.341Z" fill="#C7C7C7"/>
<path d="M157.13 75.9674L155.099 101.818C152.718 92.0861 147.211 75.2224 147.211 75.2224L157.13 75.9674Z" fill="#DBDBDB"/>
<path d="M164.683 84.0073C164.391 83.9219 164.093 83.8542 163.791 83.8047C163.556 83.7541 163.317 83.6926 163.086 83.6203C162.608 83.4955 162.175 83.2451 161.835 82.897C161.441 82.3672 161.165 81.7637 161.025 81.1249C160.905 80.738 160.786 80.3546 160.651 79.9713L160.472 79.4179C160.401 79.201 160.304 78.9767 160.252 78.7525C160.252 78.72 160.203 78.7525 160.215 78.7525C160.259 78.9044 160.282 79.0744 160.315 79.2335C160.349 79.3926 160.394 79.5951 160.431 79.7904C160.506 80.1195 160.577 80.4522 160.655 80.7813C160.768 81.3756 160.936 81.9589 161.155 82.5245C161.323 82.9214 161.595 83.269 161.944 83.5328C162.293 83.7967 162.707 83.9677 163.145 84.029C163.366 84.0664 163.59 84.0929 163.814 84.1085C164.095 84.1447 164.38 84.1447 164.661 84.1085C164.671 84.1049 164.68 84.0989 164.687 84.0911C164.694 84.0833 164.699 84.0739 164.701 84.0638C164.703 84.0537 164.703 84.0433 164.7 84.0334C164.696 84.0235 164.691 84.0145 164.683 84.0073Z" fill="#DBDBDB"/>
<path d="M126.186 99.8757L116.662 91.1961C114.489 89.4639 111.387 86.7768 110.864 86.7732C109.893 87.0517 94.8591 103.586 94.5381 104.328C94.217 105.069 96.3749 106.002 97.4725 105.81C98.5701 105.619 107.142 101.796 107.142 101.796L117.17 110.411L126.186 99.8757Z" fill="#DBDBDB"/>
<path d="M97.487 105.797C98.0433 105.696 100.474 104.694 102.74 103.714C100.074 104.365 94.8326 104.593 116.284 90.8681C114.149 89.1431 111.375 86.7634 110.878 86.7634C109.908 87.0383 94.8699 103.573 94.5563 104.314C94.2427 105.056 96.3894 105.989 97.487 105.797Z" fill="#C7C7C7"/>
<path d="M159.874 76.1774C159.874 76.1774 160.349 80.6655 159.128 84.1771C158.232 86.7412 157.34 88.987 156.91 89.1932C156.481 89.3993 154.073 90.2455 153.289 90.4987C153.289 90.4987 146.711 111.453 142.055 117.225C140.562 119.073 132.27 121.029 128.989 119.091C120.857 114.281 113.604 107.319 113.604 107.319L121.787 95.8366L131.99 104.155C131.99 104.155 138.688 88.8134 139.106 85.3922C139.442 82.6075 141.719 77.454 143.537 75.031L159.874 76.1774Z" fill="#C7C7C7"/>
<path d="M143.912 83.3463C144.341 83.3282 144.785 83.3861 145.219 83.4078C145.566 83.4259 145.917 83.4367 146.264 83.4331C146.928 83.4537 147.589 83.3302 148.198 83.0715C148.832 82.7065 149.36 82.1913 149.732 81.5742C149.979 81.2343 150.232 80.8943 150.479 80.5544C150.602 80.3916 150.725 80.2253 150.852 80.0662C151.017 79.8785 151.17 79.6817 151.311 79.4767C151.33 79.4477 151.379 79.4767 151.36 79.502C151.268 79.6439 151.186 79.7913 151.113 79.9432C151.016 80.1132 150.923 80.2868 150.826 80.4531C150.651 80.7569 150.479 81.0607 150.296 81.3609C149.999 81.9207 149.635 82.444 149.209 82.9196C148.384 83.7441 147.197 83.8996 146.066 83.8092C145.741 83.7803 145.416 83.7369 145.095 83.6899C144.687 83.6435 144.284 83.5636 143.889 83.4512C143.841 83.4331 143.841 83.3463 143.912 83.3463Z" fill="#DBDBDB"/>
<path d="M157.506 89.0011C155.791 89.3972 154.114 89.9369 152.495 90.6141C152.484 90.6202 152.475 90.6299 152.471 90.6416C152.466 90.6532 152.466 90.6661 152.469 90.678C152.473 90.69 152.482 90.7002 152.492 90.707C152.503 90.7138 152.516 90.7167 152.529 90.7153C154.209 90.2271 155.919 89.7714 157.573 89.1964C157.6 89.1878 157.622 89.1692 157.634 89.1448C157.647 89.1204 157.649 89.0921 157.64 89.0662C157.631 89.0403 157.612 89.0189 157.587 89.0067C157.562 88.9945 157.532 88.9925 157.506 89.0011Z" fill="#DBDBDB"/>
<path d="M159.259 78.4242C159.259 78.3699 159.162 78.3482 159.158 78.4242C158.949 80.2686 158.635 81.8779 158.269 83.5813C158.098 84.3733 156.907 88.7167 155.514 88.2357C155.283 88.1525 155.186 87.9102 155.189 87.5558C155.252 87.0987 155.371 86.6506 155.544 86.2213C155.813 85.3172 156.052 84.4131 156.242 83.4764C156.615 81.7494 156.802 79.9896 156.799 78.2253C156.796 78.2154 156.79 78.2068 156.781 78.2006C156.773 78.1945 156.762 78.1912 156.752 78.1912C156.741 78.1912 156.731 78.1945 156.723 78.2006C156.714 78.2068 156.708 78.2154 156.705 78.2253C156.459 80.6414 156.026 83.0362 155.41 85.3895C155.092 86.5215 154.29 88.1814 155.507 88.4997C156.724 88.8179 157.915 86.0152 158.161 85.2449C158.83 83.0267 159.198 80.7341 159.259 78.4242Z" fill="#DBDBDB"/>
<path d="M155.542 88.3381C155.379 88.622 155.234 88.9155 155.109 89.2169C154.99 89.4432 154.915 89.6881 154.885 89.9402C154.885 89.9908 154.952 90.0016 154.982 89.9727C155.159 89.7624 155.301 89.527 155.404 89.2747C155.546 89.0035 155.695 88.7359 155.829 88.461C155.837 88.4261 155.832 88.3897 155.815 88.3579C155.798 88.3261 155.771 88.3009 155.737 88.2864C155.703 88.272 155.666 88.2693 155.63 88.2787C155.594 88.2881 155.563 88.309 155.542 88.3381Z" fill="#DBDBDB"/>
<path d="M155.402 59.7705C158.229 60.6276 170.313 61.3979 173.546 58.2516C176.839 55.0437 178.026 43.6771 178.262 42.2486C178.84 38.9034 168.477 39.8256 168.294 40.7478C167.644 44.0243 167.547 52.429 166.229 53.0438C163.47 54.3168 160.711 54.8014 156.186 56.1974C153.032 57.1666 152.281 58.8193 155.402 59.7705Z" fill="#DBDBDB"/>
<path d="M178.097 42.8615C178.433 41.7766 179.564 36.558 179.534 35.0608C179.505 33.5635 179.094 29.2527 177.907 29.1587C176.72 29.0646 176.734 30.3376 176.734 30.3376C176.734 30.3376 176.264 28.5294 175.062 28.5547C173.86 28.58 173.942 30.5402 173.942 30.5402C173.942 30.5402 173.318 28.7319 172.12 28.8296C170.922 28.9272 171.358 30.8946 171.358 30.8946C171.358 30.8946 170.869 29.2165 169.914 29.6975C168.768 30.2762 170.026 33.267 169.932 34.9269C169.91 35.2886 168.936 42.5216 168.936 42.5216L178.097 42.8615Z" fill="#DBDBDB"/>
<path d="M171.33 30.7422C172.252 32.9446 172.263 34.0657 171.834 36.3694C171.834 36.379 171.838 36.3882 171.845 36.395C171.852 36.4018 171.861 36.4056 171.871 36.4056C171.881 36.4056 171.891 36.4018 171.898 36.395C171.905 36.3882 171.909 36.379 171.909 36.3694C172.536 34.1525 172.734 32.753 171.438 30.6735C171.36 30.5758 171.285 30.6229 171.33 30.7422Z" fill="#A6A6A6"/>
<path d="M173.873 30.3789C174.619 32.7477 174.649 33.9628 174.384 36.4075C174.386 36.4139 174.391 36.4195 174.396 36.4234C174.402 36.4273 174.409 36.4294 174.416 36.4294C174.423 36.4294 174.43 36.4273 174.435 36.4234C174.441 36.4195 174.445 36.4139 174.447 36.4075C174.914 34.0279 175.075 32.6247 174.003 30.3499C173.973 30.2487 173.839 30.2595 173.873 30.3789Z" fill="#A6A6A6"/>
<path d="M176.717 30.4634C177.277 32.8069 177.359 34.1378 176.788 36.4777C176.786 36.4831 176.786 36.4889 176.786 36.4945C176.787 36.5002 176.789 36.5057 176.791 36.5108C176.794 36.5158 176.798 36.5203 176.803 36.5239C176.807 36.5275 176.812 36.5302 176.818 36.5319C176.824 36.5336 176.83 36.5341 176.835 36.5336C176.841 36.533 176.847 36.5314 176.852 36.5287C176.857 36.526 176.862 36.5223 176.866 36.5179C176.869 36.5135 176.872 36.5084 176.874 36.503C177.699 34.1703 177.621 32.5248 176.796 30.4562C176.74 30.3152 176.684 30.3152 176.717 30.4634Z" fill="#A6A6A6"/>
<path d="M168.641 43.9915C168.641 43.9915 166.976 41.4853 166.498 40.2268C166.02 38.9682 166.009 33.6339 167.196 33.5797C168.727 33.4929 169.358 36.5669 169.462 38.1111C169.462 38.1111 173.005 37.905 173.942 40.017C174.879 42.129 168.641 43.9915 168.641 43.9915Z" fill="#DBDBDB"/>
<path d="M167.625 33.6927C169.081 34.5896 169.085 36.622 169.301 38.112C169.303 38.134 169.311 38.1552 169.323 38.1738C169.335 38.1925 169.352 38.2079 169.372 38.2189C169.392 38.2299 169.414 38.2361 169.437 38.237C169.46 38.2379 169.482 38.2335 169.503 38.2241C170.996 38.2241 173.098 38.6726 173.983 39.9275C173.988 39.9332 173.996 39.9369 174.004 39.9382C174.012 39.9394 174.02 39.9381 174.027 39.9344C174.034 39.9307 174.04 39.9249 174.044 39.9178C174.047 39.9106 174.048 39.9026 174.046 39.8949C173.3 38.4194 171.254 37.8299 169.619 37.9167C169.421 36.387 169.324 34.3473 167.629 33.6782C167.625 33.6746 167.625 33.6854 167.625 33.6927Z" fill="#A6A6A6"/>
<path d="M167.787 42.9548C167.787 42.9548 167.07 52.0756 166.294 52.5783C165.025 53.4137 157.334 55.6053 154.627 56.5275C151.921 57.4497 150.241 59.4207 157.349 60.8962C164.214 62.3139 171.535 62.6827 174.877 60.9468C178.939 58.8312 181.53 48.8063 181.53 48.8063L167.787 42.9548Z" fill="#C7C7C7"/>
<path d="M180.193 51.0662C174.693 48.4587 168.821 46.3394 167.794 45.9272C167.746 45.9055 167.731 45.9923 167.794 46.0103C168.754 46.4082 175.485 49.4641 180.193 51.1747C180.23 51.1819 180.245 51.0915 180.193 51.0662Z" fill="#A6A6A6"/>
<path opacity="0.1" d="M152.453 58.8611C152.894 59.5518 154.32 60.2715 157.359 60.8972C164.224 62.3148 171.545 62.6837 174.883 60.9478C175.347 60.696 175.771 60.3806 176.141 60.0111L152.453 58.8611Z" fill="black"/>
<path d="M157.214 47.2675C155.911 52.4391 147.84 57.9362 139.679 57.1405C132.765 56.457 126.985 49.0071 127.799 43.9368C128.643 38.5591 133.922 36.2698 137.947 37.5537C142.098 38.8773 143.431 42.548 146.656 42.9458C148.198 43.1375 150.625 42.1538 152.917 42.3383C155.475 42.5372 157.883 44.6203 157.214 47.2675Z" fill="#DBDBDB"/>
<path d="M150.931 42.4043C150.016 42.6009 149.086 42.7218 148.15 42.766C147.197 42.8253 146.243 42.6821 145.353 42.3464C144.916 42.1513 144.516 41.886 144.17 41.5617C143.815 41.2579 143.483 40.9396 143.147 40.6286C142.488 39.9926 141.796 39.3891 141.075 38.8204C140.365 38.2537 139.584 37.7773 138.749 37.4027C137.911 37.0357 137.005 36.8399 136.086 36.8275C135.166 36.8151 134.254 36.9862 133.407 37.3304C132.544 37.6682 131.725 38.104 130.969 38.6287C131.693 38.0506 132.491 37.5645 133.343 37.1821C134.208 36.8013 135.144 36.5946 136.095 36.5745C137.052 36.5637 138 36.7524 138.876 37.1279C139.742 37.5074 140.554 37.9936 141.291 38.5745C142.017 39.1509 142.71 39.7654 143.367 40.4152C143.699 40.7335 144.028 41.0517 144.371 41.3519C144.696 41.6576 145.066 41.9148 145.469 42.115C146.314 42.4628 147.228 42.6294 148.146 42.6032C149.078 42.6037 150.009 42.5372 150.931 42.4043Z" fill="#DBDBDB"/>
<path d="M156.858 48.3162C156.01 50.0878 154.886 51.7223 153.524 53.1622C152.168 54.6219 150.539 55.8196 148.723 56.6919C147.81 57.1196 146.846 57.4366 145.852 57.6358C145.606 57.6935 145.357 57.737 145.106 57.766C144.859 57.8101 144.609 57.8403 144.359 57.8564C144.105 57.8564 143.855 57.8998 143.612 57.9107H142.866C140.84 57.8217 138.852 57.3512 137.012 56.5256C137.49 56.6702 137.956 56.8474 138.438 56.9776C138.919 57.1078 139.397 57.2416 139.89 57.3212C140.862 57.525 141.853 57.6305 142.847 57.6358C144.834 57.6545 146.799 57.2249 148.585 56.3809C150.371 55.5355 151.982 54.3824 153.341 52.9778C154.721 51.579 155.907 50.012 156.869 48.3162H156.858Z" fill="#DBDBDB"/>
<path d="M149.544 60.2414C145.677 66.4328 139.659 75.6585 135.731 75.832C132.181 75.9912 126.316 73.3873 119.924 70.6026C118.655 70.0493 123.31 61.0515 124.602 61.7712C127.144 63.1888 132.927 66.733 134.622 66.8885C135.347 66.9536 143.026 60.679 147.387 57.6194C151.217 54.9324 150.299 59.0371 149.544 60.2414Z" fill="#DBDBDB"/>
<path d="M120.732 70.9468C119.56 70.8238 114.165 69.822 112.746 69.2145C111.328 68.6069 107.389 66.5817 107.759 65.4823C108.128 64.3829 109.33 64.8892 109.33 64.8892C109.33 64.8892 107.807 63.7789 108.281 62.7193C108.756 61.6596 110.604 62.4951 110.604 62.4951C110.604 62.4951 109.11 61.2401 109.678 60.2058C110.245 59.1715 111.936 60.3215 111.936 60.3215C111.936 60.3215 110.529 59.2366 111.358 58.5676C112.351 57.7647 114.718 60.0467 116.327 60.6036C116.7 60.7302 123.946 62.6469 123.946 62.6469L120.732 70.9468Z" fill="#DBDBDB"/>
<path d="M111.79 60.2081C113.529 61.8826 114.59 62.3238 116.949 62.8337C116.998 62.8337 116.99 62.9132 116.949 62.906C114.593 62.6131 113.179 62.2442 111.723 60.2877C111.625 60.19 111.704 60.1286 111.79 60.2081Z" fill="#A6A6A6"/>
<path d="M110.465 62.3429C112.432 63.9305 113.578 64.4188 116.009 65.1276C116.042 65.1276 116.031 65.1963 116.009 65.1891C113.563 64.6864 112.163 64.2886 110.409 62.4514C110.319 62.3718 110.375 62.2706 110.465 62.3429Z" fill="#A6A6A6"/>
<path d="M109.457 64.9239C111.473 66.3271 112.709 66.9166 115.158 67.3108C115.17 67.3108 115.181 67.3154 115.19 67.3235C115.198 67.3316 115.203 67.3427 115.203 67.3542C115.203 67.3657 115.198 67.3767 115.19 67.3849C115.181 67.393 115.17 67.3976 115.158 67.3976C112.619 67.2312 111.078 66.5116 109.431 64.989C109.308 64.8841 109.33 64.8371 109.457 64.9239Z" fill="#A6A6A6"/>
<path d="M125.458 62.9276C125.458 62.9276 123.715 60.472 122.703 59.557C121.691 58.6421 116.625 56.5807 116.102 57.615C115.43 58.9495 118.111 60.6998 119.541 61.3906C119.541 61.3906 117.976 64.4791 119.623 66.1354C121.269 67.7918 125.458 62.9276 125.458 62.9276Z" fill="#DBDBDB"/>
<path d="M116.042 58.0505C116.334 59.696 118.282 60.488 119.604 61.2547C119.624 61.2654 119.642 61.2806 119.655 61.2991C119.668 61.3176 119.677 61.3389 119.68 61.3612C119.682 61.3835 119.68 61.4061 119.672 61.4273C119.664 61.4484 119.651 61.4673 119.634 61.4826C119.066 62.8171 118.671 64.864 119.526 66.1442C119.532 66.1519 119.534 66.1615 119.533 66.171C119.531 66.1805 119.526 66.1891 119.518 66.1949C119.51 66.2006 119.5 66.2031 119.49 66.2017C119.481 66.2004 119.472 66.1953 119.466 66.1876C118.346 64.9327 118.577 62.893 119.294 61.4862C117.913 60.7159 116.009 59.8407 116.027 58.0686L116.042 58.0505Z" fill="#A6A6A6"/>
<path d="M126.187 62.1443C126.187 62.1443 133.937 66.6469 134.814 66.3648C136.274 65.9019 145.354 58.658 147.762 57.1319C150.17 55.6057 151.151 57.4465 149.86 59.9202C146.459 66.4299 140.844 76.632 135.397 78.0026C132.466 78.7476 121.781 75.6338 121.781 75.6338L126.187 62.1443Z" fill="#C7C7C7"/>
<path d="M145.656 67.3802C145.78 67.1605 145.892 66.9348 145.992 66.7039C146.119 66.4689 146.246 66.2374 146.365 66.0059L147.112 64.6534C147.608 63.7493 148.161 62.8777 148.687 61.988C148.687 61.988 148.713 61.988 148.706 61.988C148.254 62.9211 147.817 63.8505 147.302 64.751L147.269 64.8125L147.612 64.4328C147.851 64.1724 148.086 63.912 148.321 63.648C148.321 63.648 148.366 63.648 148.351 63.6733C148.142 63.9518 147.922 64.223 147.683 64.4834C147.563 64.6184 147.439 64.7486 147.31 64.874L147.127 65.0476C146.933 65.3839 146.753 65.7202 146.544 66.053C146.41 66.2844 146.272 66.5086 146.134 66.7365C145.971 66.9482 145.821 67.1679 145.682 67.3947C145.689 67.4417 145.633 67.4128 145.656 67.3802Z" fill="#A6A6A6"/>
<path d="M128.355 64.1649C126.377 69.416 124.906 74.9348 124.596 75.9076C124.596 75.951 124.667 75.9546 124.682 75.9076C124.969 74.9999 127.261 68.5915 128.449 64.1685C128.463 64.1179 128.374 64.1142 128.355 64.1649Z" fill="#A6A6A6"/>
<path d="M148.72 119.908L139.76 131.235C138.039 133.405 136.568 135.307 135.904 136.37C135.902 136.376 135.902 136.382 135.904 136.388C135.717 136.619 135.589 136.889 135.531 137.177C135.529 137.184 135.529 137.191 135.531 137.198C135.844 138.131 153.227 151.957 153.999 152.239C154.772 152.521 155.672 150.409 155.44 149.346C155.209 148.283 150.994 140.11 150.994 140.11L159.816 128.714L148.72 119.908Z" fill="#F7A9A0"/>
<path d="M142.441 127.857L154.119 136.099C154.119 136.099 166.633 122.436 169.837 113.713C171.33 109.666 165.834 86.7481 164.476 82.4843C163.725 80.3697 162.83 78.3061 161.795 76.3074L147.216 75.2224C147.216 75.2224 157.072 105.406 156.105 108.31C154.933 111.861 142.441 127.857 142.441 127.857Z" fill="#263238"/>
<path d="M157.13 75.9674L155.099 101.818C152.718 92.0861 147.211 75.2224 147.211 75.2224L157.13 75.9674Z" fill="#37474F"/>
<path d="M164.683 84.0073C164.391 83.9219 164.093 83.8542 163.791 83.8047C163.556 83.7541 163.317 83.6926 163.086 83.6203C162.608 83.4955 162.175 83.2451 161.835 82.897C161.441 82.3672 161.165 81.7637 161.025 81.1249C160.905 80.738 160.786 80.3546 160.651 79.9713L160.472 79.4179C160.401 79.201 160.304 78.9767 160.252 78.7525C160.252 78.72 160.203 78.7525 160.215 78.7525C160.259 78.9044 160.282 79.0744 160.315 79.2335C160.349 79.3926 160.394 79.5951 160.431 79.7904C160.506 80.1195 160.577 80.4522 160.655 80.7813C160.768 81.3756 160.936 81.9589 161.155 82.5245C161.323 82.9214 161.595 83.269 161.944 83.5328C162.293 83.7967 162.707 83.9677 163.145 84.029C163.366 84.0664 163.59 84.0929 163.814 84.1085C164.095 84.1447 164.38 84.1447 164.661 84.1085C164.671 84.1049 164.68 84.0989 164.687 84.0911C164.694 84.0833 164.699 84.0739 164.701 84.0638C164.703 84.0537 164.703 84.0433 164.7 84.0334C164.696 84.0235 164.691 84.0145 164.683 84.0073Z" fill="#37474F"/>
<path d="M135.545 137.175C135.545 137.175 135.545 137.194 135.545 137.197C135.862 138.13 153.241 151.956 154.014 152.242C154.787 152.527 155.686 150.408 155.451 149.349C155.324 148.774 154.04 146.13 152.886 143.815C153.947 146.058 155.944 152.495 138.143 133.299C137.154 134.579 136.359 135.664 135.903 136.365C135.719 136.604 135.596 136.882 135.545 137.175Z" fill="#263238"/>
<path d="M132.775 95.2435L124.905 85.1173C123.069 83.0523 120.478 79.8951 119.962 79.8083C118.958 79.9205 101.255 93.7571 100.81 94.437C100.366 95.1169 102.326 96.3863 103.442 96.3791C104.559 96.3718 113.676 94.003 113.676 94.003L122.053 104.129L132.775 95.2435Z" fill="#F7A9A0"/>
<path d="M103.442 96.3794C104.005 96.3794 106.563 95.779 108.982 95.1859C106.242 95.3921 101.037 94.7556 124.572 84.7415C122.769 82.691 120.466 79.8918 119.962 79.8123C118.957 79.9244 101.25 93.7574 100.81 94.4373C100.369 95.1172 102.325 96.3866 103.442 96.3794Z" fill="#263238"/>
<path d="M159.875 76.1779C159.875 76.1779 160.35 80.666 159.129 84.1776C158.233 86.7417 157.341 88.9875 156.911 89.1937C156.482 89.3998 154.074 90.2461 153.29 90.4992C153.29 90.4992 148.153 107.381 143.923 112.864C142.474 114.74 135.907 116.596 132.723 114.542C125.226 109.728 116.24 97.0848 116.24 97.0848L127.067 87.8736L136.311 98.8858C136.311 98.8858 138.707 88.7958 139.126 85.3747C139.462 82.59 141.739 77.4365 143.557 75.0134L159.875 76.1779Z" fill="#263238"/>
<path d="M143.912 83.3463C144.341 83.3282 144.785 83.3861 145.219 83.4078C145.566 83.4259 145.917 83.4367 146.264 83.4331C146.928 83.4537 147.589 83.3302 148.198 83.0715C148.832 82.7065 149.36 82.1913 149.732 81.5742C149.979 81.2343 150.232 80.8943 150.479 80.5544C150.602 80.3916 150.725 80.2253 150.852 80.0662C151.017 79.8785 151.17 79.6817 151.311 79.4767C151.33 79.4477 151.379 79.4767 151.36 79.502C151.268 79.6439 151.186 79.7913 151.113 79.9432C151.016 80.1132 150.923 80.2868 150.826 80.4531C150.651 80.7569 150.479 81.0607 150.296 81.3609C149.999 81.9207 149.635 82.444 149.209 82.9196C148.384 83.7441 147.197 83.8996 146.066 83.8092C145.741 83.7803 145.416 83.7369 145.095 83.6899C144.687 83.6435 144.284 83.5636 143.889 83.4512C143.841 83.4331 143.841 83.3463 143.912 83.3463Z" fill="#37474F"/>
<path d="M157.506 89.0011C155.791 89.3972 154.114 89.9369 152.495 90.6141C152.484 90.6202 152.475 90.6299 152.471 90.6416C152.466 90.6532 152.466 90.6661 152.469 90.678C152.473 90.69 152.482 90.7002 152.492 90.707C152.503 90.7138 152.516 90.7167 152.529 90.7153C154.209 90.2271 155.919 89.7714 157.573 89.1964C157.6 89.1878 157.622 89.1692 157.634 89.1448C157.647 89.1204 157.649 89.0921 157.64 89.0662C157.631 89.0403 157.612 89.0189 157.587 89.0067C157.562 88.9945 157.532 88.9925 157.506 89.0011Z" fill="#37474F"/>
<path d="M159.259 78.4242C159.259 78.3699 159.162 78.3482 159.158 78.4242C158.949 80.2686 158.635 81.8779 158.269 83.5813C158.098 84.3733 156.907 88.7167 155.514 88.2357C155.283 88.1525 155.186 87.9102 155.189 87.5558C155.252 87.0987 155.371 86.6506 155.544 86.2213C155.813 85.3172 156.052 84.4131 156.242 83.4764C156.615 81.7494 156.802 79.9896 156.799 78.2253C156.796 78.2154 156.79 78.2068 156.781 78.2006C156.773 78.1945 156.762 78.1912 156.752 78.1912C156.741 78.1912 156.731 78.1945 156.723 78.2006C156.714 78.2068 156.708 78.2154 156.705 78.2253C156.459 80.6414 156.026 83.0362 155.41 85.3895C155.092 86.5215 154.29 88.1814 155.507 88.4997C156.724 88.8179 157.915 86.0152 158.161 85.2449C158.83 83.0267 159.198 80.7341 159.259 78.4242Z" fill="#37474F"/>
<path d="M155.542 88.3381C155.379 88.622 155.234 88.9155 155.109 89.2169C154.99 89.4432 154.915 89.6881 154.885 89.9402C154.885 89.9908 154.952 90.0016 154.982 89.9727C155.159 89.7624 155.301 89.527 155.404 89.2747C155.546 89.0035 155.695 88.7359 155.829 88.461C155.837 88.4261 155.832 88.3897 155.815 88.3579C155.798 88.3261 155.771 88.3009 155.737 88.2864C155.703 88.272 155.666 88.2693 155.63 88.2787C155.594 88.2881 155.563 88.309 155.542 88.3381Z" fill="#37474F"/>
<path d="M157.087 45.1403C158.072 50.3734 153.021 58.5792 145.222 61.0528C138.618 63.154 130.221 58.6226 128.818 53.6788C127.324 48.4349 131.188 44.276 135.403 43.8456C139.753 43.4153 142.497 46.2433 145.625 45.3356C147.119 44.9016 148.918 43.0428 151.087 42.3086C153.51 41.5021 156.583 42.4569 157.087 45.1403Z" fill="#263238"/>
<path d="M149.303 43.1774C148.553 43.7241 147.756 44.208 146.921 44.624C146.077 45.0546 145.145 45.3014 144.192 45.3473C143.71 45.34 143.232 45.2557 142.777 45.0978C142.329 44.9567 141.889 44.8012 141.452 44.6457C140.585 44.3274 139.701 44.0522 138.805 43.8211C137.918 43.5863 137.003 43.4647 136.083 43.4595C135.164 43.4544 134.254 43.6329 133.409 43.9838C132.565 44.3347 131.804 44.8506 131.174 45.4992C130.528 46.1478 129.964 46.869 129.494 47.6474C129.91 46.8317 130.433 46.0719 131.051 45.3871C131.68 44.6962 132.449 44.1375 133.31 43.7452C134.179 43.3578 135.123 43.1556 136.08 43.1521C137.029 43.156 137.974 43.2776 138.891 43.5137C139.796 43.7538 140.687 44.0411 141.56 44.3745C141.997 44.5336 142.434 44.6963 142.871 44.8374C143.297 44.9867 143.743 45.0757 144.196 45.1014C145.115 45.0859 146.019 44.8774 146.847 44.4902C147.698 44.1119 148.519 43.6731 149.303 43.1774Z" fill="#263238"/>
<path d="M157.206 46.2361C157.175 48.1867 156.835 50.1212 156.198 51.9718C155.57 53.8382 154.586 55.574 153.297 57.0891C152.638 57.8411 151.886 58.5115 151.057 59.0854C150.856 59.2336 150.647 59.3712 150.43 59.4977C150.221 59.6305 150.004 59.7512 149.781 59.8594C149.557 59.9751 149.336 60.0981 149.109 60.221L148.414 60.514C146.536 61.2294 144.533 61.5856 142.516 61.5627C143.012 61.5085 143.512 61.4832 144.009 61.4145C144.505 61.3457 144.998 61.277 145.48 61.1541C146.453 60.9567 147.403 60.6621 148.313 60.2753C150.135 59.5077 151.747 58.3416 153.025 56.8685C154.299 55.3905 155.286 53.7008 155.937 51.8814C156.278 50.9744 156.553 50.045 156.758 49.1003C156.977 48.1569 157.126 47.1998 157.206 46.2361Z" fill="#263238"/>
<path d="M155.396 59.5356C157.924 61.0292 169.463 64.5987 173.383 62.295C177.378 59.9515 181.343 49.1961 181.94 47.8689C183.333 44.7551 173.044 43.2325 172.637 44.0824C171.192 47.113 169.001 55.2465 167.578 55.5286C164.591 56.1181 161.784 55.9445 157.046 56.2519C153.742 56.4544 152.6 57.8865 155.396 59.5356Z" fill="#F7A9A0"/>
<path d="M181.622 48.426C182.223 47.4424 184.608 42.6397 184.959 41.1931C185.31 39.7465 185.975 35.4392 184.847 35.0776C183.72 34.716 183.417 35.9456 183.417 35.9456C183.417 35.9456 183.417 34.0939 182.238 33.8263C181.058 33.5587 180.662 35.4935 180.662 35.4935C180.662 35.4935 180.509 33.5948 179.322 33.4068C178.135 33.2187 178.064 35.215 178.064 35.215C178.064 35.215 178.008 33.4755 176.963 33.7178C175.704 34.0107 176.182 37.2113 175.678 38.7809C175.566 39.1425 172.822 45.9234 172.822 45.9234L181.622 48.426Z" fill="#F7A9A0"/>
<path d="M178.08 35.0816C178.427 37.4359 178.158 38.5208 177.169 40.6582C177.164 40.6668 177.163 40.677 177.166 40.6865C177.168 40.696 177.175 40.704 177.184 40.7088C177.193 40.7136 177.203 40.7148 177.213 40.7121C177.223 40.7094 177.231 40.703 177.236 40.6943C178.401 38.6908 178.939 37.3708 178.196 35.0599C178.155 34.9333 178.057 34.9586 178.08 35.0816Z" fill="#263238"/>
<path d="M180.633 35.3152C180.771 37.7925 180.491 38.9751 179.629 41.286C179.629 41.3186 179.67 41.3403 179.689 41.3077C180.73 39.1089 181.238 37.7853 180.764 35.3297C180.741 35.2176 180.626 35.2031 180.633 35.3152Z" fill="#263238"/>
<path d="M183.37 36.0718C183.329 38.4768 183.078 39.7859 181.943 41.9269C181.938 41.937 181.936 41.9489 181.939 41.9601C181.942 41.9713 181.95 41.9808 181.96 41.9866C181.971 41.9923 181.983 41.9938 181.995 41.9908C182.006 41.9877 182.016 41.9804 182.022 41.9703C183.399 39.8981 183.724 38.267 183.448 36.0791C183.429 35.9308 183.373 35.9199 183.37 36.0718Z" fill="#263238"/>
<path d="M172.166 47.3146C172.166 47.3146 171.177 44.4937 171.024 43.1628C170.871 41.832 172.185 36.6532 173.354 36.8738C174.847 37.1486 174.709 40.2769 174.429 41.7994C174.429 41.7994 177.919 42.4287 178.311 44.6926C178.703 46.9565 172.166 47.3146 172.166 47.3146Z" fill="#F7A9A0"/>
<path d="M173.741 37.0788C174.932 38.2903 174.428 40.2649 174.271 41.7802C174.267 41.802 174.269 41.8243 174.277 41.8452C174.284 41.8661 174.297 41.885 174.313 41.9003C174.33 41.9155 174.35 41.9267 174.371 41.9329C174.393 41.9391 174.416 41.94 174.439 41.9357C175.884 42.2973 177.799 43.2087 178.366 44.6372C178.366 44.6458 178.37 44.6541 178.376 44.6602C178.382 44.6663 178.391 44.6698 178.4 44.6698C178.409 44.6698 178.417 44.6663 178.424 44.6602C178.43 44.6541 178.434 44.6458 178.434 44.6372C178.06 43.0279 176.238 41.9791 174.629 41.6862C174.82 40.1528 175.234 38.1492 173.756 37.1041C173.744 37.0607 173.733 37.0715 173.741 37.0788Z" fill="#263238"/>
<path d="M171.594 46.1091C171.594 46.1091 168.629 54.7887 167.763 55.1033C166.322 55.6205 158.322 55.9532 155.443 56.2136C152.565 56.474 150.467 58.0037 157 61.0886C163.309 64.0686 170.332 66.1517 173.998 65.2295C178.478 64.1264 183.473 55.0021 183.473 55.0021L171.594 46.1091Z" fill="#455A64"/>
<path d="M181.618 56.8788C176.926 53.0742 171.755 49.6458 170.866 48.984C170.822 48.9514 170.788 49.031 170.829 49.0636C171.665 49.6711 177.437 54.2062 181.577 56.9656C181.626 56.9981 181.663 56.9149 181.618 56.8788Z" fill="#263238"/>
<path opacity="0.1" d="M152.756 57.9705C153.01 58.7444 154.223 59.7787 157.012 61.0915C163.321 64.0678 170.34 66.1546 174.006 65.2324C174.519 65.0963 175.01 64.8892 175.462 64.6176L152.756 57.9705Z" fill="black"/>
<path d="M161.903 76.3073L143.359 75.0126C143.359 75.0126 145.655 62.6587 149.012 57.8271C150.539 55.6247 152.853 55.8019 154.586 56.7892C155.019 57.0387 160.256 61.9499 160.996 63.9137C161.649 65.6496 160.477 67.8918 160.477 67.8918L161.903 76.3073Z" fill="#455A64"/>
<path d="M152.356 68.6225C152.995 68.4452 153.643 68.304 154.298 68.1994C154.623 68.1451 154.951 68.1126 155.283 68.0873L155.758 68.0583C155.933 68.0583 156.108 68.0583 156.28 68.0583V68.0873C156.12 68.0873 155.955 68.1415 155.795 68.1668L155.302 68.2356C154.977 68.2862 154.649 68.3368 154.324 68.3802C153.667 68.4706 153.014 68.5683 152.364 68.6804C152.356 68.6813 152.348 68.6792 152.342 68.6745C152.335 68.6697 152.331 68.6627 152.33 68.6551C152.329 68.6474 152.332 68.6397 152.336 68.6336C152.341 68.6274 152.349 68.6235 152.356 68.6225Z" fill="#263238"/>
<path d="M150.47 60.4739C145.531 65.8987 137.923 73.9562 134.021 73.4535C130.497 73.0014 125.199 69.432 119.42 65.5985C118.27 64.8354 124.498 56.7779 125.633 57.7073C127.873 59.5373 132.924 64.0181 134.563 64.4593C135.265 64.6474 143.971 59.7868 148.82 57.5229C153.065 55.5338 151.43 59.4179 150.47 60.4739Z" fill="#F7A9A0"/>
<path d="M120.156 66.0763C119.036 65.7544 113.895 63.8449 112.611 63.0059C111.327 62.1669 107.817 59.4907 108.381 58.4744C108.945 57.4582 110.039 58.1634 110.039 58.1634C110.039 58.1634 108.74 56.8036 109.404 55.8308C110.069 54.8579 111.73 56.008 111.73 56.008C111.73 56.008 110.505 54.5216 111.252 53.5958C111.999 52.67 113.455 54.0949 113.455 54.0949C113.455 54.0949 112.268 52.7857 113.205 52.2866C114.325 51.6646 116.236 54.3191 117.726 55.14C118.062 55.3281 124.849 58.46 124.849 58.46L120.156 66.0763Z" fill="#F7A9A0"/>
<path d="M113.313 53.9774C114.721 55.9267 115.684 56.5415 117.913 57.4456C117.958 57.4456 117.939 57.5288 117.913 57.5143C115.647 56.8236 114.321 56.2196 113.231 54.0389C113.157 53.934 113.246 53.887 113.313 53.9774Z" fill="#263238"/>
<path d="M111.626 55.8479C113.268 57.7466 114.31 58.4265 116.572 59.5404C116.602 59.5404 116.572 59.6091 116.546 59.5946C114.232 58.6833 112.925 58.0504 111.54 55.9456C111.473 55.8479 111.547 55.7611 111.626 55.8479Z" fill="#263238"/>
<path d="M110.154 58.2257C111.886 59.9544 112.991 60.7573 115.332 61.5529C115.344 61.5563 115.353 61.5639 115.359 61.574C115.364 61.5842 115.366 61.5961 115.362 61.6071C115.359 61.6182 115.351 61.6274 115.34 61.6328C115.33 61.6383 115.317 61.6394 115.306 61.6361C112.838 61.0357 111.45 60.0629 110.106 58.2836C110.016 58.1498 110.046 58.1064 110.154 58.2257Z" fill="#263238"/>
<path d="M126.267 58.9954C126.267 58.9954 125.002 56.283 124.173 55.2089C123.344 54.1348 118.733 51.2308 118.031 52.1674C117.124 53.3645 119.443 55.5452 120.723 56.4711C120.723 56.4711 118.621 59.2413 119.939 61.1544C121.257 63.0675 126.267 58.9954 126.267 58.9954Z" fill="#F7A9A0"/>
<path d="M117.894 52.5748C117.894 54.2456 119.641 55.3523 120.813 56.3396C120.832 56.3523 120.847 56.3691 120.857 56.3886C120.868 56.4081 120.873 56.4297 120.873 56.4517C120.873 56.4736 120.868 56.4953 120.857 56.5148C120.847 56.5343 120.832 56.5511 120.813 56.5638C120.011 57.7826 119.249 59.7282 119.854 61.135C119.856 61.1427 119.855 61.1507 119.851 61.1579C119.848 61.165 119.842 61.1708 119.835 61.1745C119.828 61.1782 119.82 61.1795 119.812 61.1783C119.804 61.177 119.796 61.1733 119.791 61.1676C118.928 59.7463 119.518 57.7753 120.481 56.4951C119.264 55.5006 117.547 54.3252 117.89 52.5712C117.879 52.564 117.894 52.564 117.894 52.5748Z" fill="#263238"/>
<path d="M127.138 58.3475C127.138 58.3475 133.943 64.105 134.858 63.982C136.378 63.7722 146.637 58.1956 149.287 57.1107C151.938 56.0257 152.565 58.0039 150.84 60.2172C146.308 66.0325 138.916 75.1208 133.294 75.5439C130.274 75.7753 120.324 70.8786 120.324 70.8786L127.138 58.3475Z" fill="#455A64"/>
<path d="M145.337 66.8332C145.498 66.6369 145.649 66.4329 145.789 66.222L146.293 65.6036L147.286 64.3993C147.939 63.5964 148.641 62.8334 149.321 62.0486C148.705 62.8912 148.104 63.7302 147.432 64.5295L147.387 64.5837L147.797 64.2727L148.637 63.6218C148.656 63.6218 148.679 63.6218 148.664 63.6471C148.408 63.8892 148.139 64.1174 147.857 64.3306C147.715 64.4427 147.57 64.5512 147.42 64.6524L147.211 64.7899C146.961 65.09 146.707 65.3866 146.465 65.6831C146.289 65.8857 146.114 66.0846 145.935 66.2835C145.755 66.4824 145.528 66.6451 145.371 66.8549C145.36 66.9055 145.307 66.8585 145.337 66.8332Z" fill="#263238"/>
<path d="M128.897 60.7043C125.993 65.5359 123.536 70.7147 123.051 71.6188C123.028 71.6586 123.11 71.6767 123.137 71.6188C123.585 70.7725 127.012 64.8596 128.987 60.7115C129.009 60.6753 128.923 60.6609 128.897 60.7043Z" fill="#263238"/>
<path d="M150.584 56.7217C150.718 57.0472 152.716 58.9893 154.291 58.6891C154.806 58.5878 154.369 55.8502 154.369 55.8502V55.6404L154.586 52.7111L150.826 51.0728L150.285 50.863C150.285 50.863 150.285 51.6695 150.285 52.6713V52.7979C150.285 52.8557 150.285 52.91 150.285 52.9642C150.285 53.1125 150.285 53.2644 150.285 53.4163C150.285 53.5682 150.285 53.6477 150.285 53.7779C150.285 53.9081 150.285 54.0202 150.285 54.1396C150.325 55.0058 150.424 55.8685 150.584 56.7217Z" fill="#F7A9A0"/>
<path d="M150.293 52.6713C150.713 53.4258 151.298 54.0825 152.007 54.5953C152.717 55.1081 153.533 55.4648 154.399 55.6404L154.616 52.7111L150.826 51.0728L150.285 50.863C150.285 50.863 150.289 51.6695 150.293 52.6713Z" fill="#263238"/>
<path d="M158.054 46.8118C160.365 51.4553 157.755 53.3214 156.721 53.8024C155.784 54.24 152.529 55.6107 149.736 51.2239C146.944 46.8371 148.441 44.3272 150.531 43.217C152.622 42.1067 155.743 42.1682 158.054 46.8118Z" fill="#F7A9A0"/>
<path d="M156.978 46.324C156.855 46.3583 156.73 46.3849 156.604 46.4035C156.483 46.4435 156.352 46.4435 156.231 46.4035C156.195 46.3842 156.166 46.3539 156.149 46.3174C156.133 46.2809 156.128 46.24 156.138 46.201C156.168 46.1258 156.219 46.0599 156.284 46.0102C156.35 45.9606 156.428 45.929 156.511 45.9189C156.676 45.8701 156.853 45.8843 157.007 45.9587C157.045 45.9755 157.076 46.0029 157.097 46.0374C157.118 46.0718 157.127 46.1116 157.124 46.1514C157.121 46.1912 157.105 46.2291 157.079 46.26C157.053 46.2908 157.017 46.3131 156.978 46.324Z" fill="#263238"/>
<path d="M153.655 47.7789C153.76 47.7138 153.85 47.6378 153.95 47.5655C154.051 47.4932 154.159 47.4281 154.208 47.2942C154.218 47.2552 154.214 47.2142 154.197 47.1775C154.18 47.1408 154.151 47.1106 154.115 47.0917C154.036 47.0651 153.951 47.0592 153.869 47.0744C153.787 47.0896 153.711 47.1256 153.648 47.1785C153.504 47.2698 153.399 47.4086 153.353 47.5691C153.346 47.6063 153.35 47.6446 153.364 47.6797C153.379 47.7148 153.404 47.7451 153.435 47.7671C153.467 47.7891 153.505 47.8019 153.544 47.804C153.583 47.8061 153.621 47.7974 153.655 47.7789Z" fill="#263238"/>
<path d="M154.961 48.5896C154.961 48.5896 154.943 48.6185 154.961 48.6294C155.129 48.9404 155.268 49.3237 155.025 49.5697C155.361 49.3671 155.174 48.8608 154.961 48.5896Z" fill="#263238"/>
<path d="M154.507 48.4003C153.962 48.6064 154.433 49.6444 154.937 49.4527C155.441 49.261 154.963 48.2267 154.507 48.4003Z" fill="#263238"/>
<path d="M154.319 48.542C154.252 48.6396 154.207 48.7807 154.099 48.8385C154.032 48.8613 153.959 48.8673 153.889 48.856C153.818 48.8446 153.752 48.8162 153.696 48.7734C153.677 48.7734 153.696 48.7734 153.696 48.7734C153.782 48.976 153.953 49.1351 154.189 49.0809C154.424 49.0266 154.465 48.7879 154.428 48.5637C154.405 48.542 154.345 48.5022 154.319 48.542Z" fill="#263238"/>
<path d="M156.777 47.7361C156.777 47.7361 156.811 47.7361 156.818 47.7361C156.949 48.0616 157.158 48.416 157.505 48.3979C157.121 48.5462 156.848 48.0724 156.777 47.7361Z" fill="#263238"/>
<path d="M156.926 47.2851C157.445 47.0211 157.945 48.0446 157.467 48.2869C156.989 48.5292 156.493 47.5021 156.926 47.2851Z" fill="#263238"/>
<path d="M157.172 47.2494C157.284 47.2494 157.414 47.3254 157.515 47.2856C157.616 47.2458 157.668 47.0903 157.687 46.9529C157.687 46.9529 157.687 46.9529 157.709 46.9529C157.81 47.1446 157.844 47.3796 157.668 47.5062C157.493 47.6328 157.295 47.5062 157.153 47.3398C157.134 47.3109 157.134 47.2422 157.172 47.2494Z" fill="#263238"/>
<path d="M156.116 51.249C156.225 51.3217 156.358 51.3527 156.49 51.3358C156.615 51.2871 156.728 51.2131 156.822 51.1188H156.844C156.82 51.2027 156.772 51.2785 156.706 51.3378C156.641 51.3971 156.559 51.4377 156.471 51.4551C156.396 51.4634 156.32 51.4496 156.254 51.4154C156.187 51.3811 156.133 51.3282 156.098 51.2634C156.098 51.2634 156.098 51.2417 156.116 51.249Z" fill="#263238"/>
<path d="M157.15 50.1655C157.107 50.4081 157 50.6359 156.84 50.8273C156.751 50.9282 156.63 50.999 156.497 51.0299C156.202 51.0986 156.071 50.8707 156.011 50.6501C155.979 50.5322 155.963 50.4106 155.963 50.2885C156.362 50.3716 156.778 50.3285 157.15 50.1655Z" fill="#263238"/>
<path d="M156.841 50.8288C156.751 50.9296 156.631 51.0004 156.497 51.0313C156.202 51.1 156.071 50.8722 156.012 50.6516C156.15 50.5869 156.307 50.5692 156.458 50.6013C156.608 50.6335 156.743 50.7136 156.841 50.8288Z" fill="#FF9BBC"/>
<path d="M156.956 49.4869C156.956 49.4869 157.247 49.9353 157.351 50.1632C157.351 50.1849 157.31 50.2174 157.236 50.2572C157.052 50.3802 156.837 50.4518 156.615 50.4639C156.392 50.476 156.17 50.4283 155.974 50.3259C155.948 50.3259 155.974 50.2753 155.996 50.2789C156.383 50.3469 156.783 50.2911 157.135 50.1198C157.135 50.0511 156.612 49.3675 156.649 49.3495C156.838 49.2869 157.033 49.248 157.232 49.2337C156.653 48.2826 155.925 47.4255 155.365 46.4744C155.343 46.4418 155.391 46.4093 155.417 46.4346C156.229 47.327 156.946 48.2963 157.557 49.3278C157.628 49.4471 157.068 49.4869 156.956 49.4869Z" fill="#263238"/>
<path d="M149.91 51.3525C150.444 51.0958 151.228 49.0488 150.149 46.4667C150.149 46.4667 150.952 48.8499 150.922 49.2586C150.892 49.6673 151.359 48.1122 150.519 46.0038C151.395 46.1935 152.296 46.2605 153.192 46.2027C154.312 46.0616 154.932 45.7976 154.973 45.7C155.014 45.6023 153.33 45.7542 152.733 45.4721C152.733 45.4721 155.943 45.577 157.213 45.1611C157.358 45.1105 156.249 42.6621 153.812 42.239C151.374 41.8159 148.958 43.899 148.469 44.9948C148.469 44.9948 147.722 45.4034 147.383 47.2153C147.017 49.1826 149.332 51.6418 149.91 51.3525Z" fill="#263238"/>
<path d="M150.58 52.9396C150.665 52.9398 150.75 52.9301 150.834 52.9107C150.916 52.8971 150.996 52.8702 151.069 52.8311C151.167 52.7861 151.253 52.7192 151.319 52.6358C151.375 52.5734 151.42 52.5026 151.453 52.4261C151.5 52.3181 151.528 52.2031 151.535 52.0861L150.755 50.8999C150.755 50.8999 149.079 49.7969 148.515 50.4298C147.951 51.0627 149.635 52.9432 150.58 52.9396Z" fill="#F7A9A0"/>
<path d="M149.016 50.9592V50.9809C149.332 51.0117 149.639 51.1065 149.915 51.2591C150.192 51.4117 150.432 51.6188 150.621 51.8669C150.565 51.8223 150.5 51.79 150.43 51.7722C150.361 51.7545 150.288 51.7517 150.216 51.7641C150.145 51.7765 150.078 51.8037 150.019 51.844C149.96 51.8842 149.91 51.9365 149.874 51.9971C149.874 52.0152 149.874 52.0297 149.9 52.0224C149.99 51.9535 150.099 51.9131 150.214 51.9066C150.328 51.9001 150.442 51.9279 150.539 51.9863C150.7 52.0922 150.85 52.2133 150.987 52.3479C151.032 52.3877 151.117 52.3262 151.073 52.2756C150.804 51.5306 149.837 50.7386 149.016 50.9592Z" fill="#263238"/>
<path d="M150.569 52.7104C150.585 52.7374 150.608 52.7608 150.634 52.7793C150.66 52.7978 150.69 52.811 150.722 52.8181C150.754 52.8252 150.786 52.826 150.818 52.8206C150.85 52.8151 150.881 52.8035 150.908 52.7864C150.95 52.7613 150.982 52.725 151.002 52.6819C151.022 52.6389 151.029 52.5911 151.021 52.5445C151.013 52.498 150.99 52.4548 150.957 52.4204C150.924 52.3861 150.881 52.3621 150.833 52.3514C150.786 52.3408 150.736 52.3441 150.69 52.3608C150.645 52.3775 150.605 52.407 150.577 52.4454C150.549 52.4838 150.533 52.5295 150.531 52.5767C150.53 52.6238 150.543 52.6704 150.569 52.7104Z" fill="white"/>
<path d="M149.964 52.5455C149.988 52.5834 150.027 52.6104 150.071 52.6206C150.116 52.6308 150.163 52.6233 150.202 52.5998C150.242 52.5763 150.269 52.5387 150.28 52.4953C150.29 52.4519 150.283 52.4062 150.259 52.3683C150.246 52.3496 150.231 52.3333 150.212 52.3204C150.194 52.3075 150.173 52.2983 150.151 52.2933C150.128 52.2882 150.105 52.2875 150.083 52.291C150.06 52.2946 150.039 52.3024 150.02 52.3141C150 52.3257 149.983 52.3409 149.97 52.3588C149.957 52.3768 149.947 52.3971 149.942 52.4186C149.937 52.44 149.936 52.4623 149.94 52.4841C149.943 52.5059 149.952 52.5268 149.964 52.5455Z" fill="white"/>
<path d="M147.174 58.0938C147.174 58.0938 152.475 61.8911 155.07 61.0485C157.664 60.2058 155.962 56.1699 155.962 56.1699C154.8 55.9828 153.621 55.9209 152.445 55.9854C149.776 56.0939 147.174 58.0938 147.174 58.0938Z" fill="#F7A9A0"/>
<path d="M145.405 137.84L145.252 137.738L164.012 110.376L160.141 82.7752L147.753 81.7481L138.741 109.881L138.629 109.772L116.916 88.5832L117.047 88.4566L138.655 109.541L147.619 81.5564L160.309 82.6052L160.316 82.6775L164.206 110.42L164.187 110.448L145.405 137.84Z" fill="#A3D95D"/>
<path d="M153.71 58.5823L153.523 58.5916L154.777 82.2411L154.964 82.2318L153.71 58.5823Z" fill="#A3D95D"/>
<path d="M134.358 70.3442L134.302 70.3044L118.85 59.9649L118.958 59.8166L134.35 70.1163L148.739 59.0391H148.765L157.643 58.0626L172.333 60.0734L178.172 42.2224L178.351 42.2767L172.464 60.2759L157.639 58.2434L148.813 59.2126L134.358 70.3442Z" fill="#A3D95D"/>
<path d="M153.521 58.5983L152.785 47.0653L152.972 47.0544L153.707 58.5874L153.521 58.5983Z" fill="#A3D95D"/>
<path d="M119.461 59.5615L118.459 58.9451L117.823 59.916L118.825 60.5324L119.461 59.5615Z" fill="#A3D95D"/>
<path d="M117.448 88.1835L116.561 87.4196L115.772 88.2792L116.659 89.0431L117.448 88.1835Z" fill="#A3D95D"/>
<path d="M139.55 109.658L138.662 108.894L137.874 109.754L138.761 110.518L139.55 109.658Z" fill="#A3D95D"/>
<path d="M145.977 137.928L145.021 137.246L144.317 138.172L145.273 138.854L145.977 137.928Z" fill="#A3D95D"/>
<path d="M164.936 110.309L163.98 109.627L163.276 110.552L164.232 111.235L164.936 110.309Z" fill="#A3D95D"/>
<path d="M160.823 82.2133L159.645 82.0759L159.503 83.2177L160.681 83.3551L160.823 82.2133Z" fill="#A3D95D"/>
<path d="M147.875 81.003L146.699 80.865L146.557 82.0035L147.732 82.1415L147.875 81.003Z" fill="#A3D95D"/>
<path d="M155.05 81.5987L153.875 81.4607L153.733 82.5992L154.908 82.7372L155.05 81.5987Z" fill="#A3D95D"/>
<path d="M154.132 57.9643L152.949 58.0583L153.046 59.2045L154.23 59.1105L154.132 57.9643Z" fill="#A3D95D"/>
<path d="M153.42 46.6362L152.236 46.7302L152.333 47.8764L153.517 47.7824L153.42 46.6362Z" fill="#A3D95D"/>
<path d="M158.054 57.6439L156.871 57.7379L156.968 58.8841L158.151 58.7901L158.054 57.6439Z" fill="#A3D95D"/>
<path d="M172.976 59.6967L171.807 59.5L171.604 60.6331L172.773 60.8298L172.976 59.6967Z" fill="#A3D95D"/>
<path d="M178.933 42.14L177.805 41.781L177.434 42.8736L178.562 43.2326L178.933 42.14Z" fill="#A3D95D"/>
<path d="M149.261 58.3471L148.078 58.4412L148.175 59.5874L149.358 59.4933L149.261 58.3471Z" fill="#A3D95D"/>
<path d="M134.431 69.3227L133.514 70.0525L134.267 70.9413L135.185 70.2115L134.431 69.3227Z" fill="#A3D95D"/>
<path d="M185.568 157.032H94.4297V28.4664H185.568V157.032ZM94.6164 156.852H185.381V28.6473H94.6164V156.852Z" fill="#A3D95D"/>
<path d="M95.6512 27.4607H93.3926V29.6487H95.6512V27.4607Z" fill="white"/>
<path d="M95.7479 29.7413H93.2988V27.3689H95.7479V29.7413ZM93.4855 29.5605H95.5724V27.5497H93.4967L93.4855 29.5605Z" fill="#A3D95D"/>
<path d="M186.602 27.4607H184.344V29.6487H186.602V27.4607Z" fill="white"/>
<path d="M186.699 29.7413H184.25V27.3689H186.699V29.7413ZM184.437 29.5605H186.512V27.5497H184.425L184.437 29.5605Z" fill="#A3D95D"/>
<path d="M141.126 27.4607H138.867V29.6487H141.126V27.4607Z" fill="white"/>
<path d="M141.224 29.7413H138.775V27.3689H141.224V29.7413ZM138.962 29.5605H141.038V27.5497H138.962V29.5605Z" fill="#A3D95D"/>
<path d="M95.6512 155.844H93.3926V158.031H95.6512V155.844Z" fill="white"/>
<path d="M95.7479 158.124H93.2988V155.752H95.7479V158.124ZM93.4855 157.943H95.5724V155.933H93.4967L93.4855 157.943Z" fill="#A3D95D"/>
<path d="M186.602 155.844H184.344V158.031H186.602V155.844Z" fill="white"/>
<path d="M186.699 158.124H184.25V155.752H186.699V158.124ZM184.437 157.943H186.512V155.933H184.425L184.437 157.943Z" fill="#A3D95D"/>
<path d="M95.6512 91.65H93.3926V93.838H95.6512V91.65Z" fill="white"/>
<path d="M95.7479 93.9347H93.2988V91.5623H95.7479V93.9347ZM93.4855 93.7538H95.5724V91.7431H93.4967L93.4855 93.7538Z" fill="#A3D95D"/>
<path d="M186.602 91.65H184.344V93.838H186.602V91.65Z" fill="white"/>
<path d="M186.699 93.9347H184.25V91.5623H186.699V93.9347ZM184.437 93.7538H186.512V91.7431H184.425L184.437 93.7538Z" fill="#A3D95D"/>
<path d="M141.126 155.844H138.867V158.031H141.126V155.844Z" fill="white"/>
<path d="M141.224 158.124H138.775V155.752H141.224V158.124ZM138.962 157.943H141.038V155.933H138.962V157.943Z" fill="#A3D95D"/>
<path d="M121.677 116.389H28.0039V142.999H121.677V116.389Z" fill="#455A64"/>
<path d="M121.677 112.086H28.0039V116.39H121.677V112.086Z" fill="#A3D95D"/>
<path d="M30.6551 115.025L29.1543 113.575L29.2962 113.438L30.7932 114.891L30.6551 115.025Z" fill="#263238"/>
<path d="M29.2962 115.025L29.1543 114.891L30.6551 113.438L30.7932 113.575L29.2962 115.025Z" fill="#263238"/>
<path d="M118.677 114.099L118.537 114.234L119.427 115.096L119.567 114.961L118.677 114.099Z" fill="#263238"/>
<path d="M119.427 113.373L118.537 114.234L118.677 114.37L119.567 113.508L119.427 113.373Z" fill="#263238"/>
<path d="M119.659 114.107L119.52 114.242L120.409 115.104L120.549 114.969L119.659 114.107Z" fill="#263238"/>
<path d="M120.407 113.376L119.518 114.239L119.658 114.374L120.547 113.512L120.407 113.376Z" fill="#263238"/>
<path d="M120.841 116.389H28.8438V121.759H120.841V116.389Z" fill="#37474F"/>
<path d="M51.5995 119.646H51.5137V121.755H51.5995V119.646Z" fill="#263238"/>
<path d="M47.0136 120.315H46.9277V121.758H47.0136V120.315Z" fill="#263238"/>
<path d="M48.1601 120.315H48.0742V121.758H48.1601V120.315Z" fill="#263238"/>
<path d="M49.3066 120.315H49.2207V121.758H49.3066V120.315Z" fill="#263238"/>
<path d="M50.4531 120.315H50.3672V121.758H50.4531V120.315Z" fill="#263238"/>
<path d="M57.3261 119.646H57.2402V121.755H57.3261V119.646Z" fill="#263238"/>
<path d="M52.7441 120.315H52.6582V121.758H52.7441V120.315Z" fill="#263238"/>
<path d="M53.8866 120.315H53.8008V121.758H53.8866V120.315Z" fill="#263238"/>
<path d="M55.0331 120.315H54.9473V121.758H55.0331V120.315Z" fill="#263238"/>
<path d="M56.1796 120.315H56.0938V121.758H56.1796V120.315Z" fill="#263238"/>
<path d="M63.0527 119.646H62.9668V121.755H63.0527V119.646Z" fill="#263238"/>
<path d="M58.4726 120.315H58.3867V121.758H58.4726V120.315Z" fill="#263238"/>
<path d="M59.6171 120.315H59.5312V121.758H59.6171V120.315Z" fill="#263238"/>
<path d="M60.7636 120.315H60.6777V121.758H60.7636V120.315Z" fill="#263238"/>
<path d="M61.9101 120.315H61.8242V121.758H61.9101V120.315Z" fill="#263238"/>
<path d="M68.7831 119.646H68.6973V121.755H68.7831V119.646Z" fill="#263238"/>
<path d="M64.1992 120.315H64.1133V121.758H64.1992V120.315Z" fill="#263238"/>
<path d="M65.3456 120.315H65.2598V121.758H65.3456V120.315Z" fill="#263238"/>
<path d="M66.4902 120.315H66.4043V121.758H66.4902V120.315Z" fill="#263238"/>
<path d="M67.6366 120.315H67.5508V121.758H67.6366V120.315Z" fill="#263238"/>
<path d="M74.5097 119.646H74.4238V121.755H74.5097V119.646Z" fill="#263238"/>
<path d="M69.9296 120.315H69.8438V121.758H69.9296V120.315Z" fill="#263238"/>
<path d="M71.0761 120.315H70.9902V121.758H71.0761V120.315Z" fill="#263238"/>
<path d="M72.2206 120.315H72.1348V121.758H72.2206V120.315Z" fill="#263238"/>
<path d="M73.3632 120.315H73.2773V121.758H73.3632V120.315Z" fill="#263238"/>
<path d="M80.2402 119.646H80.1543V121.755H80.2402V119.646Z" fill="#263238"/>
<path d="M75.6562 120.315H75.5703V121.758H75.6562V120.315Z" fill="#263238"/>
<path d="M76.8027 120.315H76.7168V121.758H76.8027V120.315Z" fill="#263238"/>
<path d="M77.9491 120.315H77.8633V121.758H77.9491V120.315Z" fill="#263238"/>
<path d="M79.0937 120.315H79.0078V121.758H79.0937V120.315Z" fill="#263238"/>
<path d="M85.9667 119.646H85.8809V121.755H85.9667V119.646Z" fill="#263238"/>
<path d="M81.3866 120.315H81.3008V121.758H81.3866V120.315Z" fill="#263238"/>
<path d="M82.5292 120.315H82.4434V121.758H82.5292V120.315Z" fill="#263238"/>
<path d="M83.6757 120.315H83.5898V121.758H83.6757V120.315Z" fill="#263238"/>
<path d="M84.8222 120.315H84.7363V121.758H84.8222V120.315Z" fill="#263238"/>
<path d="M91.6991 119.646H91.6133V121.755H91.6991V119.646Z" fill="#263238"/>
<path d="M87.1132 120.315H87.0273V121.758H87.1132V120.315Z" fill="#263238"/>
<path d="M88.2597 120.315H88.1738V121.758H88.2597V120.315Z" fill="#263238"/>
<path d="M89.4062 120.315H89.3203V121.758H89.4062V120.315Z" fill="#263238"/>
<path d="M90.5527 120.315H90.4668V121.758H90.5527V120.315Z" fill="#263238"/>
<path d="M97.4257 119.646H97.3398V121.755H97.4257V119.646Z" fill="#263238"/>
<path d="M92.8398 120.315H92.7539V121.758H92.8398V120.315Z" fill="#263238"/>
<path d="M93.9863 120.315H93.9004V121.758H93.9863V120.315Z" fill="#263238"/>
<path d="M95.1327 120.315H95.0469V121.758H95.1327V120.315Z" fill="#263238"/>
<path d="M96.2792 120.315H96.1934V121.758H96.2792V120.315Z" fill="#263238"/>
<path d="M103.152 119.646H103.066V121.755H103.152V119.646Z" fill="#263238"/>
<path d="M98.5722 120.315H98.4863V121.758H98.5722V120.315Z" fill="#263238"/>
<path d="M99.7167 120.315H99.6309V121.758H99.7167V120.315Z" fill="#263238"/>
<path d="M100.863 120.315H100.777V121.758H100.863V120.315Z" fill="#263238"/>
<path d="M102.006 120.315H101.92V121.758H102.006V120.315Z" fill="#263238"/>
<path d="M108.883 119.646H108.797V121.755H108.883V119.646Z" fill="#263238"/>
<path d="M104.299 120.315H104.213V121.758H104.299V120.315Z" fill="#263238"/>
<path d="M105.445 120.315H105.359V121.758H105.445V120.315Z" fill="#263238"/>
<path d="M106.59 120.315H106.504V121.758H106.59V120.315Z" fill="#263238"/>
<path d="M107.736 120.315H107.65V121.758H107.736V120.315Z" fill="#263238"/>
<path d="M114.609 119.646H114.523V121.755H114.609V119.646Z" fill="#263238"/>
<path d="M110.029 120.315H109.943V121.758H110.029V120.315Z" fill="#263238"/>
<path d="M111.172 120.315H111.086V121.758H111.172V120.315Z" fill="#263238"/>
<path d="M112.318 120.315H112.232V121.758H112.318V120.315Z" fill="#263238"/>
<path d="M113.463 120.315H113.377V121.758H113.463V120.315Z" fill="#263238"/>
<path d="M120.34 119.646H120.254V121.755H120.34V119.646Z" fill="#263238"/>
<path d="M115.756 120.315H115.67V121.758H115.756V120.315Z" fill="#263238"/>
<path d="M116.902 120.315H116.816V121.758H116.902V120.315Z" fill="#263238"/>
<path d="M118.049 120.315H117.963V121.758H118.049V120.315Z" fill="#263238"/>
<path d="M119.195 120.315H119.109V121.758H119.195V120.315Z" fill="#263238"/>
<path opacity="0.5" d="M77.7539 121.754H46.9277V124.311H77.7539V121.754Z" fill="#A3D95D"/>
<path opacity="0.5" d="M84.0711 126.869H65.8749V129.426H84.0711V126.869Z" fill="#A3D95D"/>
<path opacity="0.5" d="M98.3128 131.984H84.0664V134.541H98.3128V131.984Z" fill="#A3D95D"/>
<path opacity="0.5" d="M107.856 137.088H101.715V139.645H107.856V137.088Z" fill="#A3D95D"/>
<path d="M120.84 139.648H107.855V142.205H120.84V139.648Z" fill="#A3D95D"/>
<path d="M76.1566 129.426H69.8398V131.983H76.1566V129.426Z" fill="#A3D95D"/>
<path d="M101.715 134.541H86.9531V137.098H101.715V134.541Z" fill="#A3D95D"/>
<path d="M69.809 124.312H50.041V126.869H69.809V124.312Z" fill="#A3D95D"/>
<path d="M51.9527 123.037C51.9527 123.13 51.9241 123.222 51.8703 123.3C51.8166 123.378 51.7402 123.438 51.6508 123.474C51.5615 123.51 51.4631 123.519 51.3683 123.501C51.2734 123.483 51.1863 123.438 51.1179 123.372C51.0495 123.305 51.0029 123.221 50.984 123.129C50.9651 123.037 50.9748 122.942 51.0118 122.855C51.0489 122.769 51.1115 122.695 51.192 122.643C51.2724 122.591 51.3669 122.563 51.4637 122.563C51.5934 122.563 51.7178 122.613 51.8095 122.702C51.9012 122.79 51.9527 122.911 51.9527 123.037Z" fill="white"/>
<path d="M57.3922 123.037C57.3922 123.13 57.3635 123.222 57.3098 123.3C57.256 123.378 57.1796 123.438 57.0903 123.474C57.0009 123.51 56.9026 123.519 56.8077 123.501C56.7128 123.483 56.6257 123.438 56.5573 123.372C56.4889 123.305 56.4423 123.221 56.4235 123.129C56.4046 123.037 56.4143 122.942 56.4513 122.855C56.4883 122.769 56.551 122.695 56.6314 122.643C56.7118 122.591 56.8064 122.563 56.9031 122.563C57.0328 122.563 57.1572 122.613 57.249 122.702C57.3407 122.79 57.3922 122.911 57.3922 123.037Z" fill="white"/>
<path d="M62.8313 123.037C62.832 123.131 62.8035 123.224 62.7495 123.303C62.6955 123.383 62.6183 123.444 62.5279 123.481C62.4375 123.517 62.3379 123.527 62.2419 123.508C62.1458 123.49 62.0577 123.444 61.9887 123.376C61.9197 123.309 61.873 123.223 61.8545 123.13C61.8361 123.037 61.8467 122.941 61.885 122.853C61.9234 122.766 61.9877 122.692 62.0698 122.64C62.1519 122.588 62.248 122.561 62.346 122.563C62.475 122.564 62.5985 122.614 62.6894 122.703C62.7803 122.792 62.8313 122.912 62.8313 123.037Z" fill="white"/>
<path d="M68.2672 123.037C68.2672 123.13 68.2385 123.222 68.1848 123.3C68.131 123.378 68.0547 123.438 67.9653 123.474C67.8759 123.51 67.7776 123.519 67.6827 123.501C67.5878 123.483 67.5007 123.438 67.4323 123.372C67.3639 123.305 67.3173 123.221 67.2985 123.129C67.2796 123.037 67.2893 122.942 67.3263 122.855C67.3633 122.769 67.426 122.695 67.5064 122.643C67.5868 122.591 67.6814 122.563 67.7781 122.563C67.9078 122.563 68.0322 122.613 68.1239 122.702C68.2157 122.79 68.2672 122.911 68.2672 123.037Z" fill="white"/>
<path d="M73.7066 123.037C73.7066 123.13 73.678 123.222 73.6242 123.3C73.5705 123.378 73.4941 123.438 73.4047 123.474C73.3154 123.51 73.217 123.519 73.1222 123.501C73.0273 123.483 72.9402 123.438 72.8718 123.372C72.8034 123.305 72.7568 123.221 72.7379 123.129C72.719 123.037 72.7287 122.942 72.7657 122.855C72.8028 122.769 72.8654 122.695 72.9459 122.643C73.0263 122.591 73.1209 122.563 73.2176 122.563C73.3473 122.563 73.4717 122.613 73.5634 122.702C73.6551 122.79 73.7066 122.911 73.7066 123.037Z" fill="white"/>
<path d="M86.2395 133.259C86.2402 133.354 86.2119 133.446 86.158 133.525C86.1041 133.605 86.0272 133.666 85.937 133.703C85.8468 133.739 85.7474 133.749 85.6515 133.731C85.5555 133.713 85.4674 133.667 85.3982 133.6C85.3291 133.533 85.2821 133.448 85.2632 133.355C85.2443 133.262 85.2544 133.166 85.2921 133.078C85.3299 132.991 85.3936 132.916 85.4752 132.864C85.5569 132.812 85.6526 132.784 85.7504 132.785C85.8798 132.786 86.0037 132.836 86.0952 132.925C86.1867 133.014 86.2385 133.134 86.2395 133.259Z" fill="white"/>
<path d="M91.6793 133.259C91.6793 133.353 91.6506 133.444 91.5969 133.522C91.5431 133.6 91.4668 133.661 91.3774 133.697C91.288 133.732 91.1897 133.742 91.0948 133.724C91 133.705 90.9128 133.66 90.8444 133.594C90.776 133.528 90.7294 133.443 90.7106 133.351C90.6917 133.259 90.7014 133.164 90.7384 133.078C90.7754 132.991 90.8381 132.917 90.9185 132.865C90.999 132.813 91.0935 132.785 91.1902 132.785C91.3199 132.785 91.4443 132.835 91.5361 132.924C91.6278 133.013 91.6793 133.133 91.6793 133.259Z" fill="white"/>
<path d="M97.1188 133.259C97.1188 133.353 97.0901 133.444 97.0363 133.522C96.9826 133.6 96.9062 133.661 96.8169 133.697C96.7275 133.732 96.6292 133.742 96.5343 133.724C96.4394 133.705 96.3523 133.66 96.2839 133.594C96.2155 133.528 96.1689 133.443 96.15 133.351C96.1312 133.259 96.1408 133.164 96.1779 133.078C96.2149 132.991 96.2776 132.917 96.358 132.865C96.4384 132.813 96.533 132.785 96.6297 132.785C96.7591 132.786 96.8829 132.836 96.9744 132.925C97.0659 133.014 97.1178 133.134 97.1188 133.259Z" fill="white"/>
<path d="M89.3844 135.816C89.3844 135.909 89.3557 136.001 89.302 136.079C89.2482 136.157 89.1718 136.217 89.0825 136.253C88.9931 136.289 88.8948 136.299 88.7999 136.28C88.705 136.262 88.6179 136.217 88.5495 136.151C88.4811 136.084 88.4345 136 88.4156 135.908C88.3968 135.816 88.4065 135.721 88.4435 135.634C88.4805 135.548 88.5432 135.474 88.6236 135.422C88.704 135.37 88.7986 135.342 88.8953 135.342C88.9597 135.341 89.0235 135.353 89.0831 135.377C89.1426 135.401 89.1967 135.435 89.2422 135.48C89.2878 135.524 89.3238 135.576 89.3482 135.634C89.3726 135.691 89.3849 135.753 89.3844 135.816Z" fill="white"/>
<path d="M94.8277 135.816C94.8277 135.909 94.7991 136.001 94.7453 136.079C94.6916 136.157 94.6152 136.217 94.5258 136.253C94.4365 136.289 94.3381 136.298 94.2433 136.28C94.1484 136.262 94.0613 136.217 93.9929 136.151C93.9245 136.084 93.8779 136 93.859 135.908C93.8401 135.816 93.8498 135.721 93.8868 135.634C93.9239 135.548 93.9865 135.474 94.067 135.422C94.1474 135.37 94.2419 135.342 94.3387 135.342C94.4684 135.342 94.5928 135.392 94.6845 135.481C94.7762 135.569 94.8277 135.69 94.8277 135.816Z" fill="white"/>
<path d="M100.263 135.816C100.264 135.91 100.235 136.003 100.182 136.082C100.128 136.161 100.051 136.222 99.9613 136.259C99.8713 136.296 99.7721 136.306 99.6763 136.288C99.5805 136.27 99.4923 136.225 99.423 136.158C99.3537 136.091 99.3064 136.006 99.2871 135.914C99.2678 135.821 99.2773 135.725 99.3145 135.637C99.3517 135.55 99.4148 135.475 99.496 135.423C99.5771 135.37 99.6725 135.342 99.7701 135.342C99.8347 135.341 99.8987 135.353 99.9584 135.377C100.018 135.4 100.073 135.435 100.118 135.479C100.164 135.523 100.201 135.576 100.225 135.633C100.25 135.691 100.263 135.753 100.263 135.816Z" fill="white"/>
<path d="M109.386 140.923C109.386 141.017 109.358 141.108 109.304 141.186C109.25 141.264 109.174 141.325 109.084 141.361C108.995 141.396 108.897 141.406 108.802 141.388C108.707 141.369 108.62 141.324 108.551 141.258C108.483 141.192 108.436 141.107 108.418 141.015C108.399 140.923 108.408 140.828 108.445 140.742C108.482 140.655 108.545 140.581 108.626 140.529C108.706 140.477 108.801 140.449 108.897 140.449C109.027 140.449 109.151 140.499 109.243 140.588C109.335 140.677 109.386 140.797 109.386 140.923Z" fill="white"/>
<path d="M114.838 140.923C114.838 141.017 114.809 141.108 114.755 141.186C114.701 141.264 114.625 141.325 114.536 141.361C114.446 141.396 114.348 141.406 114.253 141.388C114.158 141.369 114.071 141.324 114.003 141.258C113.934 141.192 113.888 141.107 113.869 141.015C113.85 140.923 113.86 140.828 113.897 140.742C113.934 140.655 113.996 140.581 114.077 140.529C114.157 140.477 114.252 140.449 114.348 140.449C114.478 140.449 114.603 140.499 114.694 140.588C114.786 140.677 114.838 140.797 114.838 140.923Z" fill="white"/>
<path d="M120.277 140.923C120.277 141.018 120.249 141.11 120.195 141.19C120.141 141.269 120.064 141.33 119.974 141.367C119.884 141.403 119.785 141.413 119.689 141.395C119.593 141.377 119.504 141.331 119.435 141.264C119.366 141.197 119.319 141.112 119.3 141.019C119.281 140.926 119.291 140.83 119.329 140.742C119.367 140.655 119.431 140.58 119.512 140.528C119.594 140.476 119.69 140.448 119.788 140.449C119.917 140.449 120.042 140.499 120.133 140.588C120.225 140.677 120.277 140.797 120.277 140.923Z" fill="white"/>
<path d="M72.9988 131.182C73.2689 131.182 73.4879 130.97 73.4879 130.708C73.4879 130.446 73.2689 130.234 72.9988 130.234C72.7287 130.234 72.5098 130.446 72.5098 130.708C72.5098 130.97 72.7287 131.182 72.9988 131.182Z" fill="white"/>
<path d="M105.281 138.366C105.281 138.461 105.253 138.554 105.199 138.633C105.145 138.712 105.068 138.774 104.978 138.81C104.888 138.847 104.788 138.857 104.692 138.838C104.597 138.82 104.508 138.774 104.439 138.708C104.37 138.641 104.323 138.555 104.304 138.462C104.285 138.369 104.295 138.273 104.333 138.186C104.371 138.098 104.435 138.024 104.516 137.972C104.598 137.919 104.694 137.892 104.791 137.893C104.921 137.893 105.046 137.942 105.137 138.031C105.229 138.12 105.281 138.241 105.281 138.366Z" fill="white"/>
<path d="M69.534 128.621C69.8041 128.621 70.0231 128.409 70.0231 128.148C70.0231 127.886 69.8041 127.674 69.534 127.674C69.2639 127.674 69.0449 127.886 69.0449 128.148C69.0449 128.409 69.2639 128.621 69.534 128.621Z" fill="white"/>
<path d="M74.9734 128.621C75.2436 128.621 75.4625 128.409 75.4625 128.148C75.4625 127.886 75.2436 127.674 74.9734 127.674C74.7033 127.674 74.4844 127.886 74.4844 128.148C74.4844 128.409 74.7033 128.621 74.9734 128.621Z" fill="white"/>
<path d="M80.898 128.149C80.8973 128.243 80.868 128.334 80.8138 128.411C80.7596 128.489 80.683 128.549 80.5936 128.584C80.5041 128.62 80.4059 128.629 80.3113 128.61C80.2167 128.591 80.1299 128.546 80.0619 128.479C79.9938 128.413 79.9476 128.329 79.929 128.237C79.9105 128.145 79.9204 128.05 79.9575 127.964C79.9946 127.877 80.0573 127.803 80.1377 127.751C80.218 127.7 80.3124 127.672 80.409 127.672C80.4735 127.672 80.5374 127.684 80.597 127.708C80.6566 127.732 80.7107 127.768 80.7561 127.812C80.8016 127.856 80.8375 127.909 80.8619 127.967C80.8863 128.025 80.8985 128.087 80.898 128.149Z" fill="white"/>
<path d="M54.978 125.592C54.9802 125.687 54.9529 125.78 54.8997 125.86C54.8464 125.94 54.7697 126.002 54.6795 126.039C54.5892 126.076 54.4896 126.086 54.3935 126.067C54.2974 126.049 54.2093 126.003 54.1405 125.935C54.0718 125.867 54.0256 125.781 54.008 125.688C53.9904 125.595 54.0021 125.498 54.0416 125.411C54.0812 125.325 54.1468 125.251 54.2298 125.201C54.3129 125.151 54.4097 125.126 54.5076 125.129C54.6321 125.134 54.7502 125.184 54.8376 125.27C54.925 125.356 54.9752 125.471 54.978 125.592Z" fill="white"/>
<path d="M60.4176 125.591C60.4176 125.685 60.3889 125.776 60.3352 125.854C60.2814 125.932 60.205 125.993 60.1157 126.029C60.0263 126.065 59.928 126.074 59.8331 126.056C59.7382 126.037 59.6511 125.992 59.5827 125.926C59.5143 125.86 59.4677 125.775 59.4488 125.683C59.43 125.591 59.4397 125.496 59.4767 125.41C59.5137 125.323 59.5764 125.249 59.6568 125.197C59.7372 125.145 59.8318 125.117 59.9285 125.117C60.0582 125.117 60.1826 125.167 60.2743 125.256C60.3661 125.345 60.4176 125.465 60.4176 125.591Z" fill="white"/>
<path d="M65.8531 125.591C65.8531 125.685 65.8244 125.776 65.7707 125.854C65.717 125.932 65.6406 125.993 65.5512 126.029C65.4619 126.065 65.3635 126.074 65.2687 126.056C65.1738 126.037 65.0866 125.992 65.0182 125.926C64.9498 125.86 64.9033 125.775 64.8844 125.683C64.8655 125.591 64.8752 125.496 64.9122 125.41C64.9492 125.323 65.0119 125.249 65.0924 125.197C65.1728 125.145 65.2673 125.117 65.3641 125.117C65.4938 125.117 65.6182 125.167 65.7099 125.256C65.8016 125.345 65.8531 125.465 65.8531 125.591Z" fill="white"/>
<path d="M46.928 121.754H28.8438V124.311H46.928V121.754Z" fill="#263238"/>
<path d="M46.928 124.312H28.8438V126.869H46.928V124.312Z" fill="#37474F"/>
<path d="M46.9281 126.869H28.8439V129.426H46.9281V126.869Z" fill="#263238"/>
<path d="M46.928 129.426H28.8438V131.983H46.928V129.426Z" fill="#37474F"/>
<path d="M46.928 131.984H28.8438V134.541H46.928V131.984Z" fill="#263238"/>
<path d="M46.928 134.541H28.8438V137.098H46.928V134.541Z" fill="#37474F"/>
<path d="M46.928 137.096H28.8438V139.653H46.928V137.096Z" fill="#263238"/>
<path d="M46.928 139.652H28.8438V142.209H46.928V139.652Z" fill="#37474F"/>
<path d="M120.84 124.268H46.9277V124.358H120.84V124.268Z" fill="#37474F"/>
<path d="M120.84 126.828H46.9277V126.919H120.84V126.828Z" fill="#37474F"/>
<path d="M120.84 129.383H46.9277V129.473H120.84V129.383Z" fill="#37474F"/>
<path d="M120.84 131.936H46.9277V132.026H120.84V131.936Z" fill="#37474F"/>
<path d="M120.84 134.494H46.9277V134.585H120.84V134.494Z" fill="#37474F"/>
<path d="M120.84 137.051H46.9277V137.141H120.84V137.051Z" fill="#37474F"/>
<path d="M120.84 139.605H46.9277V139.696H120.84V139.605Z" fill="#37474F"/>
<path d="M120.84 142.162H46.9277V142.252H120.84V142.162Z" fill="#37474F"/>
<path d="M65.9386 115.063H65.752V142.212H65.9386V115.063Z" fill="white"/>
<path d="M66.6519 113.871V115.593L65.8455 116.251L65.0391 115.593V113.871H66.6519Z" fill="white"/>
<path d="M109.843 42.1268H41.5566V51.7033H109.843V42.1268Z" fill="#455A64"/>
<path d="M109.843 37.8242H41.5566V42.1278H109.843V37.8242Z" fill="#A3D95D"/>
<path d="M44.202 40.7673L42.7012 39.3135L42.843 39.1797L44.3438 40.6299L44.202 40.7673Z" fill="#263238"/>
<path d="M42.843 40.7673L42.7012 40.6299L44.202 39.1797L44.3438 39.3135L42.843 40.7673Z" fill="#263238"/>
<path d="M106.835 39.8371L106.695 39.9727L107.585 40.8346L107.725 40.6991L106.835 39.8371Z" fill="#263238"/>
<path d="M107.589 39.1188L106.699 39.9805L106.839 40.116L107.729 39.2544L107.589 39.1188Z" fill="#263238"/>
<path d="M107.818 39.8371L107.678 39.9727L108.567 40.8346L108.707 40.6991L107.818 39.8371Z" fill="#263238"/>
<path d="M108.571 39.1224L107.682 39.9844L107.822 40.1199L108.711 39.2579L108.571 39.1224Z" fill="#263238"/>
<path d="M73.2637 49.2745V44.5586L78.1319 46.9165L73.2637 49.2745Z" fill="white"/>
<path d="M87.0273 49.2745V44.5586L91.8956 46.9165L87.0273 49.2745Z" fill="white"/>
<path d="M86.4451 44.5586H86.0195V49.2745H86.4451V44.5586Z" fill="white"/>
<path d="M64.3702 44.5586V49.2745L59.502 46.9165L64.3702 44.5586Z" fill="white"/>
<path d="M64.9494 49.2734H65.375V44.5575H64.9494V49.2734Z" fill="white"/>
<path d="M52.0011 44.5586V49.2745L47.1328 46.9165L52.0011 44.5586Z" fill="white"/>
<path d="M46.7072 49.2734H47.1328V44.5575H46.7072V49.2734Z" fill="white"/>
<path d="M99.3926 49.2745V44.5586L104.261 46.9165L99.3926 49.2745Z" fill="white"/>
<path d="M104.687 44.5586H104.262V49.2745H104.687V44.5586Z" fill="white"/>
<path d="M243.918 127.279H171.898V136.856H243.918V127.279Z" fill="#455A64"/>
<path d="M243.918 122.969H171.898V127.272H243.918V122.969Z" fill="#A3D95D"/>
<path d="M174.544 125.916L173.047 124.466L173.185 124.328L174.686 125.782L174.544 125.916Z" fill="#263238"/>
<path d="M173.185 125.916L173.047 125.782L174.544 124.328L174.686 124.466L173.185 125.916Z" fill="#263238"/>
<path d="M240.909 124.988L240.77 125.123L241.659 125.985L241.799 125.849L240.909 124.988Z" fill="#263238"/>
<path d="M241.663 124.265L240.773 125.127L240.913 125.262L241.803 124.401L241.663 124.265Z" fill="#263238"/>
<path d="M241.896 124.991L241.756 125.127L242.645 125.989L242.785 125.853L241.896 124.991Z" fill="#263238"/>
<path d="M242.651 124.282L241.762 125.145L241.902 125.28L242.791 124.418L242.651 124.282Z" fill="#263238"/>
<path d="M181.422 128.828H174.5V135.533H181.422V128.828Z" fill="#37474F"/>
<path d="M178.143 132.799L178.804 134.344L178.143 134.608L177.479 133.053L176.389 133.873V129.516L179.536 132.597L178.143 132.799Z" fill="#EBEBEB"/>
<path d="M210.606 131.639C211.469 130.916 212.49 130.392 213.593 130.105L214.56 131.042C214.264 132.11 213.723 133.099 212.977 133.935C211.424 133.509 210.154 134.691 210.154 134.691L210.053 134.594L212.025 132.684C212.114 132.738 212.221 132.758 212.325 132.74C212.428 132.723 212.522 132.669 212.587 132.589C212.653 132.509 212.686 132.409 212.68 132.307C212.674 132.205 212.629 132.109 212.555 132.037C212.48 131.964 212.381 131.921 212.276 131.916C212.171 131.91 212.067 131.941 211.984 132.005C211.902 132.068 211.846 132.159 211.828 132.26C211.81 132.36 211.831 132.464 211.886 132.55L209.915 134.46L209.814 134.362C209.814 134.362 211.043 133.147 210.606 131.639Z" fill="#EBEBEB"/>
<path d="M213.251 130.003L214.682 131.389L215.284 130.806L213.853 129.42L213.251 130.003Z" fill="#EBEBEB"/>
<path d="M223.321 129.52V130.72H222.907C222.866 130.723 222.826 130.711 222.794 130.687C222.762 130.663 222.739 130.629 222.731 130.59C222.731 130.547 222.713 130.453 222.698 130.301H221.63V133.917L221.839 133.95C221.891 133.95 221.925 133.971 221.947 133.971H221.992C222.046 133.978 222.096 134.004 222.131 134.044C222.166 134.084 222.185 134.136 222.182 134.188V134.604H220.103V134.188C220.098 134.137 220.114 134.085 220.147 134.045C220.18 134.004 220.229 133.978 220.282 133.971H220.327C220.349 133.971 220.387 133.971 220.435 133.95L220.648 133.917V130.301H219.577C219.577 130.456 219.55 130.554 219.543 130.597C219.537 130.635 219.516 130.67 219.485 130.694C219.454 130.718 219.415 130.73 219.375 130.727H218.953V129.527H223.321V129.52Z" fill="#EBEBEB"/>
<path d="M228.338 132.838C227.543 132.711 227.431 133.521 227.419 133.839C227.387 133.999 227.309 134.147 227.196 134.267C227.083 134.388 226.938 134.476 226.777 134.523C226.777 134.523 228.009 134.852 228.644 134.241C229.279 133.63 228.853 132.924 228.338 132.838Z" fill="#EBEBEB"/>
<path d="M231.254 129.94L229.066 133.086C229.008 132.969 228.922 132.866 228.815 132.787C228.708 132.708 228.583 132.654 228.45 132.631H228.309L230.717 129.531L231.254 129.94Z" fill="#EBEBEB"/>
<path d="M206.3 134.788H200.928V129.584H206.3V134.788ZM201.301 134.426H205.927V129.946H201.301V134.426Z" fill="#EBEBEB"/>
<path d="M238.186 130.472C238.186 130.637 238.136 130.798 238.041 130.935C237.947 131.071 237.813 131.178 237.656 131.241C237.499 131.304 237.326 131.32 237.16 131.288C236.993 131.256 236.84 131.177 236.72 131.061C236.6 130.944 236.518 130.796 236.485 130.635C236.452 130.473 236.469 130.306 236.534 130.154C236.599 130.002 236.709 129.872 236.85 129.781C236.992 129.689 237.158 129.641 237.327 129.641C237.555 129.641 237.774 129.728 237.935 129.884C238.096 130.04 238.186 130.252 238.186 130.472Z" fill="#EBEBEB"/>
<path d="M237.671 130.332H237.018V133.088H237.671V130.332Z" fill="#EBEBEB"/>
<path d="M239.594 132.66L240.397 133.72H234.293L235.096 132.66H239.594Z" fill="#EBEBEB"/>
<path d="M240.397 133.963H234.293V134.44H240.397V133.963Z" fill="#EBEBEB"/>
<path d="M188.619 133.109C188.621 133.36 188.564 133.607 188.453 133.833C188.342 134.059 188.179 134.258 187.977 134.415C187.725 134.592 187.426 134.698 187.114 134.718C186.743 134.771 186.363 134.695 186.043 134.505C185.84 134.379 185.665 134.216 185.528 134.024C185.255 133.662 184.99 133.261 184.725 132.881C184.658 132.784 184.591 132.686 184.527 132.585C184.485 132.517 184.466 132.439 184.475 132.36C184.483 132.282 184.517 132.208 184.572 132.151C184.63 132.095 184.705 132.059 184.786 132.049C184.867 132.038 184.949 132.054 185.02 132.093C185.096 132.153 185.162 132.225 185.214 132.306C185.337 132.465 185.453 132.628 185.569 132.791H185.588V130.321C185.588 130.26 185.607 130.201 185.644 130.152C185.681 130.102 185.732 130.065 185.792 130.046C185.851 130.027 185.915 130.026 185.975 130.045C186.035 130.063 186.087 130.099 186.125 130.147C186.167 130.204 186.188 130.273 186.185 130.342C186.185 130.813 186.185 131.283 186.185 131.753C186.183 131.772 186.183 131.791 186.185 131.811C186.185 131.837 186.195 131.861 186.214 131.88C186.233 131.898 186.259 131.908 186.286 131.908C186.312 131.908 186.338 131.898 186.357 131.88C186.376 131.861 186.386 131.837 186.386 131.811V129.945C186.38 129.868 186.405 129.792 186.457 129.733C186.508 129.675 186.582 129.638 186.661 129.632C186.74 129.626 186.819 129.65 186.879 129.7C186.94 129.75 186.977 129.821 186.984 129.898V131.764C186.98 131.782 186.98 131.8 186.984 131.818C186.989 131.842 187.004 131.864 187.024 131.878C187.045 131.893 187.07 131.9 187.096 131.898C187.12 131.895 187.143 131.884 187.161 131.867C187.178 131.85 187.19 131.827 187.193 131.804C187.195 131.787 187.195 131.77 187.193 131.753V130.144C187.188 130.089 187.2 130.034 187.226 129.985C187.253 129.936 187.293 129.896 187.342 129.869C187.387 129.845 187.437 129.833 187.488 129.833C187.539 129.834 187.588 129.847 187.632 129.872C187.676 129.897 187.713 129.932 187.739 129.975C187.764 130.017 187.778 130.065 187.779 130.115C187.779 130.368 187.779 130.621 187.779 130.874C187.779 131.236 187.779 131.623 187.779 131.999C187.778 132.039 187.793 132.077 187.82 132.107C187.857 132.126 187.899 132.132 187.94 132.125C187.961 132.12 187.979 132.107 187.992 132.09C188.005 132.073 188.011 132.052 188.01 132.031V130.722C188.01 130.645 188.042 130.572 188.098 130.518C188.154 130.463 188.23 130.433 188.309 130.433C188.388 130.433 188.464 130.463 188.52 130.518C188.576 130.572 188.608 130.645 188.608 130.722C188.608 130.823 188.608 130.928 188.608 131.033V132.332C188.619 132.581 188.63 132.845 188.619 133.109Z" fill="#EBEBEB"/>
<path d="M194.267 133.302C193.881 133.302 193.503 133.191 193.182 132.984C192.861 132.776 192.611 132.48 192.463 132.135C192.315 131.789 192.277 131.409 192.352 131.042C192.427 130.675 192.613 130.338 192.886 130.074C193.159 129.809 193.507 129.629 193.886 129.556C194.265 129.483 194.657 129.52 195.014 129.664C195.371 129.807 195.676 130.049 195.89 130.36C196.105 130.671 196.22 131.037 196.22 131.411C196.219 131.912 196.013 132.393 195.647 132.747C195.281 133.102 194.785 133.301 194.267 133.302ZM194.267 130.218C194.023 130.218 193.785 130.288 193.583 130.419C193.38 130.55 193.222 130.736 193.129 130.954C193.036 131.172 193.011 131.412 193.059 131.644C193.106 131.875 193.224 132.088 193.396 132.255C193.568 132.422 193.788 132.535 194.027 132.581C194.266 132.628 194.513 132.604 194.738 132.514C194.964 132.423 195.156 132.27 195.291 132.074C195.427 131.878 195.499 131.647 195.499 131.411C195.499 131.254 195.467 131.099 195.405 130.954C195.343 130.809 195.253 130.678 195.138 130.567C195.024 130.456 194.888 130.368 194.738 130.308C194.589 130.248 194.429 130.218 194.267 130.218Z" fill="#EBEBEB"/>
<path d="M195.468 132.299L194.959 132.793L196.831 134.606L197.34 134.113L195.468 132.299Z" fill="#EBEBEB"/>
<path d="M251.996 63.5898H205.938V110.34H251.996V63.5898Z" fill="#455A64"/>
<path d="M251.996 63.5898H205.938V67.8935H251.996V63.5898Z" fill="#A3D95D"/>
<path d="M208.585 66.5349L207.088 65.0811L207.23 64.9473L208.727 66.3975L208.585 66.5349Z" fill="#263238"/>
<path d="M207.23 66.5349L207.088 66.3975L208.585 64.9473L208.727 65.0811L207.23 66.5349Z" fill="#263238"/>
<path d="M248.992 65.6125L248.852 65.748L249.741 66.61L249.881 66.4745L248.992 65.6125Z" fill="#263238"/>
<path d="M249.737 64.8743L248.848 65.7362L248.988 65.8717L249.877 65.0098L249.737 64.8743Z" fill="#263238"/>
<path d="M249.974 65.6086L249.834 65.7441L250.723 66.6061L250.863 66.4706L249.974 65.6086Z" fill="#263238"/>
<path d="M250.729 64.8918L249.84 65.7539L249.98 65.8894L250.869 65.0273L250.729 64.8918Z" fill="#263238"/>
<path d="M249.954 70.1718H207.98V77.8351H249.954V70.1718Z" fill="#37474F"/>
<path d="M214.82 71.5781H209.844V76.3989H214.82V71.5781Z" fill="#A3D95D"/>
<path d="M218.061 71.5781H217.646V76.3989H218.061V71.5781Z" fill="#263238"/>
<path d="M245.789 73.3418H221.664V74.6654H245.789V73.3418Z" fill="#263238"/>
<path d="M249.954 77.8359H207.98V85.4993H249.954V77.8359Z" fill="#455A64"/>
<path d="M214.82 79.2402H209.844V84.061H214.82V79.2402Z" fill="#DBDBDB"/>
<path d="M218.061 79.2402H217.646V84.061H218.061V79.2402Z" fill="#37474F"/>
<path d="M245.789 81.0059H221.664V82.3295H245.789V81.0059Z" fill="#37474F"/>
<path d="M249.954 85.5H207.98V93.1633H249.954V85.5Z" fill="#37474F"/>
<path d="M214.82 86.9062H209.844V91.727H214.82V86.9062Z" fill="#A3D95D"/>
<path d="M218.061 86.9062H217.646V91.727H218.061V86.9062Z" fill="#263238"/>
<path d="M245.789 88.6738H221.664V89.9975H245.789V88.6738Z" fill="#263238"/>
<path d="M249.954 93.1659H207.98V100.829H249.954V93.1659Z" fill="#455A64"/>
<path d="M214.82 94.5703H209.844V99.3911H214.82V94.5703Z" fill="white"/>
<path d="M218.061 94.5703H217.646V99.3911H218.061V94.5703Z" fill="#37474F"/>
<path d="M245.789 96.3359H221.664V97.6596H245.789V96.3359Z" fill="#37474F"/>
<path d="M249.954 100.828H207.98V108.491H249.954V100.828Z" fill="#37474F"/>
<path d="M214.82 102.238H209.844V107.059H214.82V102.238Z" fill="#A6A6A6"/>
<path d="M218.061 102.238H217.646V107.059H218.061V102.238Z" fill="#263238"/>
<path d="M245.789 104.004H221.664V105.328H245.789V104.004Z" fill="#263238"/>
<path d="M175.853 67.038L177.283 70.3833L175.853 70.9583L174.416 67.5877L172.057 69.3634V59.9316L178.87 66.6004L175.853 67.038Z" fill="white"/>
<path d="M175.779 71.1345L174.346 67.8037L171.904 69.6373V59.6016L179.151 66.6935L176.041 67.1455L177.456 70.4582L175.779 71.1345ZM174.477 67.3698L175.933 70.7801L177.101 70.31L175.656 66.9286L178.576 66.5054L172.195 60.2634V69.0731L174.477 67.3698Z" fill="#263238"/>
</svg>
