<svg width="286" height="185" viewBox="0 0 286 185" fill="none" xmlns="http://www.w3.org/2000/svg">
<path d="M264.023 112.431L259.02 112.535L256.48 112.575C255.63 112.594 254.775 112.575 253.925 112.597H253.757V112.431L253.734 108.286V108.102H253.925L258.974 108.124C260.659 108.124 262.341 108.164 264.023 108.183H264.13V108.286C264.13 108.988 264.099 109.686 264.08 110.377L264.023 112.431ZM264.023 112.431L263.969 110.344C263.95 109.657 263.927 108.977 263.92 108.297L264.023 108.401C262.341 108.419 260.659 108.46 258.974 108.46L253.925 108.482L254.116 108.297V112.431L253.944 112.269C254.775 112.269 255.607 112.269 256.442 112.287L258.924 112.35L264.023 112.431Z" fill="#EBEBEB"/>
<path d="M258.39 117.647L253.387 117.75L250.844 117.791C249.997 117.791 249.143 117.791 248.293 117.813H248.125V117.647V113.513V113.328H248.316L253.365 113.354C255.046 113.354 256.732 113.395 258.413 113.413H258.52V113.513C258.52 114.215 258.49 114.913 258.471 115.604L258.39 117.647ZM258.39 117.647L258.337 115.559C258.318 114.872 258.295 114.193 258.288 113.513L258.39 113.616C256.709 113.635 255.023 113.675 253.342 113.675L248.293 113.698L248.483 113.513V117.647L248.312 117.484C249.143 117.484 249.974 117.484 250.81 117.503L253.315 117.547L258.39 117.647Z" fill="#EBEBEB"/>
<path d="M269.656 117.647L264.652 117.75L262.113 117.791C261.262 117.791 260.408 117.791 259.558 117.813H259.39V117.647L259.367 113.513V113.328H259.558L264.607 113.354C266.292 113.354 267.974 113.395 269.656 113.413H269.762V113.513C269.762 114.215 269.728 114.913 269.713 115.604L269.656 117.647ZM269.656 117.647L269.602 115.559C269.602 114.872 269.56 114.193 269.553 113.513L269.656 113.616C267.974 113.635 266.292 113.675 264.607 113.675L259.558 113.698L259.749 113.513V117.647L259.577 117.484C260.412 117.484 261.24 117.484 262.075 117.503L264.584 117.547L269.656 117.647Z" fill="#EBEBEB"/>
<path d="M120.04 63.2411L115.037 63.3446L112.498 63.3852C111.647 63.3852 110.793 63.3852 109.943 63.3852H109.775V63.219L109.752 59.0851V58.9004H109.943L114.991 58.9226C116.677 58.9226 118.359 58.9632 120.04 58.9817H120.147V59.0814C120.147 59.7833 120.113 60.4778 120.094 61.1687L120.04 63.2411ZM120.04 63.2411L119.987 61.1502C119.987 60.4631 119.945 59.7833 119.937 59.1073L120.04 59.207C118.359 59.207 116.677 59.2661 114.991 59.2661L109.943 59.292L110.133 59.1073L110.114 63.2411L109.943 63.0749C110.774 63.0749 111.605 63.0749 112.44 63.0971L114.95 63.1377L120.04 63.2411Z" fill="#EBEBEB"/>
<path d="M114.4 68.4555L109.396 68.559L106.853 68.5996C106.006 68.5996 105.152 68.5996 104.302 68.6181H104.134V68.4518L104.104 64.3253V64.1406H104.294L109.343 64.1628C111.025 64.1628 112.71 64.2034 114.392 64.2219H114.499V64.3253C114.499 65.0272 114.468 65.7218 114.449 66.4126L114.4 68.4555ZM114.4 68.4555L114.346 66.3646C114.327 65.6774 114.304 64.9977 114.297 64.3216L114.4 64.4214C112.718 64.4399 111.032 64.4805 109.351 64.4805L104.302 64.5064L104.492 64.3216L104.485 68.4555L104.313 68.2893C105.145 68.2893 105.976 68.2893 106.811 68.3114L109.316 68.3521L114.4 68.4555Z" fill="#EBEBEB"/>
<path d="M125.671 68.4555L120.668 68.559L118.128 68.5996C117.278 68.5996 116.428 68.5996 115.573 68.6181H115.406V68.4518L115.383 64.3253V64.1406H115.573L120.622 64.1628C122.308 64.1628 123.99 64.2034 125.671 64.2219H125.778V64.3253C125.778 65.0272 125.744 65.7218 125.728 66.4126L125.671 68.4555ZM125.671 68.4555L125.618 66.3646C125.618 65.6774 125.576 64.9977 125.568 64.3216L125.671 64.4214C123.99 64.4399 122.308 64.4805 120.622 64.4805L115.573 64.5064L115.764 64.3216L115.745 68.4555L115.573 68.2893C116.409 68.2893 117.236 68.2893 118.071 68.3114L120.58 68.3521L125.671 68.4555Z" fill="#EBEBEB"/>
<path d="M37.7053 90.5957L32.7022 90.6992L30.1587 90.7398C29.3122 90.7398 28.458 90.7398 27.6076 90.7583H27.4551V90.592V86.4582V86.2734H27.6457L32.6946 86.2956C34.3763 86.2956 36.0618 86.3362 37.7435 86.3547H37.8502V86.4545C37.8502 87.1564 37.8197 87.8509 37.8007 88.5417L37.7053 90.5957ZM37.7053 90.5957L37.6519 88.5048C37.6519 87.8176 37.61 87.1379 37.6024 86.4618L37.7053 86.5616C36.0236 86.5801 34.3381 86.6207 32.6565 86.6207L27.6076 86.6466L27.7983 86.4618L27.7792 90.5957L27.6076 90.4295C28.4389 90.4295 29.2702 90.4295 30.1053 90.4516L32.6107 90.4923L37.7053 90.5957Z" fill="#EBEBEB"/>
<path d="M205.103 63.2383L200.1 63.3417L197.56 63.3824C196.71 63.4008 195.855 63.3824 195.005 63.4008H194.837V63.2346L194.814 59.1007V58.916H195.005L200.054 58.9382C201.739 58.9382 203.421 58.9825 205.103 59.001H205.21V59.1007C205.21 59.8026 205.179 60.5008 205.16 61.188L205.103 63.2383ZM205.103 63.2383L205.049 61.151C205.03 60.4602 205.008 59.7805 205 59.1044L205.103 59.2042C203.421 59.2226 201.739 59.2633 200.054 59.267L195.005 59.2891L195.196 59.1044L195.177 63.2383L195.005 63.0721C195.836 63.0721 196.668 63.0721 197.503 63.0942L200.012 63.1349L205.103 63.2383Z" fill="#EBEBEB"/>
<path d="M263.439 23.0903L258.436 23.1938L255.893 23.2344C255.046 23.2344 254.192 23.2344 253.342 23.2566H253.174V23.0903V18.9564V18.7717H253.364L258.413 18.7939C260.095 18.7939 261.781 18.8382 263.462 18.8567H263.569V18.9564C263.569 19.6583 263.538 20.3566 263.519 21.0437L263.439 23.0903ZM263.439 23.0903L263.386 21.0031C263.367 20.3122 263.344 19.6325 263.336 18.9564L263.439 19.0562C261.758 19.0562 260.072 19.1153 258.39 19.119L253.342 19.1412L253.532 18.9564L253.513 23.0903L253.342 22.9241C254.173 22.9241 255.004 22.9241 255.839 22.9462L258.345 22.9869L263.439 23.0903Z" fill="#EBEBEB"/>
<path d="M269.072 28.3008L264.068 28.4042L261.529 28.4449C260.678 28.4633 259.824 28.4449 258.974 28.4633H258.806V28.2971L258.783 24.1632V23.9785H258.974L264.023 24.0007C265.708 24.0007 267.39 24.045 269.072 24.0635H269.178V24.1632C269.178 24.8651 269.144 25.5634 269.125 26.2505L269.072 28.3008ZM269.072 28.3008L269.018 26.2135C269.018 25.5227 268.976 24.843 268.969 24.1669L269.072 24.2667C267.39 24.2851 265.708 24.3258 264.023 24.3295L258.974 24.3516L259.165 24.1669V28.3008L258.993 28.1346C259.824 28.1346 260.656 28.1346 261.491 28.1567L264 28.1974L269.072 28.3008Z" fill="#EBEBEB"/>
<path d="M26.4412 23.0942L21.4343 23.1977L18.8946 23.2383C18.048 23.2383 17.1938 23.2383 16.3435 23.2605H16.1719V23.0942V18.9603V18.7756H16.3664L21.4152 18.8015C23.0969 18.8015 24.7786 18.8421 26.4641 18.8606H26.567V18.9603C26.567 19.6623 26.5327 20.3605 26.5174 21.0513L26.4412 23.0942ZM26.4412 23.0942L26.384 21.007C26.384 20.3161 26.342 19.6364 26.3344 18.9603L26.4412 19.0601C24.7557 19.0823 23.074 19.1192 21.3923 19.1229L16.3435 19.1451L16.5341 18.9603L16.5113 23.0942L16.3435 22.9501C17.1748 22.9501 18.0023 22.9501 18.8374 22.9501L21.3466 22.9908L26.4412 23.0942Z" fill="#EBEBEB"/>
<path d="M23.3724 53.8526C23.5318 53.7574 23.7153 53.7071 23.9024 53.7071C24.0896 53.7071 24.2731 53.7574 24.4325 53.8526L24.7071 54.004C24.7986 54.0521 24.8939 54.1001 24.9892 54.1407C25.1597 54.2159 25.3053 54.3355 25.4097 54.4862C25.514 54.6369 25.5731 54.8128 25.5803 54.9941L25.6223 56.2575L29.8779 56.1319L29.8398 54.8648C29.8333 54.6828 29.88 54.5026 29.9744 54.3452C30.0688 54.1877 30.2072 54.0592 30.3737 53.9745C30.5594 53.8779 30.739 53.7706 30.9113 53.6531C31.064 53.5489 31.2434 53.4875 31.4298 53.4758C31.6162 53.464 31.8023 53.5024 31.9676 53.5866L33.1116 54.185L35.1251 50.5462L33.9811 49.9477C33.8172 49.8616 33.6813 49.7332 33.5884 49.5766C33.4955 49.4201 33.4492 49.2416 33.4548 49.0611C33.4587 48.8564 33.4511 48.6517 33.432 48.4479C33.4148 48.267 33.4495 48.0851 33.5323 47.9221C33.615 47.7592 33.7426 47.6215 33.901 47.5243L35.0145 46.8556L32.7684 43.3498L31.6511 44.0258C31.4925 44.121 31.3096 44.1715 31.123 44.1715C30.9364 44.1715 30.7535 44.121 30.5948 44.0258C30.5033 43.9741 30.4156 43.9224 30.3203 43.8744L30.0419 43.7377C29.871 43.6627 29.7249 43.5432 29.6198 43.3925C29.5148 43.2419 29.455 43.0659 29.447 42.8843L29.4089 41.6172L25.1685 41.7391L25.2104 43.0025C25.2143 43.1841 25.1665 43.3632 25.0723 43.5202C24.9782 43.6772 24.8413 43.8062 24.6765 43.8929C24.489 43.9898 24.3081 44.0984 24.1351 44.2179C23.9816 44.3223 23.8013 44.3834 23.6142 44.3945C23.427 44.4056 23.2404 44.3662 23.0749 44.2807L21.9309 43.686L19.8984 47.3322L21.0424 47.9307C21.2062 48.0155 21.3427 48.1425 21.4369 48.2976C21.5311 48.4527 21.5793 48.63 21.5763 48.8099C21.5712 49.0157 21.5775 49.2217 21.5954 49.4268C21.613 49.6077 21.5785 49.7898 21.4957 49.9529C21.4129 50.1159 21.285 50.2535 21.1263 50.3504L20.0167 51.0265L22.2627 54.5323L23.3724 53.8526ZM24.4401 47.3322C24.766 46.7439 25.2646 46.2624 25.8729 45.9486C26.4812 45.6347 27.1719 45.5026 27.8577 45.569C28.5435 45.6354 29.1936 45.8972 29.7258 46.3215C30.2579 46.7457 30.6484 47.3132 30.8477 47.9524C31.047 48.5915 31.0462 49.2735 30.8455 49.9123C30.6448 50.551 30.2531 51.1177 29.7199 51.5408C29.1868 51.9639 28.5362 52.2244 27.8502 52.2894C27.1643 52.3543 26.4739 52.2208 25.8663 51.9057C25.4625 51.6963 25.1053 51.4118 24.815 51.0686C24.5248 50.7253 24.3072 50.3301 24.1748 49.9053C24.0423 49.4806 23.9976 49.0347 24.0431 48.5932C24.0886 48.1517 24.2235 47.7232 24.4401 47.3322Z" fill="#EBEBEB"/>
<path d="M226.844 131.519C226.957 131.583 227.049 131.677 227.111 131.789C227.172 131.901 227.2 132.028 227.191 132.154C227.191 132.228 227.191 132.298 227.191 132.369C227.191 132.439 227.191 132.513 227.191 132.583C227.2 132.71 227.172 132.836 227.111 132.948C227.049 133.061 226.957 133.154 226.844 133.218L226.051 133.662L227.542 136.166L228.335 135.723C228.451 135.656 228.585 135.623 228.72 135.627C228.855 135.632 228.986 135.674 229.098 135.749C229.221 135.827 229.348 135.898 229.479 135.963C229.594 136.021 229.691 136.108 229.758 136.216C229.825 136.324 229.861 136.447 229.86 136.573V137.47H232.846V136.584C232.846 136.458 232.882 136.335 232.949 136.227C233.016 136.12 233.112 136.032 233.227 135.974C233.359 135.911 233.487 135.839 233.609 135.76C233.72 135.685 233.851 135.643 233.986 135.639C234.121 135.634 234.255 135.667 234.371 135.734L235.165 136.177L236.656 133.673L235.859 133.226C235.747 133.162 235.655 133.069 235.595 132.957C235.534 132.845 235.507 132.72 235.515 132.594C235.515 132.524 235.515 132.45 235.515 132.38C235.515 132.31 235.515 132.239 235.515 132.165C235.507 132.039 235.535 131.912 235.596 131.8C235.657 131.688 235.749 131.594 235.863 131.53L236.656 131.087L235.165 128.582L234.375 129.025C234.259 129.092 234.125 129.126 233.99 129.121C233.855 129.116 233.724 129.074 233.613 129C233.487 128.922 233.357 128.852 233.231 128.785C233.116 128.727 233.02 128.64 232.953 128.532C232.885 128.425 232.85 128.301 232.85 128.176V127.289H229.864V128.176C229.865 128.301 229.829 128.425 229.762 128.532C229.695 128.64 229.598 128.727 229.483 128.785C229.352 128.85 229.225 128.922 229.101 129C228.99 129.074 228.859 129.116 228.724 129.121C228.589 129.126 228.455 129.092 228.339 129.025L227.546 128.582L226.055 131.087L226.844 131.519ZM231.348 130.001C231.831 130.001 232.304 130.14 232.706 130.4C233.107 130.66 233.421 131.03 233.606 131.462C233.791 131.895 233.839 132.371 233.745 132.831C233.651 133.29 233.418 133.712 233.076 134.043C232.734 134.374 232.299 134.6 231.824 134.691C231.35 134.783 230.859 134.736 230.412 134.556C229.965 134.377 229.584 134.074 229.315 133.684C229.047 133.295 228.903 132.837 228.903 132.369C228.903 131.741 229.161 131.138 229.619 130.694C230.078 130.25 230.699 130.001 231.348 130.001Z" fill="#EBEBEB"/>
<path d="M240.098 114.01C240.1 116.235 240.783 118.411 242.061 120.26C243.34 122.11 245.155 123.551 247.278 124.401C249.402 125.252 251.738 125.473 253.991 125.037C256.244 124.602 258.313 123.529 259.937 121.954C261.561 120.379 262.666 118.374 263.114 116.191C263.561 114.007 263.33 111.745 262.451 109.688C261.571 107.632 260.082 105.875 258.171 104.638C256.26 103.402 254.014 102.742 251.717 102.742C250.19 102.743 248.679 103.035 247.268 103.601C245.858 104.168 244.577 104.998 243.498 106.044C242.419 107.09 241.563 108.332 240.98 109.699C240.396 111.066 240.097 112.531 240.098 114.01ZM246.291 114.01C246.289 112.969 246.606 111.951 247.202 111.085C247.798 110.218 248.646 109.543 249.638 109.144C250.631 108.745 251.723 108.64 252.777 108.842C253.831 109.045 254.799 109.545 255.559 110.281C256.319 111.017 256.837 111.955 257.046 112.976C257.256 113.996 257.149 115.055 256.737 116.016C256.326 116.978 255.629 117.8 254.736 118.378C253.842 118.956 252.791 119.264 251.717 119.263C250.279 119.262 248.9 118.708 247.882 117.723C246.865 116.739 246.293 115.403 246.291 114.01Z" fill="#EBEBEB"/>
<path d="M249.482 103.222H253.952L253.704 100.156H249.73L249.482 103.222Z" fill="#EBEBEB"/>
<path d="M257.99 104.682L261.148 107.741L263.211 105.406L260.4 102.684L257.99 104.682Z" fill="#EBEBEB"/>
<path d="M262.939 111.539V115.869L266.101 115.629V111.779L262.939 111.539Z" fill="#EBEBEB"/>
<path d="M261.435 119.775L258.273 122.838L260.687 124.837L263.498 122.114L261.435 119.775Z" fill="#EBEBEB"/>
<path d="M254.352 124.572H249.887L250.135 127.639H254.108L254.352 124.572Z" fill="#EBEBEB"/>
<path d="M245.849 123.112L242.688 120.053L240.629 122.388L243.439 125.11L245.849 123.112Z" fill="#EBEBEB"/>
<path d="M240.9 116.255V111.926L237.738 112.166V116.015L240.9 116.255Z" fill="#EBEBEB"/>
<path d="M242.405 108.018L245.566 104.956L243.152 102.957L240.342 105.68L242.405 108.018Z" fill="#EBEBEB"/>
<path d="M243.98 41.0518C242.996 41.266 242.233 40.6823 242.233 39.7883C242.224 39.5142 242.305 39.2444 242.465 39.018C242.625 38.7915 242.855 38.6201 243.122 38.5286C246.203 37.605 246.649 36.6519 246.649 34.561C246.649 33.944 246.584 32.9318 246.584 32.2853C246.584 29.884 247.759 28.7462 249.886 28.0702C247.789 27.4237 246.584 26.2526 246.584 23.855C246.584 23.2085 246.649 22.1926 246.649 21.5793C246.649 19.4884 246.203 18.5316 243.122 17.6117C242.855 17.519 242.625 17.3468 242.465 17.1199C242.306 16.8929 242.224 16.6228 242.233 16.3483C242.233 15.458 242.996 14.8706 243.98 15.0885C248.903 16.134 250.203 18.0439 250.203 21.0252C250.203 21.487 250.138 22.7172 250.138 23.2418C250.138 25.5211 250.966 26.5038 253.124 26.5961C254.142 26.659 254.745 27.2426 254.745 28.0739C254.745 28.9051 254.142 29.4888 253.124 29.5516C250.966 29.6144 250.138 30.6303 250.138 32.8764C250.138 33.3973 250.203 34.6275 250.203 35.0929C250.203 38.0964 248.903 39.9915 243.98 41.0518Z" fill="#EBEBEB"/>
<path d="M237.822 15.0729C238.806 14.855 239.564 15.4423 239.564 16.3327C239.574 16.6114 239.489 16.8856 239.324 17.1136C239.158 17.3417 238.92 17.511 238.645 17.5961C235.595 18.516 235.152 19.4728 235.152 21.5637C235.152 22.177 235.217 23.1929 235.217 23.8394C235.217 26.237 234.043 27.3785 231.915 28.0545C234.008 28.701 235.217 29.8684 235.217 32.2697C235.217 32.9162 235.152 33.9284 235.152 34.5453C235.152 36.6363 235.599 37.5894 238.645 38.513C238.919 38.5973 239.157 38.766 239.323 38.9934C239.489 39.2208 239.574 39.4944 239.564 39.7727C239.564 40.6667 238.802 41.2504 237.822 41.0361C232.899 39.9907 231.595 38.0807 231.595 35.0662C231.595 34.6044 231.659 33.3743 231.659 32.8497C231.659 30.6036 230.801 29.5876 228.643 29.5248C227.659 29.4657 227.057 28.882 227.057 28.0471C227.057 27.2122 227.659 26.6322 228.643 26.5694C230.801 26.4771 231.659 25.4944 231.659 23.2151C231.659 22.6942 231.595 21.464 231.595 20.9985C231.595 18.0246 232.899 16.1184 237.822 15.0729Z" fill="#EBEBEB"/>
<path d="M36.3366 85.5087C36.5195 85.6825 36.645 85.9052 36.6971 86.1483C36.7492 86.3914 36.7255 86.644 36.629 86.874C36.5326 87.104 36.3677 87.3011 36.1554 87.4402C35.9431 87.5792 35.6929 87.654 35.4366 87.655C35.0842 87.6537 34.7457 87.5215 34.4909 87.2856L28.7214 81.6297C28.6945 81.6201 28.6708 81.6038 28.6527 81.5824C28.6346 81.5609 28.6228 81.5352 28.6184 81.5078C28.5979 81.4927 28.5762 81.4791 28.5536 81.4672C28.5266 81.4168 28.5061 81.3635 28.4926 81.3083C28.4764 81.3015 28.4623 81.2908 28.4516 81.2772C28.4409 81.2637 28.434 81.2476 28.4316 81.2307C28.4316 81.1901 28.4315 81.131 28.3896 81.1088C28.3477 81.0867 28.3477 81.0312 28.3477 81.0091V80.8724C28.3477 80.8318 28.3477 80.8133 28.3477 80.7542C28.3477 80.6951 28.3477 80.6729 28.3477 80.6544V80.5141C28.3477 80.4734 28.3896 80.4549 28.3896 80.4328C28.3896 80.4106 28.4125 80.3367 28.4316 80.2739C28.4506 80.2111 28.4316 80.2739 28.4316 80.237C28.4625 80.1749 28.4968 80.1144 28.5345 80.056C28.5345 80.0452 28.5389 80.0348 28.5468 80.0272C28.5547 80.0196 28.5653 80.0153 28.5765 80.0153C28.6049 79.9596 28.6484 79.9123 28.7023 79.8786L34.4719 74.208C34.7198 73.9768 35.0506 73.8477 35.3947 73.8477C35.7388 73.8477 36.0696 73.9768 36.3175 74.208C36.4397 74.3248 36.5368 74.464 36.603 74.6175C36.6692 74.7709 36.7033 74.9356 36.7033 75.102C36.7033 75.2683 36.6692 75.433 36.603 75.5865C36.5368 75.7399 36.4397 75.8791 36.3175 75.996L31.4708 80.7542L36.3366 85.5087Z" fill="#EBEBEB"/>
<path d="M41.5642 86.1445L46.5978 74.5445C46.7184 74.2762 46.9437 74.0651 47.2245 73.9571C47.5052 73.8491 47.8187 73.8531 48.0964 73.9682C48.3656 74.0818 48.5773 74.2941 48.6852 74.5586C48.7931 74.8231 48.7885 75.1182 48.6722 75.3794L43.6386 87.0015C43.5479 87.1971 43.4005 87.363 43.2143 87.4791C43.0282 87.5951 42.8113 87.6564 42.5899 87.6554C42.4498 87.6584 42.3106 87.6319 42.1819 87.5778C42.0425 87.5252 41.9154 87.4459 41.8083 87.3446C41.7012 87.2433 41.6163 87.1221 41.5586 86.9883C41.501 86.8545 41.4717 86.7108 41.4727 86.5658C41.4736 86.4209 41.5047 86.2775 41.5642 86.1445Z" fill="#EBEBEB"/>
<path d="M58.611 81.4675V81.4897C58.5666 81.5401 58.5182 81.587 58.4661 81.6301L52.6965 87.3007C52.4487 87.5355 52.1165 87.6679 51.7699 87.6702C51.4243 87.6685 51.0931 87.5359 50.8471 87.3007C50.7247 87.1836 50.6276 87.0441 50.5614 86.8903C50.4951 86.7365 50.4609 86.5715 50.4609 86.4049C50.4609 86.2382 50.4951 86.0733 50.5614 85.9195C50.6276 85.7657 50.7247 85.6262 50.8471 85.509L55.7129 80.7545L50.8471 75.9963C50.7249 75.8795 50.6278 75.7403 50.5616 75.5868C50.4954 75.4333 50.4613 75.2687 50.4613 75.1023C50.4613 74.936 50.4954 74.7713 50.5616 74.6178C50.6278 74.4643 50.7249 74.3251 50.8471 74.2083C51.0957 73.9769 51.4271 73.8477 51.7718 73.8477C52.1166 73.8477 52.448 73.9769 52.6965 74.2083L58.4661 79.879C58.5199 79.9188 58.5685 79.9647 58.611 80.0157V80.0563C58.6494 80.1144 58.6838 80.1749 58.714 80.2373C58.714 80.2558 58.7369 80.2558 58.7369 80.2743C58.7498 80.3363 58.7689 80.3969 58.7941 80.4553C58.7941 80.4738 58.8169 80.4738 58.8169 80.5144V80.6548C58.8169 80.6733 58.8398 80.7324 58.8398 80.7545C58.8398 80.7767 58.8169 80.8321 58.8169 80.8506V81.0094C58.8169 81.0316 58.7941 81.0316 58.7941 81.0501C58.7559 81.1313 58.7559 81.1904 58.7369 81.2311C58.7178 81.2717 58.714 81.2496 58.714 81.2902C58.714 81.3308 58.653 81.3899 58.611 81.4675Z" fill="#EBEBEB"/>
<path d="M19.3418 165.269L50.2565 165.18L81.1712 165.147L143.001 165.084L204.83 165.147L235.745 165.18L266.659 165.269L235.745 165.361L204.83 165.394L143.001 165.453L81.1712 165.391L50.2565 165.361L19.3418 165.269Z" fill="#263238"/>
<path d="M258.739 157.101H27.2578V165.269H258.739V157.101Z" fill="#C7C7C7"/>
<path d="M234.826 38.0938H51.1797V157.104H234.826V38.0938Z" fill="#DBDBDB"/>
<path d="M233.491 39.543H52.5137V155.65H233.491V39.543Z" fill="#37474F"/>
<path d="M225.475 47.0059H60.5254V148.184H225.475V47.0059Z" fill="#263238"/>
<path d="M225.475 47.0059H60.5254V50.8996H225.475V47.0059Z" fill="#A3D95D"/>
<path d="M64.3085 48.9576C64.3085 49.1037 64.2638 49.2466 64.18 49.3681C64.0962 49.4896 63.9771 49.5843 63.8377 49.6402C63.6984 49.6961 63.545 49.7108 63.3971 49.6823C63.2491 49.6537 63.1132 49.5834 63.0066 49.48C62.8999 49.3767 62.8273 49.2451 62.7979 49.1017C62.7684 48.9584 62.7835 48.8099 62.8413 48.6749C62.899 48.5398 62.9967 48.4245 63.1222 48.3433C63.2476 48.2621 63.395 48.2188 63.5459 48.2188C63.7481 48.2188 63.9421 48.2966 64.0852 48.4352C64.2282 48.5737 64.3085 48.7616 64.3085 48.9576Z" fill="#C7C7C7"/>
<path d="M67.416 48.9576C67.416 49.1037 67.3712 49.2466 67.2874 49.3681C67.2036 49.4896 67.0845 49.5843 66.9452 49.6402C66.8058 49.6961 66.6524 49.7108 66.5045 49.6823C66.3566 49.6537 66.2207 49.5834 66.114 49.48C66.0073 49.3767 65.9347 49.2451 65.9053 49.1017C65.8759 48.9584 65.891 48.8099 65.9487 48.6749C66.0064 48.5398 66.1042 48.4245 66.2296 48.3433C66.355 48.2621 66.5024 48.2188 66.6533 48.2188C66.8556 48.2188 67.0495 48.2966 67.1926 48.4352C67.3356 48.5737 67.416 48.7616 67.416 48.9576Z" fill="white"/>
<path d="M70.5195 48.9576C70.5195 49.1037 70.4747 49.2466 70.3909 49.3681C70.3071 49.4896 70.188 49.5843 70.0487 49.6402C69.9093 49.6961 69.756 49.7108 69.608 49.6823C69.4601 49.6537 69.3242 49.5834 69.2175 49.48C69.1109 49.3767 69.0382 49.2451 69.0088 49.1017C68.9794 48.9584 68.9945 48.8099 69.0522 48.6749C69.1099 48.5398 69.2077 48.4245 69.3331 48.3433C69.4585 48.2621 69.606 48.2188 69.7568 48.2188C69.9591 48.2188 70.1531 48.2966 70.2961 48.4352C70.4391 48.5737 70.5195 48.7616 70.5195 48.9576Z" fill="#455A64"/>
<path d="M74.8549 68.1973H71.0645V68.9176H74.8549V68.1973Z" fill="#EBEBEB"/>
<path d="M163.336 68.1973H79.3281V68.9176H163.336V68.1973Z" fill="#EBEBEB"/>
<path d="M172.866 68.1973H165.666V68.9176H172.866V68.1973Z" fill="#A3D95D"/>
<path d="M201.486 85.1758H177.188V85.8925H201.486V85.1758Z" fill="#EBEBEB"/>
<path d="M210.1 68.1973H174.43V68.9176H210.1V68.1973Z" fill="#A6A6A6"/>
<path d="M74.8549 71.592H71.0645V72.3124H74.8549V71.592Z" fill="#EBEBEB"/>
<path d="M111.551 71.592H83.0195V72.3124H111.551V71.592Z" fill="#A6A6A6"/>
<path d="M175.475 85.1758H164.684V85.8925H175.475V85.1758Z" fill="#A6A6A6"/>
<path d="M106.578 81.7812H79.3281V82.5016H106.578V81.7812Z" fill="#A6A6A6"/>
<path d="M102.136 74.9922H83.0195V75.7126H102.136V74.9922Z" fill="#A3D95D"/>
<path d="M206.694 78.3867H170.479V79.1034H206.694V78.3867Z" fill="#A6A6A6"/>
<path d="M163.336 95.0527H127.121V95.7694H163.336V95.0527Z" fill="#A6A6A6"/>
<path d="M175.325 74.9922H104.26V75.7126H175.325V74.9922Z" fill="#A6A6A6"/>
<path d="M162.219 85.1758H79.3281V85.8925H162.219V85.1758Z" fill="#A3D95D"/>
<path d="M172.061 71.592H113.344V72.3124H172.061V71.592Z" fill="#EBEBEB"/>
<path d="M190.656 74.9922H178.361V75.7126H190.656V74.9922Z" fill="#EBEBEB"/>
<path d="M74.8549 74.9922H71.0645V75.7126H74.8549V74.9922Z" fill="#EBEBEB"/>
<path d="M74.8549 78.3867H71.0645V79.1034H74.8549V78.3867Z" fill="#A6A6A6"/>
<path d="M101.728 78.3867H79.3281V79.1034H101.728V78.3867Z" fill="#EBEBEB"/>
<path d="M105.419 88.5703H83.0195V89.2907H105.419V88.5703Z" fill="#EBEBEB"/>
<path d="M196.594 91.9648H165.324V92.6852H196.594V91.9648Z" fill="#A3D95D"/>
<path d="M163.364 91.9648H103.277V92.6852H163.364V91.9648Z" fill="#EBEBEB"/>
<path d="M99.8554 91.9648H83.0195V92.6852H99.8554V91.9648Z" fill="#A6A6A6"/>
<path d="M172.862 81.7812H108.119V82.5016H172.862V81.7812Z" fill="#EBEBEB"/>
<path d="M213.059 81.7812H174.43V82.5016H213.059V81.7812Z" fill="#A3D95D"/>
<path d="M168.718 78.3867H104.002V79.1034H168.718V78.3867Z" fill="#A3D95D"/>
<path d="M74.8549 81.7812H71.0645V82.5016H74.8549V81.7812Z" fill="#EBEBEB"/>
<path d="M74.8549 85.1758H71.0645V85.8925H74.8549V85.1758Z" fill="#EBEBEB"/>
<path d="M74.8549 88.5703H71.0645V89.2907H74.8549V88.5703Z" fill="#A6A6A6"/>
<path d="M74.8549 91.9648H71.0645V92.6852H74.8549V91.9648Z" fill="#EBEBEB"/>
<path d="M74.8549 95.0527H71.0645V95.7694H74.8549V95.0527Z" fill="#EBEBEB"/>
<path d="M123.765 95.0527H79.3281V95.7694H123.765V95.0527Z" fill="#EBEBEB"/>
<path d="M74.8549 98.4473H71.0645V99.1676H74.8549V98.4473Z" fill="#EBEBEB"/>
<path d="M111.551 98.4473H83.0195V99.1676H111.551V98.4473Z" fill="#A6A6A6"/>
<path d="M106.578 108.633H79.3281V109.349H106.578V108.633Z" fill="#A6A6A6"/>
<path d="M102.136 101.844H83.0195V102.564H102.136V101.844Z" fill="#A3D95D"/>
<path d="M145.917 115.426H126.801V116.146H145.917V115.426Z" fill="#A3D95D"/>
<path d="M102.136 122.217H83.0195V122.937H102.136V122.217Z" fill="#A3D95D"/>
<path d="M175.325 101.844H104.26V102.564H175.325V101.844Z" fill="#A6A6A6"/>
<path d="M162.219 112.027H79.3281V112.748H162.219V112.027Z" fill="#A3D95D"/>
<path d="M172.061 98.4473H113.344V99.1676H172.061V98.4473Z" fill="#EBEBEB"/>
<path d="M184.496 105.238H172.225V105.959H184.496V105.238Z" fill="#EBEBEB"/>
<path d="M74.8549 101.844H71.0645V102.564H74.8549V101.844Z" fill="#EBEBEB"/>
<path d="M74.8549 105.238H71.0645V105.959H74.8549V105.238Z" fill="#A6A6A6"/>
<path d="M101.728 105.238H79.3281V105.959H101.728V105.238Z" fill="#EBEBEB"/>
<path d="M172.862 108.633H108.119V109.349H172.862V108.633Z" fill="#EBEBEB"/>
<path d="M168.718 105.238H104.002V105.959H168.718V105.238Z" fill="#A3D95D"/>
<path d="M74.8549 108.633H71.0645V109.349H74.8549V108.633Z" fill="#EBEBEB"/>
<path d="M74.8549 115.426H71.0645V116.146H74.8549V115.426Z" fill="#EBEBEB"/>
<path d="M123.765 115.426H79.3281V116.146H123.765V115.426Z" fill="#EBEBEB"/>
<path d="M74.8549 118.822H71.0645V119.542H74.8549V118.822Z" fill="#EBEBEB"/>
<path d="M111.551 118.822H83.0195V119.542H111.551V118.822Z" fill="#A6A6A6"/>
<path d="M106.578 129.008H79.3281V129.728H106.578V129.008Z" fill="#A6A6A6"/>
<path d="M175.325 122.217H104.26V122.937H175.325V122.217Z" fill="#A6A6A6"/>
<path d="M184.496 125.613H172.225V126.334H184.496V125.613Z" fill="#EBEBEB"/>
<path d="M74.8549 122.217H71.0645V122.937H74.8549V122.217Z" fill="#EBEBEB"/>
<path d="M74.8549 125.613H71.0645V126.334H74.8549V125.613Z" fill="#A6A6A6"/>
<path d="M101.728 125.613H79.3281V126.334H101.728V125.613Z" fill="#EBEBEB"/>
<path d="M172.862 129.008H108.119V129.728H172.862V129.008Z" fill="#EBEBEB"/>
<path d="M168.718 125.613H104.002V126.334H168.718V125.613Z" fill="#A3D95D"/>
<path d="M74.8549 129.008H71.0645V129.728H74.8549V129.008Z" fill="#EBEBEB"/>
<path d="M72.9029 61.7375C72.9298 61.7608 72.9513 61.7892 72.966 61.821C72.9807 61.8529 72.9883 61.8874 72.9883 61.9222C72.9883 61.9571 72.9807 61.9916 72.966 62.0234C72.9513 62.0553 72.9298 62.0837 72.9029 62.107C72.8551 62.1529 72.791 62.1793 72.7237 62.1808C72.6539 62.1805 72.587 62.154 72.5368 62.107L71.3928 60.9802C71.3871 60.9795 71.3817 60.9769 71.3775 60.9729C71.3734 60.9689 71.3707 60.9637 71.37 60.958C71.3689 60.947 71.3689 60.9359 71.37 60.9248C71.37 60.9248 71.37 60.9026 71.37 60.8989V60.8694C71.37 60.8694 71.37 60.8694 71.37 60.8472V60.7992C71.37 60.7992 71.37 60.777 71.37 60.7659C71.37 60.7659 71.37 60.7401 71.389 60.729C71.3947 60.7177 71.4041 60.7086 71.4157 60.7031L72.5597 59.5949C72.5843 59.5698 72.6139 59.5499 72.6467 59.5363C72.6794 59.5226 72.7147 59.5156 72.7504 59.5156C72.7861 59.5156 72.8213 59.5226 72.8541 59.5363C72.8869 59.5499 72.9165 59.5698 72.9411 59.5949C72.9679 59.6181 72.9894 59.6465 73.0041 59.6784C73.0189 59.7102 73.0265 59.7447 73.0265 59.7796C73.0265 59.8145 73.0189 59.8489 73.0041 59.8808C72.9894 59.9126 72.9679 59.9411 72.9411 59.9643L71.9725 60.91L72.9029 61.7375Z" fill="#A3D95D"/>
<path d="M73.9451 61.8678L74.9442 59.5625C74.9558 59.536 74.9727 59.5119 74.994 59.4918C75.0153 59.4716 75.0405 59.4558 75.0682 59.4451C75.0959 59.4344 75.1254 59.4292 75.1552 59.4297C75.185 59.4302 75.2143 59.4364 75.2416 59.448C75.2684 59.4589 75.2927 59.4748 75.313 59.4949C75.3334 59.515 75.3493 59.5388 75.36 59.565C75.3707 59.5912 75.3758 59.6191 75.3751 59.6473C75.3744 59.6754 75.3679 59.7031 75.356 59.7288L74.3607 62.0377C74.3429 62.0772 74.3136 62.1109 74.2763 62.1345C74.2391 62.1581 74.1955 62.1707 74.151 62.1707C74.1247 62.1774 74.0972 62.1774 74.0709 62.1707C74.0401 62.1614 74.0118 62.1456 73.988 62.1244C73.9643 62.1032 73.9457 62.0772 73.9337 62.0482C73.9216 62.0192 73.9164 61.9879 73.9184 61.9567C73.9203 61.9255 73.9295 61.8951 73.9451 61.8678Z" fill="#A3D95D"/>
<path d="M77.3346 60.9398L77.3041 60.9656L76.1601 62.0924C76.1358 62.1179 76.1064 62.1383 76.0735 62.1522C76.0407 62.1661 76.0053 62.1733 75.9695 62.1733C75.9336 62.1733 75.8982 62.1661 75.8654 62.1522C75.8325 62.1383 75.8031 62.1179 75.7788 62.0924C75.7519 62.0691 75.7304 62.0407 75.7157 62.0089C75.701 61.977 75.6934 61.9425 75.6934 61.9077C75.6934 61.8728 75.701 61.8383 75.7157 61.8064C75.7304 61.7746 75.7519 61.7462 75.7788 61.7229L76.7474 60.7772L75.7788 59.8315C75.7519 59.8083 75.7304 59.7798 75.7157 59.748C75.701 59.7161 75.6934 59.6816 75.6934 59.6468C75.6934 59.6119 75.701 59.5774 75.7157 59.5456C75.7304 59.5137 75.7519 59.4853 75.7788 59.4621C75.8034 59.437 75.8329 59.4171 75.8657 59.4035C75.8985 59.3898 75.9338 59.3828 75.9695 59.3828C76.0051 59.3828 76.0404 59.3898 76.0732 59.4035C76.106 59.4171 76.1355 59.437 76.1601 59.4621L77.3041 60.5703L77.3346 60.5962C77.3346 60.5962 77.3346 60.622 77.3346 60.6331C77.3334 60.6454 77.3334 60.6578 77.3346 60.6701V60.6996C77.3346 60.6996 77.3346 60.6996 77.3346 60.7181V60.7513C77.3339 60.7637 77.3339 60.776 77.3346 60.7883C77.3225 60.8381 77.3225 60.89 77.3346 60.9398Z" fill="#A3D95D"/>
<path d="M244.343 43.3828H205.027V67.6799H244.343V43.3828Z" fill="white"/>
<path d="M244.59 67.9199H204.775V43.1426H244.587L244.59 67.9199ZM205.275 67.4397H244.091V43.6376H205.275V67.4397Z" fill="#EBEBEB"/>
<path d="M244.343 43.3828H205.027V47.9785H244.343V43.3828Z" fill="#A3D95D"/>
<path d="M244.59 48.2185H204.775V43.1426H244.587L244.59 48.2185ZM205.275 47.7382H244.091V43.6376H205.275V47.7382Z" fill="#EBEBEB"/>
<path d="M211.812 57.0619C211.838 55.832 212.361 54.6609 213.268 53.7997C214.174 52.9385 215.393 52.4559 216.663 52.4551C217.766 52.4495 218.84 52.8005 219.714 53.4526C219.855 53.5774 219.943 53.7491 219.96 53.9338C219.977 54.1184 219.922 54.3025 219.805 54.4494C219.688 54.5964 219.519 54.6955 219.33 54.7271C219.142 54.7587 218.948 54.7204 218.787 54.62C218.187 54.1503 217.435 53.9004 216.663 53.9144C215.779 53.9194 214.929 54.248 214.284 54.8342C213.673 55.4214 213.327 56.2178 213.319 57.0508C213.32 57.4638 213.406 57.8724 213.571 58.253C213.737 58.6335 213.979 58.9783 214.284 59.2674C214.929 59.8536 215.779 60.1822 216.663 60.1872C217.434 60.1982 218.184 59.9501 218.787 59.4853C218.95 59.379 219.148 59.3346 219.343 59.3605C219.538 59.3863 219.716 59.4808 219.843 59.6257C219.964 59.779 220.017 59.9717 219.993 60.1629C219.969 60.354 219.869 60.5284 219.714 60.649C218.84 61.3011 217.766 61.6521 216.663 61.6465C215.396 61.6506 214.177 61.1725 213.27 60.3151C212.363 59.4577 211.839 58.2894 211.812 57.0619Z" fill="#EBEBEB"/>
<path d="M222.115 59.4412C222.232 59.3066 222.398 59.2218 222.579 59.2053C222.759 59.1887 222.939 59.2416 223.08 59.3525C223.79 59.9367 224.675 60.2827 225.604 60.3389C226.192 60.3496 226.769 60.1845 227.256 59.866C227.42 59.7678 227.557 59.6324 227.655 59.4715C227.753 59.3107 227.81 59.1291 227.82 58.9425C227.824 58.7985 227.783 58.6568 227.702 58.5361C227.606 58.3861 227.475 58.2597 227.32 58.1667C226.761 57.8604 226.148 57.6563 225.513 57.5645H225.486C224.899 57.4673 224.326 57.2998 223.782 57.0658C223.281 56.8539 222.855 56.5062 222.554 56.0647C222.352 55.7499 222.246 55.3861 222.249 55.0155C222.265 54.6494 222.369 54.2921 222.553 53.9715C222.736 53.651 222.993 53.3761 223.305 53.1684C223.976 52.7158 224.776 52.4781 225.593 52.4886C226.859 52.4886 227.797 53.0908 228.472 53.5119C228.619 53.61 228.721 53.7602 228.755 53.9301C228.789 54.1 228.753 54.2762 228.655 54.4207C228.608 54.4941 228.545 54.5574 228.472 54.607C228.399 54.6566 228.316 54.6914 228.228 54.7093C228.141 54.7272 228.05 54.7279 227.962 54.7113C227.875 54.6947 227.791 54.6612 227.717 54.6128C227.046 54.1769 226.398 53.7927 225.593 53.7927C225.065 53.7845 224.547 53.9369 224.113 54.2286C223.969 54.3135 223.847 54.4311 223.76 54.5714C223.672 54.7116 223.621 54.8703 223.61 55.034C223.6 55.1633 223.632 55.2925 223.702 55.4034C223.799 55.5359 223.92 55.6499 224.06 55.7396C224.568 56.0272 225.129 56.2178 225.711 56.3011H225.738C226.365 56.4092 226.977 56.589 227.561 56.8367C228.095 57.0647 228.552 57.4333 228.88 57.9007C229.087 58.2273 229.197 58.6034 229.197 58.9868C229.184 59.3822 229.074 59.7688 228.875 60.1141C228.676 60.4594 228.394 60.7532 228.053 60.9706C227.341 61.4622 226.486 61.721 225.612 61.7095C224.37 61.6514 223.182 61.2012 222.23 60.4276C222.153 60.372 222.088 60.3016 222.04 60.2209C221.993 60.1402 221.962 60.0509 221.952 59.9584C221.941 59.8659 221.95 59.7723 221.978 59.6834C222.006 59.5944 222.053 59.512 222.115 59.4412Z" fill="#EBEBEB"/>
<path d="M230.794 59.4415C230.91 59.3069 231.077 59.2221 231.258 59.2055C231.438 59.189 231.618 59.2419 231.759 59.3528C232.467 59.9369 233.351 60.283 234.279 60.3392C234.867 60.3499 235.443 60.1847 235.931 59.8663C236.096 59.7687 236.234 59.6336 236.333 59.4727C236.432 59.3117 236.489 59.1299 236.499 58.9428C236.503 58.7988 236.462 58.6571 236.38 58.5364C236.284 58.3872 236.153 58.2609 235.999 58.167C235.44 57.8607 234.827 57.6566 234.192 57.5648H234.138C233.551 57.4681 232.978 57.3006 232.434 57.0661C231.933 56.8542 231.507 56.5065 231.206 56.0649C231.004 55.7502 230.898 55.3864 230.901 55.0158C230.917 54.6497 231.021 54.2924 231.205 53.9718C231.388 53.6513 231.645 53.3764 231.957 53.1686C232.627 52.7154 233.428 52.4777 234.245 52.4889C235.515 52.4889 236.453 53.0911 237.128 53.5122C237.274 53.6109 237.375 53.761 237.41 53.9307C237.444 54.1003 237.408 54.2762 237.311 54.421C237.263 54.4944 237.201 54.5577 237.128 54.6073C237.054 54.6569 236.971 54.6916 236.884 54.7096C236.796 54.7275 236.706 54.7282 236.618 54.7116C236.53 54.695 236.447 54.6615 236.373 54.6131C235.698 54.1772 235.053 53.793 234.245 53.793C233.717 53.7855 233.2 53.9379 232.765 54.2289C232.622 54.3145 232.501 54.4323 232.414 54.5725C232.327 54.7127 232.276 54.871 232.266 55.0342C232.256 55.1636 232.288 55.2928 232.357 55.4037C232.453 55.5371 232.575 55.6513 232.716 55.7398C233.224 56.0282 233.784 56.2188 234.367 56.3014H234.39C235.019 56.409 235.632 56.5888 236.217 56.837C236.75 57.065 237.208 57.4336 237.536 57.901C237.743 58.2276 237.853 58.6036 237.852 58.9871C237.839 59.3822 237.728 59.7686 237.529 60.1137C237.33 60.4589 237.049 60.7528 236.708 60.9709C235.995 61.4619 235.139 61.7206 234.264 61.7098C233.023 61.6498 231.835 61.1998 230.882 60.4279C230.807 60.3703 230.744 60.2985 230.699 60.2169C230.654 60.1352 230.626 60.0454 230.618 59.953C230.61 59.8606 230.621 59.7676 230.651 59.6796C230.682 59.5917 230.73 59.5106 230.794 59.4415Z" fill="#EBEBEB"/>
<path d="M208.613 45.7115C208.613 45.8576 208.568 46.0005 208.485 46.122C208.401 46.2435 208.282 46.3382 208.142 46.3941C208.003 46.45 207.85 46.4647 207.702 46.4362C207.554 46.4077 207.418 46.3373 207.311 46.234C207.205 46.1306 207.132 45.999 207.103 45.8556C207.073 45.7123 207.088 45.5638 207.146 45.4288C207.204 45.2938 207.301 45.1784 207.427 45.0972C207.552 45.016 207.7 44.9727 207.851 44.9727C208.053 44.9727 208.247 45.0505 208.39 45.1891C208.533 45.3276 208.613 45.5156 208.613 45.7115Z" fill="#C7C7C7"/>
<path d="M211.721 45.7115C211.721 45.8576 211.676 46.0005 211.592 46.122C211.508 46.2435 211.389 46.3382 211.25 46.3941C211.11 46.45 210.957 46.4647 210.809 46.4362C210.661 46.4077 210.525 46.3373 210.419 46.234C210.312 46.1306 210.239 45.999 210.21 45.8556C210.181 45.7123 210.196 45.5638 210.253 45.4288C210.311 45.2938 210.409 45.1784 210.534 45.0972C210.66 45.016 210.807 44.9727 210.958 44.9727C211.16 44.9727 211.354 45.0505 211.497 45.1891C211.64 45.3276 211.721 45.5156 211.721 45.7115Z" fill="white"/>
<path d="M214.824 45.7115C214.824 45.8576 214.779 46.0005 214.696 46.122C214.612 46.2435 214.493 46.3382 214.353 46.3941C214.214 46.45 214.061 46.4647 213.913 46.4362C213.765 46.4077 213.629 46.3373 213.522 46.234C213.416 46.1306 213.343 45.999 213.313 45.8556C213.284 45.7123 213.299 45.5638 213.357 45.4288C213.415 45.2938 213.512 45.1784 213.638 45.0972C213.763 45.016 213.911 44.9727 214.061 44.9727C214.264 44.9727 214.458 45.0505 214.601 45.1891C214.744 45.3276 214.824 45.5156 214.824 45.7115Z" fill="#455A64"/>
<path d="M210.988 26.4297H184.207V36.0348H210.988V26.4297Z" fill="#455A64"/>
<path d="M188.074 33.2213V28.9619C188.073 28.9097 188.083 28.8578 188.103 28.8094C188.123 28.761 188.153 28.717 188.191 28.6801C188.23 28.6432 188.275 28.6141 188.325 28.5946C188.375 28.5751 188.428 28.5656 188.482 28.5666C188.537 28.5651 188.591 28.5742 188.642 28.5934C188.693 28.6126 188.739 28.6415 188.778 28.6784C188.817 28.7152 188.848 28.7593 188.87 28.808C188.891 28.8567 188.902 28.909 188.902 28.9619V30.7055H190.831V28.9619C190.83 28.9093 190.84 28.8572 190.861 28.8085C190.881 28.7599 190.911 28.7157 190.95 28.6787C190.988 28.6418 191.034 28.6128 191.085 28.5935C191.135 28.5742 191.189 28.5651 191.243 28.5666C191.297 28.5656 191.351 28.5751 191.402 28.5945C191.452 28.6139 191.498 28.6429 191.537 28.6797C191.575 28.7165 191.606 28.7604 191.627 28.8089C191.648 28.8573 191.659 28.9093 191.659 28.9619V33.2213C191.659 33.274 191.648 33.3262 191.627 33.3749C191.606 33.4235 191.576 33.4677 191.537 33.5048C191.498 33.5419 191.452 33.5712 191.402 33.591C191.352 33.6108 191.298 33.6208 191.243 33.6203C191.189 33.6213 191.135 33.6117 191.084 33.592C191.034 33.5723 190.988 33.5429 190.95 33.5057C190.911 33.4684 190.881 33.4241 190.861 33.3752C190.84 33.3263 190.83 33.274 190.831 33.2213V31.4887H188.902V33.2213C188.902 33.2744 188.891 33.3268 188.87 33.3757C188.849 33.4246 188.818 33.4689 188.778 33.5061C188.739 33.5432 188.693 33.5725 188.642 33.5921C188.591 33.6117 188.537 33.6213 188.482 33.6203C188.428 33.6208 188.375 33.6108 188.325 33.5909C188.275 33.571 188.229 33.5415 188.191 33.5043C188.153 33.4671 188.123 33.4229 188.103 33.3743C188.083 33.3257 188.073 33.2737 188.074 33.2213Z" fill="white"/>
<path d="M196.547 29.3682H195.365V33.2213C195.371 33.2767 195.364 33.3326 195.346 33.3854C195.328 33.4382 195.299 33.4867 195.26 33.5279C195.222 33.5691 195.174 33.602 195.122 33.6245C195.069 33.647 195.013 33.6587 194.955 33.6587C194.898 33.6587 194.841 33.647 194.789 33.6245C194.736 33.602 194.689 33.5691 194.65 33.5279C194.612 33.4867 194.582 33.4382 194.564 33.3854C194.546 33.3326 194.54 33.2767 194.545 33.2213V29.3682H193.367C193.312 29.3677 193.258 29.3568 193.208 29.3362C193.158 29.3155 193.112 29.2854 193.074 29.2477C193.036 29.2099 193.006 29.1653 192.985 29.1162C192.965 29.0672 192.955 29.0147 192.955 28.9619C192.954 28.9093 192.964 28.8572 192.984 28.8085C193.005 28.7599 193.035 28.7157 193.074 28.6787C193.112 28.6418 193.158 28.6128 193.208 28.5935C193.259 28.5742 193.313 28.5651 193.367 28.5666H196.547C196.601 28.5661 196.655 28.5759 196.705 28.5956C196.755 28.6152 196.8 28.6443 196.838 28.681C196.877 28.7178 196.907 28.7615 196.928 28.8097C196.948 28.8579 196.959 28.9096 196.959 28.9619C196.958 29.0681 196.915 29.1698 196.838 29.2456C196.761 29.3214 196.657 29.3654 196.547 29.3682Z" fill="white"/>
<path d="M202.674 28.9618V33.2212C202.672 33.3271 202.628 33.428 202.55 33.5025C202.472 33.577 202.368 33.6193 202.259 33.6202C202.204 33.6202 202.151 33.6099 202.101 33.5898C202.051 33.5698 202.006 33.5404 201.967 33.5034C201.929 33.4663 201.899 33.4223 201.878 33.3739C201.857 33.3255 201.847 33.2736 201.847 33.2212V30.1809L200.775 31.6253C200.737 31.6774 200.687 31.7197 200.629 31.7487C200.57 31.7776 200.505 31.7923 200.44 31.7916C200.373 31.7926 200.307 31.778 200.247 31.7491C200.187 31.7202 200.136 31.6777 200.096 31.6253L199.029 30.1809V33.2212C199.019 33.3209 198.971 33.4134 198.894 33.4808C198.818 33.5481 198.718 33.5854 198.615 33.5854C198.512 33.5854 198.412 33.5481 198.335 33.4808C198.259 33.4134 198.211 33.3209 198.201 33.2212V28.9618C198.202 28.8566 198.246 28.7561 198.323 28.682C198.4 28.608 198.504 28.5665 198.613 28.5665H198.636C198.7 28.5668 198.763 28.5816 198.82 28.6099C198.877 28.6381 198.926 28.6789 198.964 28.729L200.447 30.7239L201.931 28.729C201.969 28.6777 202.019 28.6361 202.078 28.6077C202.136 28.5794 202.201 28.5653 202.266 28.5665C202.373 28.5701 202.475 28.613 202.55 28.6863C202.626 28.7597 202.67 28.8581 202.674 28.9618Z" fill="white"/>
<path d="M204.479 33.2212V28.9617C204.479 28.9095 204.489 28.8578 204.51 28.8096C204.531 28.7614 204.561 28.7176 204.599 28.6809C204.638 28.6441 204.683 28.6151 204.733 28.5954C204.783 28.5758 204.836 28.5659 204.89 28.5664C204.944 28.5659 204.998 28.5758 205.048 28.5954C205.098 28.615 205.144 28.644 205.183 28.6807C205.221 28.7174 205.252 28.7611 205.273 28.8093C205.294 28.8575 205.306 28.9093 205.306 28.9617V32.8185H207.327C207.43 32.8281 207.525 32.8745 207.595 32.9486C207.664 33.0227 207.703 33.1192 207.703 33.2193C207.703 33.3195 207.664 33.416 207.595 33.4901C207.525 33.5642 207.43 33.6106 207.327 33.6202H204.89C204.781 33.6202 204.676 33.5781 204.599 33.5033C204.522 33.4285 204.479 33.327 204.479 33.2212Z" fill="white"/>
<path d="M147.752 157.158C146.673 157.561 115.38 158.112 114.156 157.436C114.023 157.358 114.057 156.021 113.6 152.559C113.577 152.393 112.86 151.75 111.746 150.845C107.552 147.446 97.7285 140.283 97.7285 140.283L113.363 127.139L128.498 141.547L132.434 145.292C132.434 145.292 145.22 151.983 146.486 152.866C147.752 153.749 148.831 156.759 147.752 157.158Z" fill="#DD6A57"/>
<path d="M147.752 157.157C146.673 157.56 115.381 158.11 114.156 157.434C114.023 157.356 114.061 156.019 113.596 152.558C113.577 152.391 112.864 151.752 111.746 150.843C110.29 149.661 109.6 149.122 107.434 147.489L127.29 140.422L128.479 141.552L132.415 145.302C132.415 145.302 145.201 151.989 146.467 152.872C147.733 153.754 148.831 156.758 147.752 157.157Z" fill="#EBEBEB"/>
<path d="M149.908 157.575C148.821 157.944 115.481 158.295 114.28 157.575C113.998 157.405 113.738 155.528 113.517 152.957C113.49 152.636 110.112 150.02 109.65 149.536L130.082 142.887L132.664 145.236C132.664 145.236 147.7 152.015 148.928 152.939C150.156 153.862 151.01 157.209 149.908 157.575Z" fill="#A3D95D"/>
<path d="M149.446 156.373C144.206 156.307 120.972 156.525 115.789 156.846C115.747 156.846 115.747 156.876 115.789 156.876C120.979 157.053 144.214 156.669 149.446 156.458C149.556 156.451 149.556 156.377 149.446 156.373Z" fill="#263238"/>
<path d="M134.344 145.445C132.277 145.098 129.768 145.445 128.205 146.871C128.144 146.926 128.228 147.008 128.292 146.989C130.254 146.35 132.28 145.917 134.337 145.696C134.371 145.697 134.404 145.685 134.429 145.662C134.454 145.639 134.469 145.608 134.47 145.574C134.471 145.541 134.458 145.509 134.435 145.484C134.411 145.46 134.379 145.446 134.344 145.445Z" fill="#263238"/>
<path d="M135.843 146.298C133.776 145.947 131.267 146.298 129.703 147.724C129.642 147.78 129.722 147.861 129.791 147.839C131.752 147.201 133.779 146.769 135.835 146.549C135.87 146.55 135.903 146.538 135.928 146.515C135.953 146.492 135.968 146.461 135.969 146.427C135.97 146.394 135.957 146.362 135.933 146.338C135.91 146.313 135.877 146.299 135.843 146.298Z" fill="#263238"/>
<path d="M137.339 147.148C135.276 146.801 132.763 147.148 131.199 148.574C131.142 148.63 131.222 148.711 131.291 148.692C133.252 148.054 135.278 147.62 137.335 147.399C137.369 147.4 137.402 147.387 137.427 147.364C137.452 147.341 137.466 147.309 137.466 147.276C137.467 147.242 137.454 147.21 137.43 147.186C137.406 147.162 137.373 147.149 137.339 147.148Z" fill="#263238"/>
<path d="M138.836 147.999C136.773 147.648 134.26 147.999 132.697 149.425C132.636 149.481 132.72 149.562 132.788 149.54C134.75 148.902 136.776 148.47 138.833 148.251C138.867 148.251 138.9 148.238 138.925 148.215C138.949 148.192 138.964 148.16 138.964 148.127C138.965 148.093 138.951 148.061 138.927 148.037C138.904 148.014 138.871 148 138.836 147.999Z" fill="#263238"/>
<path d="M138.094 140.794C137.274 139.723 135.772 140.225 134.918 140.935C133.478 142.18 132.403 143.77 131.798 145.545C131.795 145.553 131.794 145.561 131.795 145.57C131.796 145.578 131.799 145.586 131.804 145.593C131.809 145.6 131.816 145.605 131.823 145.609C131.831 145.613 131.839 145.615 131.848 145.615C131.847 145.654 131.856 145.693 131.873 145.728C131.89 145.764 131.916 145.795 131.948 145.819C131.98 145.843 132.017 145.859 132.057 145.867C132.096 145.874 132.137 145.873 132.176 145.863C133.869 145.231 135.76 144.754 137.206 143.646C138.045 142.989 138.872 141.799 138.094 140.794ZM134.544 144.396C133.717 144.725 132.881 145.013 132.065 145.375C132.679 144.477 133.248 143.557 133.949 142.719C134.282 142.311 134.642 141.926 135.028 141.566C135.635 141.016 138.048 139.841 137.698 142.035C137.526 143.236 135.528 143.997 134.544 144.389V144.396Z" fill="#263238"/>
<path d="M126.554 145.076C128.263 145.756 130.215 145.7 132.022 145.848C132.063 145.847 132.102 145.838 132.138 145.82C132.174 145.802 132.205 145.776 132.228 145.744C132.252 145.713 132.268 145.676 132.274 145.638C132.281 145.6 132.278 145.56 132.267 145.523C132.274 145.52 132.281 145.515 132.287 145.509C132.293 145.503 132.297 145.496 132.3 145.488C132.302 145.48 132.303 145.472 132.302 145.464C132.301 145.456 132.298 145.448 132.293 145.442C131.205 143.899 129.716 142.662 127.977 141.854C126.955 141.4 125.364 141.322 124.884 142.571C124.426 143.75 125.559 144.677 126.554 145.076ZM125.608 143.661C124.655 141.644 127.309 142.124 128.049 142.49C128.525 142.732 128.982 143.006 129.418 143.31C130.309 143.948 131.167 144.628 131.988 145.349C131.103 145.224 130.215 145.172 129.319 145.08C128.27 144.965 126.131 144.773 125.608 143.661Z" fill="#263238"/>
<path d="M128.693 140.744L109.39 150.437C109.39 150.437 89.2786 132.801 87.4368 132.668C85.595 132.535 58.5394 150.323 44.9181 150.397C30.8088 150.456 30.0957 136.137 30.0957 136.137L50.6877 131.556C65.5216 124.474 80.9732 111.755 91.0823 112.941C102.046 114.212 128.693 140.744 128.693 140.744Z" fill="#455A64"/>
<path d="M123.98 138.279C120.719 139.841 121.634 139.35 118.393 140.946C116.807 141.725 108.825 145.627 107.468 146.591C107.441 146.613 107.468 146.665 107.502 146.654C109.096 146.136 116.99 142.069 118.561 141.26C121.772 139.609 120.849 140.052 124.025 138.367C124.031 138.364 124.037 138.36 124.041 138.355C124.046 138.351 124.049 138.345 124.051 138.339C124.053 138.332 124.054 138.326 124.054 138.319C124.053 138.313 124.051 138.307 124.048 138.301C124.045 138.295 124.041 138.29 124.036 138.286C124.031 138.281 124.025 138.278 124.019 138.276C124.012 138.274 124.006 138.273 123.999 138.274C123.992 138.274 123.986 138.276 123.98 138.279Z" fill="#263238"/>
<path d="M105.974 145.968C102.199 142.746 89.8322 132.251 89.3326 131.859C88.9432 131.499 88.5105 131.185 88.0437 130.925C87.8512 130.852 87.644 130.822 87.4379 130.838C87.2318 130.854 87.0321 130.915 86.854 131.017C86.282 131.276 85.71 131.56 85.1532 131.826L81.8089 133.407C77.4846 135.45 73.1832 137.548 68.8245 139.529C64.6299 141.427 61.6402 143.223 57.2625 144.701C52.9178 146.184 48.4237 147.219 43.8548 147.789C43.2905 147.855 42.7261 147.915 42.1617 147.966C42.155 147.969 42.1491 147.973 42.145 147.978C42.1409 147.984 42.1387 147.991 42.1387 147.998C42.1387 148.005 42.1409 148.011 42.145 148.017C42.1491 148.023 42.155 148.027 42.1617 148.029C46.6524 147.769 51.0922 146.969 55.3787 145.646C59.7145 144.357 62.6546 142.691 66.7768 140.844C71.0439 138.941 75.25 136.906 79.4561 134.878C81.6793 133.81 83.8948 132.727 86.1218 131.671C86.629 131.434 87.3459 130.914 87.9255 131.168C88.1661 131.3 88.3889 131.46 88.589 131.645L89.3517 132.244C90.305 133.012 105.463 145.661 105.959 146.023C105.959 146.053 106.012 146.005 105.974 145.968Z" fill="#263238"/>
<path d="M30.0576 136.12C30.0576 136.12 27.7696 149.05 34.4239 154.13C41.0781 159.209 89.9956 158.596 97.4049 156.272C104.814 153.949 105.058 142.352 96.9473 139.667C89.2329 137.099 56.4383 135.869 55.607 135.555C55.4048 135.477 58.5203 133.667 58.5051 133.556L51.0386 131.34L30.0576 136.12Z" fill="#455A64"/>
<path d="M40.1865 135.791C40.1865 135.735 40.0912 135.754 40.0912 135.791C40.0959 137.291 39.556 138.745 38.5659 139.899C37.4219 141.17 35.7554 141.883 34.2377 142.625C34.0928 142.695 34.2034 142.917 34.3521 142.873C35.2812 142.599 36.1764 142.228 37.0215 141.764C37.8012 141.361 38.4877 140.808 39.0387 140.139C39.5304 139.531 39.8863 138.83 40.0839 138.082C40.2815 137.333 40.3164 136.553 40.1865 135.791Z" fill="#263238"/>
<path d="M55.0725 134.19C54.7331 133.769 54.3632 133.37 54.0086 132.964C53.1734 132 52.3345 131.032 51.4574 130.105C51.3774 130.016 51.2134 130.142 51.2896 130.238C51.8807 130.976 52.5023 131.715 53.1162 132.436L54.0658 133.544C54.3987 133.884 54.6963 134.256 54.9543 134.652C55.1831 135.066 54.8818 135.421 54.4356 135.465C54.0453 135.478 53.6645 135.346 53.3717 135.096C52.7092 134.527 52.1028 133.9 51.5604 133.223C51.2096 132.853 50.8549 132.454 50.5003 132.077C50.1456 131.701 49.7147 131.291 49.3334 130.888C49.3105 130.862 49.2648 130.888 49.2838 130.928C49.6156 131.368 49.9207 131.826 50.2524 132.269C50.5842 132.713 50.9236 133.145 51.2629 133.577C51.6023 134.009 51.9227 134.386 52.2697 134.782C52.5573 135.128 52.9012 135.426 53.2878 135.664C53.9208 136.034 55.0229 136.104 55.3623 135.295C55.4218 135.103 55.4262 134.898 55.3752 134.704C55.3241 134.509 55.2195 134.332 55.0725 134.19Z" fill="#263238"/>
<path d="M96.3899 156.308C93.8388 156.352 91.2838 156.496 88.7289 156.548C86.174 156.6 83.661 156.614 81.1289 156.592C76.0445 156.548 70.96 156.357 65.8756 156.02C60.7428 155.676 55.1983 155.181 50.1151 154.494C47.6746 154.169 45.2035 153.895 42.7935 153.386C40.6256 152.986 38.621 151.994 37.0163 150.526C33.7139 147.427 32.4403 142.864 31.9064 138.509C31.834 137.925 31.7768 137.338 31.7272 136.75C31.7272 136.713 31.6624 136.713 31.6662 136.75C31.9636 141.217 32.6805 145.875 35.5825 149.466C36.806 151.034 38.4361 152.26 40.3072 153.02C42.5952 153.906 45.1234 154.128 47.5525 154.431C52.67 155.103 58.2299 155.624 63.3702 156.009C68.5106 156.393 73.7425 156.64 78.9363 156.714C84.13 156.788 89.3314 156.714 94.5175 156.47C95.1506 156.441 95.7836 156.404 96.4242 156.352C96.4276 156.347 96.4293 156.341 96.429 156.335C96.4288 156.329 96.4267 156.323 96.423 156.318C96.4192 156.314 96.4141 156.31 96.4081 156.308C96.4022 156.306 96.3959 156.306 96.3899 156.308Z" fill="#263238"/>
<path d="M80.2873 137.311C78.6819 137.082 77.0765 136.86 75.4596 136.694C73.8428 136.528 72.1916 136.387 70.5557 136.254C67.322 135.988 64.073 135.752 60.8355 135.604C58.9936 135.519 57.1518 135.512 55.31 135.534C55.249 135.534 55.2528 135.615 55.31 135.623C58.5513 135.907 61.7926 136.103 65.0454 136.314C68.2982 136.524 71.5281 136.798 74.758 137.097C76.5922 137.267 78.4264 137.396 80.2606 137.54C80.292 137.544 80.3234 137.535 80.3481 137.516C80.3728 137.497 80.3886 137.469 80.3922 137.438C80.3957 137.408 80.3866 137.378 80.367 137.354C80.3473 137.33 80.3187 137.314 80.2873 137.311Z" fill="#263238"/>
<path d="M58.887 133.406C57.5927 133.946 56.3476 134.591 55.1652 135.334C53.9657 136.033 52.8188 136.813 51.7332 137.669C51.7026 137.695 51.7332 137.732 51.7713 137.717C53.0335 137.152 54.25 136.442 55.4512 135.766C56.6705 135.103 57.8483 134.37 58.9785 133.572C59.0433 133.509 58.9937 133.358 58.887 133.406Z" fill="#263238"/>
<path d="M52.7586 120.476L49.5745 119.973C48.9702 118.073 48.9916 116.038 49.6355 114.151C49.7766 113.719 48.2093 116.072 47.9576 119.722C44.5942 119.201 40.0221 118.492 36.0371 117.834C36.2469 116.316 36.3689 114.901 36.3689 114.901C36.0559 115.866 35.6538 116.802 35.1677 117.697L33.5775 117.431C34.1381 115.115 34.5042 110.974 34.5042 110.974C33.7905 113.153 32.7122 115.203 31.3124 117.044C28.788 116.6 27.1177 116.268 27.2626 116.168C31.8882 112.61 29.5506 109.666 31.3544 106.123C33.5127 101.879 37.6311 101.879 38.1535 98.4947C38.5844 95.7425 39.1793 90.7146 42.9507 90.2935C44.0902 89.5509 45.4303 89.15 46.8037 89.1408C48.177 89.1316 49.5227 89.5145 50.6727 90.2418C55.9122 93.3413 52.076 101.38 52.1332 103.172C52.2133 105.721 53.2543 106.799 53.6204 109.755C53.9865 112.71 52.3124 114.391 51.7938 116.283C51.2752 118.174 53.3878 120.572 52.7586 120.476Z" fill="#263238"/>
<path d="M27.2617 115.542C27.9254 114.897 28.4916 114.165 28.9434 113.366C29.3934 112.583 29.4315 111.707 29.4239 110.78C29.3912 109.85 29.4077 108.919 29.4735 107.991C29.5523 107.025 29.8298 106.084 30.2895 105.224C30.7708 104.368 31.4493 103.631 32.2724 103.07C33.0671 102.538 33.9064 102.071 34.7816 101.674C35.6254 101.294 36.4149 100.809 37.1306 100.233C37.8274 99.6219 38.3378 98.8374 38.6064 97.9648C38.4694 98.9071 38.0383 99.7862 37.3709 100.484C36.6886 101.155 35.9057 101.721 35.0485 102.165C34.2299 102.6 33.4414 103.086 32.6881 103.621C31.9689 104.145 31.3757 104.814 30.9492 105.582C30.5382 106.363 30.2796 107.211 30.1865 108.083C30.0721 108.97 30.0721 109.879 30.0226 110.81C30.0013 111.284 29.9427 111.756 29.8472 112.221C29.7358 112.696 29.5383 113.147 29.2637 113.555C28.7222 114.326 28.0445 114.999 27.2617 115.542Z" fill="#263238"/>
<path d="M53.2654 93.9512C53.4567 95.0753 53.5054 96.218 53.4103 97.3536C53.3417 98.4877 53.2159 99.6182 53.0786 100.741L52.8879 102.418C52.8178 102.959 52.8025 103.504 52.8422 104.048C52.9808 105.132 53.3206 106.183 53.8451 107.151C54.0962 107.678 54.3115 108.221 54.4895 108.776C54.6595 109.346 54.7657 109.932 54.806 110.524C54.8235 111.108 54.7967 111.694 54.7259 112.275C54.6573 112.859 54.5152 113.434 54.3027 113.985C54.0891 114.539 53.8222 115.049 53.5819 115.551C53.3412 116.053 53.1497 116.575 53.0099 117.11C52.8886 117.651 52.9024 118.211 53.0504 118.745C53.1983 119.28 53.476 119.772 53.8603 120.18C53.4074 119.795 53.0603 119.307 52.85 118.759C52.6397 118.212 52.5728 117.623 52.6553 117.044C52.7527 116.472 52.9111 115.911 53.1282 115.37C53.3341 114.827 53.5781 114.321 53.7421 113.8C54.0593 112.752 54.1769 111.657 54.0891 110.568C54.0402 110.031 53.9355 109.5 53.7764 108.983C53.6035 108.459 53.3946 107.947 53.151 107.45C52.8988 106.928 52.6761 106.392 52.4837 105.847C52.2899 105.281 52.1694 104.694 52.1252 104.099C52.1002 103.513 52.1334 102.925 52.2244 102.345C52.3007 101.779 52.396 101.218 52.4913 100.66C52.6782 99.5517 52.8727 98.4434 53.0366 97.3166C53.2328 96.2055 53.3095 95.0776 53.2654 93.9512Z" fill="#263238"/>
<path d="M44.0327 111.173C45.9127 116.127 54.4241 129.042 58.367 130.938C61.2842 132.334 69.9939 134.048 71.115 133.779C72.7319 133.409 76.3507 122.755 74.8712 122.651C67.7555 122.153 63.2252 121.259 61.5474 120.616C60.1326 120.073 54.2372 114.797 46.5877 108.355C43.9221 106.112 42.904 108.211 44.0327 111.173Z" fill="#D3766A"/>
<path d="M48.4039 121.999L53.2888 112.981C53.2888 112.981 49.3343 109.586 46.8709 108.005C43.6105 105.918 42.0433 106.601 43.3131 111.079C44.1597 114.071 48.4039 121.999 48.4039 121.999Z" fill="#A3D95D"/>
<path d="M48.8111 109.369H48.7692C48.6073 109.369 48.4503 109.315 48.3246 109.216C48.199 109.117 48.1122 108.98 48.079 108.826C48.3154 109.022 48.5594 109.181 48.8111 109.369ZM48.7692 119.95C48.5821 119.95 48.4026 120.022 48.2703 120.15C48.138 120.278 48.0637 120.452 48.0637 120.633C48.0637 120.814 48.138 120.988 48.2703 121.116C48.4026 121.244 48.5821 121.316 48.7692 121.316L49.345 120.249C49.2809 120.157 49.1946 120.082 49.0935 120.029C48.9925 119.977 48.8798 119.95 48.7654 119.95H48.7692ZM44.8643 114.039C44.7374 114.038 44.6129 114.072 44.5059 114.139C44.6889 114.541 44.8872 114.955 45.074 115.372C45.2179 115.33 45.3439 115.244 45.4333 115.127C45.5226 115.01 45.5705 114.868 45.5698 114.722C45.5708 114.632 45.5532 114.542 45.5179 114.458C45.4827 114.374 45.4305 114.297 45.3645 114.233C45.2985 114.169 45.22 114.118 45.1334 114.083C45.0469 114.048 44.9541 114.031 44.8605 114.031L44.8643 114.039ZM52.674 114.039C52.5814 114.039 52.4896 114.056 52.4041 114.091C52.3185 114.125 52.2407 114.175 52.1752 114.239C52.1097 114.302 52.0577 114.378 52.0223 114.461C51.9868 114.544 51.9686 114.632 51.9686 114.722C51.9684 114.875 52.0222 115.024 52.1211 115.143L52.7198 114.035L52.674 114.039Z" fill="white"/>
<path d="M48.0179 120.636C48.6357 119.276 49.2687 117.928 49.9704 116.605C50.3161 115.945 50.6746 115.29 51.0457 114.64C51.4271 113.99 51.8542 113.377 52.2126 112.723C52.2317 112.69 52.2889 112.723 52.266 112.756C51.8847 113.388 51.5682 114.082 51.2097 114.732C50.8513 115.383 50.4966 116.048 50.1458 116.705C49.4441 118.02 48.7425 119.339 48.0713 120.669C48.0485 120.706 47.9989 120.673 48.0179 120.636Z" fill="#263238"/>
<path opacity="0.1" d="M52.522 114.397L48.4036 122C48.4036 122 44.1632 114.068 43.309 111.076C42.9276 109.691 42.798 108.671 42.9276 107.98L52.522 114.397Z" fill="black"/>
<path d="M71.1152 133.775C72.6555 134.592 74.249 135.312 75.8857 135.929C77.1937 136.361 80.9918 137.506 81.6248 136.158C82.0595 135.238 79.9088 134.311 78.3987 133.62C77.6055 133.25 76.6484 132.393 76.9115 131.898C77.3691 131.037 79.4131 132.016 80.7439 132.848C83.3217 134.458 86.7232 137.303 88.4049 136.073C89.0379 135.607 88.3706 134.68 87.3753 133.753C89.0112 134.861 90.7692 135.773 91.4975 135.286C91.9132 135.005 91.9513 134.599 91.7492 134.126C91.9577 134.23 92.1936 134.273 92.427 134.248C92.6604 134.223 92.881 134.132 93.061 133.985C93.6368 133.457 93.408 132.622 92.8474 131.769C92.9509 131.763 93.0514 131.733 93.1408 131.683C93.2303 131.632 93.3061 131.561 93.3622 131.477C94.6054 129.815 89.0303 124.632 87.0435 124.089C81.1977 122.463 74.8828 122.677 74.8828 122.677C72.4537 124.347 71.1114 133.775 71.1152 133.775Z" fill="#D3766A"/>
<path d="M80.0808 128.832C81.4819 129.096 82.8053 129.657 83.9551 130.476C85.2898 131.459 86.327 132.759 87.5511 133.857C87.5854 133.886 87.5511 133.934 87.5015 133.905C86.9295 133.339 86.2927 132.83 85.694 132.29C85.0953 131.751 84.55 131.211 83.9246 130.724C82.8056 129.825 81.4896 129.186 80.077 128.855C80.077 128.855 80.0464 128.829 80.0808 128.832Z" fill="#263238"/>
<path d="M81.2823 126.448C82.8466 126.878 84.3609 127.464 85.8011 128.195C87.3265 129.045 88.5162 130.367 89.6717 131.645C90.3657 132.414 91.0445 133.193 91.7042 133.991C91.7309 134.025 91.6813 134.073 91.6546 134.039C90.4801 132.719 89.2675 131.436 88.0167 130.19C86.8629 129.025 85.4827 128.092 83.9555 127.445C83.0822 127.076 82.1823 126.776 81.2862 126.473C81.2556 126.47 81.2633 126.444 81.2823 126.448Z" fill="#263238"/>
<path d="M83.0438 124.4C84.5387 124.77 85.8428 125.084 87.1393 125.93C88.8592 127.038 90.4836 128.885 91.0556 129.517C91.6848 130.23 92.2874 130.965 92.8822 131.708C92.9051 131.737 92.8517 131.778 92.825 131.748C91.4644 130.118 89.9971 128.575 88.4321 127.127C87.6967 126.427 86.8542 125.841 85.9343 125.39C85.0007 124.984 84.0323 124.658 83.04 124.415C83.04 124.415 83.0362 124.4 83.0438 124.4Z" fill="#263238"/>
<path d="M28.2461 138.906C29.1499 139.19 54.9394 131.96 54.9394 131.96L51.8888 123.29C51.8888 123.29 53.4141 120.501 52.6934 117.819C51.7629 114.235 44.9142 108.343 44.3765 107.996C42.2181 106.61 40.1818 106.633 38.401 107.552C30.9459 111.391 28.2461 138.906 28.2461 138.906Z" fill="#A3D95D"/>
<path d="M41.6627 108.691C41.6627 108.826 41.6213 108.959 41.5438 109.071C41.4662 109.183 41.3561 109.271 41.2272 109.323C41.0982 109.374 40.9564 109.388 40.8196 109.362C40.6827 109.335 40.557 109.27 40.4583 109.175C40.3597 109.079 40.2925 108.957 40.2653 108.825C40.2381 108.692 40.252 108.555 40.3054 108.43C40.3588 108.305 40.4492 108.198 40.5652 108.123C40.6813 108.048 40.8177 108.008 40.9572 108.008C41.1443 108.008 41.3237 108.08 41.456 108.208C41.5883 108.336 41.6627 108.51 41.6627 108.691ZM33.1475 119.951C33.0079 119.951 32.8716 119.991 32.7555 120.067C32.6395 120.142 32.5491 120.248 32.4957 120.373C32.4423 120.498 32.4283 120.636 32.4556 120.768C32.4828 120.901 32.55 121.022 32.6486 121.118C32.7473 121.214 32.873 121.279 33.0098 121.305C33.1467 121.331 33.2885 121.318 33.4174 121.266C33.5464 121.214 33.6565 121.127 33.7341 121.014C33.8116 120.902 33.8529 120.77 33.8529 120.635C33.8529 120.545 33.8347 120.456 33.7992 120.373C33.7638 120.29 33.7118 120.215 33.6463 120.152C33.5808 120.088 33.503 120.038 33.4174 120.003C33.3319 119.969 33.2401 119.951 33.1475 119.951ZM40.9572 119.951C40.8177 119.951 40.6813 119.991 40.5652 120.067C40.4492 120.142 40.3588 120.248 40.3054 120.373C40.252 120.498 40.2381 120.636 40.2653 120.768C40.2925 120.901 40.3597 121.022 40.4583 121.118C40.557 121.214 40.6827 121.279 40.8196 121.305C40.9564 121.331 41.0982 121.318 41.2272 121.266C41.3561 121.214 41.4662 121.127 41.5438 121.014C41.6213 120.902 41.6627 120.77 41.6627 120.635C41.6627 120.545 41.6444 120.456 41.6089 120.373C41.5735 120.29 41.5215 120.215 41.456 120.152C41.3905 120.088 41.3127 120.038 41.2272 120.003C41.1416 119.969 41.0498 119.951 40.9572 119.951ZM48.7669 119.951C48.6274 119.951 48.491 119.991 48.375 120.067C48.2589 120.142 48.1685 120.248 48.1151 120.373C48.0617 120.498 48.0478 120.636 48.075 120.768C48.1022 120.901 48.1694 121.022 48.2681 121.118C48.3667 121.214 48.4924 121.279 48.6293 121.305C48.7661 121.331 48.908 121.318 49.0369 121.266C49.1658 121.214 49.2759 121.127 49.3535 121.014C49.431 120.902 49.4724 120.77 49.4724 120.635C49.4724 120.545 49.4541 120.456 49.4187 120.373C49.3832 120.29 49.3312 120.215 49.2657 120.152C49.2002 120.088 49.1225 120.038 49.0369 120.003C48.9513 119.969 48.8595 119.951 48.7669 119.951ZM37.0523 114.041C36.9123 114.04 36.7753 114.079 36.6586 114.154C36.5419 114.229 36.4509 114.336 36.3971 114.462C36.3434 114.587 36.3293 114.725 36.3567 114.858C36.3842 114.991 36.4518 115.113 36.5511 115.209C36.6504 115.304 36.7768 115.369 36.9142 115.395C37.0517 115.421 37.1939 115.406 37.3229 115.354C37.4519 115.301 37.5618 115.212 37.6385 115.099C37.7153 114.985 37.7555 114.852 37.754 114.717C37.754 114.536 37.6802 114.363 37.5487 114.235C37.4172 114.107 37.2388 114.034 37.0523 114.033V114.041ZM44.862 114.041C44.7225 114.041 44.5861 114.081 44.4701 114.156C44.3541 114.231 44.2637 114.338 44.2103 114.462C44.1569 114.587 44.1429 114.725 44.1701 114.857C44.1973 114.99 44.2645 115.112 44.3632 115.207C44.4619 115.303 44.5876 115.368 44.7244 115.394C44.8613 115.421 45.0031 115.407 45.132 115.355C45.2609 115.304 45.3711 115.216 45.4486 115.104C45.5261 114.991 45.5675 114.859 45.5675 114.724C45.5685 114.634 45.551 114.544 45.516 114.46C45.481 114.376 45.4292 114.3 45.3636 114.236C45.298 114.172 45.2199 114.121 45.1338 114.086C45.0477 114.051 44.9553 114.033 44.862 114.033V114.041ZM33.1475 131.895C33.0079 131.895 32.8716 131.935 32.7555 132.01C32.6395 132.085 32.5491 132.192 32.4957 132.317C32.4423 132.442 32.4283 132.579 32.4556 132.712C32.4828 132.844 32.55 132.966 32.6486 133.062C32.7473 133.157 32.873 133.222 33.0098 133.249C33.1467 133.275 33.2885 133.261 33.4174 133.21C33.5464 133.158 33.6565 133.07 33.7341 132.958C33.8116 132.846 33.8529 132.713 33.8529 132.578C33.8529 132.397 33.7786 132.223 33.6463 132.095C33.514 131.967 33.3346 131.895 33.1475 131.895ZM40.9572 131.895C40.8177 131.895 40.6813 131.935 40.5652 132.01C40.4492 132.085 40.3588 132.192 40.3054 132.317C40.252 132.442 40.2381 132.579 40.2653 132.712C40.2925 132.844 40.3597 132.966 40.4583 133.062C40.557 133.157 40.6827 133.222 40.8196 133.249C40.9564 133.275 41.0982 133.261 41.2272 133.21C41.3561 133.158 41.4662 133.07 41.5438 132.958C41.6213 132.846 41.6627 132.713 41.6627 132.578C41.6627 132.397 41.5883 132.223 41.456 132.095C41.3237 131.967 41.1443 131.895 40.9572 131.895ZM48.7669 131.895C48.6274 131.895 48.491 131.935 48.375 132.01C48.2589 132.085 48.1685 132.192 48.1151 132.317C48.0617 132.442 48.0478 132.579 48.075 132.712C48.1022 132.844 48.1694 132.966 48.2681 133.062C48.3667 133.157 48.4924 133.222 48.6293 133.249C48.7661 133.275 48.908 133.261 49.0369 133.21C49.1658 133.158 49.2759 133.07 49.3535 132.958C49.431 132.846 49.4724 132.713 49.4724 132.578C49.4724 132.397 49.398 132.223 49.2657 132.095C49.1334 131.967 48.954 131.895 48.7669 131.895ZM37.0523 125.984C36.9123 125.983 36.7753 126.023 36.6586 126.098C36.5419 126.173 36.4509 126.28 36.3971 126.405C36.3434 126.53 36.3293 126.668 36.3567 126.801C36.3842 126.934 36.4518 127.056 36.5511 127.152C36.6504 127.248 36.7768 127.313 36.9142 127.338C37.0517 127.364 37.1939 127.35 37.3229 127.297C37.4519 127.244 37.5618 127.156 37.6385 127.042C37.7153 126.929 37.7555 126.796 37.754 126.66C37.754 126.479 37.6802 126.306 37.5487 126.178C37.4172 126.05 37.2388 125.978 37.0523 125.977V125.984ZM44.862 125.984C44.7225 125.984 44.5861 126.024 44.4701 126.099C44.3541 126.174 44.2637 126.281 44.2103 126.406C44.1569 126.531 44.1429 126.668 44.1701 126.801C44.1973 126.933 44.2645 127.055 44.3632 127.151C44.4619 127.246 44.5876 127.311 44.7244 127.338C44.8613 127.364 45.0031 127.351 45.132 127.299C45.2609 127.247 45.3711 127.16 45.4486 127.047C45.5261 126.935 45.5675 126.803 45.5675 126.668C45.5685 126.577 45.551 126.487 45.516 126.404C45.481 126.32 45.4292 126.244 45.3636 126.179C45.298 126.115 45.2199 126.064 45.1338 126.029C45.0477 125.995 44.9553 125.977 44.862 125.977V125.984ZM52.8433 126.006C52.7875 125.991 52.7297 125.984 52.6717 125.984C52.4846 125.984 52.3052 126.056 52.1729 126.184C52.0406 126.312 51.9663 126.486 51.9663 126.668C51.9663 126.849 52.0406 127.023 52.1729 127.151C52.3052 127.279 52.4846 127.351 52.6717 127.351C52.7777 127.352 52.8824 127.329 52.9776 127.284C53.0729 127.239 53.1561 127.174 53.2209 127.092L52.8433 126.006ZM29.2426 137.92C29.0555 137.92 28.8761 137.992 28.7438 138.12C28.6115 138.249 28.5372 138.422 28.5372 138.604C28.5359 138.702 28.5595 138.8 28.6058 138.888C28.8994 138.847 29.3685 138.755 29.9443 138.626C29.9461 138.619 29.9461 138.611 29.9443 138.604C29.9443 138.423 29.8705 138.25 29.739 138.122C29.6075 137.994 29.4291 137.921 29.2426 137.92Z" fill="white"/>
<path d="M43.6172 122.667C44.7262 122.464 45.8491 122.341 46.9767 122.297C47.5373 122.297 48.094 122.297 48.6546 122.323C48.9329 122.323 49.2113 122.323 49.4897 122.341C49.7828 122.35 50.0759 122.325 50.3629 122.268C50.3858 122.268 50.3973 122.297 50.3629 122.305C50.1009 122.389 49.8334 122.457 49.5621 122.508C49.2982 122.547 49.032 122.569 48.7652 122.574C48.197 122.593 47.6212 122.574 47.0568 122.596C45.9128 122.619 44.7688 122.644 43.6248 122.748C43.5752 122.759 43.5638 122.692 43.6172 122.667Z" fill="#263238"/>
<path d="M41.2164 124.319C42.0814 123.988 42.9649 123.704 43.8629 123.469C44.3129 123.351 44.7666 123.263 45.2242 123.181L45.8801 123.078C46.1242 123.045 46.3721 123.041 46.6123 123.004C46.6174 123.004 46.6222 123.006 46.6258 123.009C46.6294 123.013 46.6314 123.017 46.6314 123.022C46.6314 123.027 46.6294 123.032 46.6258 123.035C46.6222 123.039 46.6174 123.041 46.6123 123.041C46.3873 123.081 46.1661 123.163 45.945 123.218L45.27 123.381C44.82 123.492 44.3701 123.606 43.9201 123.713C43.0163 123.927 42.1202 124.149 41.2279 124.393C41.2178 124.394 41.2075 124.392 41.1992 124.386C41.191 124.38 41.1855 124.371 41.184 124.362C41.1825 124.352 41.1851 124.342 41.1911 124.334C41.1972 124.326 41.2063 124.321 41.2164 124.319Z" fill="#263238"/>
<path d="M40.0176 107.105C40.0176 107.566 41.6001 110.873 43.7089 111.191C44.3953 111.294 45.1427 107.688 45.1427 107.688L45.2609 107.434L46.9083 103.88L42.4124 99.6719C42.4124 99.6719 40.0138 106.905 40.0176 107.105Z" fill="#D3766A"/>
<path d="M46.9057 103.88L45.2584 107.434C44.2991 106.85 43.4771 106.079 42.8458 105.168C42.2145 104.257 41.7879 103.228 41.5938 102.147C42.0056 100.891 42.3564 99.8492 42.3984 99.694C42.4003 99.6868 42.4003 99.6791 42.3984 99.6719L42.9742 100.174L46.9057 103.88Z" fill="#263238"/>
<path d="M53.1277 98.9229C52.5061 105.735 48.2199 106.141 46.706 106.012C45.3294 105.89 40.6581 105.318 40.5475 98.4759C40.4369 91.6341 43.907 89.7649 47.0721 89.8757C50.2372 89.9865 53.7683 92.107 53.1277 98.9229Z" fill="#D3766A"/>
<path d="M52.1683 97.7183C52.0141 97.6694 51.8627 97.6127 51.7146 97.5484C51.5447 97.5123 51.3926 97.4211 51.2836 97.2898C51.2566 97.2431 51.2465 97.1891 51.2548 97.1362C51.2631 97.0834 51.2893 97.0347 51.3294 96.9979C51.4212 96.9365 51.5284 96.9 51.6397 96.8922C51.751 96.8844 51.8624 96.9056 51.9624 96.9536C52.1781 97.02 52.3612 97.1606 52.4772 97.3489C52.5016 97.3937 52.5119 97.4444 52.5068 97.4948C52.5017 97.5451 52.4814 97.593 52.4485 97.6323C52.4156 97.6716 52.3716 97.7007 52.3218 97.716C52.2719 97.7313 52.2186 97.7321 52.1683 97.7183Z" fill="#263238"/>
<path d="M47.3478 97.5692C47.5156 97.5692 47.672 97.5692 47.8359 97.547C48.0089 97.5608 48.1817 97.5193 48.3279 97.4288C48.3686 97.3925 48.3956 97.344 48.4045 97.2911C48.4135 97.2382 48.404 97.184 48.3774 97.1369C48.3102 97.0515 48.2208 96.985 48.1182 96.9441C48.0157 96.9032 47.9038 96.8894 47.794 96.9042C47.5669 96.9016 47.3468 96.9806 47.1762 97.1259C47.1392 97.1609 47.1134 97.2057 47.1021 97.2547C47.0908 97.3037 47.0945 97.3548 47.1127 97.4018C47.1309 97.4488 47.1628 97.4896 47.2046 97.5194C47.2463 97.5491 47.2961 97.5664 47.3478 97.5692Z" fill="#263238"/>
<path d="M48.1827 98.9351C48.1827 98.9166 48.1445 98.9351 48.1407 98.9683C48.0912 99.4338 47.9539 99.9547 47.5039 100.054V100.08C48.0492 100.077 48.2132 99.3821 48.1827 98.9351Z" fill="#263238"/>
<path d="M47.8246 98.3962C47.0619 98.241 46.7988 99.7187 47.5005 99.8739C48.2021 100.029 48.4614 98.5292 47.8246 98.3962Z" fill="#263238"/>
<path d="M47.5118 98.4208C47.3631 98.4836 47.2068 98.6092 47.0428 98.5981C46.8788 98.587 46.7416 98.406 46.6615 98.2287C46.6615 98.2102 46.6348 98.2287 46.631 98.2287C46.5738 98.5131 46.631 98.8234 46.9437 98.9158C47.2564 99.0082 47.4737 98.7902 47.5957 98.5168C47.6034 98.4836 47.5729 98.3986 47.5118 98.4208Z" fill="#263238"/>
<path d="M50.9396 99.0488C50.9396 99.0488 50.974 99.0784 50.9701 99.0969C50.8672 99.5512 50.829 100.091 51.2294 100.32C51.2294 100.32 51.2294 100.349 51.2294 100.342C50.7185 100.157 50.768 99.4515 50.9396 99.0488Z" fill="#263238"/>
<path d="M51.4545 98.6328C52.2172 98.714 52.0036 100.199 51.2905 100.129C50.5774 100.059 50.8062 98.5663 51.4545 98.6328Z" fill="#263238"/>
<path d="M51.7602 98.7754C51.8708 98.8714 51.97 99.0303 52.111 99.0598C52.2521 99.0894 52.4276 98.949 52.5572 98.8086C52.5572 98.8086 52.5801 98.8086 52.5801 98.8308C52.5458 99.1152 52.4047 99.3997 52.1149 99.4145C51.825 99.4293 51.6954 99.1559 51.6687 98.864C51.6611 98.8086 51.7145 98.7347 51.7602 98.7754Z" fill="#263238"/>
<path d="M49.7391 101.349C49.7391 101.349 49.7009 102.05 49.6399 102.372C49.6399 102.401 49.5484 102.401 49.434 102.372C49.1384 102.37 48.849 102.289 48.5979 102.138C48.3469 101.987 48.144 101.771 48.0116 101.515C48.0091 101.511 48.0074 101.507 48.0065 101.503C48.0056 101.499 48.0056 101.494 48.0065 101.49C48.0074 101.486 48.0092 101.481 48.0117 101.478C48.0142 101.474 48.0174 101.471 48.0212 101.469C48.0249 101.466 48.0291 101.465 48.0336 101.464C48.038 101.463 48.0425 101.463 48.047 101.464C48.0514 101.465 48.0556 101.466 48.0594 101.469C48.0631 101.471 48.0663 101.474 48.0688 101.478C48.4375 101.838 48.9162 102.074 49.434 102.15C49.476 102.065 49.4569 100.946 49.5103 100.953C49.7652 101.023 50.009 101.126 50.2348 101.26C50.3568 99.8007 50.2348 98.3341 50.3835 96.8822C50.3835 96.8705 50.3883 96.8592 50.3969 96.8509C50.4055 96.8426 50.4172 96.8379 50.4293 96.8379C50.4414 96.8379 50.4531 96.8426 50.4616 96.8509C50.4702 96.8592 50.475 96.8705 50.475 96.8822C50.6522 98.4494 50.6675 100.03 50.5208 101.6C50.4979 101.796 49.8611 101.426 49.7391 101.349Z" fill="#263238"/>
<path d="M49.4452 102.258C49.2155 102.499 48.9251 102.678 48.6025 102.779C48.4262 102.832 48.2373 102.832 48.061 102.779C47.6796 102.642 47.7063 102.298 47.8055 102.01C47.8588 101.857 47.9318 101.71 48.0228 101.574C48.4106 101.942 48.9085 102.181 49.4452 102.258Z" fill="#263238"/>
<path d="M48.6025 102.774C48.4262 102.828 48.2373 102.828 48.061 102.774C47.6796 102.638 47.7063 102.294 47.8055 102.006C48.0074 102.03 48.1952 102.119 48.3394 102.258C48.4837 102.397 48.5762 102.579 48.6025 102.774Z" fill="#FF9CBD"/>
<path d="M40.8418 99.1022C41.6045 99.1022 43.7933 97.2033 44.1365 93.594C44.1365 93.594 43.595 96.8118 43.3052 97.2883C43.0154 97.7649 44.5217 96.2133 44.8305 93.3059C45.7259 94.0337 46.7251 94.6322 47.7973 95.0828C49.1854 95.5742 50.0548 95.6259 50.1654 95.5335C50.276 95.4412 48.2358 94.6506 47.7172 93.9746C47.7172 93.9746 51.3628 95.9547 53.0978 96.2133C53.2961 96.2428 53.7728 92.6335 51.1912 90.731C48.6096 88.8285 44.3043 89.9663 43.0726 90.9564C43.0726 90.9564 41.7112 91.0413 40.0944 92.8663C38.4775 94.6912 40.0067 99.0874 40.8418 99.1022Z" fill="#263238"/>
<path d="M46.4752 101.338C46.054 101.259 45.6642 101.067 45.3502 100.784C45.0362 100.501 44.8107 100.138 44.6994 99.737C44.5882 99.3357 44.5956 98.9121 44.7208 98.5147C44.846 98.1172 45.0841 97.7619 45.4078 97.4892C45.7314 97.2166 46.1277 97.0375 46.5514 96.9726C46.9751 96.9076 47.409 96.9593 47.8038 97.1218C48.1986 97.2843 48.5383 97.5511 48.7841 97.8916C49.0299 98.2321 49.172 98.6328 49.1941 99.0477C49.211 99.3389 49.1686 99.6305 49.069 99.9057C48.9695 100.181 48.8148 100.434 48.614 100.652C48.4131 100.869 48.17 101.046 47.8985 101.172C47.627 101.298 47.3325 101.371 47.0319 101.386C46.845 101.394 46.6578 101.377 46.4752 101.338ZM47.2988 97.2745C47.137 97.2428 46.9717 97.2317 46.8069 97.2413C46.3021 97.2681 45.8269 97.4803 45.478 97.8347C45.1291 98.1891 44.9327 98.659 44.929 99.1488C44.9252 99.6385 45.1143 100.111 45.4577 100.471C45.8012 100.83 46.2731 101.049 46.7774 101.083C47.2817 101.117 47.7805 100.964 48.1721 100.654C48.5637 100.344 48.8187 99.9016 48.8852 99.4161C48.9516 98.9307 48.8246 98.4389 48.5298 98.041C48.2351 97.6431 47.7949 97.369 47.2988 97.2745Z" fill="#A3D95D"/>
<path d="M51.7217 101.705C50.8599 101.542 50.2535 100.541 50.3451 99.385C50.3794 98.8313 50.5914 98.3017 50.9514 97.8703C51.0954 97.6773 51.2881 97.5234 51.5112 97.4234C51.7343 97.3234 51.9801 97.2806 52.2252 97.2991C52.4702 97.3177 52.7062 97.3969 52.9105 97.5293C53.1149 97.6617 53.2806 97.8427 53.3919 98.0551C53.6789 98.5343 53.8042 99.0883 53.7504 99.6399C53.6512 100.859 52.8085 101.797 51.8704 101.727C51.8203 101.723 51.7706 101.716 51.7217 101.705ZM52.3166 97.608H52.2022C52.0061 97.6018 51.8114 97.6411 51.6342 97.7227C51.4571 97.8044 51.3027 97.9259 51.184 98.0772C50.8671 98.4613 50.6806 98.9311 50.6501 99.4219C50.5662 100.478 51.123 101.387 51.8933 101.446C52.6636 101.505 53.3614 100.689 53.4453 99.6325C53.4938 99.1428 53.3831 98.6507 53.1288 98.225C53.0463 98.0722 52.9312 97.9382 52.7912 97.8318C52.6512 97.7255 52.4894 97.6492 52.3166 97.608Z" fill="#A3D95D"/>
<path d="M49.1089 99.2879L48.9297 99.0441C49.311 98.7892 50.1309 98.4715 50.6419 99.0921L50.4016 99.2769C49.9555 98.719 49.1394 99.2621 49.1089 99.2879Z" fill="#A3D95D"/>
<path d="M38.8745 99.0929L38.6152 98.9378C38.6915 98.8196 39.3779 97.7852 40.0605 97.7298C40.7431 97.6743 44.7738 98.3578 44.9454 98.3873L44.8958 98.6792C43.7289 98.4834 40.5867 97.9847 40.0872 98.0253C39.5876 98.0659 39.0576 98.8085 38.8745 99.0929Z" fill="#A3D95D"/>
<path d="M41.6192 99.094C41.6192 99.094 40.4752 96.7297 39.4036 97.088C38.3321 97.4463 38.9117 100.686 39.9909 101.299C40.1236 101.388 40.2735 101.449 40.4314 101.48C40.5893 101.51 40.752 101.509 40.9096 101.477C41.0672 101.445 41.2164 101.382 41.3482 101.293C41.48 101.203 41.5916 101.089 41.6764 100.956L41.6192 99.094Z" fill="#D3766A"/>
<path d="M39.5996 98.0117V98.0413C40.3623 98.4994 40.6445 99.301 40.8046 100.106C40.7719 100.02 40.7203 99.9411 40.6532 99.8758C40.5862 99.8104 40.5053 99.7598 40.4162 99.7275C40.3271 99.6952 40.2319 99.682 40.137 99.6887C40.0421 99.6955 39.9498 99.722 39.8665 99.7665C39.8437 99.7665 39.8665 99.8145 39.8665 99.8145C40.0176 99.7912 40.1723 99.8143 40.3091 99.8806C40.4459 99.9468 40.5578 100.053 40.6292 100.184C40.7434 100.403 40.8329 100.633 40.8961 100.871C40.919 100.949 41.0563 100.934 41.0449 100.849C41.0449 100.849 41.0449 100.849 41.0449 100.827C41.2355 99.8404 40.6902 98.311 39.5996 98.0117Z" fill="#263238"/>
<path d="M34.5494 112.133C29.1497 122.451 28.5091 131.188 30.1031 132.754C34.3931 136.992 48.4795 135.104 52.3081 135.034C53.8563 135.004 50.7103 122.676 49.0706 122.898C45.2039 123.415 39.6517 124.594 39.4648 124.52C39.0835 124.368 39.522 121.457 40.0978 112.768C40.5631 105.738 36.7573 107.914 34.5494 112.133Z" fill="#D3766A"/>
<path d="M54.2383 121.384C58.0821 120.863 59.1499 121.303 62.1509 119.197C64.1224 117.816 65.8804 118.44 64.7555 120.638C62.9212 124.229 58.105 125.906 56.2632 126.017L54.2383 121.384Z" fill="#D3766A"/>
<path d="M44.0332 124.968C44.0332 124.968 48.3499 122.644 52.3882 121.698C55.1796 121.044 61.0597 120.638 67.3861 126.242C69.0601 127.72 69.3957 130.701 66.406 129.053C64.2248 127.849 63.2486 126.752 61.83 126.364C61.83 126.364 62.6156 130.309 61.0979 131.628C59.7698 132.781 58.3591 133.842 56.8765 134.802C56.6346 134.577 56.4066 134.339 56.1939 134.089C56.1939 134.089 54.6686 135.197 51.759 134.924L44.0332 124.968Z" fill="#D3766A"/>
<path d="M55.1571 121.488C56.4918 122.164 59.2946 123.638 61.1555 125.618C63.2223 127.816 66.5933 132.593 64.904 134.056C63.6608 135.127 62.2118 133.413 62.2118 133.413C62.2118 133.413 63.1727 135.67 61.8304 136.402C60.6102 137.067 59.5691 135.663 59.5691 135.663C59.5691 135.663 59.9123 137.141 58.6082 137.551C57.0409 138.06 56.5833 134.902 54.5355 134.085C54.0817 133.919 55.1571 121.488 55.1571 121.488Z" fill="#D3766A"/>
<path d="M58.3939 127.346C59.5379 128.178 61.6467 130.719 62.2301 133.353C62.2301 133.412 62.2034 133.453 62.1805 133.401C61.1669 131.247 59.8864 129.22 58.3672 127.365C58.3672 127.365 58.3786 127.335 58.3939 127.346Z" fill="#263238"/>
<path d="M56.1634 129.431C57.0786 130.251 59.1264 132.963 59.6221 135.652C59.6221 135.711 59.5916 135.752 59.5687 135.696C58.6716 133.495 57.5203 131.4 56.1367 129.449C56.1367 129.449 56.152 129.424 56.1634 129.431Z" fill="#263238"/>
<path d="M48.3418 122.999C50.0638 122.27 51.863 121.727 53.7072 121.377C54.6294 121.197 55.5613 121.066 56.4985 120.986C56.9714 120.949 57.4442 120.938 57.8942 120.879C58.3499 120.812 58.7989 120.708 59.2365 120.568C60.1153 120.288 60.9448 119.88 61.6961 119.356C62.0721 119.066 62.4912 118.832 62.9392 118.662C63.3953 118.472 63.8952 118.402 64.3883 118.459C64.657 118.491 64.9021 118.623 65.0709 118.828C65.2206 119.046 65.2893 119.307 65.2654 119.567C65.2287 120.041 65.0925 120.502 64.865 120.923C64.4115 121.744 63.7869 122.465 63.0308 123.04V122.822C64.2084 123.563 65.3427 124.367 66.4284 125.23C66.9772 125.663 67.4875 126.14 67.9538 126.656C68.1825 126.923 68.3795 127.215 68.541 127.524C68.7152 127.839 68.8204 128.185 68.8499 128.54C68.8589 128.729 68.8237 128.917 68.7469 129.091C68.6616 129.269 68.5145 129.413 68.3313 129.497C67.9751 129.628 67.5816 129.628 67.2254 129.497C66.5665 129.243 65.9397 128.917 65.3569 128.526C64.7696 128.156 64.2129 127.761 63.618 127.384C63.332 127.196 63.0384 127.015 62.7409 126.837C62.4519 126.659 62.1388 126.519 61.8105 126.424L61.8829 126.309C62.6409 127.218 63.3304 128.178 63.946 129.183C64.2534 129.685 64.5297 130.205 64.7735 130.738C65.0181 131.272 65.2034 131.829 65.3264 132.401C65.1928 131.833 64.9959 131.28 64.7391 130.753C64.4871 130.225 64.2005 129.713 63.8811 129.22C63.2486 128.232 62.5439 127.289 61.7724 126.398L61.6275 126.231L61.8448 126.287C62.1872 126.384 62.5143 126.526 62.8172 126.708C63.1223 126.882 63.4197 127.077 63.7133 127.247C64.2968 127.617 64.8573 128.005 65.4599 128.356C66.0312 128.733 66.6454 129.045 67.2903 129.287C67.5938 129.398 67.9286 129.398 68.2321 129.287C68.3644 129.214 68.4714 129.105 68.5394 128.974C68.6073 128.842 68.6331 128.694 68.6135 128.548C68.5151 127.898 68.2206 127.292 67.7669 126.804C67.3082 126.303 66.8069 125.839 66.2683 125.419C65.189 124.565 64.0596 123.771 62.8859 123.043L62.7295 122.944L62.8782 122.825C63.597 122.272 64.1913 121.582 64.6247 120.797C64.8341 120.412 64.9637 119.99 65.0061 119.556C65.0102 119.356 64.9473 119.16 64.8268 118.998C64.7038 118.844 64.5229 118.743 64.3235 118.717C63.8806 118.673 63.4331 118.737 63.0231 118.906C62.596 119.065 62.1962 119.285 61.8372 119.56C61.0636 120.098 60.208 120.517 59.3013 120.801C58.8485 120.944 58.3842 121.05 57.9133 121.119C57.4328 121.178 56.9676 121.185 56.5023 121.218C55.5757 121.289 54.6452 121.392 53.7262 121.551C51.8874 121.864 50.0841 122.349 48.3418 122.999Z" fill="#263238"/>
<path d="M29.6641 121.05L40.0401 119.321C40.0401 119.321 40.4215 114.212 40.2079 111.357C39.9257 107.581 38.4157 106.805 35.5175 110.5C33.5804 112.967 29.6641 121.05 29.6641 121.05Z" fill="#A3D95D"/>
<path d="M33.7914 120.365L32.4453 120.587C32.4555 120.434 32.5186 120.289 32.6243 120.176C32.73 120.062 32.8722 119.986 33.0279 119.961C33.1836 119.935 33.3437 119.961 33.4822 120.034C33.6208 120.108 33.7297 120.224 33.7914 120.365ZM37.0518 114.033C36.9121 114.032 36.7754 114.072 36.6588 114.147C36.5423 114.221 36.4513 114.328 36.3973 114.453C36.3434 114.577 36.3288 114.715 36.3556 114.848C36.3824 114.981 36.4493 115.103 36.5478 115.199C36.6463 115.295 36.772 115.36 36.909 115.387C37.0459 115.413 37.188 115.4 37.3171 115.348C37.4462 115.297 37.5566 115.209 37.6343 115.097C37.712 114.984 37.7535 114.852 37.7535 114.717C37.7535 114.536 37.6797 114.363 37.5482 114.235C37.4167 114.107 37.2383 114.034 37.0518 114.033Z" fill="white"/>
<path d="M30.5501 119.924C32.0411 119.573 33.5321 119.241 35.0422 118.971C35.8049 118.838 36.5586 118.715 37.3035 118.602C38.0662 118.491 38.8288 118.454 39.5915 118.332C39.6296 118.332 39.6411 118.391 39.5915 118.395C38.8288 118.48 38.0662 118.661 37.3264 118.786C36.5866 118.912 35.8201 119.034 35.0651 119.156C33.5626 119.418 32.0564 119.677 30.5577 119.972C30.5082 119.994 30.5082 119.935 30.5501 119.924Z" fill="#263238"/>
<path d="M38.7666 119.538C39.1777 119.436 39.5939 119.355 40.0136 119.294C40.0403 118.692 40.0594 118.09 40.0975 117.488C40.0975 117.189 40.1356 116.886 40.1623 116.587C40.189 116.287 40.2119 115.877 40.2386 115.585C40.2368 115.58 40.2362 115.575 40.237 115.57C40.2378 115.565 40.2398 115.56 40.243 115.555C40.2462 115.551 40.2504 115.547 40.2553 115.545C40.2601 115.543 40.2655 115.541 40.271 115.541C40.2765 115.541 40.2819 115.543 40.2867 115.545C40.2916 115.547 40.2958 115.551 40.299 115.555C40.3021 115.56 40.3042 115.565 40.305 115.57C40.3057 115.575 40.3052 115.58 40.3034 115.585C40.3034 115.955 40.3034 116.258 40.3034 116.59C40.3034 116.923 40.3034 117.181 40.2843 117.477C40.2615 118.105 40.2615 118.774 40.2004 119.398C39.7296 119.487 39.2532 119.547 38.7743 119.575C38.7743 119.575 38.7476 119.542 38.7666 119.538Z" fill="#263238"/>
<path d="M40.6209 116.127C40.5724 116.49 40.4616 116.842 40.293 117.169C40.3152 116.987 40.3547 116.808 40.4112 116.633C40.4665 116.459 40.5367 116.29 40.6209 116.127Z" fill="#263238"/>
<path d="M80.017 136.938H52.6602V138.127H80.017V136.938Z" fill="#C7C7C7"/>
<path d="M64.4343 136.938L63.5 138.123H85.9377V136.938H64.4343Z" fill="#A6A6A6"/>
<path d="M65.6172 138.124H92.2762L97.6911 120.584H71.0283L65.6172 138.124Z" fill="#A6A6A6"/>
<path d="M66.5391 138.124H93.1981L98.6092 120.584H71.9502L66.5391 138.124Z" fill="#C7C7C7"/>
<path d="M81.4653 129.34C81.4145 129.53 81.4103 129.729 81.4531 129.92C81.4958 130.112 81.5843 130.291 81.7114 130.444C81.8386 130.597 82.0008 130.718 82.1852 130.799C82.3696 130.88 82.571 130.918 82.7732 130.91C83.2301 130.893 83.6682 130.73 84.0188 130.446C84.3695 130.162 84.6127 129.773 84.7104 129.34C84.7611 129.15 84.7652 128.951 84.7224 128.759C84.6797 128.567 84.5913 128.388 84.4642 128.235C84.3372 128.082 84.175 127.96 83.9907 127.879C83.8063 127.797 83.6049 127.759 83.4025 127.766C82.9453 127.784 82.5071 127.948 82.1565 128.233C81.806 128.518 81.5628 128.907 81.4653 129.34Z" fill="white"/>
<path d="M74.8301 98.1973V114.219H77.1524V118.109L81.164 114.219H103.182V98.1973H74.8301Z" fill="white"/>
<path d="M74.8299 98.1972L74.8909 106.232C74.9189 108.904 74.9341 111.567 74.9367 114.219L74.8299 114.116H77.2628V114.223V118.109L77.0531 118.028L81.0533 114.131L81.0952 114.09H81.1524L92.1615 114.06C95.8299 114.06 99.5022 114.027 103.171 114.06L102.988 114.238L103.033 98.2157L103.171 98.3487L89.0346 98.3044L74.8299 98.1972ZM74.8299 98.1972L88.9659 98.1049L103.182 98.0605H103.319V98.1972L103.361 114.219V114.397H103.178C99.5098 114.415 95.8375 114.397 92.1691 114.397L81.16 114.371L81.2592 114.33L77.2361 118.205L77.0226 118.412V118.12V114.234L77.137 114.345H74.8146H74.7422V114.241C74.7422 111.559 74.7574 108.881 74.7879 106.206L74.8299 98.1972Z" fill="#263238"/>
<path d="M85.1981 108.773C85.2936 108.865 85.3589 108.982 85.3858 109.11C85.4128 109.237 85.4003 109.37 85.3498 109.491C85.2992 109.611 85.213 109.715 85.1019 109.788C84.9908 109.862 84.8598 109.902 84.7253 109.903C84.5411 109.905 84.3635 109.837 84.2295 109.715L81.1789 106.734C81.1484 106.734 81.1369 106.704 81.1255 106.671C81.1165 106.663 81.1061 106.657 81.095 106.652C81.0793 106.626 81.0677 106.597 81.0606 106.568C81.0526 106.564 81.0457 106.558 81.0404 106.551C81.0351 106.544 81.0316 106.535 81.0301 106.527C81.0301 106.505 81.0301 106.471 81.0073 106.464C80.9844 106.457 80.9844 106.42 80.9844 106.412V106.338C80.9844 106.316 80.9844 106.305 80.9844 106.276C80.9844 106.246 80.9844 106.231 80.9844 106.224V106.15C80.9844 106.128 81.0073 106.117 81.0073 106.106C81.0073 106.095 81.0073 106.054 81.0301 106.024C81.053 105.995 81.0301 106.024 81.0301 106.002C81.0301 105.98 81.0645 105.928 81.0873 105.91C81.1102 105.891 81.0873 105.888 81.1064 105.888C81.1221 105.859 81.1443 105.834 81.1712 105.814L84.2219 102.836C84.3524 102.716 84.5258 102.648 84.7062 102.648C84.8865 102.648 85.06 102.716 85.1905 102.836C85.2548 102.898 85.3059 102.971 85.3408 103.051C85.3757 103.132 85.3937 103.218 85.3937 103.305C85.3937 103.393 85.3757 103.479 85.3408 103.56C85.3059 103.64 85.2548 103.713 85.1905 103.775L82.6355 106.276L85.1981 108.773Z" fill="#A3D95D"/>
<path d="M87.9486 109.11L90.5912 103.014C90.6549 102.873 90.7736 102.762 90.9215 102.705C91.0693 102.648 91.2344 102.651 91.3806 102.711C91.521 102.771 91.6314 102.882 91.6878 103.021C91.7442 103.159 91.742 103.313 91.6818 103.45L89.0392 109.553C88.9922 109.657 88.9147 109.745 88.8165 109.807C88.7182 109.869 88.6034 109.901 88.4862 109.9C88.4129 109.901 88.3402 109.887 88.2727 109.86C88.2001 109.832 88.1339 109.79 88.0782 109.737C88.0224 109.684 87.9781 109.62 87.9479 109.551C87.9177 109.481 87.9022 109.406 87.9023 109.33C87.9025 109.254 87.9182 109.179 87.9486 109.11Z" fill="#A3D95D"/>
<path d="M96.9057 106.656C96.8832 106.683 96.8576 106.708 96.8294 106.73L93.7787 109.711C93.7154 109.775 93.6395 109.826 93.5556 109.861C93.4717 109.896 93.3814 109.914 93.29 109.915C93.1987 109.916 93.1081 109.899 93.0235 109.865C92.939 109.832 92.8622 109.782 92.7977 109.719C92.7333 109.657 92.6824 109.582 92.648 109.5C92.6137 109.418 92.5966 109.33 92.5977 109.242C92.5989 109.153 92.6183 109.066 92.6547 108.985C92.6912 108.903 92.744 108.83 92.8101 108.769L95.3651 106.272L92.8101 103.771C92.7458 103.71 92.6947 103.637 92.6598 103.556C92.6249 103.475 92.607 103.389 92.607 103.302C92.607 103.214 92.6249 103.128 92.6598 103.047C92.6947 102.967 92.7458 102.894 92.8101 102.832C92.9406 102.712 93.1141 102.645 93.2944 102.645C93.4748 102.645 93.6482 102.712 93.7787 102.832L96.8294 105.81C96.8567 105.833 96.8822 105.857 96.9057 105.884V105.906C96.9057 105.906 96.9476 105.969 96.959 105.998C96.9705 106.028 96.959 105.998 96.959 106.021C96.9672 106.052 96.9787 106.083 96.9934 106.113C96.9934 106.113 96.9934 106.113 96.9934 106.146V106.22C96.9934 106.22 96.9934 106.261 96.9934 106.272C96.9934 106.283 96.9934 106.312 96.9934 106.323V106.408C96.9934 106.408 96.9934 106.408 96.9934 106.427C96.9797 106.458 96.9683 106.49 96.959 106.523C96.959 106.523 96.959 106.523 96.959 106.553C96.9391 106.586 96.9213 106.62 96.9057 106.656Z" fill="#A3D95D"/>
<path d="M266.029 129.42C260.973 136.07 255.699 143.757 254.414 152.08C254.414 152.206 254.609 152.247 254.635 152.121C255.218 149.856 255.966 147.634 256.874 145.471C260.199 144.585 263.463 143.857 265.21 140.669C266.99 137.381 266.765 133.096 266.426 129.516C266.399 129.302 266.132 129.291 266.029 129.42Z" fill="#A3D95D"/>
<path d="M256.923 145.393C259.211 140.454 262.113 135.496 265.82 131.432C265.846 131.406 265.884 131.432 265.861 131.473C263.432 134.365 261.591 137.517 259.787 140.709C261.461 139.061 263.299 137.583 264.885 135.839C264.916 135.803 264.965 135.839 264.935 135.888C263.36 137.735 261.64 139.707 259.596 141.059C259.043 142.042 258.49 143.029 257.926 144.015C258.063 143.941 258.208 143.874 258.349 143.808C258.352 143.81 258.355 143.813 258.357 143.816C258.359 143.819 258.359 143.823 258.359 143.826C258.359 143.83 258.359 143.834 258.357 143.837C258.355 143.84 258.352 143.843 258.349 143.845C258.193 143.923 258.04 144 257.876 144.067C257.613 144.536 257.346 145.001 257.076 145.467C257.018 145.596 256.877 145.5 256.923 145.393Z" fill="#263238"/>
<path d="M258.611 143.672C259.973 142.935 261.272 142.095 262.497 141.16C262.528 141.134 262.577 141.179 262.543 141.208C261.356 142.196 260.056 143.049 258.669 143.75C258.608 143.794 258.543 143.705 258.611 143.672Z" fill="#263238"/>
<path d="M253.831 150.842C253.831 150.942 254.018 150.942 254.014 150.842C254.041 148.101 254.014 145.345 254.06 142.593C254.784 141.178 256.348 140.377 257.419 139.268C258.199 138.439 258.877 137.525 259.44 136.546C260.743 134.202 261.538 131.625 261.778 128.972C262.079 126.039 260.931 116.368 259.654 116.704C258.994 116.877 256.851 121.669 256.283 123.254C255.363 125.866 254.689 128.555 254.269 131.285C253.236 137.728 253.324 144.352 253.831 150.842Z" fill="#A3D95D"/>
<path d="M253.807 139.021C253.96 135.552 254.768 132.05 255.523 128.677C256.335 125.053 257.285 121.64 259.211 118.411C259.245 118.348 259.336 118.411 259.306 118.463C258.022 120.976 257.028 123.618 256.343 126.343C256.473 126.151 256.629 125.973 256.763 125.777C256.816 125.707 256.938 125.777 256.888 125.851C256.714 126.142 256.513 126.417 256.286 126.671C256.282 126.673 256.277 126.674 256.272 126.674C256.268 126.674 256.263 126.673 256.259 126.671C255.599 129.257 255.115 131.91 254.734 134.555L254.825 134.452C254.825 134.429 254.883 134.452 254.867 134.481C254.818 134.57 254.76 134.658 254.703 134.743C254.497 136.084 254.322 137.425 254.12 138.752C256.583 136.709 258.696 134.319 259.874 131.341C259.874 131.341 259.905 131.341 259.897 131.341C258.753 134.418 256.904 137.152 254.078 139.018C254.028 139.387 253.975 139.731 253.922 140.085C253.922 140.159 253.792 140.141 253.792 140.085C253.792 139.768 253.792 139.45 253.822 139.136C253.812 139.131 253.803 139.123 253.796 139.114C253.79 139.104 253.785 139.094 253.784 139.082C253.782 139.071 253.784 139.06 253.788 139.049C253.792 139.038 253.798 139.029 253.807 139.021Z" fill="#263238"/>
<path d="M254.97 133.996C256.854 131.269 258.612 128.624 259.992 125.614C259.992 125.58 260.065 125.614 260.053 125.639C258.89 128.632 257.266 131.661 255.062 134.066C255.02 134.114 254.932 134.048 254.97 133.996Z" fill="#263238"/>
<path d="M257.472 124.943C258.234 123.606 259.077 122.305 259.809 120.942C259.81 120.937 259.812 120.932 259.815 120.928C259.819 120.923 259.823 120.92 259.828 120.918C259.833 120.915 259.838 120.914 259.844 120.914C259.849 120.914 259.854 120.915 259.859 120.918C259.864 120.92 259.868 120.924 259.871 120.928C259.874 120.933 259.876 120.938 259.877 120.943C259.878 120.948 259.877 120.954 259.875 120.959C259.873 120.964 259.87 120.968 259.866 120.972C259.261 122.397 258.494 123.753 257.578 125.013C257.54 125.08 257.426 125.021 257.472 124.943Z" fill="#263238"/>
<path d="M251.912 142.913C251.876 144.73 251.655 146.539 251.252 148.314C251.283 148.51 251.309 148.706 251.34 148.905C251.917 146.945 252.251 144.924 252.335 142.887C252.352 142.859 252.361 142.826 252.361 142.793C252.361 142.76 252.352 142.727 252.335 142.699C252.415 139.967 252.205 137.235 251.71 134.546C250.833 129.507 248.918 124.674 245.292 120.899C245.262 120.878 245.228 120.863 245.192 120.855C245.156 120.848 245.118 120.848 245.082 120.856C245.046 120.863 245.012 120.879 244.982 120.9C244.953 120.921 244.928 120.949 244.911 120.98C243.45 124.582 243.961 128.882 245.204 132.48C245.883 134.426 246.852 136.266 248.079 137.941C249.319 139.633 250.916 141.066 251.912 142.913Z" fill="#A3D95D"/>
<path d="M245.736 122.58C249.168 127.985 251.562 134.402 251.856 140.771C251.856 140.885 251.665 140.915 251.646 140.8C251.566 140.228 251.475 139.659 251.379 139.094C249.957 137.775 248.496 136.382 247.478 134.734C247.478 134.705 247.505 134.671 247.528 134.697C248.703 136.098 249.962 137.43 251.299 138.687C251.045 137.276 250.751 135.887 250.418 134.52L250.144 134.21C250.087 134.143 250.186 134.043 250.247 134.11L250.331 134.199C249.845 132.319 249.246 130.468 248.535 128.657C247.658 127.649 246.681 126.773 246.044 125.558C246.042 125.552 246.042 125.545 246.044 125.539C246.046 125.533 246.05 125.528 246.056 125.525C246.061 125.522 246.068 125.521 246.074 125.522C246.081 125.523 246.086 125.527 246.09 125.532C246.601 126.226 247.097 126.928 247.68 127.575C247.909 127.83 248.165 128.074 248.405 128.314C247.613 126.355 246.673 124.456 245.591 122.632C245.587 122.623 245.586 122.613 245.586 122.603C245.586 122.593 245.589 122.584 245.593 122.575C245.597 122.566 245.603 122.558 245.611 122.551C245.618 122.544 245.627 122.539 245.636 122.536C245.646 122.532 245.656 122.531 245.666 122.531C245.676 122.532 245.686 122.534 245.696 122.538C245.705 122.542 245.713 122.548 245.72 122.555C245.727 122.563 245.732 122.571 245.736 122.58Z" fill="#263238"/>
<path d="M246.428 129.249C247.538 130.697 248.804 132.079 249.837 133.575C249.867 133.615 249.803 133.66 249.765 133.627C248.437 132.422 247.316 130.775 246.333 129.29C246.327 129.277 246.327 129.263 246.332 129.251C246.337 129.238 246.347 129.228 246.359 129.223C246.372 129.218 246.386 129.217 246.399 129.222C246.412 129.227 246.422 129.237 246.428 129.249Z" fill="#263238"/>
<path d="M249.995 133.91L250.04 133.958C250.075 133.987 250.021 134.039 249.991 134.006L249.941 133.961C249.936 133.954 249.933 133.946 249.934 133.937C249.934 133.928 249.938 133.919 249.945 133.913C249.951 133.907 249.96 133.903 249.969 133.902C249.978 133.902 249.987 133.904 249.995 133.91Z" fill="#263238"/>
<path d="M240.35 132.971C240.625 135.749 242.135 139.07 243.977 141.213C244.788 142.14 245.789 142.895 246.917 143.429C248.19 144.039 249.525 144.741 250.841 145.243C251.468 146.79 251.934 148.394 252.233 150.031L252.358 149.606C251.512 142.568 246.81 136.554 240.8 132.694C240.753 132.664 240.698 132.649 240.642 132.648C240.586 132.648 240.531 132.664 240.484 132.693C240.436 132.722 240.399 132.764 240.375 132.813C240.351 132.862 240.343 132.917 240.35 132.971Z" fill="#A3D95D"/>
<path d="M242.429 135.051C242.387 135.014 242.429 134.94 242.49 134.973C245.795 137.353 248.43 140.498 250.155 144.12C250.201 144.216 250.063 144.301 250.006 144.205C249.726 143.732 249.442 143.269 249.152 142.816C247.779 142.565 246.483 141.63 245.461 140.744C245.457 140.738 245.456 140.731 245.456 140.725C245.457 140.718 245.46 140.712 245.465 140.707C245.47 140.703 245.476 140.7 245.483 140.699C245.49 140.698 245.497 140.7 245.503 140.703C246.028 141.166 246.61 141.563 247.238 141.885C247.798 142.159 248.382 142.332 248.98 142.554C248.473 141.771 247.943 141.021 247.39 140.293C245.908 139.746 244.517 138.989 243.264 138.047C243.226 138.021 243.264 137.958 243.302 137.984C244.544 138.711 245.824 139.373 247.139 139.968C246.3 138.898 245.396 137.878 244.431 136.913C243.966 136.673 243.489 136.432 243.039 136.174C243.032 136.169 243.026 136.162 243.024 136.153C243.021 136.145 243.022 136.136 243.026 136.128C243.029 136.12 243.036 136.114 243.044 136.11C243.052 136.106 243.061 136.105 243.07 136.107C243.445 136.235 243.803 136.405 244.137 136.613C243.584 136.085 243.028 135.561 242.429 135.051Z" fill="#263238"/>
<path d="M242.554 137.469C242.636 137.517 242.714 137.571 242.786 137.631C242.809 137.65 242.786 137.676 242.756 137.668C242.672 137.63 242.592 137.585 242.516 137.535C242.474 137.517 242.527 137.469 242.554 137.469Z" fill="#263238"/>
<path d="M261.743 165.267H245.266L246.596 150.734L246.886 147.527H260.119L260.412 150.734L261.743 165.267Z" fill="#455A64"/>
<path d="M260.411 150.734H246.596L246.886 147.527H260.118L260.411 150.734Z" fill="#263238"/>
<path d="M260.909 145.287H246.102V148.46H260.909V145.287Z" fill="#455A64"/>
</svg>
