<svg width="174" height="170" viewBox="0 0 174 170" fill="none" xmlns="http://www.w3.org/2000/svg">
<path d="M46.8203 57.4336H67.9961V32.4625H46.8203V57.4336Z" fill="#EBEBEB"/>
<path d="M49.2411 55.1562H65.5762V34.7423H49.2411V55.1562Z" fill="white"/>
<path d="M64.9393 55.1562H65.5762V34.7423H64.9393V55.1562Z" fill="#C7C7C7"/>
<path d="M46.1835 57.4336H46.8203V32.4625H46.1835V57.4336Z" fill="#C7C7C7"/>
<path d="M57.0438 39.4609H53.1914V50.6186H57.0438V39.4609Z" fill="#EBEBEB"/>
<path d="M61.943 43.1925H51.3359V37.387H61.943V43.1925ZM51.6735 42.8542H61.595V37.7253H51.6839L51.6735 42.8542Z" fill="#EBEBEB"/>
<path d="M106.645 57.4336H127.82V32.4625H106.645V57.4336Z" fill="#EBEBEB"/>
<path d="M109.063 55.1562H125.398V34.7423H109.063V55.1562Z" fill="white"/>
<path d="M124.762 55.1562H125.398V34.7423H124.762V55.1562Z" fill="#C7C7C7"/>
<path d="M106.004 57.4336H106.641V32.4625H106.004V57.4336Z" fill="#C7C7C7"/>
<path d="M116.071 50.6211H119.924V39.4634H116.071V50.6211Z" fill="#EBEBEB"/>
<path d="M121.779 43.1925H111.158V37.387H121.779V43.1925ZM111.506 42.8542H121.431V37.7253H111.506V42.8542Z" fill="#EBEBEB"/>
<path d="M76.4726 61.5H97.6484V36.5289H76.4726V61.5Z" fill="#EBEBEB"/>
<path d="M78.8914 59.2229H95.2266V38.8089H78.8914V59.2229Z" fill="white"/>
<path d="M94.5897 59.2229H95.2266V38.8089H94.5897V59.2229Z" fill="#C7C7C7"/>
<path d="M75.8358 61.5H76.4727V36.5289H75.8358V61.5Z" fill="#C7C7C7"/>
<path d="M85.3396 52.1975H88.6387V44.0847H85.3396V52.1975Z" fill="#EBEBEB"/>
<path d="M90.9049 54.7765H81.6934V48.8594H90.9049V54.7765ZM82.0414 54.4382H90.5569V49.1977H82.0414V54.4382Z" fill="#DBDBDB"/>
<path d="M19.693 89.0396C19.8298 88.9583 19.9869 88.9153 20.1472 88.9153C20.3075 88.9153 20.4646 88.9583 20.6013 89.0396L20.831 89.1682C20.911 89.2088 20.9911 89.2494 21.0746 89.2866C21.2197 89.3521 21.3433 89.4553 21.4318 89.5849C21.5202 89.7145 21.57 89.8653 21.5757 90.0207L21.6105 91.1067L25.2436 90.9951L25.2088 89.9125C25.2044 89.7569 25.2447 89.6032 25.3252 89.4687C25.4058 89.3343 25.5234 89.2243 25.6647 89.1513C25.8226 89.0665 25.9759 88.9739 26.1241 88.8739C26.2544 88.7846 26.4074 88.732 26.5664 88.7219C26.7254 88.7117 26.8843 88.7444 27.0254 88.8163L28.0068 89.3306L29.7259 86.2147L28.7445 85.7038C28.6046 85.6295 28.4884 85.5191 28.4086 85.3849C28.3288 85.2506 28.2885 85.0976 28.2921 84.9426C28.3043 84.7669 28.3043 84.5906 28.2921 84.4148C28.2769 84.2603 28.3063 84.1047 28.377 83.9654C28.4477 83.8262 28.5569 83.7088 28.6923 83.6266L29.6424 83.0548L27.7249 80.0506L26.7714 80.6257C26.6356 80.7061 26.4797 80.7486 26.3207 80.7486C26.1617 80.7486 26.0058 80.7061 25.87 80.6257C25.7935 80.5817 25.7169 80.5377 25.6369 80.4971L25.4002 80.3787C25.2512 80.3162 25.1233 80.2142 25.031 80.0844C24.9387 79.9546 24.8858 79.8022 24.8782 79.6446L24.8434 78.5586L21.2277 78.6669L21.2625 79.7461C21.266 79.9019 21.2254 80.0557 21.145 80.1906C21.0645 80.3254 20.9475 80.4362 20.8066 80.5107C20.6464 80.5934 20.4918 80.6861 20.3438 80.7881C20.2135 80.8773 20.0605 80.9299 19.9015 80.9401C19.7425 80.9502 19.5836 80.9175 19.4425 80.8456L18.4437 80.3212L16.7246 83.4371L17.706 83.948C17.8464 84.0218 17.9631 84.132 18.0429 84.2664C18.1228 84.4007 18.1628 84.554 18.1584 84.7092C18.1537 84.8864 18.1595 85.0638 18.1758 85.2403C18.1902 85.3952 18.1601 85.5509 18.0888 85.6901C18.0176 85.8293 17.9079 85.9465 17.7721 86.0286L16.829 86.597L18.743 89.6012L19.693 89.0396ZM20.6048 83.4642C20.8829 82.9601 21.3085 82.5476 21.8278 82.2786C22.3471 82.0097 22.9367 81.8965 23.5221 81.9532C24.1076 82.01 24.6626 82.2343 25.117 82.5976C25.5713 82.961 25.9047 83.4471 26.0749 83.9947C26.2452 84.5422 26.2446 85.1265 26.0733 85.6737C25.902 86.2209 25.5677 86.7064 25.1126 87.069C24.6575 87.4315 24.1021 87.6547 23.5165 87.7104C22.9309 87.7661 22.3415 87.6518 21.8228 87.3819C21.1273 87.019 20.6084 86.4026 20.38 85.668C20.1516 84.9335 20.2325 84.1408 20.6048 83.4642Z" fill="#DBDBDB"/>
<path d="M122.352 67.2083C122.448 67.2639 122.527 67.3442 122.579 67.4403C122.631 67.5363 122.655 67.6445 122.648 67.7529C122.648 67.8138 122.648 67.8747 122.648 67.9356C122.648 67.9965 122.648 68.0608 122.648 68.1217C122.655 68.2297 122.631 68.3375 122.579 68.433C122.527 68.5286 122.448 68.6082 122.352 68.663L121.677 69.0453L122.947 71.1869L123.626 70.8079C123.723 70.7542 123.834 70.728 123.946 70.7322C124.058 70.7364 124.167 70.7708 124.259 70.8316C124.367 70.8959 124.475 70.9602 124.587 71.0143C124.689 71.0612 124.776 71.1353 124.838 71.228C124.899 71.3207 124.933 71.4284 124.935 71.5387V72.2965H127.478V71.5252C127.48 71.4149 127.514 71.3074 127.576 71.2148C127.637 71.1221 127.724 71.048 127.826 71.0008C127.941 70.9466 128.049 70.8824 128.157 70.8181C128.25 70.7573 128.358 70.7228 128.47 70.7187C128.582 70.7145 128.693 70.7407 128.79 70.7944L129.486 71.1733L130.757 69.0318L130.078 68.6495C129.982 68.5941 129.903 68.5139 129.851 68.4178C129.799 68.3216 129.775 68.2133 129.782 68.1048C129.782 68.0439 129.782 67.983 129.782 67.9221C129.782 67.8612 129.782 67.8003 129.782 67.7394C129.775 67.631 129.799 67.5228 129.852 67.4267C129.904 67.3307 129.982 67.2504 130.078 67.1947L130.757 66.8158L129.455 64.6844L128.759 65.0633C128.661 65.1174 128.55 65.1442 128.438 65.1406C128.325 65.137 128.216 65.1033 128.122 65.043C128.018 64.9754 127.907 64.9145 127.795 64.857C127.693 64.8106 127.606 64.7372 127.544 64.645C127.483 64.5529 127.449 64.4458 127.447 64.336V63.5781H124.931V64.336C124.929 64.4458 124.896 64.5529 124.834 64.645C124.773 64.7372 124.686 64.8106 124.583 64.857C124.472 64.9145 124.36 64.9754 124.256 65.043C124.162 65.1033 124.053 65.137 123.941 65.1406C123.828 65.1442 123.717 65.1174 123.619 65.0633L122.944 64.6844L121.674 66.8293L122.352 67.2083ZM126.18 65.9091C126.593 65.9091 126.997 66.0282 127.34 66.2512C127.684 66.4743 127.951 66.7913 128.109 67.1622C128.268 67.5331 128.309 67.9413 128.228 68.335C128.148 68.7288 127.949 69.0905 127.657 69.3744C127.365 69.6583 126.993 69.8516 126.588 69.9299C126.183 70.0082 125.763 69.968 125.381 69.8144C125 69.6608 124.674 69.4006 124.444 69.0668C124.215 68.733 124.092 68.3405 124.092 67.939C124.092 67.6713 124.147 67.4062 124.253 67.1591C124.358 66.9119 124.514 66.6875 124.709 66.4989C124.904 66.3102 125.136 66.1609 125.391 66.0597C125.646 65.9585 125.919 65.9073 126.194 65.9091H126.18Z" fill="#DBDBDB"/>
<path d="M135.08 59.4981C135.077 61.4059 135.655 63.2717 136.743 64.8595C137.831 66.4474 139.379 67.6859 141.191 68.4182C143.003 69.1506 144.997 69.344 146.922 68.9738C148.847 68.6037 150.616 67.6867 152.005 66.339C153.394 64.9912 154.34 63.2732 154.724 61.4023C155.108 59.5315 154.913 57.592 154.163 55.8291C153.413 54.0663 152.141 52.5594 150.51 51.4992C148.879 50.439 146.96 49.873 144.998 49.873C142.371 49.873 139.851 50.8866 137.991 52.6911C136.132 54.4957 135.085 56.9438 135.08 59.4981ZM140.366 59.4981C140.366 58.6074 140.637 57.7364 141.145 56.9955C141.654 56.2545 142.377 55.6769 143.223 55.3355C144.069 54.9942 145.001 54.9045 145.9 55.0779C146.798 55.2512 147.624 55.6798 148.272 56.3095C148.92 56.9391 149.362 57.7414 149.541 58.615C149.72 59.4886 149.628 60.3942 149.278 61.2172C148.927 62.0402 148.334 62.7437 147.572 63.2386C146.81 63.7336 145.914 63.9977 144.998 63.9977C143.77 63.9977 142.593 63.5238 141.724 62.68C140.856 61.8363 140.367 60.6918 140.366 59.4981Z" fill="#EBEBEB"/>
<path d="M143.09 50.2618H146.9L146.692 47.6365H143.299L143.09 50.2618Z" fill="#EBEBEB"/>
<path d="M150.346 51.5093L153.043 54.1312L154.804 52.1318L152.406 49.8008L150.346 51.5093Z" fill="#EBEBEB"/>
<path d="M154.57 57.3811V61.089L157.271 60.8827V57.5841L154.57 57.3811Z" fill="#EBEBEB"/>
<path d="M153.287 64.4375L150.59 67.0594L152.647 68.7713L155.044 66.4403L153.287 64.4375Z" fill="#EBEBEB"/>
<path d="M147.246 68.543H143.432L143.644 71.1683H147.033L147.246 68.543Z" fill="#EBEBEB"/>
<path d="M139.989 67.2938L137.292 64.6719L135.531 66.6713L137.929 69.0023L139.989 67.2938Z" fill="#EBEBEB"/>
<path d="M135.765 61.4194V57.7148L133.064 57.9178V61.2164L135.765 61.4194Z" fill="#EBEBEB"/>
<path d="M137.05 54.367L139.747 51.7451L137.69 50.0332L135.289 52.3642L137.05 54.367Z" fill="#EBEBEB"/>
<path d="M23.5898 24.08C23.5898 25.9864 24.1713 27.8499 25.2607 29.435C26.3502 31.02 27.8986 32.2554 29.7102 32.985C31.5219 33.7145 33.5154 33.9054 35.4386 33.5334C37.3618 33.1615 39.1284 32.2435 40.515 30.8956C41.9016 29.5476 42.8458 27.8301 43.2284 25.9604C43.6109 24.0907 43.4146 22.1527 42.6642 20.3915C41.9138 18.6303 40.643 17.1249 39.0126 16.0658C37.3821 15.0067 35.4653 14.4414 33.5044 14.4414C30.8752 14.4423 28.3539 15.4581 26.4948 17.2655C24.6356 19.0729 23.5908 21.524 23.5898 24.08ZM28.8725 24.08C28.8718 23.1893 29.1429 22.3183 29.6514 21.5774C30.1599 20.8364 30.8831 20.2587 31.7294 19.9174C32.5757 19.5761 33.5071 19.4864 34.4059 19.6598C35.3046 19.8331 36.1302 20.2617 36.7784 20.8914C37.4265 21.521 37.868 22.3233 38.047 23.1969C38.226 24.0705 38.1345 24.9761 37.784 25.7991C37.4335 26.6221 36.8398 27.3256 36.0781 27.8205C35.3163 28.3154 34.4206 28.5796 33.5044 28.5796C32.2783 28.5769 31.1034 28.1018 30.2371 27.2584C29.3708 26.4149 28.8838 25.272 28.8829 24.08H28.8725Z" fill="#EBEBEB"/>
<path d="M31.5977 14.8421H35.4117L35.2029 12.2168H31.8099L31.5977 14.8421Z" fill="#EBEBEB"/>
<path d="M38.8574 16.0908L41.5544 18.7127L43.3118 16.7099L40.9141 14.3789L38.8574 16.0908Z" fill="#EBEBEB"/>
<path d="M43.082 21.9609V25.6689L45.779 25.4659V22.1673L43.082 21.9609Z" fill="#EBEBEB"/>
<path d="M41.7951 29.0176L39.1016 31.6395L41.1582 33.348L43.556 31.017L41.7951 29.0176Z" fill="#EBEBEB"/>
<path d="M35.7574 33.127H31.9434L32.1556 35.7489H35.5452L35.7574 33.127Z" fill="#EBEBEB"/>
<path d="M28.4974 31.8759L25.8004 29.2539L24.043 31.2534L26.4407 33.5844L28.4974 31.8759Z" fill="#EBEBEB"/>
<path d="M24.2732 26.0048V22.2969L21.5762 22.5032V25.7984L24.2732 26.0048Z" fill="#EBEBEB"/>
<path d="M25.5597 18.9476L28.2532 16.3291L26.1965 14.6172L23.7988 16.9482L25.5597 18.9476Z" fill="#EBEBEB"/>
<path d="M13.9102 157.161L32.1836 157.08L50.4571 157.05L87.0006 156.992L123.544 157.05L141.818 157.08L160.091 157.161L141.818 157.246L123.544 157.273L87.0006 157.331L50.4571 157.273L32.1836 157.246L13.9102 157.161Z" fill="#263238"/>
<path d="M77.2799 20.9174C77.1176 22.4303 76.526 23.8696 75.5711 25.0746C74.6163 26.2796 73.3358 27.203 71.8725 27.7416C70.4092 28.2803 68.8208 28.413 67.2845 28.125C65.7481 27.8369 64.3243 27.1395 63.172 26.1106L58.9473 26.7128L61.0631 23.1638C60.5108 21.8502 60.3185 20.4197 60.5049 19.0121C60.6914 17.6046 61.2502 16.2681 62.1268 15.1333C63.0034 13.9985 64.1678 13.1041 65.5062 12.5377C66.8447 11.9712 68.3114 11.7519 69.7631 11.9013C71.9892 12.129 74.0313 13.2065 75.4408 14.8971C76.8502 16.5876 77.5117 18.753 77.2799 20.9174Z" fill="white"/>
<path d="M77.2801 20.9183C77.1157 22.4313 76.5257 23.8711 75.5749 25.0796C75.1089 25.6883 74.5504 26.2244 73.9184 26.6697C73.2967 27.1287 72.6113 27.5001 71.8826 27.7726C71.1503 28.0499 70.3821 28.2276 69.5997 28.3004C69.2087 28.3342 68.8156 28.341 68.4235 28.3207C68.0322 28.3132 67.6422 28.2736 67.2577 28.2022C65.7015 27.9243 64.2556 27.2308 63.0817 26.1994L63.1826 26.2265L58.9683 26.8693L58.6621 26.9133L58.8187 26.6494L60.9067 23.0937V23.2358C60.4111 22.0588 60.2001 20.787 60.29 19.5182C60.3799 18.2495 60.7683 17.0177 61.4252 15.918C62.084 14.824 62.988 13.8884 64.07 13.181C65.4163 12.3112 66.989 11.8312 68.6051 11.7969C70.2211 11.7626 71.8139 12.1755 73.1979 12.9874C74.5819 13.7993 75.7001 14.9768 76.4222 16.3827C77.1443 17.7886 77.4406 19.3651 77.2766 20.9284L77.2801 20.9183ZM77.2801 20.9183C77.4149 19.6821 77.2559 18.4323 76.8154 17.2653C76.3749 16.0982 75.6646 15.0451 74.7393 14.1871C73.814 13.329 72.6984 12.689 71.4785 12.3163C70.2586 11.9436 68.967 11.8482 67.7031 12.0375C66.4524 12.2255 65.2622 12.6884 64.2231 13.3908C63.1925 14.0877 62.3284 14.9924 61.6897 16.0432C61.0675 17.1079 60.7011 18.2957 60.6179 19.5177C60.5407 20.7378 60.744 21.9594 61.2129 23.0937L61.2443 23.1647L61.2025 23.2324L59.0762 26.7779L58.9266 26.558L63.1548 25.9829H63.2139L63.2557 26.0201C64.3821 27.0488 65.7813 27.7518 67.296 28.05C67.6749 28.1221 68.0587 28.1674 68.4444 28.1853C68.8291 28.2107 69.2151 28.2107 69.5997 28.1853C70.371 28.1275 71.1301 27.9647 71.8548 27.7015C72.5842 27.4468 73.2704 27.0876 73.8906 26.6358C74.522 26.1967 75.0816 25.6675 75.5505 25.066C76.5079 23.8641 77.1062 22.429 77.2801 20.9183Z" fill="#263238"/>
<path d="M66.9138 20.3527C66.9142 20.5071 66.9635 20.6576 67.0551 20.7838C67.1467 20.9099 67.276 21.0056 67.4255 21.0577C67.5749 21.1099 67.7373 21.116 67.8905 21.0752C68.0436 21.0344 68.1802 20.9487 68.2814 20.8298C68.3291 20.771 68.3944 20.728 68.4682 20.7068C68.5421 20.6856 68.6208 20.6871 68.6937 20.7113C68.7666 20.7354 68.83 20.7809 68.8752 20.8415C68.9204 20.9021 68.9452 20.9748 68.9461 21.0497V22.9307H63.6426V21.0497C63.6421 21.0024 63.6514 20.9556 63.6697 20.9119C63.6881 20.8682 63.7153 20.8285 63.7496 20.7951C63.7839 20.7617 63.8248 20.7353 63.8698 20.7174C63.9147 20.6996 63.9629 20.6906 64.0115 20.691C64.0678 20.6912 64.1234 20.7037 64.174 20.7277C64.2247 20.7518 64.269 20.7866 64.3038 20.8298C64.3769 20.9151 64.4684 20.9839 64.5718 21.0313C64.6752 21.0786 64.7881 21.1034 64.9024 21.1038C65.0328 21.104 65.1612 21.072 65.2755 21.0109C65.3898 20.9498 65.4864 20.8616 65.5562 20.7544C65.6259 20.6472 65.6666 20.5246 65.6745 20.398C65.6824 20.2714 65.6572 20.145 65.6012 20.0304C65.5452 19.9159 65.4603 19.8169 65.3543 19.7429C65.2484 19.6689 65.1249 19.6221 64.9954 19.607C64.8659 19.5919 64.7345 19.6089 64.6136 19.6565C64.4926 19.7041 64.3861 19.7807 64.3038 19.8791C64.2685 19.9217 64.2241 19.9562 64.1735 19.9801C64.123 20.0041 64.0677 20.017 64.0115 20.0178C63.9136 20.0178 63.8198 19.98 63.7506 19.9128C63.6815 19.8455 63.6426 19.7543 63.6426 19.6592V17.7748H65.5775C65.626 17.7752 65.6742 17.7662 65.7192 17.7484C65.7641 17.7305 65.805 17.7041 65.8393 17.6707C65.8737 17.6373 65.9008 17.5976 65.9192 17.5539C65.9376 17.5102 65.9468 17.4634 65.9464 17.4161C65.9462 17.3614 65.9333 17.3073 65.9086 17.2581C65.8839 17.2089 65.848 17.1657 65.8037 17.132C65.7031 17.0516 65.6251 16.9478 65.5769 16.8303C65.5286 16.7128 65.5117 16.5854 65.5276 16.4598C65.5436 16.3342 65.5919 16.2146 65.6681 16.112C65.7443 16.0095 65.8459 15.9273 65.9636 15.8731C66.0812 15.8189 66.211 15.7945 66.3409 15.8021C66.4708 15.8098 66.5966 15.8492 66.7067 15.9167C66.8167 15.9842 66.9075 16.0777 66.9704 16.1884C67.0334 16.2991 67.0666 16.4235 67.0669 16.5501C67.067 16.6616 67.0414 16.7718 66.9921 16.8724C66.9427 16.9731 66.8708 17.0618 66.7816 17.132C66.7378 17.1662 66.7023 17.2095 66.6776 17.2586C66.653 17.3077 66.6397 17.3615 66.6389 17.4161C66.6389 17.5113 66.6777 17.6025 66.7469 17.6697C66.8161 17.737 66.9099 17.7748 67.0078 17.7748H68.9461V19.6592C68.9452 19.7546 68.9056 19.8458 68.8358 19.913C68.7661 19.9801 68.6719 20.0178 68.5738 20.0178C68.5175 20.017 68.4622 20.0041 68.4117 19.9801C68.3612 19.9562 68.3167 19.9217 68.2814 19.8791C68.21 19.7924 68.1194 19.7225 68.0164 19.6745C67.9134 19.6265 67.8006 19.6016 67.6864 19.6017C67.4815 19.6017 67.285 19.6808 67.1401 19.8216C66.9952 19.9625 66.9138 20.1535 66.9138 20.3527Z" fill="#A3D95D"/>
<path d="M74.3644 17.127L75.1927 22.222L73.2787 22.5129C73.2309 22.5206 73.182 22.519 73.1348 22.5082C73.0877 22.4973 73.0432 22.4775 73.004 22.4498C72.9648 22.4221 72.9317 22.3871 72.9066 22.3468C72.8814 22.3065 72.8648 22.2618 72.8576 22.2152C72.8474 22.1611 72.851 22.1054 72.868 22.053C72.885 22.0005 72.9148 21.9528 72.955 21.9141C73.0303 21.8302 73.0858 21.7313 73.1176 21.6244C73.1495 21.5174 73.157 21.405 73.1395 21.295C73.1286 21.1936 73.0965 21.0955 73.0454 21.0066C72.9942 20.9176 72.9249 20.8397 72.8418 20.7776C72.7587 20.7156 72.6634 20.6706 72.5618 20.6454C72.4602 20.6202 72.3544 20.6154 72.2509 20.6313C72.1473 20.6472 72.0482 20.6833 71.9595 20.7377C71.8708 20.792 71.7944 20.8632 71.7349 20.9472C71.6754 21.0311 71.6341 21.1259 71.6136 21.2258C71.593 21.3258 71.5936 21.4287 71.6152 21.5284C71.6325 21.6384 71.675 21.7432 71.7394 21.8351C71.8038 21.927 71.8886 22.0037 71.9876 22.0596C72.0368 22.0868 72.0791 22.1243 72.1116 22.1693C72.1441 22.2144 72.1659 22.2659 72.1755 22.3201C72.1829 22.3668 72.1808 22.4144 72.1692 22.4602C72.1577 22.5061 72.1369 22.5493 72.1081 22.5873C72.0793 22.6254 72.0431 22.6575 72.0015 22.6819C71.96 22.7063 71.9138 22.7224 71.8658 22.7295L69.9518 23.0238L69.6525 21.1664C69.6453 21.1194 69.6286 21.0743 69.6033 21.0336C69.5779 20.9929 69.5446 20.9575 69.5051 20.9295C69.4655 20.9015 69.4207 20.8814 69.3731 20.8704C69.3256 20.8594 69.2762 20.8577 69.228 20.8653C69.1729 20.8753 69.1207 20.8968 69.075 20.9284C69.0294 20.9599 68.9913 21.0008 68.9635 21.048C68.8974 21.1571 68.804 21.2481 68.692 21.3126C68.5801 21.3772 68.4532 21.4132 68.3231 21.4173C68.193 21.4214 68.0639 21.3935 67.9479 21.3361C67.8318 21.2788 67.7326 21.1939 67.6593 21.0893C67.5861 20.9847 67.5412 20.8637 67.5289 20.7378C67.5165 20.6118 67.5371 20.4848 67.5888 20.3687C67.6404 20.2525 67.7214 20.1509 67.8243 20.0733C67.9271 19.9957 68.0484 19.9446 68.177 19.9248C68.2899 19.9069 68.4055 19.914 68.5152 19.9456C68.6249 19.9773 68.7258 20.0326 68.8104 20.1075C68.8516 20.1446 68.9007 20.1723 68.9543 20.1887C69.0078 20.2051 69.0645 20.2097 69.1201 20.2022C69.1681 20.1952 69.2142 20.1791 69.2558 20.1547C69.2974 20.1303 69.3336 20.0981 69.3624 20.0601C69.3912 20.0221 69.4119 19.9789 69.4235 19.933C69.4351 19.8872 69.4372 19.8395 69.4298 19.7929L69.127 17.9288L71.041 17.6378C71.1175 17.6253 71.1962 17.6365 71.2657 17.67C71.3353 17.7034 71.3922 17.7573 71.4284 17.824C71.4647 17.8907 71.4784 17.9668 71.4675 18.0415C71.4567 18.1162 71.4219 18.1856 71.3682 18.24C71.2919 18.3227 71.2358 18.4209 71.2039 18.5275C71.1719 18.6341 71.1651 18.7462 71.1837 18.8557C71.2156 19.0518 71.3262 19.2275 71.4913 19.3443C71.6564 19.461 71.8625 19.5092 72.0642 19.4783C72.2658 19.4473 72.4466 19.3397 72.5667 19.1792C72.6867 19.0187 72.7363 18.8184 72.7045 18.6223C72.6876 18.5131 72.6456 18.409 72.5818 18.3176C72.5179 18.2263 72.4338 18.15 72.3356 18.0945C72.2864 18.0673 72.244 18.0298 72.2116 17.9848C72.1791 17.9397 72.1572 17.8883 72.1477 17.834C72.1397 17.7874 72.1414 17.7396 72.1525 17.6936C72.1636 17.6475 72.184 17.6041 72.2124 17.5657C72.2409 17.5273 72.2769 17.4948 72.3183 17.47C72.3598 17.4453 72.4059 17.4287 72.4539 17.4213L74.3644 17.127Z" fill="#455A64"/>
<path d="M69.8828 97.6798V112.549H85.1774V97.6798H69.8828Z" fill="#C7C7C7"/>
<path d="M69.8828 82.8087V97.6777H85.1774V82.8087H69.8828Z" fill="#C7C7C7"/>
<path d="M54.5879 82.8087V97.6777H69.8825V82.8087H54.5879Z" fill="#C7C7C7"/>
<path d="M54.5879 67.9416V82.8105H69.8825V67.9416H54.5879Z" fill="#C7C7C7"/>
<path d="M54.5879 82.8105C55.8616 82.736 57.1387 82.7022 58.4159 82.6751C59.6931 82.6481 60.9633 82.6379 62.2439 82.6312C63.5245 82.6244 64.7947 82.6312 66.0719 82.6751L67.9859 82.7225C68.6227 82.753 69.2596 82.7699 69.8964 82.8105C69.2596 82.8511 68.6227 82.868 67.9859 82.8984L66.0719 82.9492C64.7982 82.9796 63.5245 82.9864 62.2439 82.9898C60.9633 82.9932 59.6965 82.9898 58.4159 82.9492C57.1353 82.9086 55.8616 82.8849 54.5879 82.8105Z" fill="#A6A6A6"/>
<path d="M69.8828 97.6816C71.1565 97.6071 72.4302 97.5733 73.7108 97.5462C74.9915 97.5192 76.2582 97.509 77.5388 97.5023C78.8195 97.4955 80.0897 97.5023 81.3668 97.5462L83.2808 97.5936C83.9177 97.624 84.5545 97.641 85.1913 97.6816C84.5545 97.7222 83.9177 97.7391 83.2808 97.7695L81.3668 97.8203C80.0931 97.8507 78.8195 97.8575 77.5388 97.8609C76.2582 97.8643 74.9915 97.8609 73.7108 97.8203C72.4302 97.7797 71.1565 97.756 69.8828 97.6816Z" fill="#A6A6A6"/>
<path d="M69.8821 97.6777C69.8055 96.4395 69.7707 95.2012 69.7429 93.9562C69.7151 92.7112 69.7046 91.4797 69.6977 90.2347C69.6907 88.9897 69.6977 87.7549 69.7394 86.5133L69.7916 84.6559C69.8229 84.0334 69.8403 83.4143 69.8821 82.7952C69.9239 83.4143 69.9413 84.0334 69.9726 84.6559L70.0248 86.5133C70.0561 87.7515 70.0631 88.9897 70.0665 90.2347C70.07 91.4797 70.0665 92.7112 70.0213 93.9562C69.9761 95.2012 69.9482 96.4395 69.8821 97.6777Z" fill="#A6A6A6"/>
<path d="M69.8783 82.8145H77.6387V67.9488H69.8783V82.8145Z" fill="#A6A6A6"/>
<path d="M85.1732 112.549H92.9336V82.8142H85.1732V112.549Z" fill="#A6A6A6"/>
<path d="M131.061 127.418V142.287H146.355V127.418H131.061Z" fill="#A3D95D"/>
<path d="M115.766 127.418V142.287H131.06V127.418H115.766Z" fill="#A3D95D"/>
<path d="M131.061 142.287V157.156H146.355V142.287H131.061Z" fill="#A3D95D"/>
<path d="M131.061 112.547V127.416H146.355V112.547H131.061Z" fill="#A3D95D"/>
<path d="M146.353 157.156H154.113V112.553H146.353V157.156Z" fill="#A3D95D"/>
<path opacity="0.1" d="M146.353 157.156H154.113V112.553H146.353V157.156Z" fill="black"/>
<path opacity="0.1" d="M131.055 142.289C130.978 141.051 130.943 139.812 130.912 138.567C130.881 137.322 130.874 136.091 130.87 134.846C130.867 133.601 130.87 132.366 130.912 131.124L130.964 129.267C130.995 128.644 131.013 128.025 131.055 127.406C131.096 128.025 131.114 128.644 131.145 129.267L131.194 131.124C131.229 132.363 131.232 133.601 131.239 134.846C131.246 136.091 131.239 137.322 131.194 138.567C131.149 139.812 131.128 141.051 131.055 142.289Z" fill="black"/>
<path opacity="0.1" d="M131.055 142.287C132.328 142.212 133.602 142.179 134.883 142.151C136.163 142.124 137.434 142.114 138.711 142.108C139.988 142.101 141.262 142.108 142.539 142.148L144.449 142.199C145.086 142.229 145.726 142.246 146.363 142.287C145.726 142.327 145.086 142.344 144.449 142.375L142.539 142.426C141.265 142.456 139.988 142.463 138.711 142.466C137.434 142.47 136.163 142.466 134.883 142.426C133.602 142.385 132.328 142.361 131.055 142.287Z" fill="black"/>
<path opacity="0.1" d="M131.055 127.416C132.328 127.342 133.602 127.308 134.883 127.281C136.163 127.254 137.434 127.243 138.711 127.237C139.988 127.23 141.262 127.237 142.539 127.277L144.449 127.328C145.086 127.358 145.726 127.375 146.363 127.416C145.726 127.457 145.086 127.473 144.449 127.504L142.539 127.555C141.265 127.585 139.988 127.592 138.711 127.595C137.434 127.599 136.163 127.595 134.883 127.555C133.602 127.514 132.328 127.49 131.055 127.416Z" fill="black"/>
<path d="M69.8828 127.418V142.287H85.1774V127.418H69.8828Z" fill="#263238"/>
<path d="M69.8828 112.547V127.416H85.1774V112.547H69.8828Z" fill="#263238"/>
<path d="M85.1777 112.547V127.416H100.472V112.547H85.1777Z" fill="#263238"/>
<path d="M85.1777 97.6798V112.549H100.472V97.6798H85.1777Z" fill="#263238"/>
<path d="M85.1776 127.418C85.1011 126.179 85.0663 124.941 85.035 123.696C85.0037 122.451 84.9967 121.22 84.9932 119.975C84.9897 118.73 84.9932 117.495 85.035 116.253L85.0872 114.396C85.1185 113.773 85.1359 113.154 85.1776 112.535C85.2194 113.154 85.2368 113.773 85.2681 114.396L85.3203 116.253C85.3516 117.491 85.3586 118.73 85.3621 119.975C85.3656 121.22 85.3621 122.451 85.3169 123.696C85.2716 124.941 85.2612 126.179 85.1776 127.418Z" fill="#455A64"/>
<path d="M85.1777 112.551C86.4514 112.477 87.7251 112.443 89.0057 112.413C90.2864 112.382 91.5531 112.375 92.8337 112.372C94.1144 112.369 95.3846 112.372 96.6617 112.413L98.5757 112.463C99.2126 112.494 99.8494 112.511 100.486 112.551C99.8494 112.592 99.2126 112.609 98.5757 112.639L96.6617 112.687C95.3881 112.721 94.1144 112.724 92.8337 112.731C91.5531 112.737 90.2864 112.731 89.0057 112.687C87.7251 112.643 86.4514 112.626 85.1777 112.551Z" fill="#455A64"/>
<path d="M69.8828 127.416C71.1565 127.342 72.4302 127.308 73.7108 127.281C74.9915 127.254 76.2582 127.243 77.5388 127.237C78.8195 127.23 80.0897 127.237 81.3668 127.277L83.2808 127.328C83.9177 127.358 84.5545 127.375 85.1913 127.416C84.5545 127.457 83.9177 127.473 83.2808 127.504L81.3668 127.555C80.0931 127.585 78.8195 127.592 77.5388 127.595C76.2582 127.599 74.9915 127.595 73.7108 127.555C72.4302 127.514 71.1565 127.49 69.8828 127.416Z" fill="#455A64"/>
<path d="M100.472 127.416H85.1777V142.285H100.472V127.416Z" fill="#C7C7C7"/>
<path d="M115.767 127.416H100.473V142.285H115.767V127.416Z" fill="#C7C7C7"/>
<path d="M115.767 112.549H100.473V127.418H115.767V112.549Z" fill="#C7C7C7"/>
<path d="M131.06 112.549H115.766V127.418H131.06V112.549Z" fill="#C7C7C7"/>
<path d="M115.766 127.418C115.689 126.179 115.654 124.941 115.623 123.696C115.592 122.451 115.585 121.22 115.581 119.975C115.578 118.73 115.581 117.495 115.623 116.253L115.675 114.396C115.706 113.773 115.724 113.154 115.766 112.535C115.807 113.154 115.825 113.773 115.856 114.396L115.908 116.253C115.94 117.491 115.946 118.73 115.95 119.975C115.953 121.22 115.95 122.451 115.905 123.696C115.859 124.941 115.842 126.179 115.766 127.418Z" fill="#A6A6A6"/>
<path d="M100.473 142.289C100.396 141.051 100.361 139.812 100.33 138.567C100.299 137.322 100.292 136.091 100.288 134.846C100.285 133.601 100.288 132.366 100.33 131.124L100.382 129.267C100.413 128.644 100.431 128.025 100.473 127.406C100.514 128.025 100.532 128.644 100.563 129.267L100.615 131.124C100.647 132.363 100.654 133.601 100.657 134.846C100.66 136.091 100.657 137.322 100.612 138.567C100.567 139.812 100.549 141.051 100.473 142.289Z" fill="#A6A6A6"/>
<path d="M100.473 127.416C101.746 127.342 103.02 127.308 104.301 127.281C105.581 127.254 106.848 127.243 108.129 127.237C109.409 127.23 110.679 127.237 111.957 127.277L113.871 127.328C114.507 127.358 115.144 127.375 115.781 127.416C115.144 127.457 114.507 127.473 113.871 127.504L111.957 127.555C110.683 127.585 109.409 127.592 108.129 127.595C106.848 127.599 105.581 127.595 104.301 127.555C103.02 127.514 101.746 127.49 100.473 127.416Z" fill="#A6A6A6"/>
<path d="M54.5879 142.287V157.156H69.8825V142.287H54.5879Z" fill="#A3D95D"/>
<path d="M54.5879 127.418V142.287H69.8825V127.418H54.5879Z" fill="#A3D95D"/>
<path d="M54.5879 112.547V127.416H69.8825V112.547H54.5879Z" fill="#A3D95D"/>
<path d="M54.5879 97.6798V112.549H69.8825V97.6798H54.5879Z" fill="#A3D95D"/>
<path opacity="0.1" d="M54.5879 112.549C55.8616 112.474 57.1387 112.44 58.4159 112.413C59.6931 112.386 60.9633 112.376 62.2439 112.369C63.5245 112.363 64.7947 112.369 66.0719 112.413L67.9859 112.461C68.6227 112.491 69.2596 112.508 69.8964 112.549C69.2596 112.589 68.6227 112.606 67.9859 112.637L66.0719 112.687C64.7982 112.718 63.5245 112.725 62.2439 112.728C60.9633 112.731 59.6965 112.728 58.4159 112.687C57.1353 112.647 55.8616 112.623 54.5879 112.549Z" fill="black"/>
<path opacity="0.1" d="M54.5879 127.416C55.8616 127.342 57.1387 127.308 58.4159 127.281C59.6931 127.254 60.9633 127.243 62.2439 127.237C63.5245 127.23 64.7947 127.237 66.0719 127.277L67.9859 127.328C68.6227 127.358 69.2596 127.375 69.8964 127.416C69.2596 127.457 68.6227 127.473 67.9859 127.504L66.0719 127.555C64.7982 127.585 63.5245 127.592 62.2439 127.595C60.9633 127.599 59.6965 127.595 58.4159 127.555C57.1353 127.514 55.8616 127.49 54.5879 127.416Z" fill="black"/>
<path opacity="0.1" d="M54.5879 142.287C55.8616 142.212 57.1387 142.179 58.4159 142.151C59.6931 142.124 60.9633 142.114 62.2439 142.108C63.5245 142.101 64.7947 142.108 66.0719 142.148L67.9859 142.199C68.6227 142.229 69.2596 142.246 69.8964 142.287C69.2596 142.327 68.6227 142.344 67.9859 142.375L66.0719 142.426C64.7982 142.456 63.5245 142.463 62.2439 142.466C60.9633 142.47 59.6965 142.466 58.4159 142.426C57.1353 142.385 55.8616 142.361 54.5879 142.287Z" fill="black"/>
<path d="M85.1774 142.287H69.8828V157.156H85.1774V142.287Z" fill="#455A64"/>
<path d="M100.472 142.287H85.1777V157.156H100.472V142.287Z" fill="#455A64"/>
<path d="M115.767 142.287H100.473V157.156H115.767V142.287Z" fill="#455A64"/>
<path d="M131.06 142.287H115.766V157.156H131.06V142.287Z" fill="#455A64"/>
<path d="M85.1776 157.151C85.1011 155.912 85.0663 154.674 85.035 153.429C85.0037 152.184 84.9967 150.949 84.9932 149.708C84.9897 148.466 84.9932 147.231 85.035 145.986L85.0872 144.129C85.1185 143.51 85.1359 142.891 85.1776 142.271C85.2194 142.891 85.2368 143.51 85.2681 144.129L85.3203 145.986C85.3516 147.228 85.3586 148.466 85.3621 149.708C85.3656 150.949 85.3621 152.188 85.3169 153.429C85.2716 154.671 85.2612 155.912 85.1776 157.151Z" fill="#37474F"/>
<path d="M100.473 157.151C100.396 155.912 100.361 154.674 100.33 153.429C100.299 152.184 100.292 150.949 100.288 149.708C100.285 148.466 100.288 147.231 100.33 145.986L100.382 144.129C100.413 143.51 100.431 142.891 100.473 142.271C100.514 142.891 100.532 143.51 100.563 144.129L100.615 145.986C100.647 147.228 100.654 148.466 100.657 149.708C100.66 150.949 100.657 152.188 100.612 153.429C100.567 154.671 100.549 155.912 100.473 157.151Z" fill="#37474F"/>
<path d="M115.766 157.151C115.689 155.912 115.654 154.674 115.623 153.429C115.592 152.184 115.585 150.949 115.581 149.708C115.578 148.466 115.581 147.231 115.623 145.986L115.675 144.129C115.706 143.51 115.724 142.891 115.766 142.271C115.807 142.891 115.825 143.51 115.856 144.129L115.908 145.986C115.94 147.228 115.946 148.466 115.95 149.708C115.953 150.949 115.95 152.188 115.905 153.429C115.859 154.671 115.842 155.912 115.766 157.151Z" fill="#37474F"/>
<path d="M131.061 112.549H146.355V97.6798H131.061V112.549Z" fill="#455A64"/>
<path d="M115.766 112.549H131.061V97.6798H115.766V112.549Z" fill="#455A64"/>
<path d="M100.471 112.549H115.766V97.6798H100.471V112.549Z" fill="#455A64"/>
<path d="M100.471 97.6777H115.766V82.8087H100.471V97.6777Z" fill="#455A64"/>
<path d="M146.353 112.549H154.113V97.6832H146.353V112.549Z" fill="#37474F"/>
<path d="M115.766 112.549C115.689 111.31 115.654 110.072 115.623 108.827C115.592 107.582 115.585 106.351 115.581 105.106C115.578 103.861 115.581 102.626 115.623 101.384L115.675 99.5268C115.706 98.9043 115.724 98.2851 115.766 97.666C115.807 98.2851 115.825 98.9043 115.856 99.5268L115.908 101.384C115.94 102.622 115.946 103.861 115.95 105.106C115.953 106.351 115.95 107.582 115.905 108.827C115.859 110.072 115.842 111.31 115.766 112.549Z" fill="#37474F"/>
<path d="M131.06 112.549C130.984 111.31 130.949 110.072 130.918 108.827C130.886 107.582 130.879 106.351 130.876 105.106C130.873 103.861 130.876 102.626 130.918 101.384L130.97 99.5268C131.001 98.9043 131.019 98.2851 131.06 97.666C131.102 98.2851 131.12 98.9043 131.151 99.5268L131.203 101.384C131.234 102.622 131.238 103.861 131.245 105.106C131.252 106.351 131.245 107.582 131.2 108.827C131.154 110.072 131.137 111.31 131.06 112.549Z" fill="#37474F"/>
<path d="M100.473 97.6816C101.746 97.6071 103.02 97.5733 104.301 97.5462C105.581 97.5192 106.848 97.509 108.129 97.5023C109.409 97.4955 110.679 97.5023 111.957 97.5462L113.871 97.5936C114.507 97.624 115.144 97.641 115.781 97.6816C115.144 97.7222 114.507 97.7391 113.871 97.7695L111.957 97.8203C110.683 97.8507 109.409 97.8575 108.129 97.8609C106.848 97.8643 105.581 97.8609 104.301 97.8203C103.02 97.7797 101.746 97.756 100.473 97.6816Z" fill="#37474F"/>
<path d="M131.061 97.6777H146.355V82.8087H131.061V97.6777Z" fill="#C7C7C7"/>
<path d="M115.766 97.6777H131.061V82.8087H115.766V97.6777Z" fill="#C7C7C7"/>
<path d="M131.061 82.8105H146.355V67.9416H131.061V82.8105Z" fill="#C7C7C7"/>
<path d="M115.766 82.8103H131.061V67.9413H115.766V82.8103Z" fill="#C7C7C7"/>
<path d="M146.353 97.6816H154.113V67.9504H146.353V97.6816Z" fill="#A6A6A6"/>
<path d="M131.055 82.8103C130.978 81.572 130.943 80.3338 130.912 79.0888C130.881 77.8438 130.874 76.6123 130.87 75.3673C130.867 74.1223 130.87 72.8874 130.912 71.6458L130.964 69.7885C130.995 69.1694 131.013 68.5469 131.055 67.9277C131.096 68.5469 131.114 69.1694 131.145 69.7885L131.194 71.6458C131.229 72.8841 131.232 74.1223 131.239 75.3673C131.246 76.6123 131.239 77.8438 131.194 79.0888C131.149 80.3338 131.128 81.572 131.055 82.8103Z" fill="#A6A6A6"/>
<path d="M131.055 97.6777C130.978 96.4395 130.943 95.2012 130.912 93.9562C130.881 92.7112 130.874 91.4797 130.87 90.2347C130.867 88.9897 130.87 87.7549 130.912 86.5133L130.964 84.6559C130.995 84.0334 131.013 83.4143 131.055 82.7952C131.096 83.4143 131.114 84.0334 131.145 84.6559L131.194 86.5133C131.229 87.7515 131.232 88.9897 131.239 90.2347C131.246 91.4797 131.239 92.7112 131.194 93.9562C131.149 95.2012 131.128 96.4395 131.055 97.6777Z" fill="#A6A6A6"/>
<path d="M131.055 82.8105C132.328 82.736 133.602 82.7022 134.883 82.6751C136.163 82.6481 137.434 82.6379 138.711 82.6312C139.988 82.6244 141.262 82.6312 142.539 82.6751L144.449 82.7225C145.086 82.753 145.726 82.7699 146.363 82.8105C145.726 82.8511 145.086 82.868 144.449 82.8984L142.539 82.9492C141.265 82.9796 139.988 82.9864 138.711 82.9898C137.434 82.9932 136.163 82.9898 134.883 82.9492C133.602 82.9086 132.328 82.8849 131.055 82.8105Z" fill="#A6A6A6"/>
<path d="M115.689 82.8105C116.963 82.736 118.237 82.7022 119.517 82.6751C120.798 82.6481 122.065 82.6379 123.345 82.6312C124.626 82.6244 125.896 82.6312 127.173 82.6751L129.087 82.7225C129.724 82.753 130.361 82.7699 130.998 82.8105C130.361 82.8511 129.724 82.868 129.087 82.8984L127.173 82.9492C125.9 82.9796 124.626 82.9864 123.345 82.9898C122.065 82.9932 120.798 82.9898 119.517 82.9492C118.237 82.9086 116.963 82.8849 115.689 82.8105Z" fill="#A6A6A6"/>
<path d="M70.2336 157.083C69.3183 157.373 43.2113 157.143 42.2265 156.521C41.8472 156.291 41.6593 152.59 41.5653 148.114C41.5653 148.066 41.5653 148.019 41.5653 147.975C41.5444 147.051 41.9133 132.074 41.9133 132.074L58.9653 132.176L58.3841 147.951V148.229C58.3841 148.229 68.3369 152.661 69.3496 153.459C70.3623 154.258 71.1488 156.785 70.2336 157.083Z" fill="#AD6359"/>
<path d="M70.2362 157.084C69.3175 157.372 43.214 157.148 42.2222 156.526C41.8429 156.292 41.6584 152.595 41.5645 148.115C41.5645 148.068 41.5645 148.021 41.5645 147.977C41.5645 147.801 41.5645 146.833 41.5958 145.842L58.4842 145.876L58.4077 147.939V148.217C58.4077 148.217 68.3605 152.649 69.3731 153.447C70.3858 154.246 71.1479 156.786 70.2362 157.084Z" fill="white"/>
<path d="M70.4976 157.174C69.5685 157.469 42.9569 157.303 41.9616 156.674C41.5788 156.437 41.377 152.668 41.2656 148.107L58.422 148.165C58.422 148.165 68.5558 152.661 69.5998 153.466C70.6438 154.272 71.4303 156.877 70.4976 157.174Z" fill="#A6A6A6"/>
<path d="M70.125 156.135C65.6637 156 47.6651 155.868 43.2455 156.064C43.2072 156.064 43.2072 156.091 43.2455 156.091C47.6616 156.318 65.6637 156.311 70.125 156.206C70.219 156.203 70.219 156.139 70.125 156.135Z" fill="#263238"/>
<path d="M67.8939 152.525C67.3978 152.509 66.9037 152.593 66.443 152.773C65.9822 152.952 65.5649 153.223 65.2178 153.567C64.5885 154.182 64.226 155.008 64.2051 155.875C64.2051 155.902 64.2538 155.902 64.2573 155.875C64.4154 155.017 64.8553 154.232 65.511 153.638C66.1666 153.044 67.0027 152.673 67.8939 152.58C67.9287 152.576 67.9287 152.525 67.8939 152.525Z" fill="#263238"/>
<path d="M60.1339 148.607C58.3487 148.573 56.2746 149.172 55.1575 150.583C55.1123 150.637 55.1958 150.698 55.248 150.671C56.8145 149.885 58.4629 149.265 60.1652 148.82C60.1919 148.814 60.2151 148.798 60.2304 148.776C60.2457 148.753 60.252 148.726 60.2481 148.7C60.2442 148.673 60.2304 148.649 60.2093 148.632C60.1882 148.615 60.1614 148.606 60.1339 148.607Z" fill="#263238"/>
<path d="M61.5089 149.138C59.7237 149.101 57.6496 149.703 56.5325 151.114C56.4873 151.168 56.5708 151.229 56.623 151.202C58.189 150.413 59.8375 149.789 61.5402 149.341C61.561 149.331 61.5779 149.315 61.5886 149.294C61.5992 149.274 61.6031 149.251 61.5996 149.229C61.5962 149.206 61.5856 149.186 61.5693 149.169C61.553 149.153 61.5319 149.142 61.5089 149.138Z" fill="#263238"/>
<path d="M62.882 149.681C61.0967 149.644 59.0226 150.246 57.9056 151.657C57.8603 151.711 57.9438 151.772 57.996 151.745C59.5625 150.959 61.211 150.339 62.9133 149.894C62.9399 149.888 62.9631 149.872 62.9784 149.85C62.9937 149.828 63.0001 149.801 62.9962 149.774C62.9923 149.748 62.9785 149.724 62.9574 149.706C62.9363 149.689 62.9094 149.68 62.882 149.681Z" fill="#263238"/>
<path d="M64.2576 150.201C62.4723 150.164 60.4017 150.766 59.2812 152.177C59.2394 152.231 59.3195 152.292 59.3717 152.265C60.9381 151.479 62.5866 150.859 64.2889 150.414C64.3155 150.407 64.3388 150.391 64.3541 150.369C64.3694 150.347 64.3757 150.32 64.3718 150.294C64.3679 150.267 64.3541 150.243 64.333 150.226C64.3119 150.209 64.285 150.2 64.2576 150.201Z" fill="#263238"/>
<path d="M62.0967 143.99C61.1953 143.256 60.0539 143.959 59.4901 144.71C58.5516 146.021 57.9828 147.548 57.8406 149.139C57.8392 149.146 57.8397 149.154 57.8421 149.161C57.8444 149.168 57.8486 149.174 57.8541 149.179C57.8597 149.184 57.8665 149.188 57.8738 149.19C57.8812 149.192 57.8889 149.192 57.8963 149.19C57.9022 149.222 57.9163 149.253 57.9372 149.28C57.9581 149.306 57.9853 149.327 58.0164 149.341C58.0475 149.355 58.0817 149.362 58.1159 149.36C58.1501 149.358 58.1834 149.349 58.213 149.332C59.4901 148.486 60.9657 147.735 61.9366 146.531C62.5038 145.83 62.9458 144.683 62.0967 143.99ZM59.8799 147.65C59.2639 148.08 58.6271 148.479 58.0251 148.933C58.3522 148.07 58.6341 147.2 59.0482 146.368C59.2424 145.966 59.4633 145.576 59.7094 145.201C60.1026 144.629 61.8635 143.191 62.0271 145.079C62.1175 146.135 60.6177 147.15 59.8799 147.65Z" fill="#263238"/>
<path d="M53.4 149.758C54.9521 150.001 56.5598 149.582 58.0876 149.359C58.1206 149.351 58.1512 149.335 58.1771 149.314C58.2029 149.292 58.2232 149.265 58.2364 149.234C58.2496 149.204 58.2552 149.171 58.253 149.138C58.2507 149.105 58.2405 149.073 58.2233 149.044C58.2291 149.04 58.2338 149.034 58.237 149.028C58.2402 149.021 58.2419 149.014 58.2419 149.007C58.2419 149 58.2402 148.993 58.237 148.986C58.2338 148.98 58.2291 148.974 58.2233 148.97C57.0133 147.899 55.5366 147.153 53.9394 146.808C52.9998 146.628 51.667 146.865 51.5034 147.995C51.3677 149.068 52.4917 149.619 53.4 149.758ZM52.3282 148.763C51.131 147.268 53.4278 147.163 54.1169 147.322C54.5589 147.434 54.9925 147.576 55.4149 147.745C56.2827 148.104 57.1306 148.508 57.9553 148.953C57.2002 149.017 56.452 149.142 55.7003 149.234C54.799 149.345 52.9894 149.589 52.3282 148.763Z" fill="#263238"/>
<path opacity="0.1" d="M55.1817 157.257C48.6602 157.166 42.4275 156.973 41.9577 156.672C41.5749 156.438 41.3696 152.669 41.2617 148.105H41.7907C45.9354 150.934 51.0718 154.439 55.1817 157.257Z" fill="black"/>
<path d="M59.8274 144.925L40.2489 144.877C40.2489 144.877 42.8346 104.526 42.6849 103.782C42.504 102.825 31.4062 57.5547 31.4062 57.5547L47.3412 57.6494C47.3412 57.6494 60.2032 99.6514 60.6661 103.704C61.4387 110.247 59.8274 144.925 59.8274 144.925Z" fill="#263238"/>
<path d="M58.5224 141.6C55.5713 141.381 43.3878 141.33 41.6478 141.6C41.62 141.6 41.62 141.655 41.6478 141.658C42.9633 141.871 53.459 141.962 58.5224 141.658C58.5262 141.654 58.5293 141.65 58.5314 141.645C58.5336 141.64 58.5346 141.635 58.5346 141.629C58.5346 141.624 58.5336 141.619 58.5314 141.614C58.5293 141.609 58.5262 141.604 58.5224 141.6Z" fill="#37474F"/>
<path d="M35.0116 61.0417C35.3875 62.1548 35.7076 63.2814 36.0556 64.4046C36.4036 65.5278 36.7029 66.6544 37.0405 67.7877C37.7051 70.0139 38.3385 72.2467 38.9753 74.4796C40.2595 78.9894 41.4809 83.516 42.6815 88.0461C43.2731 90.3015 43.8531 92.548 44.4215 94.7854C45.0027 97.0352 45.6117 99.2883 46.1302 101.552C46.3952 102.615 46.5053 103.71 46.4573 104.803C46.3877 105.923 43.5341 140.042 43.1305 140.664C43.1305 140.691 43.0678 140.688 43.0713 140.664C43.2557 136.523 46.2485 104.204 46.0989 103.057C45.9212 101.938 45.6772 100.83 45.3681 99.7383C45.0897 98.6252 44.8043 97.5122 44.5225 96.3991C43.9494 94.1437 43.3694 91.8973 42.7825 89.6599C41.5993 85.149 40.3859 80.6449 39.1424 76.1475C37.8989 71.6502 36.6542 67.1788 35.4083 62.7333C35.2517 62.1818 35.0986 61.627 34.9594 61.0722C34.9553 61.0654 34.954 61.0574 34.956 61.0498C34.9579 61.0421 34.9629 61.0356 34.9699 61.0316C34.9768 61.0275 34.9851 61.0263 34.9929 61.0282C35.0007 61.0301 35.0075 61.035 35.0116 61.0417Z" fill="#37474F"/>
<path d="M31.4141 57.5547C31.4141 57.5547 37.9982 84.417 41.1024 97.1952L46.0823 57.6393L31.4141 57.5547Z" fill="#37474F"/>
<path d="M49.067 157.248C48.1483 157.526 22.0483 156.91 21.0704 156.264C20.6946 156.03 20.5658 152.326 20.5449 147.85V147.708C20.5449 146.784 21.1713 131.316 21.1713 131.316L38.2233 131.675L37.3812 147.914V148.192C37.3812 148.192 47.2609 152.772 48.2631 153.584C49.2654 154.396 49.9927 156.974 49.067 157.248Z" fill="#AD6359"/>
<path d="M49.0666 157.251C48.1444 157.525 22.0479 156.913 21.0665 156.27C20.6907 156.03 20.5654 152.329 20.541 147.853V147.711C20.541 147.538 20.5723 146.571 20.6071 145.576L37.4921 145.867L37.3807 147.931V148.208C37.3807 148.208 47.2605 152.789 48.2627 153.601C49.2649 154.413 49.9888 156.977 49.0666 157.251Z" fill="white"/>
<path d="M49.3346 157.347C48.3984 157.627 21.7973 157.059 20.7986 156.416C20.4192 156.173 20.2766 152.4 20.2383 147.84L37.3912 148.158C37.3912 148.158 47.4832 152.803 48.4959 153.625C49.5086 154.447 50.2707 157.062 49.3346 157.347Z" fill="#A6A6A6"/>
<path d="M48.9764 156.296C44.5185 156.097 26.5234 155.691 22.1003 155.823C22.0655 155.823 22.0655 155.846 22.1003 155.85C26.513 156.144 44.515 156.405 48.9764 156.367C49.0668 156.367 49.0668 156.303 48.9764 156.296Z" fill="#263238"/>
<path d="M46.8059 152.654C46.3091 152.632 45.8132 152.712 45.3495 152.886C44.8859 153.061 44.4646 153.327 44.1124 153.669C43.4749 154.275 43.1012 155.096 43.0684 155.963C43.0684 155.99 43.1171 155.99 43.1206 155.963C43.292 155.109 43.7433 154.332 44.4071 153.748C45.0708 153.164 45.9112 152.805 46.8024 152.725C46.8072 152.725 46.812 152.724 46.8165 152.723C46.821 152.721 46.8252 152.719 46.8287 152.716C46.8323 152.712 46.8352 152.709 46.8372 152.704C46.8393 152.7 46.8405 152.696 46.8407 152.691C46.8409 152.686 46.8402 152.682 46.8386 152.677C46.8369 152.673 46.8344 152.669 46.8312 152.665C46.828 152.662 46.8241 152.659 46.8197 152.657C46.8154 152.655 46.8107 152.654 46.8059 152.654Z" fill="#263238"/>
<path d="M39.1107 148.622C37.3255 148.561 35.241 149.129 34.0995 150.523C34.0578 150.577 34.1378 150.638 34.19 150.611C35.7692 149.851 37.4269 149.255 39.1351 148.835C39.1611 148.828 39.1839 148.813 39.1992 148.791C39.2145 148.77 39.2213 148.744 39.2183 148.718C39.2154 148.692 39.2028 148.668 39.1831 148.65C39.1633 148.632 39.1376 148.622 39.1107 148.622Z" fill="#263238"/>
<path d="M40.4761 149.172C38.6909 149.111 36.6098 149.68 35.4684 151.074C35.4232 151.128 35.5032 151.189 35.5589 151.162C37.1376 150.4 38.7954 149.805 40.504 149.386C40.5303 149.379 40.5532 149.363 40.5684 149.341C40.5837 149.32 40.5902 149.293 40.5868 149.267C40.5834 149.241 40.5703 149.217 40.5499 149.199C40.5295 149.182 40.5033 149.172 40.4761 149.172Z" fill="#263238"/>
<path d="M41.8432 149.727C40.0579 149.666 37.9734 150.235 36.832 151.628C36.7902 151.683 36.8702 151.743 36.9224 151.72C38.5004 150.957 40.1583 150.361 41.8675 149.944C41.8922 149.935 41.9132 149.919 41.9272 149.898C41.9411 149.876 41.9472 149.851 41.9444 149.826C41.9415 149.801 41.93 149.777 41.9116 149.759C41.8932 149.741 41.8691 149.73 41.8432 149.727Z" fill="#263238"/>
<path d="M43.2066 150.278C41.4248 150.217 39.3403 150.785 38.1989 152.179C38.1536 152.233 38.2337 152.294 38.2893 152.271C39.867 151.507 41.525 150.911 43.2344 150.494C43.2592 150.486 43.2802 150.469 43.294 150.448C43.3078 150.426 43.3135 150.4 43.3103 150.375C43.307 150.35 43.295 150.326 43.2761 150.309C43.2572 150.291 43.2327 150.28 43.2066 150.278Z" fill="#263238"/>
<path d="M41.1434 144.034C40.256 143.286 39.1006 143.973 38.5264 144.711C37.5666 146.005 36.9737 147.522 36.8073 149.109C36.8061 149.116 36.8066 149.123 36.8088 149.129C36.811 149.136 36.8148 149.142 36.8199 149.147C36.825 149.152 36.8313 149.156 36.8382 149.158C36.845 149.16 36.8524 149.161 36.8595 149.159C36.8657 149.193 36.88 149.224 36.901 149.251C36.922 149.277 36.9493 149.299 36.9805 149.313C37.0118 149.328 37.0461 149.335 37.0807 149.334C37.1153 149.333 37.1492 149.324 37.1796 149.308C38.4672 148.479 39.9636 147.752 40.945 146.561C41.5227 145.881 41.982 144.741 41.1434 144.034ZM38.8709 147.674C38.2445 148.097 37.6042 148.486 36.9952 148.929C37.3056 148.062 37.6611 147.211 38.0601 146.379C38.2583 145.979 38.485 145.594 38.7387 145.225C39.1389 144.66 40.9241 143.246 41.0598 145.137C41.1329 146.179 39.6156 147.17 38.8709 147.674Z" fill="#263238"/>
<path d="M32.3636 149.681C33.9122 149.948 35.5269 149.552 37.0581 149.342C37.0914 149.335 37.1224 149.32 37.1487 149.299C37.1749 149.278 37.1957 149.251 37.2093 149.221C37.2229 149.191 37.2289 149.158 37.2268 149.125C37.2247 149.092 37.2146 149.059 37.1973 149.031C37.2031 149.027 37.2078 149.021 37.211 149.014C37.2142 149.008 37.2159 149.001 37.2159 148.994C37.2159 148.987 37.2142 148.979 37.211 148.973C37.2078 148.967 37.2031 148.961 37.1973 148.957C35.9996 147.863 34.527 147.095 32.9274 146.73C31.9947 146.534 30.6584 146.751 30.4914 147.881C30.3348 148.946 31.4518 149.515 32.3636 149.681ZM31.3196 148.666C30.1434 147.15 32.4471 147.079 33.1292 147.251C33.5694 147.369 34.0008 147.516 34.4203 147.691C35.2826 148.064 36.1247 148.48 36.9433 148.936C36.1846 148.99 35.4364 149.105 34.6813 149.183C33.7556 149.271 31.9495 149.491 31.3196 148.666Z" fill="#263238"/>
<path d="M47.3447 57.6291C47.3447 57.6291 47.1985 65.0281 45.4168 70.8877C45.2741 71.3749 45.121 71.8485 44.9539 72.3087C44.9539 72.3087 44.2579 72.3087 41.4739 73.9326L38.7178 144.918L19.9258 144.614C19.9258 144.614 23.1622 107.003 23.1517 104.591C23.1517 100.717 25.4973 74.4806 25.2711 73.8277C22.9777 67.0377 27.3591 57.1758 27.3591 57.1758L47.3447 57.6291Z" fill="#263238"/>
<path d="M38.0956 141.535C32.8025 141.197 22.5435 141.055 21.2281 141.241C21.2219 141.243 21.2166 141.247 21.2128 141.252C21.2091 141.257 21.207 141.263 21.207 141.269C21.207 141.276 21.2091 141.282 21.2128 141.287C21.2166 141.292 21.2219 141.296 21.2281 141.298C22.5365 141.532 34.9984 141.839 38.0991 141.616C38.1102 141.616 38.1206 141.611 38.1281 141.603C38.1356 141.595 38.1396 141.585 38.1391 141.574C38.1387 141.563 38.1338 141.553 38.1257 141.546C38.1175 141.538 38.1067 141.535 38.0956 141.535Z" fill="#37474F"/>
<path d="M39.4972 122.638C39.3058 127.225 39.1492 131.816 38.9126 136.404C38.9095 136.415 38.9025 136.426 38.8928 136.433C38.883 136.44 38.871 136.444 38.8586 136.444C38.8463 136.444 38.8343 136.44 38.8245 136.433C38.8147 136.426 38.8078 136.415 38.8047 136.404C38.9056 128.223 39.1736 120.039 39.452 111.862C39.7304 103.685 40.0714 95.5892 40.4612 87.4561C40.6839 82.8685 41.1293 78.6599 41.4321 74.0588C41.4321 74.0256 41.4457 73.9937 41.4698 73.9703C41.4939 73.9468 41.5267 73.9336 41.5608 73.9336C41.595 73.9336 41.6277 73.9468 41.6519 73.9703C41.676 73.9937 41.6896 74.0256 41.6896 74.0588C41.4321 82.2359 40.8335 90.0476 40.5064 98.2247" fill="#37474F"/>
<path d="M24.6871 123.139C25.1117 117.804 25.5641 112.468 26.006 107.137L27.3319 91.1511C27.5512 88.4818 27.7669 85.8159 27.9966 83.15C28.1103 81.817 28.2263 80.4829 28.3446 79.1477C28.5113 77.8331 28.602 76.5104 28.616 75.186C28.5708 73.7414 27.9548 72.4524 27.6173 71.0653C27.3078 69.7419 27.1721 68.3857 27.2136 67.0292C27.2728 64.2415 27.7774 61.853 28.6682 58.8724C28.7135 58.7235 28.8144 58.71 28.7761 58.8724C28.1532 61.3624 27.5825 63.8761 27.4607 66.4473C27.3908 67.7267 27.4748 69.0098 27.7112 70.2703C27.9479 71.4814 28.4594 72.6046 28.7552 73.7989C29.051 74.9932 28.8736 76.3024 28.7552 77.5508C28.6404 78.8838 28.5395 80.2167 28.4316 81.5497C28.2263 84.1649 28.0036 86.7801 27.7878 89.3919C26.9039 100.008 26.0478 110.625 25.1221 121.238C24.6036 127.209 24.1616 133.194 23.5248 139.168C23.5248 139.212 23.4517 139.212 23.4552 139.168C23.7754 133.803 24.2626 128.471 24.6871 123.139Z" fill="#37474F"/>
<path d="M29.5794 67.4704C29.8961 67.352 31.2602 67.0306 31.5908 66.8919C32.215 66.6308 32.8002 66.2894 33.3308 65.8769C33.8425 65.4457 34.235 64.8967 34.4723 64.2801C34.615 63.9418 35.304 62.1859 35.3492 62.1791C35.358 62.1767 35.3674 62.1774 35.3757 62.1812C35.384 62.1849 35.3907 62.1914 35.3945 62.1994C35.4606 62.3077 35.2483 62.964 35.1892 63.1806C35.0813 63.5595 34.9769 63.9384 34.8412 64.3105C34.6452 65.0163 34.2469 65.6534 33.6928 66.1476C33.1154 66.6188 32.4536 66.9823 31.7405 67.2201C31.3782 67.3505 31.0042 67.4479 30.6234 67.511C30.2716 67.5942 29.9071 67.6137 29.5481 67.5685C29.5272 67.5516 29.5446 67.4704 29.5794 67.4704Z" fill="#37474F"/>
<path d="M43.9906 69.7404C44.0393 69.1044 44.095 68.4661 44.1576 67.8255C44.2968 66.3708 44.4638 64.9092 44.7353 63.4714C44.7562 63.3597 44.9197 63.4037 44.9093 63.512C44.7979 64.642 44.6587 65.7686 44.5439 66.8951C44.429 68.0217 44.2794 69.1517 44.255 70.2783C44.255 70.6166 44.255 71.1951 44.6935 71.2933C45.2677 71.4218 45.5426 70.6877 45.6853 70.2783C46.0203 69.2751 46.2683 68.2464 46.4266 67.203C46.6214 66.0155 46.7293 64.8145 46.8546 63.6202C46.8546 63.5763 46.9346 63.583 46.9312 63.6202C46.9312 65.9885 46.8755 68.4717 45.9498 70.7046C45.7688 71.141 45.4556 71.5842 44.9336 71.6383H44.9093C44.9127 71.6517 44.9127 71.6656 44.9093 71.6789C44.9093 71.7466 44.878 71.8109 44.8675 71.8785C44.8571 71.9462 44.8466 71.9902 44.8327 72.0443C44.8084 72.1593 44.7875 72.2744 44.7596 72.3826C44.7538 72.4028 44.7408 72.4202 44.7229 72.4319C44.705 72.4435 44.6834 72.4485 44.662 72.4461C44.6406 72.4436 44.6208 72.4339 44.6062 72.4185C44.5916 72.4032 44.583 72.3832 44.5822 72.3623C44.5672 72.3569 44.5542 72.3473 44.5449 72.3346C44.5355 72.3219 44.5304 72.3068 44.53 72.2913C44.5417 72.058 44.5972 71.8287 44.6935 71.6147C44.5531 71.5858 44.4222 71.5234 44.3129 71.433C44.2035 71.3426 44.119 71.2271 44.0671 71.097C43.9368 70.6562 43.9107 70.1924 43.9906 69.7404Z" fill="#37474F"/>
<path d="M45.7375 71.8694C43.8633 72.6179 42.0597 73.5235 40.3469 74.5759C40.334 74.5841 40.3246 74.5965 40.3206 74.611C40.3165 74.6255 40.3181 74.6408 40.325 74.6542C40.3319 74.6676 40.3436 74.6781 40.3579 74.6836C40.3722 74.6891 40.3882 74.6893 40.4026 74.6842C42.2227 73.8384 44.0775 73.023 45.8453 72.0825C45.8744 72.0686 45.8966 72.044 45.9071 72.0142C45.9175 71.9844 45.9153 71.9518 45.901 71.9235C45.8867 71.8952 45.8614 71.8737 45.8308 71.8635C45.8001 71.8534 45.7665 71.8555 45.7375 71.8694Z" fill="#37474F"/>
<path d="M43.9412 43.3544C45.288 50.9936 50.1286 61.7419 53.1528 62.5944C54.59 63.0004 57.0712 64.0255 59.4168 62.9328C64.5498 60.5239 68.7849 55.8484 71.1478 53.6528C72.2232 52.6547 66.3385 44.9445 65.0091 45.7903C61.898 47.7661 57.6837 52.154 57.2731 52.0085C55.7523 51.4774 51.1866 44.8599 47.8214 40.3332C44.056 35.2551 43.4053 40.3096 43.9412 43.3544Z" fill="#AD6359"/>
<path d="M70.4023 54.0257C71.4776 53.5487 76.2 50.9369 77.3623 49.9253C78.5246 48.9137 81.594 45.7708 80.8841 44.8506C80.1741 43.9303 79.1997 44.7694 79.1997 44.7694C79.1997 44.7694 80.2855 43.2402 79.4851 42.3639C78.6847 41.4877 77.2057 42.8613 77.2057 42.8613C77.2057 42.8613 78.2045 41.2103 77.3414 40.3916C76.4784 39.5728 75.2291 41.1967 75.2291 41.1967C75.2291 41.1967 76.2139 39.7285 75.2291 39.3462C74.0215 38.8861 72.5216 41.7888 71.1679 42.8139C70.8617 43.044 64.5977 47.097 64.5977 47.097L70.4023 54.0257Z" fill="#AD6359"/>
<path d="M75.3265 41.0437C74.2164 43.1751 73.3534 43.9228 71.2758 45.1306C71.2375 45.1542 71.2758 45.2185 71.3071 45.1982C73.4508 44.1833 74.6758 43.4085 75.4344 41.0911C75.4727 40.9794 75.3787 40.9422 75.3265 41.0437Z" fill="#263238"/>
<path d="M77.28 42.6759C75.9263 44.7937 74.9971 45.6091 72.9196 47.03C72.8917 47.0503 72.9196 47.1011 72.9544 47.0841C75.112 45.8561 76.3126 45.0542 77.3775 42.7605C77.4262 42.6556 77.3392 42.5778 77.28 42.6759Z" fill="#263238"/>
<path d="M79.0789 44.8243C77.6173 46.7798 76.6429 47.7203 74.4401 48.8469C74.3879 48.874 74.44 48.9518 74.4748 48.9281C76.8343 47.991 78.0662 46.8272 79.1346 44.8683C79.2076 44.7397 79.1694 44.7025 79.0789 44.8243Z" fill="#263238"/>
<path d="M63.2344 47.7481C63.2344 47.7481 64.3758 44.9706 65.1519 43.8541C65.9279 42.7377 70.4032 39.6286 71.1514 40.5285C72.1153 41.6923 69.8951 43.9827 68.6597 44.9672C68.6597 44.9672 70.8939 47.6568 69.6654 49.6359C68.437 51.6151 63.2344 47.7481 63.2344 47.7481Z" fill="#AD6359"/>
<path d="M71.3077 40.932C71.3981 42.6236 69.6895 43.8009 68.5619 44.843C68.5446 44.8578 68.5313 44.8765 68.523 44.8975C68.5148 44.9185 68.5119 44.9411 68.5147 44.9634C68.5174 44.9857 68.5257 45.007 68.5388 45.0255C68.5518 45.044 68.5693 45.0592 68.5898 45.0696C69.4459 46.2571 70.3019 48.1754 69.7625 49.6132C69.7584 49.6213 69.7577 49.6306 69.7606 49.6392C69.7636 49.6478 69.7699 49.6548 69.7782 49.6589C69.7865 49.6629 69.7961 49.6636 69.8049 49.6607C69.8137 49.6579 69.821 49.6517 69.8252 49.6437C70.6221 48.1754 69.94 46.2233 68.9134 44.9817C70.0862 43.9329 71.7461 42.6642 71.3251 40.9219C71.339 40.9219 71.3077 40.9219 71.3077 40.932Z" fill="#263238"/>
<path d="M62.4957 47.3372L68.8607 56.8642C68.8607 56.8642 61.2429 63.5189 57.3766 63.5459C53.5104 63.573 52.5777 62.8422 51.6868 62.3348C50.796 61.8273 45.6351 53.8227 43.9404 43.6597C42.3361 34.0617 46.7244 38.294 49.6441 42.4384C51.3006 44.8066 56.9521 51.4004 57.2479 51.4038C57.5437 51.4072 62.4957 47.3372 62.4957 47.3372Z" fill="#455A64"/>
<path d="M61.1253 49.0397C62.1345 50.4877 63.095 51.9661 64.0451 53.4378C64.5114 54.1652 66.2479 57.1288 66.7525 57.9712C66.7734 58.005 66.6794 58.0558 66.6551 58.0253C66.1296 57.281 64.2365 54.3039 63.7841 53.5833C62.8619 52.0845 61.9466 50.579 61.0836 49.0464C61.0809 49.0432 61.0791 49.0394 61.0784 49.0353C61.0778 49.0312 61.0782 49.027 61.0797 49.0231C61.0812 49.0192 61.0837 49.0158 61.087 49.0132C61.0903 49.0106 61.0943 49.0088 61.0985 49.0081C61.1027 49.0075 61.107 49.0079 61.111 49.0093C61.115 49.0108 61.1185 49.0132 61.1212 49.0164C61.124 49.0196 61.1258 49.0234 61.1265 49.0275C61.1272 49.0316 61.1268 49.0358 61.1253 49.0397Z" fill="#263238"/>
<path opacity="0.1" d="M50.4589 60.8158C48.5728 57.9672 45.2389 51.4478 43.9339 43.6598C43.0813 38.5512 43.9339 37.3604 45.3538 37.9896C45.9349 40.3815 48.8755 53.6164 50.4589 60.8158Z" fill="black"/>
<path d="M27.3691 57.1731L47.6645 59.609L48.6702 53.8982C48.6702 53.8982 50.6956 51.8683 50.9009 49.3377C51.1236 46.6616 46.798 39.0225 46.4256 38.5793C44.9397 36.7997 42.1696 36.3295 40.6523 37.2734C32.5404 42.3278 27.3691 57.1731 27.3691 57.1731Z" fill="#263238"/>
<path d="M27.3691 57.1731L47.6645 59.609L48.6702 53.8982C48.6702 53.8982 50.6956 51.8683 50.9009 49.3377C51.1236 46.6616 46.798 39.0225 46.4256 38.5793C44.9397 36.7997 42.1696 36.3295 40.6523 37.2734C32.5404 42.3278 27.3691 57.1731 27.3691 57.1731Z" fill="#455A64"/>
<path d="M50.9057 49.3395C50.6969 51.8599 48.6715 53.9 48.6715 53.9L47.6762 59.6074L27.3809 57.1749C28.6406 53.7525 30.1911 50.438 32.0162 47.2656C32.4095 47.3366 35.1169 49.5255 39.1537 47.6411C41.5897 46.5078 42.2196 42.2517 42.2196 42.2517L48.4279 42.1604C49.6737 44.6606 51.0309 47.8069 50.9057 49.3395Z" fill="#263238"/>
<path d="M43.054 43.0007C43.0528 43.0495 43.0413 43.0974 43.0203 43.1417C42.9993 43.1859 42.9692 43.2256 42.9319 43.2582C42.8946 43.2908 42.8509 43.3156 42.8034 43.3312C42.7559 43.3468 42.7056 43.3529 42.6557 43.3489C42.6057 43.345 42.5571 43.3313 42.5127 43.3085C42.4684 43.2857 42.4294 43.2543 42.3979 43.2163C42.3665 43.1784 42.3433 43.1346 42.3299 43.0876C42.3165 43.0406 42.313 42.9915 42.3198 42.9432C42.3193 42.8945 42.3296 42.8463 42.3501 42.8018C42.3705 42.7573 42.4006 42.7177 42.4383 42.6855C42.4759 42.6534 42.5203 42.6296 42.5683 42.6157C42.6163 42.6017 42.6669 42.5981 42.7165 42.6049C42.7656 42.6087 42.8135 42.622 42.8573 42.6441C42.901 42.6662 42.9398 42.6966 42.9713 42.7335C43.0027 42.7704 43.0263 42.8131 43.0405 42.859C43.0547 42.9049 43.0593 42.9531 43.054 43.0007Z" fill="#A3D95D"/>
<path d="M48.4679 42.6039C48.4951 42.6407 48.5134 42.6829 48.5214 42.7275C48.5295 42.7721 48.5271 42.8179 48.5144 42.8615C48.5017 42.9051 48.4791 42.9453 48.4482 42.9792C48.4173 43.0131 48.379 43.0398 48.336 43.0573C48.293 43.0748 48.2466 43.0826 48.2001 43.0802C48.1535 43.0778 48.1082 43.0653 48.0674 43.0435C48.0265 43.0217 47.9913 42.9913 47.9642 42.9544C47.9372 42.9175 47.919 42.8752 47.9111 42.8306C47.8872 42.794 47.8718 42.7528 47.8659 42.7098C47.8601 42.6668 47.864 42.6231 47.8773 42.5817C47.8906 42.5403 47.9131 42.5023 47.9432 42.4702C47.9732 42.4382 48.0101 42.4129 48.0512 42.3962C48.0924 42.3794 48.1368 42.3716 48.1814 42.3733C48.2259 42.3749 48.2696 42.3861 48.3093 42.4059C48.349 42.4256 48.3837 42.4536 48.4111 42.4878C48.4385 42.522 48.4579 42.5616 48.4679 42.6039Z" fill="#A3D95D"/>
<path d="M27.373 57.1758L32.4434 57.8524C34.1312 58.0723 35.819 58.3058 37.5103 58.5087C39.2016 58.7117 40.8894 58.935 42.5806 59.1279C44.2719 59.3207 45.9667 59.4966 47.6684 59.6218C45.9597 59.6015 44.258 59.4696 42.5598 59.3207C40.8615 59.1718 39.1668 58.9655 37.4755 58.7591C35.7842 58.5527 34.1034 58.2922 32.4121 58.0317C30.7208 57.7712 29.0469 57.4938 27.373 57.1758Z" fill="#455A64"/>
<path d="M28.082 55.3262L33.0584 55.9656C34.7184 56.1787 36.3749 56.4054 38.0348 56.6016C39.6948 56.7978 41.3513 57.0144 43.0112 57.2004C44.6712 57.3865 46.3346 57.5591 48.005 57.6842C46.3312 57.6639 44.6573 57.5388 42.9904 57.3933C41.3234 57.2478 39.66 57.055 38 56.852C36.3401 56.649 34.6836 56.4122 33.0306 56.1584C31.3776 55.9047 29.7246 55.6273 28.082 55.3262Z" fill="#455A64"/>
<path d="M29.3494 55.5234C29.205 55.8111 29.0885 56.1113 29.0014 56.42C28.9571 56.5721 28.9234 56.7269 28.9005 56.8835C28.8727 57.0391 28.8727 57.1981 28.8553 57.3639C28.7447 57.0445 28.7362 56.7001 28.8309 56.376C28.9187 56.0504 29.0983 55.7551 29.3494 55.5234Z" fill="#455A64"/>
<path d="M29.7952 55.5586C29.6524 55.8469 29.5359 56.1469 29.4472 56.4551C29.4057 56.6077 29.3732 56.7625 29.3497 56.9186C29.3219 57.0743 29.3184 57.2333 29.3045 57.399C29.1939 57.0797 29.1854 56.7353 29.2801 56.4112C29.3669 56.0859 29.5453 55.7907 29.7952 55.5586Z" fill="#455A64"/>
<path d="M35.1155 56.3438C34.9741 56.6338 34.8577 56.9349 34.7675 57.2437C34.7244 57.3947 34.6918 57.5484 34.6701 57.7038C34.6422 57.8628 34.6387 58.0218 34.6248 58.1876C34.5142 57.8682 34.5057 57.5238 34.6005 57.1997C34.6854 56.8728 34.864 56.576 35.1155 56.3438Z" fill="#455A64"/>
<path d="M35.5621 56.3789C35.4182 56.668 35.3018 56.9692 35.2141 57.2788C35.171 57.4299 35.1384 57.5836 35.1167 57.7389C35.0888 57.8979 35.0854 58.057 35.0714 58.2227C34.9591 57.9037 34.9506 57.5587 35.0471 57.2348C35.1329 56.9083 35.3114 56.6117 35.5621 56.3789Z" fill="#455A64"/>
<path d="M41.0176 59.0572C41.159 58.7683 41.2754 58.4684 41.3656 58.1607C41.4084 58.0084 41.4409 57.8536 41.463 57.6972C41.4909 57.5416 41.4943 57.3826 41.5083 57.2168C41.6191 57.5361 41.6275 57.8806 41.5326 58.2047C41.4448 58.5295 41.2666 58.8245 41.0176 59.0572Z" fill="#455A64"/>
<path d="M40.5723 59.0118C40.7146 58.7232 40.831 58.4233 40.9203 58.1153C40.9631 57.963 40.9956 57.8082 41.0177 57.6518C41.0455 57.4961 41.049 57.3371 41.0629 57.168C41.1753 57.4882 41.1839 57.8342 41.0873 58.1592C41.0023 58.4852 40.8236 58.7808 40.5723 59.0118Z" fill="#455A64"/>
<path d="M45.4512 59.4024C45.5935 59.1139 45.71 58.8139 45.7992 58.5059C45.842 58.3536 45.8745 58.1988 45.8966 58.0424C45.9245 57.8868 45.9279 57.7278 45.9419 57.5586C46.0543 57.8788 46.0628 58.2248 45.9662 58.5499C45.8812 58.8758 45.7025 59.1715 45.4512 59.4024Z" fill="#455A64"/>
<path d="M45.0059 59.369C45.1503 59.0801 45.2668 58.7789 45.3539 58.469C45.397 58.318 45.4296 58.1643 45.4513 58.0089C45.4791 57.8499 45.4826 57.6909 45.4965 57.5251C45.6089 57.8442 45.6174 58.1891 45.5209 58.513C45.4366 58.8402 45.2579 59.1372 45.0059 59.369Z" fill="#455A64"/>
<path d="M42.4059 51.8714C43.485 52.0213 44.5491 52.2601 45.5866 52.5853C46.1016 52.7544 46.6062 52.9507 47.1073 53.157C47.3579 53.2585 47.6119 53.3533 47.8625 53.4446C48.1237 53.5501 48.3991 53.6184 48.6803 53.6476C48.7047 53.6476 48.7012 53.6916 48.6803 53.6916C48.4162 53.6973 48.152 53.6826 47.8903 53.6476C47.636 53.6059 47.3858 53.5437 47.1421 53.4615C46.6201 53.2957 46.0981 53.1029 45.5831 52.9304C44.5391 52.5921 43.4951 52.2537 42.4059 51.9831C42.3397 51.9594 42.3537 51.8647 42.4059 51.8714Z" fill="#263238"/>
<path d="M39.7167 52.8545C40.6031 52.7807 41.4935 52.7626 42.3824 52.8004C42.8278 52.8241 43.2698 52.8748 43.7117 52.9391C43.9205 52.9696 44.1328 53.0034 44.3416 53.0406C44.5504 53.0778 44.7975 53.159 45.0376 53.1962C45.062 53.1962 45.0585 53.2436 45.0376 53.2402C44.8184 53.2132 44.5957 53.2233 44.3729 53.2098L43.7117 53.1692C43.2663 53.1387 42.8243 53.1184 42.3824 53.0846C41.495 53.0203 40.6111 52.9662 39.7237 52.9357C39.6715 52.9222 39.6715 52.8579 39.7167 52.8545Z" fill="#263238"/>
<path d="M42.2016 42.254L40.2598 37.4871L40.653 37.2773L42.654 42.2472L42.2016 42.254Z" fill="#263238"/>
<path d="M47.8392 42.169L45.6816 37.9062L46.2141 38.1498L48.2777 42.1623L47.8392 42.169Z" fill="#263238"/>
<path d="M46.6313 24.9385C46.7442 25.0168 46.8267 25.1298 46.8653 25.2593C46.9039 25.3888 46.8964 25.5272 46.8441 25.652C46.7918 25.7769 46.6976 25.8809 46.5769 25.9473C46.4562 26.0137 46.316 26.0385 46.1789 26.0177C46.1963 26.1003 46.1963 26.1855 46.1789 26.2681C46.1379 26.4267 46.0392 26.5655 45.901 26.6588C45.7628 26.7521 45.5945 26.7936 45.4273 26.7756C45.441 26.846 45.441 26.9183 45.4273 26.9887C45.39 27.1437 45.2911 27.2781 45.1522 27.3624C45.0133 27.4467 44.8457 27.4742 44.686 27.4387C44.5488 27.4075 44.4262 27.3324 44.338 27.2255C44.2905 27.3687 44.1894 27.4893 44.0546 27.5633C43.9198 27.6373 43.7614 27.6592 43.6107 27.6247C43.5259 27.6054 43.4463 27.5685 43.3775 27.5165V27.5672C43.3472 27.6905 43.2775 27.8014 43.1786 27.884C43.0796 27.9665 42.9564 28.0166 42.8264 28.0271C42.6964 28.0376 42.5664 28.008 42.4548 27.9424C42.3431 27.8768 42.2557 27.7787 42.2048 27.662C42.1517 27.7719 42.0655 27.8636 41.9576 27.9249C41.8497 27.9861 41.7252 28.014 41.6006 28.0048C41.476 27.9956 41.3572 27.9498 41.26 27.8735C41.1628 27.7972 41.0918 27.6939 41.0564 27.5774C40.9159 27.6401 40.758 27.6556 40.6075 27.6214C40.5193 27.6021 40.4361 27.5654 40.3631 27.5136C40.2901 27.4618 40.2287 27.396 40.1829 27.3203C40.1078 27.367 40.0238 27.3986 39.936 27.4131C39.8481 27.4276 39.7581 27.4248 39.6713 27.4048C39.5294 27.3704 39.4022 27.2933 39.3079 27.1846C39.2136 27.0759 39.1569 26.9411 39.1459 26.7993C39.0666 26.8143 38.985 26.8143 38.9057 26.7993C38.76 26.767 38.6313 26.6844 38.5436 26.5668C38.4559 26.4491 38.4151 26.3045 38.429 26.1598C38.3317 26.1818 38.2305 26.1818 38.1332 26.1598C38.027 26.1377 37.9279 26.0909 37.8444 26.0234C37.7609 25.956 37.6955 25.8698 37.6538 25.7723C37.612 25.6749 37.5952 25.569 37.6048 25.4639C37.6143 25.3587 37.65 25.2574 37.7086 25.1686C37.6728 25.1733 37.6365 25.1733 37.6007 25.1686C37.4415 25.1331 37.3034 25.0376 37.2166 24.9031C37.1298 24.7686 37.1015 24.6061 37.1379 24.4513C37.1643 24.3434 37.2195 24.2442 37.298 24.1638C37.1382 24.1123 37.0039 24.0047 36.9215 23.862C36.8391 23.7193 36.8145 23.5518 36.8525 23.3924C36.8801 23.2717 36.943 23.1613 37.0335 23.0744C36.9324 23.0096 36.851 22.9197 36.7978 22.814C36.7445 22.7083 36.7213 22.5907 36.7305 22.4734C36.7397 22.356 36.7811 22.2432 36.8503 22.1466C36.9195 22.05 37.014 21.9732 37.124 21.9241C37.0748 21.8555 37.0411 21.7776 37.025 21.6955C37.0089 21.6134 37.0107 21.5289 37.0304 21.4475C37.0501 21.3661 37.0872 21.2897 37.1393 21.2231C37.1914 21.1566 37.2573 21.1015 37.3328 21.0614C37.265 20.9834 37.2171 20.8911 37.1929 20.7917C37.1687 20.6924 37.1689 20.5889 37.1936 20.4897C37.2259 20.3529 37.3025 20.2298 37.4122 20.1385C37.5218 20.0471 37.6586 19.9924 37.8026 19.9822C37.7781 19.8878 37.7781 19.789 37.8026 19.6946C37.8365 19.5527 37.9221 19.4275 38.0437 19.3422C38.1653 19.257 38.3145 19.2175 38.4638 19.2311C38.4395 19.139 38.4395 19.0424 38.4638 18.9503C38.4835 18.8657 38.5202 18.7857 38.5719 18.7149C38.6236 18.6442 38.6892 18.5841 38.7649 18.5382C38.8407 18.4922 38.925 18.4613 39.0131 18.4473C39.1012 18.4333 39.1912 18.4364 39.2781 18.4564C39.3291 18.4661 39.3784 18.4832 39.4243 18.5071C39.4269 18.4717 39.4327 18.4367 39.4417 18.4023C39.4862 18.234 39.5956 18.0889 39.7472 17.997C39.8988 17.905 40.081 17.8733 40.256 17.9083C40.3107 17.9203 40.3634 17.9397 40.4126 17.9658C40.4041 17.9041 40.4041 17.8415 40.4126 17.7797C40.4572 17.6108 40.5671 17.4652 40.7195 17.3731C40.8718 17.2811 41.0549 17.2498 41.2304 17.2858C41.3203 17.3052 41.4051 17.3426 41.4794 17.3956C41.5537 17.4486 41.6159 17.5161 41.6619 17.5937C41.7339 17.5272 41.8197 17.4764 41.9136 17.4448C42.0074 17.4132 42.1071 17.4015 42.206 17.4104C42.3049 17.4194 42.4007 17.4489 42.4869 17.4968C42.5731 17.5448 42.6478 17.6101 42.7059 17.6884C42.7619 17.5849 42.848 17.4997 42.9535 17.4434C43.059 17.3872 43.1792 17.3624 43.299 17.3721C43.4189 17.3819 43.5332 17.4257 43.6276 17.4982C43.722 17.5707 43.7924 17.6686 43.8299 17.7797C43.9027 17.7268 43.9865 17.69 44.0755 17.6718C44.1645 17.6537 44.2565 17.6548 44.345 17.6749C44.4706 17.7028 44.5839 17.7685 44.6689 17.8626C44.7539 17.9568 44.8061 18.0746 44.8183 18.1993C44.8954 18.1457 44.9835 18.109 45.0766 18.0915C45.1697 18.074 45.2655 18.0761 45.3577 18.0978C45.5134 18.1319 45.6517 18.2187 45.7479 18.3425C45.8441 18.4664 45.892 18.6194 45.8831 18.7744C45.9832 18.7573 46.086 18.7648 46.1823 18.7962C46.2786 18.8277 46.3652 18.882 46.4344 18.9543C46.5036 19.0266 46.553 19.1145 46.5783 19.2101C46.6036 19.3058 46.6039 19.406 46.5791 19.5018C46.5647 19.5724 46.535 19.6393 46.4921 19.698H46.5339C46.7077 19.7413 46.8575 19.8482 46.9522 19.9963C47.0468 20.1445 47.079 20.3224 47.042 20.493C47.0292 20.5556 47.0044 20.6153 46.9689 20.669C47.0231 20.6605 47.0783 20.6605 47.1325 20.669C47.2513 20.6958 47.3593 20.7563 47.4427 20.8429C47.5262 20.9295 47.5813 21.0382 47.601 21.1553C47.6208 21.2724 47.6043 21.3925 47.5537 21.5005C47.5032 21.6085 47.4207 21.6994 47.3169 21.7617C47.3883 21.823 47.444 21.8997 47.4796 21.9856C47.5151 22.0715 47.5296 22.1643 47.5218 22.2566C47.5141 22.3488 47.4843 22.4381 47.4348 22.5172C47.3853 22.5964 47.3176 22.6632 47.2369 22.7124C47.352 22.7872 47.4416 22.8938 47.4942 23.0184C47.5467 23.143 47.5598 23.28 47.5318 23.4119C47.5037 23.5438 47.4359 23.6645 47.3368 23.7587C47.2378 23.8529 47.1121 23.9162 46.9759 23.9405C47.0519 24.0109 47.1074 24.0997 47.1367 24.1977C47.1661 24.2958 47.1682 24.3996 47.1429 24.4987C47.1118 24.6129 47.0466 24.7156 46.9556 24.7938C46.8645 24.8721 46.7517 24.9224 46.6313 24.9385Z" fill="#263238"/>
<path d="M58.1635 24.5445C58.2759 24.6227 58.3579 24.7354 58.3965 24.8644C58.435 24.9934 58.4278 25.1313 58.376 25.2558C58.3242 25.3804 58.2308 25.4844 58.1108 25.5511C57.9909 25.6178 57.8513 25.6434 57.7146 25.6237C57.7319 25.7074 57.7319 25.7937 57.7146 25.8774C57.6778 26.0381 57.5798 26.1793 57.4405 26.2728C57.3011 26.3663 57.1305 26.4051 56.9629 26.3815C56.9768 26.4519 56.9768 26.5243 56.9629 26.5947C56.9257 26.7497 56.8267 26.8841 56.6878 26.9684C56.5489 27.0527 56.3813 27.0801 56.2217 27.0446C56.0833 27.0161 55.9599 26.9405 55.8737 26.8315C55.8429 26.9227 55.79 27.0055 55.7196 27.0728C55.6492 27.1401 55.5632 27.1901 55.4689 27.2186C55.3745 27.2471 55.2746 27.2532 55.1773 27.2365C55.08 27.2197 54.9883 27.1806 54.9097 27.1224C54.9131 27.1403 54.9131 27.1587 54.9097 27.1766C54.8804 27.3003 54.8114 27.4117 54.7127 27.4948C54.6141 27.5779 54.4908 27.6283 54.3607 27.6388C54.2306 27.6494 54.1004 27.6195 53.9889 27.5534C53.8774 27.4873 53.7904 27.3886 53.7405 27.2713C53.6871 27.3812 53.6006 27.4727 53.4925 27.5337C53.3843 27.5947 53.2597 27.6223 53.135 27.6127C53.0104 27.6032 52.8917 27.557 52.7947 27.4803C52.6977 27.4036 52.627 27.3 52.5921 27.1833C52.452 27.2472 52.294 27.2639 52.1431 27.2307C52.055 27.2112 51.9719 27.1744 51.8989 27.1227C51.8259 27.0709 51.7646 27.0052 51.7186 26.9296C51.5656 27.0208 51.3824 27.0511 51.207 27.0142C51.063 26.9825 50.9336 26.9058 50.8387 26.7958C50.7438 26.6858 50.6886 26.5486 50.6815 26.4052C50.6023 26.4204 50.5207 26.4204 50.4414 26.4052C50.295 26.3729 50.1658 26.2898 50.078 26.1714C49.9902 26.0531 49.9499 25.9076 49.9647 25.7624C49.8664 25.7861 49.7637 25.7861 49.6654 25.7624C49.5783 25.7433 49.496 25.7076 49.4232 25.6573C49.3505 25.6071 49.2887 25.5433 49.2414 25.4696C49.1942 25.396 49.1624 25.314 49.148 25.2284C49.1335 25.1428 49.1367 25.0552 49.1573 24.9707C49.1726 24.8999 49.2009 24.8323 49.2408 24.7711C49.2062 24.7762 49.171 24.7762 49.1364 24.7711C49.0264 24.7498 48.9246 24.6996 48.842 24.6258C48.7594 24.5521 48.6992 24.4578 48.668 24.3531C48.6368 24.2484 48.6357 24.1373 48.6649 24.0321C48.6941 23.9268 48.7525 23.8314 48.8337 23.7562C48.6712 23.704 48.5342 23.5955 48.4488 23.4513C48.3634 23.3072 48.3357 23.1375 48.3708 22.9747C48.4008 22.8558 48.4633 22.7471 48.5518 22.6601C48.4375 22.5837 48.3493 22.476 48.2985 22.3506C48.2477 22.2252 48.2365 22.0879 48.2664 21.9564C48.2892 21.8587 48.335 21.7675 48.4002 21.69C48.4654 21.6125 48.5483 21.5508 48.6423 21.5098C48.5934 21.441 48.5598 21.363 48.5436 21.2809C48.5274 21.1988 48.529 21.1142 48.5483 21.0328C48.568 20.9505 48.6055 20.8733 48.6583 20.8062C48.7111 20.7391 48.778 20.6837 48.8545 20.6437C48.7869 20.5663 48.7388 20.4746 48.7141 20.3759C48.6893 20.2772 48.6885 20.1743 48.7119 20.0753C48.7465 19.9394 48.8237 19.8172 48.9328 19.7257C49.0418 19.6342 49.1774 19.5779 49.3209 19.5645C49.2964 19.4701 49.2964 19.3713 49.3209 19.2769C49.354 19.1355 49.4392 19.0107 49.5603 18.926C49.6814 18.8413 49.8301 18.8024 49.9786 18.8168C49.9579 18.7231 49.9579 18.6263 49.9786 18.5326C50.0231 18.3644 50.1326 18.2193 50.2841 18.1273C50.4357 18.0354 50.6179 18.0036 50.7929 18.0387C50.8452 18.0496 50.8956 18.0678 50.9425 18.0928C50.9391 18.0568 50.9391 18.0205 50.9425 17.9845C50.9871 17.8163 51.0965 17.6712 51.2481 17.5793C51.3997 17.4873 51.5818 17.4556 51.7569 17.4906C51.813 17.5032 51.8669 17.5237 51.9169 17.5515C51.9066 17.4887 51.9066 17.4248 51.9169 17.362C51.9615 17.1931 52.0714 17.0474 52.2238 16.9554C52.3762 16.8634 52.5592 16.8321 52.7347 16.8681C52.8245 16.8879 52.9092 16.9255 52.9834 16.9784C53.0576 17.0314 53.1199 17.0986 53.1663 17.1759C53.247 17.0933 53.3486 17.0326 53.4609 17C53.5733 16.9673 53.6924 16.9639 53.8066 16.9899C53.9759 17.0298 54.1237 17.13 54.2207 17.2707C54.2776 17.1675 54.3644 17.0828 54.4703 17.0271C54.5762 16.9714 54.6966 16.947 54.8165 16.9571C54.9365 16.9672 55.0508 17.0112 55.1453 17.0838C55.2398 17.1564 55.3103 17.2543 55.3482 17.3654C55.435 17.3001 55.5382 17.2586 55.6472 17.2454C55.7561 17.2322 55.8666 17.2476 55.9673 17.2901C56.068 17.3327 56.155 17.4007 56.2194 17.4872C56.2837 17.5736 56.323 17.6753 56.3331 17.7815C56.4103 17.7282 56.4984 17.6916 56.5915 17.6741C56.6845 17.6566 56.7803 17.6586 56.8725 17.68C57.0269 17.7171 57.1636 17.8044 57.2598 17.9275C57.3561 18.0507 57.406 18.2021 57.4014 18.3567C57.5014 18.3396 57.6043 18.3471 57.7005 18.3785C57.7968 18.4099 57.8835 18.4643 57.9527 18.5365C58.0218 18.6088 58.0713 18.6968 58.0966 18.7924C58.1219 18.888 58.1222 18.9883 58.0974 19.0841C58.0821 19.1555 58.0526 19.2233 58.0104 19.2837H58.0487C58.2224 19.3263 58.3725 19.4323 58.4677 19.5798C58.563 19.7272 58.5961 19.9047 58.5603 20.0753C58.5438 20.1379 58.5193 20.1981 58.4872 20.2546C58.5415 20.2481 58.5964 20.2481 58.6507 20.2546C58.7696 20.2815 58.8776 20.342 58.961 20.4286C59.0444 20.5152 59.0995 20.6239 59.1193 20.741C59.139 20.858 59.1226 20.9782 59.072 21.0861C59.0214 21.1941 58.939 21.285 58.8352 21.3474C58.9167 21.4195 58.977 21.5114 59.01 21.6137C59.043 21.7159 59.0475 21.8248 59.0231 21.9293C59.0062 22.0056 58.9738 22.0778 58.9278 22.1417C58.8818 22.2056 58.8231 22.2599 58.7551 22.3014C58.8796 22.3738 58.9777 22.4822 59.0357 22.6113C59.0937 22.7405 59.1088 22.8841 59.0788 23.0221C59.0476 23.1549 58.9745 23.2749 58.8696 23.3653C58.7648 23.4557 58.6335 23.5119 58.4941 23.5261C58.5746 23.6048 58.6311 23.7036 58.6572 23.8117C58.6832 23.9197 58.6779 24.0326 58.6418 24.1379C58.6058 24.2431 58.5403 24.3366 58.4528 24.4078C58.3652 24.479 58.2591 24.5251 58.1461 24.5411L58.1635 24.5445Z" fill="#263238"/>
<path d="M42.1699 37.7257C42.1943 38.1418 43.7046 41.0852 45.6116 41.3186C46.2311 41.393 46.8018 38.1148 46.8018 38.1148L46.8992 37.8847L48.2912 34.6267L44.6546 31.3856L44.1222 30.9492C44.1222 30.9492 43.8055 31.8627 43.4262 33.0062C43.4262 33.0603 43.3914 33.1111 43.374 33.1686C43.3566 33.2261 43.3253 33.2937 43.3079 33.3546C43.2487 33.5238 43.1861 33.693 43.1304 33.8723C43.0747 34.0516 43.0469 34.1328 43.0051 34.2749C42.9634 34.417 42.9216 34.5523 42.8764 34.691C42.5683 35.6853 42.3322 36.6993 42.1699 37.7257Z" fill="#AD6359"/>
<path d="M43.4082 33.0062C43.5898 34.016 43.9951 34.9753 44.596 35.8177C45.1969 36.6601 45.9791 37.3654 46.8882 37.8847L48.2802 34.6267L44.6436 31.3856L44.1112 30.9492C44.1112 30.9492 43.7945 31.8627 43.4082 33.0062Z" fill="#263238"/>
<path d="M54.3217 30.8126C53.4308 36.9361 49.5575 37.1052 48.2003 36.9023C46.9789 36.7432 42.8029 36.0057 43.0326 29.8314C43.2622 23.6572 46.4812 22.1348 49.3209 22.3682C52.1606 22.6016 55.216 24.6924 54.3217 30.8126Z" fill="#AD6359"/>
<path d="M53.3485 29.2954C53.2023 29.2514 53.077 29.1871 52.9378 29.133C52.7862 29.0982 52.6497 29.0177 52.5481 28.9029C52.5253 28.859 52.518 28.809 52.5275 28.7606C52.5369 28.7123 52.5625 28.6684 52.6003 28.6356C52.6837 28.5809 52.7808 28.5491 52.8813 28.5438C52.9818 28.5384 53.0819 28.5596 53.171 28.6052C53.368 28.6662 53.5336 28.7982 53.6338 28.974C53.6515 29.0146 53.6571 29.0593 53.65 29.1029C53.643 29.1465 53.6235 29.1874 53.5938 29.2208C53.5641 29.2542 53.5254 29.2789 53.4821 29.2921C53.4387 29.3053 53.3925 29.3064 53.3485 29.2954Z" fill="#263238"/>
<path d="M48.8963 29.5246C49.0364 29.5723 49.1794 29.6118 49.3243 29.643C49.4678 29.708 49.6299 29.7235 49.7837 29.687C49.8293 29.6662 49.8665 29.6314 49.8898 29.588C49.9131 29.5446 49.921 29.495 49.9124 29.4468C49.8821 29.3534 49.8262 29.2698 49.7509 29.2049C49.6755 29.1399 49.5834 29.0961 49.4844 29.078C49.2907 29.0052 49.0761 29.0052 48.8824 29.078C48.8353 29.0957 48.7951 29.1271 48.7672 29.168C48.7393 29.2088 48.7251 29.2571 48.7267 29.3061C48.7282 29.3551 48.7453 29.4024 48.7757 29.4416C48.8061 29.4807 48.8482 29.5097 48.8963 29.5246Z" fill="#263238"/>
<path d="M49.568 30.2559C49.568 30.2559 49.5297 30.2559 49.5297 30.2897C49.4914 30.7126 49.3696 31.193 48.959 31.3046V31.3283C49.4497 31.2708 49.5993 30.6483 49.568 30.2559Z" fill="#263238"/>
<path d="M49.2372 29.7519C48.5412 29.6166 48.315 30.9732 48.9588 31.1052C49.6026 31.2371 49.8149 29.8669 49.2372 29.7519Z" fill="#263238"/>
<path d="M48.9481 29.7811C48.8159 29.8386 48.6732 29.9536 48.5236 29.9435C48.3739 29.9333 48.2452 29.7709 48.1582 29.6052C48.1582 29.5883 48.1338 29.6052 48.1303 29.6052C48.0851 29.8657 48.1303 30.1465 48.4226 30.2311C48.715 30.3156 48.9029 30.1093 49.0142 29.8589C49.0351 29.8352 49.0038 29.7574 48.9481 29.7811Z" fill="#263238"/>
<path d="M52.199 30.6348C52.199 30.6348 52.2303 30.6618 52.2268 30.6787C52.1259 31.0915 52.0807 31.582 52.4391 31.7986C52.4391 31.7986 52.4391 31.8256 52.4391 31.8223C51.9623 31.6632 52.025 31.0103 52.199 30.6348Z" fill="#263238"/>
<path d="M52.6658 30.2762C53.3618 30.3608 53.1391 31.7174 52.4883 31.6294C51.8376 31.5415 52.0777 30.2051 52.6658 30.2762Z" fill="#263238"/>
<path d="M52.9407 30.4092C53.0381 30.4971 53.1251 30.646 53.2574 30.6764C53.3896 30.7069 53.5427 30.5817 53.6645 30.4565C53.6645 30.4565 53.6854 30.4565 53.6854 30.4734C53.6471 30.7339 53.5149 30.9877 53.2504 30.9978C52.9859 31.008 52.8746 30.7576 52.8537 30.4904C52.8502 30.4396 52.8955 30.3719 52.9407 30.4092Z" fill="#263238"/>
<path d="M48.8206 33.3955C48.8902 33.5207 48.9494 33.6831 49.0955 33.7338C49.2527 33.7772 49.4173 33.7887 49.5793 33.7676C49.5793 33.7676 49.6001 33.7676 49.5793 33.7913C49.494 33.8535 49.3932 33.8922 49.2873 33.9035C49.1814 33.9148 49.0743 33.8983 48.9772 33.8556C48.899 33.8078 48.8368 33.7387 48.7985 33.657C48.7602 33.5752 48.7473 33.4843 48.7615 33.3955C48.7754 33.3786 48.8102 33.3786 48.8206 33.3955Z" fill="#263238"/>
<path d="M50.9743 32.597C50.9743 32.597 50.9047 33.2365 50.8317 33.5274C50.8317 33.5545 50.7481 33.5511 50.6472 33.5274C50.3789 33.5124 50.1202 33.4254 49.8997 33.2761C49.6791 33.1268 49.5055 32.921 49.3979 32.6816C49.3958 32.6751 49.396 32.6681 49.3985 32.6617C49.401 32.6553 49.4057 32.65 49.4117 32.6464C49.4177 32.6429 49.4248 32.6415 49.4317 32.6423C49.4387 32.6432 49.4452 32.6463 49.4501 32.6512C49.7676 32.9985 50.1927 33.2359 50.6611 33.3278C50.6994 33.2534 50.7412 32.2317 50.7864 32.2384C51.0144 32.3151 51.2309 32.4209 51.4302 32.5531C51.6112 31.2269 51.5764 29.8837 51.7782 28.5677C51.7782 28.5569 51.7826 28.5466 51.7905 28.539C51.7983 28.5314 51.8089 28.5271 51.82 28.5271C51.8311 28.5271 51.8417 28.5314 51.8495 28.539C51.8573 28.5466 51.8617 28.5569 51.8617 28.5677C51.9458 30.0058 51.8829 31.4485 51.6738 32.8745C51.6425 33.0436 51.0822 32.6749 50.9743 32.597Z" fill="#263238"/>
<path d="M51.2218 24.3223C51.2356 24.8752 51.0793 25.4194 50.7729 25.8854C49.7846 27.0932 48.1803 26.359 47.4773 26.7684C46.7744 27.1777 46.7605 28.24 46.1515 28.6359C45.3093 29.1839 44.9683 28.5784 44.7595 29.0249C44.5507 29.4715 43.8616 30.8958 43.2004 30.95C42.5392 31.0041 42.0485 20.2355 50.0351 22.3466C50.0351 22.3466 51.3019 22.2823 52.7739 23.5544C54.8619 25.3677 54.5487 28.5411 54.5487 28.5411C54.2819 28.4226 54.0445 28.2495 53.8527 28.0337C53.543 27.6142 53.4107 27.3198 53.1741 27.0424C52.8087 26.6026 52.4781 26.7819 52.0883 26.3455C51.5037 25.6858 51.2218 24.3223 51.2218 24.3223Z" fill="#263238"/>
<path d="M51.2286 23.9727C51.2613 24.3904 51.245 24.8103 51.1799 25.2244C51.1391 25.6322 50.9851 26.0216 50.7345 26.351C50.4431 26.6375 50.055 26.8117 49.6418 26.8416C49.2276 26.8957 48.7961 26.8416 48.3437 26.9059C48.1114 26.9413 47.8929 27.0358 47.7104 27.1799C47.5477 27.3383 47.4178 27.5255 47.3276 27.7313C47.1936 28.1157 46.9527 28.4565 46.6316 28.7158C46.461 28.8305 46.2669 28.9078 46.0626 28.9422C45.8582 28.9767 45.6487 28.9676 45.4484 28.9155C45.0412 28.8241 44.6201 28.6144 44.1816 28.6989C44.6271 28.6482 45.0064 28.8816 45.424 29.0102C45.6394 29.0754 45.8669 29.094 46.0905 29.0648C46.3141 29.0356 46.5285 28.9592 46.7186 28.841C47.0757 28.5841 47.3479 28.2313 47.5016 27.8261C47.584 27.6433 47.7022 27.4778 47.8496 27.3389C48.0059 27.22 48.1922 27.1441 48.389 27.119C48.7926 27.0513 49.2311 27.0987 49.6731 27.0378C49.8968 27.0115 50.1151 26.9522 50.3204 26.8619C50.533 26.7754 50.7198 26.6381 50.8632 26.4627C51.1164 26.1045 51.2633 25.6854 51.2878 25.2515C51.3202 24.8244 51.3003 24.3952 51.2286 23.9727Z" fill="#263238"/>
<path d="M51.2976 24.365C51.2904 24.7537 51.336 25.1416 51.4333 25.5186C51.5229 25.9173 51.7339 26.2804 52.0388 26.5607C52.1945 26.6901 52.3636 26.8035 52.5435 26.899C52.701 26.9901 52.8288 27.1226 52.9123 27.2813C52.975 27.4691 53.0566 27.6504 53.1559 27.8226C53.2682 27.9867 53.4168 28.1242 53.5909 28.2252C53.4451 28.0981 53.3267 27.944 53.2429 27.7718C53.164 27.5966 53.1034 27.4141 53.062 27.2271C52.9804 27.029 52.8368 26.8609 52.6513 26.7467C52.4821 26.6484 52.3225 26.5352 52.1746 26.4084C51.9001 26.1474 51.6988 25.8225 51.5899 25.4645C51.4677 25.1047 51.3701 24.7374 51.2976 24.365Z" fill="#263238"/>
<path d="M44.4327 30.1234C44.4327 30.1234 43.5279 27.9379 42.5396 28.2085C41.5513 28.4792 41.9167 31.4327 42.8598 32.0383C42.9749 32.124 43.1068 32.1863 43.2473 32.2212C43.3879 32.2561 43.5342 32.2631 43.6776 32.2416C43.821 32.2201 43.9584 32.1706 44.0816 32.0961C44.2048 32.0217 44.3112 31.9237 44.3945 31.8082L44.4327 30.1234Z" fill="#AD6359"/>
<path d="M42.6632 29.0547C42.6632 29.0547 42.6388 29.0547 42.6632 29.0784C43.3174 29.5249 43.5436 30.2625 43.648 30.9966C43.6214 30.918 43.5778 30.8458 43.52 30.7849C43.4622 30.7241 43.3917 30.676 43.3132 30.6439C43.2347 30.6119 43.15 30.5966 43.0649 30.599C42.9798 30.6015 42.8962 30.6217 42.8198 30.6583C42.8153 30.6601 42.8114 30.6631 42.8086 30.667C42.8059 30.6709 42.8045 30.6756 42.8045 30.6803C42.8045 30.685 42.8059 30.6897 42.8086 30.6936C42.8114 30.6975 42.8153 30.7005 42.8198 30.7023C42.9563 30.6909 43.0932 30.7214 43.2111 30.7893C43.329 30.8572 43.4221 30.9593 43.4775 31.0812C43.5688 31.2844 43.6376 31.4965 43.6828 31.7139C43.7037 31.7849 43.829 31.7781 43.8185 31.7139V31.6936C44.0482 30.7801 43.6306 29.3659 42.6632 29.0547Z" fill="#263238"/>
<path d="M58.7046 57.2583L72.1406 50.1543L64.8333 37.0921L51.3972 44.1961L58.7046 57.2583Z" fill="#A3D95D"/>
<path d="M66.0073 70.3227L79.4434 63.2188L72.136 50.1566L58.7 57.2606L66.0073 70.3227Z" fill="#A3D95D"/>
<path d="M72.1421 50.1567L85.5781 43.0527L78.2708 29.9906L64.8347 37.0946L72.1421 50.1567Z" fill="#A3D95D"/>
<path d="M45.2671 64.3638L58.7031 57.2598L51.3958 44.1976L37.9597 51.3016L45.2671 64.3638Z" fill="#A3D95D"/>
<path d="M85.5752 43.0577L92.3926 39.4531L85.0852 26.391L78.2679 29.9955L85.5752 43.0577Z" fill="#A3D95D"/>
<path opacity="0.1" d="M85.5752 43.0577L92.3926 39.4531L85.0852 26.391L78.2679 29.9955L85.5752 43.0577Z" fill="black"/>
<path d="M79.4424 63.2178L86.2598 59.6133L78.9524 46.5511L72.135 50.1556L79.4424 63.2178Z" fill="#A3D95D"/>
<path opacity="0.1" d="M79.4424 63.2178L86.2598 59.6133L78.9524 46.5511L72.135 50.1556L79.4424 63.2178Z" fill="black"/>
<path opacity="0.1" d="M58.7103 57.2668C58.0143 56.2113 57.3949 55.1422 56.7581 54.0663C56.1212 52.9905 55.5087 51.9079 54.8928 50.8185C54.2768 49.7291 53.6852 48.6397 53.1041 47.5335L52.2375 45.8791C51.9591 45.3209 51.6703 44.766 51.4023 44.1875C51.7503 44.7119 52.0635 45.2464 52.3941 45.7776L53.3546 47.388C53.9915 48.4604 54.6039 49.5464 55.2164 50.6324C55.8289 51.7184 56.4275 52.8146 57.0051 53.9175C57.5828 55.0204 58.1675 56.1436 58.7103 57.2668Z" fill="black"/>
<path opacity="0.1" d="M72.1459 50.1633C71.4673 49.1111 70.8305 48.0387 70.1936 46.9628C69.5568 45.887 68.9443 44.8044 68.3283 43.7184C67.7124 42.6324 67.1208 41.5362 66.5396 40.4333L65.6731 38.7756C65.3947 38.2173 65.1059 37.6659 64.8379 37.084C65.1859 37.6084 65.4991 38.1463 65.8297 38.6741L66.7902 40.2845C67.427 41.3569 68.0395 42.4429 68.652 43.5289C69.2644 44.6149 69.863 45.711 70.4407 46.8173C71.0184 47.9236 71.603 49.0401 72.1459 50.1633Z" fill="black"/>
<path opacity="0.1" d="M58.7031 57.2516C59.7854 56.5953 60.8886 55.9728 61.9952 55.3571C63.1018 54.7413 64.2154 54.1391 65.3325 53.5437C66.4496 52.9483 67.5771 52.3697 68.7116 51.8048L70.4168 50.9624C70.991 50.6917 71.5582 50.4109 72.1568 50.1504C71.6174 50.4887 71.0641 50.7932 70.5212 51.1146L68.8647 52.045C67.7616 52.6675 66.6445 53.2629 65.5274 53.8583C64.4103 54.4538 63.2828 55.0357 62.1448 55.5973C61.0069 56.1589 59.855 56.7273 58.7031 57.2516Z" fill="black"/>
<path d="M37.2011 40.1343C33.4358 44.2686 24.44 59.8176 27.4919 62.5309C30.5439 65.2441 47.0356 61.0592 51.6327 58.7789C53.0003 58.1023 47.5054 49.8406 45.8733 49.685C44.5126 49.5564 37.664 52.8212 37.4552 52.4389C37.2151 52.0058 38.2277 48.7411 39.7346 42.8442C41.4885 36.0441 38.8646 38.3074 37.2011 40.1343Z" fill="#AD6359"/>
<path d="M43.8477 50.1794C43.8477 50.1794 47.5747 48.0379 51.093 47.1143C53.529 46.4748 58.9752 45.6629 64.3483 50.7715C65.6255 51.9826 66.5581 54.591 63.7359 53.346C61.7314 52.463 60.7326 51.3161 59.4729 51.0049C59.4729 51.0049 60.2524 54.4557 58.9543 55.65C57.8192 56.6947 56.6085 57.6592 55.3317 58.5358C55.1134 58.3456 54.9077 58.1422 54.7157 57.9268C54.7157 57.9268 53.3933 58.9418 50.8494 58.7625L43.8477 50.1794Z" fill="#AD6359"/>
<path d="M53.501 46.8652C54.6877 47.4302 57.1829 48.6651 58.8637 50.3634C60.7255 52.2512 63.7949 56.3753 62.3437 57.6981C61.2997 58.6691 59.9704 57.194 59.9704 57.194C59.9704 57.194 60.8682 59.1596 59.7128 59.8329C58.6688 60.4452 57.7118 59.2476 57.7118 59.2476C57.7118 59.2476 58.0598 60.5298 56.9149 60.9392C55.5542 61.423 55.0775 58.6555 53.2644 57.9857C52.8607 57.8233 53.501 46.8652 53.501 46.8652Z" fill="#AD6359"/>
<path d="M56.4822 51.9465C58.1676 53.2919 59.3912 55.1046 59.9901 57.1431C59.9901 57.1972 59.9692 57.2344 59.9448 57.187C59.0086 55.3142 57.8399 53.56 56.4648 51.9634C56.4648 51.9634 56.4683 51.9398 56.4822 51.9465Z" fill="#263238"/>
<path d="M54.576 53.8314C55.3973 54.5317 57.2591 56.8763 57.7602 59.2242C57.7602 59.2749 57.7358 59.3121 57.715 59.2648C56.8751 57.351 55.8163 55.5352 54.5586 53.8517C54.5586 53.8517 54.5656 53.8246 54.576 53.8314Z" fill="#263238"/>
<path d="M59.4628 50.9827C60.5694 51.2703 61.2967 51.7743 62.2468 52.3765C62.7091 52.6804 63.189 52.9583 63.684 53.2088C64.1364 53.4321 64.8081 53.7704 65.2744 53.3915C65.3814 53.274 65.4543 53.1308 65.4855 52.9768C65.5167 52.8228 65.5051 52.6635 65.4519 52.5153C65.3058 52.0859 65.0909 51.6817 64.815 51.3176C64.815 51.3176 64.815 51.2838 64.8394 51.2973C65.1085 51.6283 65.3417 51.9854 65.5354 52.363C65.6601 52.6213 65.7025 52.91 65.6572 53.1919C65.511 53.7839 64.8011 53.8685 64.2895 53.7298C63.986 53.631 63.6934 53.503 63.4161 53.3475C63.1446 53.2054 62.8836 53.0532 62.6226 52.8908C62.0937 52.5525 61.5786 52.2142 61.0531 51.8758C60.5412 51.5598 60.0088 51.2762 59.4593 51.0267C59.4245 51.0097 59.4419 50.9793 59.4628 50.9827Z" fill="#263238"/>
<path d="M61.8637 54.6759C61.1322 53.4047 60.3185 52.1798 59.4277 51.0086L59.4486 50.9883C60.3256 51.7529 61.7559 53.8132 62.0969 54.4729C62.4955 55.1614 62.7476 55.9207 62.8381 56.7058C62.8695 57.8223 62.1143 58.0591 61.8359 58.1132C61.5032 58.1796 61.1572 58.1343 60.8545 57.9847C60.5011 57.7856 60.1932 57.5185 59.9497 57.1998C59.9497 57.1828 59.9497 57.1626 59.9706 57.1761C60.3813 57.6057 61.0529 58.0219 61.6723 57.9271C61.8093 57.9097 61.9413 57.8661 62.0608 57.7987C62.1803 57.7314 62.2848 57.6416 62.3683 57.5347C62.532 57.2634 62.5888 56.9437 62.5284 56.6348C62.4207 55.9504 62.196 55.2883 61.8637 54.6759Z" fill="#263238"/>
<path d="M43.8466 50.1814L49.4529 60.8993C49.4529 60.8993 28.813 65.974 26.9268 62.5029C25.0407 59.0317 32.7106 45.0728 36.2393 40.9758C40.3213 36.2394 40.9025 37.7889 40.0882 41.9265C39.2356 46.2603 37.5304 52.5361 37.5304 52.5361L43.8466 50.1814Z" fill="#455A64"/>
<path d="M43.7947 50.1108C43.6868 50.1412 37.8961 52.1711 37.7047 52.2726C37.729 52.1779 39.0967 47.12 39.2359 46.6227L39.2776 46.4739C39.3785 46.254 39.4829 46.0341 39.5769 45.7972C39.6987 45.5063 39.817 45.2153 39.9249 44.9244L39.5317 45.7769C39.4725 45.9089 39.4168 46.0408 39.3611 46.1761C39.4586 45.8378 39.5491 45.4758 39.6395 45.124C39.7822 44.5624 39.911 44.0008 40.0363 43.4324C40.0363 43.4324 40.0154 43.4087 40.0119 43.4324C39.7231 44.4203 39.4029 45.3946 39.1141 46.3791C38.8252 47.3636 37.3114 52.6752 37.3184 52.6718C37.3253 52.6684 43.7007 50.2562 43.826 50.1987C43.8712 50.1717 43.8469 50.0938 43.7947 50.1108Z" fill="#263238"/>
<path d="M44.3546 57.2239C43.7387 56.0263 43.1297 54.8253 42.4685 53.6513C42.0926 52.9747 41.7168 52.2981 41.334 51.6519C41.3301 51.6476 41.3249 51.6445 41.3192 51.6433C41.3135 51.642 41.3074 51.6425 41.302 51.6448C41.2966 51.647 41.2921 51.6509 41.2891 51.6558C41.2861 51.6607 41.2847 51.6665 41.2853 51.6722C41.856 52.8969 42.4337 54.125 43.0601 55.3226C43.6865 56.5202 44.3024 57.7145 44.9428 58.8986C45.2908 59.5752 45.691 60.2519 46.0981 60.8879C46.0981 60.8879 46.1294 60.8879 46.1225 60.8879C45.5866 59.6294 44.9776 58.4284 44.3546 57.2239Z" fill="#263238"/>
<path d="M144.941 34.145C141.538 40.4478 136.697 40.0317 135.27 41.5169C134.463 42.4895 133.714 43.5061 133.026 44.5617L125.933 41.9127C126.151 40.6814 126.294 39.4388 126.361 38.1912C126.334 36.1613 122.446 33.3127 124.273 26.4178C125.467 21.8878 131.529 16.2954 139.036 19.1001C146.542 21.9047 147.175 30.0006 144.941 34.145Z" fill="#A3D95D"/>
<path d="M129.635 31.2467L127.398 43L127.741 43.0615L129.977 31.3082L129.635 31.2467Z" fill="white"/>
<path d="M137.352 34.067L130.904 44.2441L131.201 44.4216L137.648 34.2444L137.352 34.067Z" fill="white"/>
<path d="M132.63 36.4183C132.485 36.4202 132.34 36.395 132.205 36.3439C131.565 36.1037 131.206 35.3053 131.085 34.4087C130.976 34.4758 130.854 34.5196 130.727 34.5371C130.6 34.5546 130.47 34.5454 130.347 34.5102C129.303 34.1144 129.707 31.8342 129.724 31.7394L129.894 31.7699C129.894 31.7902 129.487 34.0061 130.409 34.3512C130.521 34.3782 130.637 34.3813 130.75 34.3603C130.863 34.3393 130.97 34.2946 131.064 34.2294C130.982 33.5046 131.065 32.7713 131.307 32.0811C131.54 31.4891 131.906 31.2387 132.303 31.3842C132.42 31.4259 132.523 31.4976 132.602 31.5916C132.681 31.6857 132.733 31.7987 132.752 31.9187C132.859 32.5751 132.184 33.6103 131.488 34.1482C131.412 34.209 131.331 34.2655 131.248 34.3174C131.353 35.1835 131.676 35.965 132.268 36.1883C132.71 36.3541 133.291 36.1883 133.9 35.7011L134.053 35.5759C133.997 35.4351 133.958 35.2888 133.935 35.1395C133.789 34.2362 134.13 33.1096 134.683 32.6732C134.776 32.592 134.889 32.5366 135.012 32.5128C135.134 32.489 135.261 32.4976 135.379 32.5379C135.47 32.571 135.549 32.6276 135.609 32.7015C135.67 32.7754 135.708 32.8639 135.72 32.9574C135.824 33.6035 135.153 34.8046 134.262 35.6131C134.382 35.8702 134.6 36.0716 134.871 36.1747C135.525 36.4183 136.698 35.1226 137.098 34.6016L137.237 34.7031C137.175 34.7843 135.716 36.6755 134.801 36.3338C134.499 36.2243 134.251 36.008 134.105 35.7282C134.067 35.762 134.029 35.7958 133.987 35.8263C133.612 36.1614 133.136 36.3691 132.63 36.4183ZM135.153 32.663C135.024 32.6712 134.901 32.7212 134.805 32.8051C134.307 33.1976 133.983 34.2768 134.109 35.1124C134.127 35.2275 134.157 35.3407 134.196 35.4508C135.014 34.6862 135.647 33.5697 135.553 32.9912C135.548 32.9262 135.525 32.8638 135.485 32.8116C135.444 32.7594 135.39 32.7195 135.327 32.6969C135.271 32.6755 135.212 32.6641 135.153 32.663ZM132.083 31.5128C131.77 31.5128 131.568 31.8917 131.471 32.142C131.25 32.7794 131.168 33.4547 131.231 34.1246L131.38 34.0163C132.024 33.5088 132.675 32.5345 132.581 31.9458C132.567 31.8538 132.528 31.7673 132.466 31.6961C132.405 31.625 132.324 31.572 132.233 31.5432C132.185 31.5248 132.135 31.5145 132.083 31.5128Z" fill="white"/>
<path d="M133.969 44.5749L125.219 41.3027L124.56 42.9668L133.31 46.239L133.969 44.5749Z" fill="#263238"/>
<path d="M133.201 46.5066L124.451 43.2344L123.793 44.8984L132.543 48.1706L133.201 46.5066Z" fill="#263238"/>
<path d="M132.441 48.4402L123.691 45.168L123.033 46.832L131.783 50.1042L132.441 48.4402Z" fill="#263238"/>
<path d="M136.687 15.6711C136.623 15.1791 136.623 14.6812 136.687 14.1893C136.738 13.6962 136.855 13.2117 137.035 12.748C137.099 13.24 137.099 13.7379 137.035 14.2299C136.982 14.7227 136.865 15.207 136.687 15.6711Z" fill="#263238"/>
<path d="M129.577 16.6446C129.267 16.2498 129.011 15.8177 128.815 15.359C128.604 14.9076 128.455 14.4309 128.373 13.9414C128.984 14.7411 129.396 15.6675 129.577 16.6479V16.6446Z" fill="#263238"/>
<path d="M123.915 20.9355C123.444 20.7449 123.001 20.4958 122.596 20.1946C122.181 19.9053 121.806 19.564 121.482 19.1797C121.954 19.3701 122.399 19.6192 122.805 19.9206C123.218 20.2119 123.591 20.5529 123.915 20.9355Z" fill="#263238"/>
<path d="M121.225 27.4071C120.208 27.5191 119.179 27.4034 118.215 27.0688C119.232 26.9568 120.261 27.0725 121.225 27.4071Z" fill="#263238"/>
<path d="M122.22 34.3105C121.395 34.9021 120.443 35.3035 119.436 35.4845C119.842 35.1831 120.286 34.934 120.758 34.7436C121.224 34.5399 121.716 34.3944 122.22 34.3105Z" fill="#263238"/>
<path d="M146.064 37.1777C147.005 37.5713 147.838 38.1711 148.5 38.9302C148.029 38.7405 147.586 38.4914 147.182 38.1893C146.766 37.9003 146.39 37.5603 146.064 37.1777Z" fill="#263238"/>
<path d="M148.76 30.7055C149.777 30.5935 150.806 30.7092 151.77 31.0438C150.753 31.1558 149.723 31.0401 148.76 30.7055Z" fill="#263238"/>
<path d="M147.764 23.7951C148.587 23.2023 149.54 22.8007 150.548 22.6211C150.143 22.9223 149.699 23.1713 149.229 23.362C148.761 23.5655 148.269 23.711 147.764 23.7951Z" fill="#263238"/>
<path d="M143.344 18.2906C143.54 17.8332 143.796 17.4023 144.106 17.0084C144.404 16.6047 144.755 16.2407 145.15 15.9258C144.953 16.3839 144.696 16.815 144.384 17.208C144.088 17.6116 143.738 17.9756 143.344 18.2906Z" fill="#263238"/>
</svg>
