<svg width="150" height="20" viewBox="0 0 173 26" fill="none" xmlns="http://www.w3.org/2000/svg">
<g clip-path="url(#clip0_41_41)">
<path d="M159.845 0.9C159.58 0.35 159.02 0 158.405 0C157.79 0 157.235 0.35 156.965 0.9L153.75 7.515L146.57 8.575C145.97 8.665 145.47 9.085 145.285 9.66C145.1 10.235 145.25 10.87 145.68 11.295L150.89 16.45L149.66 23.735C149.56 24.335 149.81 24.945 150.305 25.3C150.8 25.655 151.455 25.7 151.995 25.415L158.41 21.99L164.825 25.415C165.365 25.7 166.02 25.66 166.515 25.3C167.01 24.94 167.26 24.335 167.16 23.735L165.925 16.45L171.135 11.295C171.565 10.87 171.72 10.235 171.53 9.66C171.34 9.085 170.845 8.665 170.245 8.575L163.06 7.515L159.845 0.9Z" fill="#C3F089"/>
</g>
<g clip-path="url(#clip1_41_41)">
<path d="M123.845 0.9C123.58 0.35 123.02 0 122.405 0C121.79 0 121.235 0.35 120.965 0.9L117.75 7.515L110.57 8.575C109.97 8.665 109.47 9.085 109.285 9.66C109.1 10.235 109.25 10.87 109.68 11.295L114.89 16.45L113.66 23.735C113.56 24.335 113.81 24.945 114.305 25.3C114.8 25.655 115.455 25.7 115.995 25.415L122.41 21.99L128.825 25.415C129.365 25.7 130.02 25.66 130.515 25.3C131.01 24.94 131.26 24.335 131.16 23.735L129.925 16.45L135.135 11.295C135.565 10.87 135.72 10.235 135.53 9.66C135.34 9.085 134.845 8.665 134.245 8.575L127.06 7.515L123.845 0.9Z" fill="#C3F089"/>
</g>
<g clip-path="url(#clip2_41_41)">
<path d="M87.8449 0.9C87.5799 0.35 87.0199 0 86.4049 0C85.7899 0 85.2349 0.35 84.9649 0.9L81.7499 7.515L74.5699 8.575C73.9699 8.665 73.4699 9.085 73.2849 9.66C73.0999 10.235 73.2499 10.87 73.6799 11.295L78.8899 16.45L77.6599 23.735C77.5599 24.335 77.8099 24.945 78.3049 25.3C78.7999 25.655 79.4549 25.7 79.9949 25.415L86.4099 21.99L92.8249 25.415C93.3649 25.7 94.0199 25.66 94.5149 25.3C95.0099 24.94 95.2599 24.335 95.1599 23.735L93.9249 16.45L99.1349 11.295C99.5649 10.87 99.7199 10.235 99.5299 9.66C99.3399 9.085 98.8449 8.665 98.2449 8.575L91.0599 7.515L87.8449 0.9Z" fill="#C3F089"/>
</g>
<g clip-path="url(#clip3_41_41)">
<path d="M51.8449 0.9C51.5799 0.35 51.0199 0 50.4049 0C49.7899 0 49.2349 0.35 48.9649 0.9L45.7499 7.515L38.5699 8.575C37.9699 8.665 37.4699 9.085 37.2849 9.66C37.0999 10.235 37.2499 10.87 37.6799 11.295L42.8899 16.45L41.6599 23.735C41.5599 24.335 41.8099 24.945 42.3049 25.3C42.7999 25.655 43.4549 25.7 43.9949 25.415L50.4099 21.99L56.8249 25.415C57.3649 25.7 58.0199 25.66 58.5149 25.3C59.0099 24.94 59.2599 24.335 59.1599 23.735L57.9249 16.45L63.1349 11.295C63.5649 10.87 63.7199 10.235 63.5299 9.66C63.3399 9.085 62.8449 8.665 62.2449 8.575L55.0599 7.515L51.8449 0.9Z" fill="#C3F089"/>
</g>
<g clip-path="url(#clip4_41_41)">
<path d="M15.8449 0.9C15.5799 0.35 15.0199 0 14.4049 0C13.7899 0 13.2349 0.35 12.9649 0.9L9.74985 7.515L2.56985 8.575C1.96985 8.665 1.46985 9.085 1.28485 9.66C1.09985 10.235 1.24985 10.87 1.67985 11.295L6.88985 16.45L5.65985 23.735C5.55985 24.335 5.80985 24.945 6.30485 25.3C6.79985 25.655 7.45485 25.7 7.99485 25.415L14.4099 21.99L20.8249 25.415C21.3649 25.7 22.0199 25.66 22.5149 25.3C23.0099 24.94 23.2599 24.335 23.1599 23.735L21.9249 16.45L27.1349 11.295C27.5649 10.87 27.7199 10.235 27.5299 9.66C27.3399 9.085 26.8449 8.665 26.2449 8.575L19.0599 7.515L15.8449 0.9Z" fill="#C3F089"/>
</g>
<defs>
<clipPath id="clip0_41_41">
<rect width="28.8" height="25.6" fill="white" transform="translate(144)"/>
</clipPath>
<clipPath id="clip1_41_41">
<rect width="28.8" height="25.6" fill="white" transform="translate(108)"/>
</clipPath>
<clipPath id="clip2_41_41">
<rect width="28.8" height="25.6" fill="white" transform="translate(72)"/>
</clipPath>
<clipPath id="clip3_41_41">
<rect width="28.8" height="25.6" fill="white" transform="translate(36)"/>
</clipPath>
<clipPath id="clip4_41_41">
<rect width="28.8" height="25.6" fill="white"/>
</clipPath>
</defs>
</svg>
