<svg width="16" height="17" viewBox="0 0 16 17" fill="none" xmlns="http://www.w3.org/2000/svg">
<path d="M10.0007 13.3219C10.5693 13.4824 11.1585 13.5636 11.7507 13.563C12.7029 13.5644 13.6428 13.3533 14.498 12.946C14.5233 12.3651 14.3531 11.792 14.0132 11.3136C13.6733 10.8352 13.1823 10.4776 12.6145 10.2949C12.0467 10.1122 11.4331 10.1145 10.8668 10.3013C10.3004 10.4882 9.81217 10.8494 9.476 11.3303M10.0007 13.3219V13.32C10.0007 12.5986 9.81 11.9201 9.476 11.3303M10.0007 13.3219V13.3906C8.71765 14.1419 7.24774 14.5377 5.75 14.5352C4.196 14.5352 2.742 14.1172 1.50067 13.3906L1.5 13.32C1.49949 12.4026 1.81308 11.5111 2.39132 10.786C2.96957 10.061 3.77958 9.54371 4.69366 9.31568C5.60774 9.08765 6.57388 9.16187 7.43978 9.52664C8.30567 9.8914 9.02206 10.526 9.476 11.3303M8.00067 5.05653C8.00067 5.63666 7.76361 6.19303 7.34166 6.60325C6.9197 7.01346 6.3474 7.24392 5.75067 7.24392C5.15393 7.24392 4.58163 7.01346 4.15968 6.60325C3.73772 6.19303 3.50067 5.63666 3.50067 5.05653C3.50067 4.4764 3.73772 3.92003 4.15968 3.50981C4.58163 3.0996 5.15393 2.86914 5.75067 2.86914C6.3474 2.86914 6.9197 3.0996 7.34166 3.50981C7.76361 3.92003 8.00067 4.4764 8.00067 5.05653ZM13.5007 6.51479C13.5007 6.966 13.3163 7.39873 12.9881 7.71779C12.6599 8.03685 12.2148 8.21609 11.7507 8.21609C11.2865 8.21609 10.8414 8.03685 10.5132 7.71779C10.185 7.39873 10.0007 6.966 10.0007 6.51479C10.0007 6.06357 10.185 5.63084 10.5132 5.31179C10.8414 4.99273 11.2865 4.81349 11.7507 4.81349C12.2148 4.81349 12.6599 4.99273 12.9881 5.31179C13.3163 5.63084 13.5007 6.06357 13.5007 6.51479Z" stroke="black" stroke-width="1.5" stroke-linecap="round" stroke-linejoin="round"/>
</svg>
